<?xml version="1.0" encoding="UTF-8" standalone="no"?>
<svg
   xmlns:dc="http://purl.org/dc/elements/1.1/"
   xmlns:cc="http://creativecommons.org/ns#"
   xmlns:rdf="http://www.w3.org/1999/02/22-rdf-syntax-ns#"
   xmlns:svg="http://www.w3.org/2000/svg"
   xmlns="http://www.w3.org/2000/svg"
   xmlns:sodipodi="http://sodipodi.sourceforge.net/DTD/sodipodi-0.dtd"
   xmlns:inkscape="http://www.inkscape.org/namespaces/inkscape"
   width="210mm"
   height="90mm"
   viewBox="0 0 210 90"
   version="1.1"
   id="svg3051"
   sodipodi:docname="Scart Splitter Case with Paths.svg"
   inkscape:version="1.0 (4035a4fb49, 2020-05-01)">
  <sodipodi:namedview
     inkscape:document-rotation="0"
     pagecolor="#ffffff"
     bordercolor="#666666"
     borderopacity="1"
     objecttolerance="10"
     gridtolerance="10"
     guidetolerance="10"
     inkscape:pageopacity="0"
     inkscape:pageshadow="2"
     inkscape:window-width="1920"
     inkscape:window-height="1017"
     id="namedview58"
     showgrid="false"
     inkscape:zoom="1.5349983"
     inkscape:cx="325.60518"
     inkscape:cy="201.73653"
     inkscape:window-x="-8"
     inkscape:window-y="-8"
     inkscape:window-maximized="1"
     inkscape:current-layer="svg3051" />
  <defs
     id="defs3045">
    <filter
       style="color-interpolation-filters:sRGB"
       id="filter2726-3"
       x="-8.9397827e-07"
       width="1.0000018"
       y="-1.8245803e-06"
       height="1.0000036">
      <feGaussianBlur
         stdDeviation="0.00069091797"
         id="feGaussianBlur2728-6" />
    </filter>
    <filter
       height="1.0000036"
       y="-1.8245803e-06"
       width="1.0000018"
       x="-8.9397827e-07"
       id="filter2726-3-3"
       style="color-interpolation-filters:sRGB">
      <feGaussianBlur
         id="feGaussianBlur2728-6-4"
         stdDeviation="0.00069091797" />
    </filter>
    <filter
       height="1.0000036"
       y="-1.8245803e-06"
       width="1.0000018"
       x="-8.9397827e-07"
       id="filter2726"
       style="color-interpolation-filters:sRGB">
      <feGaussianBlur
         id="feGaussianBlur2728"
         stdDeviation="0.00069091797" />
    </filter>
  </defs>
  <metadata
     id="metadata3048">
    <rdf:RDF>
      <cc:Work
         rdf:about="">
        <dc:format>image/svg+xml</dc:format>
        <dc:type
           rdf:resource="http://purl.org/dc/dcmitype/StillImage" />
        <dc:title></dc:title>
      </cc:Work>
    </rdf:RDF>
  </metadata>
  <g
     id="g3917">
    <path
       id="circle658"
       style="fill:none;fill-opacity:0;stroke:#000001;stroke-width:0.0248709;stroke-linecap:round;stroke-linejoin:round;stroke-miterlimit:4;stroke-dasharray:none;stroke-opacity:1"
       d="m 29.119929,64.351257 a 1.6215028,1.6215028 0 0 1 -1.621503,1.621503 1.6215028,1.6215028 0 0 1 -1.621502,-1.621503 1.6215028,1.6215028 0 0 1 1.621502,-1.621502 1.6215028,1.6215028 0 0 1 1.621503,1.621502" />
    <path
       id="circle660"
       style="fill:#c2c2c2;fill-opacity:0;stroke:#000000;stroke-width:0.0248709;stroke-linecap:round;stroke-linejoin:round;stroke-miterlimit:4;stroke-dasharray:none;stroke-opacity:1"
       d="m 86.269925,64.351257 a 1.6215028,1.6215028 0 0 1 -1.621503,1.621503 1.6215028,1.6215028 0 0 1 -1.621503,-1.621503 1.6215028,1.6215028 0 0 1 1.621503,-1.621502 1.6215028,1.6215028 0 0 1 1.621503,1.621502" />
    <path
       id="circle662"
       style="fill:#c2c2c2;fill-opacity:0;stroke:#000000;stroke-width:0.0248709;stroke-linecap:round;stroke-linejoin:round;stroke-miterlimit:4;stroke-dasharray:none;stroke-opacity:1"
       d="m 86.269925,16.091255 a 1.6215028,1.6215028 0 0 1 -1.621503,1.621503 1.6215028,1.6215028 0 0 1 -1.621503,-1.621503 1.6215028,1.6215028 0 0 1 1.621503,-1.621503 1.6215028,1.6215028 0 0 1 1.621503,1.621503" />
    <path
       id="circle664"
       style="fill:#c2c2c2;fill-opacity:0;stroke:#000000;stroke-width:0.0248709;stroke-linecap:round;stroke-linejoin:round;stroke-miterlimit:4;stroke-dasharray:none;stroke-opacity:1"
       d="m 29.119929,16.091255 a 1.6215028,1.6215028 0 0 1 -1.621503,1.621503 1.6215028,1.6215028 0 0 1 -1.621502,-1.621503 1.6215028,1.6215028 0 0 1 1.621502,-1.621503 1.6215028,1.6215028 0 0 1 1.621503,1.621503" />
    <path
       id="rect1681"
       style="fill:none;stroke:#000000;stroke-width:0.0506071;stroke-miterlimit:10;stroke-dasharray:none"
       d="m 20.174961,8.9516106 h 71.796933 c 4.350605,0 7.853078,3.5024734 7.853078,7.8530784 v 56.858754 c 0,4.350606 -3.502473,7.853078 -7.853078,7.853078 H 20.174961 c -4.350606,0 -7.853079,-3.502472 -7.853079,-7.853078 V 16.804689 c 0,-4.350605 3.502473,-7.8530784 7.853079,-7.8530784 z" />
  </g>
  <g
     aria-label="INPUT"
     id="text963"
     style="font-style:normal;font-variant:normal;font-weight:normal;font-stretch:normal;font-size:10.5833px;line-height:1.25;font-family:'Karmatic Arcade';-inkscape-font-specification:'Karmatic Arcade, Normal';font-variant-ligatures:normal;font-variant-caps:normal;font-variant-numeric:normal;font-variant-east-asian:normal;fill:#ff0000;fill-opacity:1;stroke:none;stroke-width:0.264584;stroke-opacity:1">
    <path
       d="m 40.562712,77.870587 v 1.02319 h -1.038693 v -1.02319 z m -1.038693,0 v -1.012855 h 1.038693 v 1.012855 z m 0,-1.012855 v -1.038693 h 1.038693 v 1.038693 z m 0,-1.038693 v -1.033525 h 1.038693 v 1.033525 z m 0,-1.033525 v -1.038693 h 1.038693 v 1.038693 z m 0,-1.038693 v -1.033526 h 1.038693 v 1.033526 z m 0,-1.033526 v -1.038693 h 1.038693 v 1.038693 z m 0,-1.038693 v -1.038693 h 1.038693 v 1.038693 z m 0,-1.038693 v -1.012854 h 1.038693 v 1.012854 z m -1.012854,-1.012854 v -1.038693 h 1.012854 v 1.038693 z m 1.012854,8.247532 v 1.02319 h -1.012854 v -1.02319 z m -1.012854,0 v -1.012855 h 1.012854 v 1.012855 z m 0,-1.012855 v -1.038693 h 1.012854 v 1.038693 z m 0,-1.038693 v -1.033525 h 1.012854 v 1.033525 z m 0,-1.033525 v -1.038693 h 1.012854 v 1.038693 z m 0,-1.038693 v -1.033526 h 1.012854 v 1.033526 z m 0,-1.033526 v -1.038693 h 1.012854 v 1.038693 z m 0,-1.038693 v -1.038693 h 1.012854 v 1.038693 z m 0,-1.038693 v -1.012854 h 1.012854 v 1.012854 z m -1.038693,-1.012854 v -1.038693 h 1.038693 v 1.038693 z m 1.038693,8.247532 v 1.02319 h -1.038693 v -1.02319 z m -1.038693,0 v -1.012855 h 1.038693 v 1.012855 z m -1.033526,-8.247532 v -1.038693 h 1.033526 v 1.038693 z m 1.033526,8.247532 v 1.02319 h -1.033526 v -1.02319 z m -1.033526,0 v -1.012855 h 1.033526 v 1.012855 z m -1.038693,-8.247532 v -1.038693 h 1.038693 v 1.038693 z m 0,8.247532 v -1.012855 h 1.038693 v 1.012855 z m 0,-1.012855 v -1.038693 h 1.038693 v 1.038693 z m 0,-1.038693 v -1.033525 h 1.038693 v 1.033525 z m 0,-1.033525 v -1.038693 h 1.038693 v 1.038693 z m 0,-1.038693 v -1.033526 h 1.038693 v 1.033526 z m 0,-1.033526 v -1.038693 h 1.038693 v 1.038693 z m 0,-1.038693 v -1.038693 h 1.038693 v 1.038693 z m 0,-1.038693 v -1.012854 h 1.038693 v 1.012854 z"
       style="font-style:normal;font-variant:normal;font-weight:normal;font-stretch:normal;font-size:10.5833px;font-family:'Karmatic Arcade';-inkscape-font-specification:'Karmatic Arcade, Normal';font-variant-ligatures:normal;font-variant-caps:normal;font-variant-numeric:normal;font-variant-east-asian:normal;fill:#ff0000;fill-opacity:1;stroke:none;stroke-width:0.264584;stroke-opacity:1"
       id="path929" />
    <path
       d="m 49.859273,77.870587 v 1.02319 h -1.018022 v -1.02319 z m -1.018022,0 v -1.012855 h 1.018022 v 1.012855 z m 0,-1.012855 v -1.038693 h 1.018022 v 1.038693 z m 0,-1.038693 v -1.033525 h 1.018022 v 1.033525 z m 0,-1.033525 v -1.038693 h 1.018022 v 1.038693 z m 0,-1.038693 v -1.033526 h 1.018022 v 1.033526 z m 0,-1.033526 v -1.038693 h 1.018022 v 1.038693 z m 0,-1.038693 v -1.038693 h 1.018022 v 1.038693 z m 0,-1.038693 v -1.012854 h 1.018022 v 1.012854 z m -1.033526,-1.012854 v -1.038693 h 1.033526 v 1.038693 z m 1.033526,8.247532 v 1.02319 h -1.033526 v -1.02319 z m -1.033526,0 v -1.012855 h 1.033526 v 1.012855 z m 0,-1.012855 v -1.038693 h 1.033526 v 1.038693 z m 0,-1.038693 v -1.033525 h 1.033526 v 1.033525 z m 0,-1.033525 v -1.038693 h 1.033526 v 1.038693 z m 0,-1.038693 v -1.033526 h 1.033526 v 1.033526 z m 0,-1.033526 v -1.038693 h 1.033526 v 1.038693 z m 0,-1.038693 v -1.038693 h 1.033526 v 1.038693 z m 0,-1.038693 v -1.012854 h 1.033526 v 1.012854 z m -1.038693,-1.012854 v -1.038693 h 1.038693 v 1.038693 z m 1.038693,8.247532 v 1.02319 h -1.038693 v -1.02319 z m -1.038693,0 v -1.012855 h 1.038693 v 1.012855 z m -1.033525,-8.247532 v -1.038693 h 1.033525 v 1.038693 z m 1.033525,8.247532 v 1.02319 h -1.033525 v -1.02319 z m -1.033525,0 v -1.012855 h 1.033525 v 1.012855 z m -1.038693,-8.247532 v -1.038693 h 1.038693 v 1.038693 z m 0,8.247532 v -1.012855 h 1.038693 v 1.012855 z m 0,-1.012855 v -1.038693 h 1.038693 v 1.038693 z m 0,-1.038693 v -1.033525 h 1.038693 v 1.033525 z m 0,-3.105744 v -1.038693 h 1.038693 v 1.038693 z m 0,-1.038693 v -1.038693 h 1.038693 v 1.038693 z m 0,-1.038693 v -1.012854 h 1.038693 v 1.012854 z m 0,7.234678 v 1.02319 h -1.038693 v -1.02319 z m -1.038693,0 v -1.012855 h 1.038693 v 1.012855 z m 0,-1.012855 v -1.038693 h 1.038693 v 1.038693 z m 0,-1.038693 v -1.033525 h 1.038693 v 1.033525 z m 0,-1.033525 v -1.038693 h 1.038693 v 1.038693 z m 0,-3.110912 v -1.038693 h 1.038693 v 1.038693 z m 0,-1.038693 v -1.012854 h 1.038693 v 1.012854 z m -1.012855,-1.012854 v -1.038693 h 1.012855 v 1.038693 z m 1.012855,8.247532 v 1.02319 h -1.012855 v -1.02319 z m -1.012855,0 v -1.012855 h 1.012855 v 1.012855 z m 0,-1.012855 v -1.038693 h 1.012855 v 1.038693 z m 0,-1.038693 v -1.033525 h 1.012855 v 1.033525 z m 0,-1.033525 v -1.038693 h 1.012855 v 1.038693 z m 0,-1.038693 v -1.033526 h 1.012855 v 1.033526 z m 0,-3.110912 v -1.012854 h 1.012855 v 1.012854 z m -1.038693,-1.012854 v -1.038693 h 1.038693 v 1.038693 z m 1.038693,8.247532 v 1.02319 h -1.038693 v -1.02319 z m -1.038693,0 v -1.012855 h 1.038693 v 1.012855 z m -1.033525,-8.247532 v -1.038693 h 1.033525 v 1.038693 z m 1.033525,8.247532 v 1.02319 h -1.033525 v -1.02319 z m -1.033525,0 v -1.012855 h 1.033525 v 1.012855 z m -1.038693,-8.247532 v -1.038693 h 1.038693 v 1.038693 z m 0,8.247532 v -1.012855 h 1.038693 v 1.012855 z m 0,-1.012855 v -1.038693 h 1.038693 v 1.038693 z m 0,-1.038693 v -1.033525 h 1.038693 v 1.033525 z m 0,-1.033525 v -1.038693 h 1.038693 v 1.038693 z m 0,-1.038693 v -1.033526 h 1.038693 v 1.033526 z m 0,-1.033526 v -1.038693 h 1.038693 v 1.038693 z m 0,-1.038693 v -1.038693 h 1.038693 v 1.038693 z m 0,-1.038693 v -1.012854 h 1.038693 v 1.012854 z"
       style="font-style:normal;font-variant:normal;font-weight:normal;font-stretch:normal;font-size:10.5833px;font-family:'Karmatic Arcade';-inkscape-font-specification:'Karmatic Arcade, Normal';font-variant-ligatures:normal;font-variant-caps:normal;font-variant-numeric:normal;font-variant-east-asian:normal;fill:#ff0000;fill-opacity:1;stroke:none;stroke-width:0.264584;stroke-opacity:1"
       id="path931" />
    <path
       d="m 58.142978,75.819039 v -1.033525 h 1.018023 v 1.033525 z m 0,-1.033525 v -1.038693 h 1.018023 v 1.038693 z m 0,-1.038693 v -1.033526 h 1.018023 v 1.033526 z m 0,-1.033526 v -1.038693 h 1.018023 v 1.038693 z m 0,-1.038693 v -1.038693 h 1.018023 v 1.038693 z m -1.033525,5.18313 v -1.038693 h 1.033525 v 1.038693 z m 0,-1.038693 v -1.033525 h 1.033525 v 1.033525 z m 0,-1.033525 v -1.038693 h 1.033525 v 1.038693 z m 0,-1.038693 v -1.033526 h 1.033525 v 1.033526 z m 0,-1.033526 v -1.038693 h 1.033525 v 1.038693 z m 0,-1.038693 v -1.038693 h 1.033525 v 1.038693 z m 0,-1.038693 v -1.012854 h 1.033525 v 1.012854 z M 56.07076,69.623055 v -1.038693 h 1.038693 v 1.038693 z m 0,7.234677 v -1.038693 h 1.038693 v 1.038693 z m 0,-1.038693 v -1.033525 h 1.038693 v 1.033525 z m 0,-1.033525 v -1.038693 h 1.038693 v 1.038693 z m 0,-4.149605 v -1.012854 h 1.038693 v 1.012854 z m -1.033525,-1.012854 v -1.038693 h 1.033525 v 1.038693 z m 0,7.234677 v -1.038693 h 1.033525 v 1.038693 z m 0,-1.038693 v -1.033525 h 1.033525 v 1.033525 z m -1.038693,-6.195984 v -1.038693 h 1.038693 v 1.038693 z m 0,7.234677 v -1.038693 h 1.038693 v 1.038693 z m 0,-1.038693 v -1.033525 h 1.038693 v 1.033525 z m 0,-2.072218 v -1.033526 h 1.038693 v 1.033526 z m 0,-1.033526 v -1.038693 h 1.038693 v 1.038693 z m 0,-1.038693 v -1.038693 h 1.038693 v 1.038693 z m -1.038693,-2.051547 v -1.038693 h 1.038693 v 1.038693 z m 1.038693,8.247532 v 1.02319 h -1.038693 v -1.02319 z m -1.038693,0 v -1.012855 h 1.038693 v 1.012855 z m 0,-1.012855 v -1.038693 h 1.038693 v 1.038693 z m 0,-1.038693 v -1.033525 h 1.038693 v 1.033525 z m 0,-2.072218 v -1.033526 h 1.038693 v 1.033526 z m 0,-1.033526 v -1.038693 h 1.038693 v 1.038693 z m 0,-1.038693 v -1.038693 h 1.038693 v 1.038693 z m -1.012855,-2.051547 v -1.038693 h 1.012855 v 1.038693 z m 1.012855,8.247532 v 1.02319 h -1.012855 v -1.02319 z m -1.012855,0 v -1.012855 h 1.012855 v 1.012855 z m 0,-1.012855 v -1.038693 h 1.012855 v 1.038693 z m 0,-1.038693 v -1.033525 h 1.012855 v 1.033525 z m 0,-2.072218 v -1.033526 h 1.012855 v 1.033526 z m 0,-1.033526 v -1.038693 h 1.012855 v 1.038693 z m 0,-1.038693 v -1.038693 h 1.012855 v 1.038693 z m -1.038693,-2.051547 v -1.038693 h 1.038693 v 1.038693 z m 1.038693,8.247532 v 1.02319 h -1.038693 v -1.02319 z m -1.038693,0 v -1.012855 h 1.038693 v 1.012855 z m -1.033526,-8.247532 v -1.038693 h 1.033526 v 1.038693 z m 1.033526,8.247532 v 1.02319 h -1.033526 v -1.02319 z m -1.033526,0 v -1.012855 h 1.033526 v 1.012855 z m -1.038693,-8.247532 v -1.038693 h 1.038693 v 1.038693 z m 0,8.247532 v -1.012855 h 1.038693 v 1.012855 z m 0,-1.012855 v -1.038693 h 1.038693 v 1.038693 z m 0,-1.038693 v -1.033525 h 1.038693 v 1.033525 z m 0,-1.033525 v -1.038693 h 1.038693 v 1.038693 z m 0,-1.038693 v -1.033526 h 1.038693 v 1.033526 z m 0,-1.033526 v -1.038693 h 1.038693 v 1.038693 z m 0,-1.038693 v -1.038693 h 1.038693 v 1.038693 z m 0,-1.038693 v -1.012854 h 1.038693 v 1.012854 z"
       style="font-style:normal;font-variant:normal;font-weight:normal;font-stretch:normal;font-size:10.5833px;font-family:'Karmatic Arcade';-inkscape-font-specification:'Karmatic Arcade, Normal';font-variant-ligatures:normal;font-variant-caps:normal;font-variant-numeric:normal;font-variant-east-asian:normal;fill:#ff0000;fill-opacity:1;stroke:none;stroke-width:0.264584;stroke-opacity:1"
       id="path933" />
    <path
       d="m 67.444707,77.870587 v -1.012855 h 1.018023 v 1.012855 z m 0,-1.012855 v -1.038693 h 1.018023 v 1.038693 z m 0,-1.038693 v -1.033525 h 1.018023 v 1.033525 z m 0,-1.033525 v -1.038693 h 1.018023 v 1.038693 z m 0,-1.038693 v -1.033526 h 1.018023 v 1.033526 z m 0,-1.033526 v -1.038693 h 1.018023 v 1.038693 z m 0,-1.038693 v -1.038693 h 1.018023 v 1.038693 z m 0,-1.038693 v -1.012854 h 1.018023 v 1.012854 z m -1.033525,-1.012854 v -1.038693 h 1.033525 v 1.038693 z m 1.033525,8.247532 v 1.02319 h -1.033525 v -1.02319 z m -1.033525,0 v -1.012855 h 1.033525 v 1.012855 z m 0,-1.012855 v -1.038693 h 1.033525 v 1.038693 z m 0,-1.038693 v -1.033525 h 1.033525 v 1.033525 z m 0,-1.033525 v -1.038693 h 1.033525 v 1.038693 z m 0,-1.038693 v -1.033526 h 1.033525 v 1.033526 z m 0,-1.033526 v -1.038693 h 1.033525 v 1.038693 z m 0,-1.038693 v -1.038693 h 1.033525 v 1.038693 z m 0,-1.038693 v -1.012854 h 1.033525 v 1.012854 z m -1.038693,-1.012854 v -1.038693 h 1.038693 v 1.038693 z m 1.038693,8.247532 v 1.02319 h -1.038693 v -1.02319 z m -1.038693,0 v -1.012855 h 1.038693 v 1.012855 z m 0,-1.012855 v -1.038693 h 1.038693 v 1.038693 z m -1.033525,-7.234677 v -1.038693 h 1.033525 v 1.038693 z m 1.033525,8.247532 v 1.02319 h -1.033525 v -1.02319 z m -1.033525,0 v -1.012855 h 1.033525 v 1.012855 z m -1.038693,-8.247532 v -1.038693 h 1.038693 v 1.038693 z m 1.038693,8.247532 v 1.02319 h -1.038693 v -1.02319 z m -1.038693,0 v -1.012855 h 1.038693 v 1.012855 z m 0,-2.051548 v -1.033525 h 1.038693 v 1.033525 z m 0,-1.033525 v -1.038693 h 1.038693 v 1.038693 z m 0,-1.038693 v -1.033526 h 1.038693 v 1.033526 z m 0,-1.033526 v -1.038693 h 1.038693 v 1.038693 z m 0,-1.038693 v -1.038693 h 1.038693 v 1.038693 z m 0,-1.038693 v -1.012854 h 1.038693 v 1.012854 z m 0,7.234678 v 1.02319 h -1.038693 v -1.02319 z m -1.038693,0 v -1.012855 h 1.038693 v 1.012855 z m 0,-2.051548 v -1.033525 h 1.038693 v 1.033525 z m 0,-1.033525 v -1.038693 h 1.038693 v 1.038693 z m 0,-1.038693 v -1.033526 h 1.038693 v 1.033526 z m 0,-1.033526 v -1.038693 h 1.038693 v 1.038693 z m 0,-1.038693 v -1.038693 h 1.038693 v 1.038693 z m 0,-1.038693 v -1.012854 h 1.038693 v 1.012854 z m -1.012855,-1.012854 v -1.038693 h 1.012855 v 1.038693 z m 1.012855,8.247532 v 1.02319 h -1.012855 v -1.02319 z m -1.012855,0 v -1.012855 h 1.012855 v 1.012855 z m 0,-2.051548 v -1.033525 h 1.012855 v 1.033525 z m 0,-1.033525 v -1.038693 h 1.012855 v 1.038693 z m 0,-1.038693 v -1.033526 h 1.012855 v 1.033526 z m 0,-1.033526 v -1.038693 h 1.012855 v 1.038693 z m 0,-1.038693 v -1.038693 h 1.012855 v 1.038693 z m 0,-1.038693 v -1.012854 h 1.012855 v 1.012854 z M 60.21003,69.623055 v -1.038693 h 1.038693 v 1.038693 z m 1.038693,8.247532 v 1.02319 H 60.21003 v -1.02319 z m -1.038693,0 v -1.012855 h 1.038693 v 1.012855 z m -1.033525,-8.247532 v -1.038693 h 1.033525 v 1.038693 z m 0,8.247532 v -1.012855 h 1.033525 v 1.012855 z m 0,-1.012855 v -1.038693 h 1.033525 v 1.038693 z m -1.038693,-7.234677 v -1.038693 h 1.038693 v 1.038693 z m 0,7.234677 v -1.038693 h 1.038693 v 1.038693 z m 0,-1.038693 v -1.033525 h 1.038693 v 1.033525 z m 0,-1.033525 v -1.038693 h 1.038693 v 1.038693 z m 0,-1.038693 v -1.033526 h 1.038693 v 1.033526 z m 0,-1.033526 v -1.038693 h 1.038693 v 1.038693 z m 0,-1.038693 v -1.038693 h 1.038693 v 1.038693 z m 0,-1.038693 v -1.012854 h 1.038693 v 1.012854 z"
       style="font-style:normal;font-variant:normal;font-weight:normal;font-stretch:normal;font-size:10.5833px;font-family:'Karmatic Arcade';-inkscape-font-specification:'Karmatic Arcade, Normal';font-variant-ligatures:normal;font-variant-caps:normal;font-variant-numeric:normal;font-variant-east-asian:normal;fill:#ff0000;fill-opacity:1;stroke:none;stroke-width:0.264584;stroke-opacity:1"
       id="path935" />
    <path
       d="m 75.712911,72.713295 v -1.038693 h 1.033526 v 1.038693 z m 0,-1.038693 v -1.038693 h 1.033526 v 1.038693 z m 0,-1.038693 v -1.012854 h 1.033526 v 1.012854 z m -1.038693,-1.012854 v -1.038693 h 1.038693 v 1.038693 z m 0,3.09024 v -1.038693 h 1.038693 v 1.038693 z m 0,-1.038693 v -1.038693 h 1.038693 v 1.038693 z m 0,-1.038693 v -1.012854 h 1.038693 v 1.012854 z m -1.033525,-1.012854 v -1.038693 h 1.033525 v 1.038693 z m 1.033525,8.247532 v 1.02319 h -1.033525 v -1.02319 z m -1.033525,0 v -1.012855 h 1.033525 v 1.012855 z m 0,-1.012855 v -1.038693 h 1.033525 v 1.038693 z m 0,-1.038693 v -1.033525 h 1.033525 v 1.033525 z m 0,-1.033525 v -1.038693 h 1.033525 v 1.038693 z m 0,-1.038693 v -1.033526 h 1.033525 v 1.033526 z m 0,-1.033526 v -1.038693 h 1.033525 v 1.038693 z m 0,-1.038693 v -1.038693 h 1.033525 v 1.038693 z M 72.602,69.623055 v -1.038693 h 1.038693 v 1.038693 z m 1.038693,8.247532 v 1.02319 H 72.602 v -1.02319 z m -1.038693,0 v -1.012855 h 1.038693 v 1.012855 z m 0,-1.012855 v -1.038693 h 1.038693 v 1.038693 z m 0,-1.038693 v -1.033525 h 1.038693 v 1.033525 z m 0,-1.033525 v -1.038693 h 1.038693 v 1.038693 z m 0,-1.038693 v -1.033526 h 1.038693 v 1.033526 z m 0,-1.033526 v -1.038693 h 1.038693 v 1.038693 z m 0,-1.038693 v -1.038693 h 1.038693 v 1.038693 z M 71.563307,69.623055 V 68.584362 H 72.602 v 1.038693 z M 72.602,77.870587 v 1.02319 h -1.038693 v -1.02319 z m -1.038693,0 V 76.857732 H 72.602 v 1.012855 z m -1.012855,-8.247532 v -1.038693 h 1.012855 v 1.038693 z m 1.012855,8.247532 v 1.02319 h -1.012855 v -1.02319 z m -1.012855,0 v -1.012855 h 1.012855 v 1.012855 z m -1.038693,-8.247532 v -1.038693 h 1.038693 v 1.038693 z m 0,8.247532 v -1.012855 h 1.038693 v 1.012855 z m 0,-1.012855 v -1.038693 h 1.038693 v 1.038693 z m 0,-1.038693 v -1.033525 h 1.038693 v 1.033525 z m 0,-1.033525 v -1.038693 h 1.038693 v 1.038693 z m 0,-1.038693 v -1.033526 h 1.038693 v 1.033526 z m 0,-1.033526 v -1.038693 h 1.038693 v 1.038693 z m 0,-1.038693 v -1.038693 h 1.038693 v 1.038693 z m -1.033525,-2.051547 v -1.038693 h 1.033525 v 1.038693 z m 0,2.051547 v -1.038693 h 1.033525 v 1.038693 z m -1.038693,-2.051547 v -1.038693 h 1.038693 v 1.038693 z m 0,2.051547 v -1.038693 h 1.038693 v 1.038693 z m 0,-1.038693 v -1.012854 h 1.038693 v 1.012854 z"
       style="font-style:normal;font-variant:normal;font-weight:normal;font-stretch:normal;font-size:10.5833px;font-family:'Karmatic Arcade';-inkscape-font-specification:'Karmatic Arcade, Normal';font-variant-ligatures:normal;font-variant-caps:normal;font-variant-numeric:normal;font-variant-east-asian:normal;fill:#ff0000;fill-opacity:1;stroke:none;stroke-width:0.264584;stroke-opacity:1"
       id="path937" />
  </g>
  <g
     id="g3925">
    <g
       aria-label="ON     OFF"
       transform="matrix(-0.00254,0,0,-0.00254,133.63541,104.85433)"
       id="text2704-2"
       style="font-style:normal;font-weight:normal;font-size:4166.67px;line-height:1.25;font-family:sans-serif;fill:#000000;fill-opacity:1;stroke:none;stroke-width:104.167;filter:url(#filter2726-3)">
      <path
         d="m 31251.805,36235.447 q 51.88,59.815 80.566,148.316 28.687,88.501 28.687,202.026 0,110.474 -28.077,199.585 -28.076,89.111 -81.176,149.536 -55.542,63.477 -130.005,93.994 -73.853,29.908 -162.964,29.908 -92.163,0 -166.016,-31.128 -73.852,-31.128 -126.953,-92.774 -52.49,-60.425 -80.566,-148.926 -28.076,-88.501 -28.076,-200.195 0,-114.746 28.076,-201.416 28.686,-86.67 81.177,-148.926 52.49,-60.425 126.342,-91.552 74.463,-31.739 166.016,-31.739 92.773,0 167.236,32.349 74.463,32.349 125.733,90.942 z m -16.48,350.342 q 0,-90.332 -19.531,-159.912 -19.531,-69.58 -54.932,-115.356 -36.01,-46.998 -87.28,-70.191 -50.659,-23.804 -114.136,-23.804 -65.918,0 -115.356,23.194 -48.828,22.583 -86.67,70.801 -36.011,46.386 -55.542,116.577 -18.921,70.19 -18.921,158.691 0,178.833 75.073,274.048 75.074,94.604 201.416,94.604 126.343,0 200.806,-94.604 75.073,-95.215 75.073,-274.048 z"
         style="font-style:normal;font-variant:normal;font-weight:normal;font-stretch:normal;font-size:1250px;font-family:Tahoma;-inkscape-font-specification:'Tahoma, Normal';font-variant-ligatures:normal;font-variant-caps:normal;font-variant-numeric:normal;font-variant-east-asian:normal;fill:#ff0000;fill-opacity:1;stroke-width:104.167"
         id="path940" />
      <path
         d="m 32142.918,37039.891 h -135.498 l -401.611,-783.692 v 783.692 h -112.915 v -908.814 h 171.508 l 365.601,719.605 v -719.605 h 112.915 z"
         style="font-style:normal;font-variant:normal;font-weight:normal;font-stretch:normal;font-size:1250px;font-family:Tahoma;-inkscape-font-specification:'Tahoma, Normal';font-variant-ligatures:normal;font-variant-caps:normal;font-variant-numeric:normal;font-variant-east-asian:normal;fill:#ff0000;fill-opacity:1;stroke-width:104.167"
         id="path942" />
      <path
         d="m 34923.68,36235.447 q 51.88,59.815 80.566,148.316 28.687,88.501 28.687,202.026 0,110.474 -28.077,199.585 -28.076,89.111 -81.176,149.536 -55.542,63.477 -130.005,93.994 -73.853,29.908 -162.964,29.908 -92.163,0 -166.016,-31.128 -73.852,-31.128 -126.953,-92.774 -52.49,-60.425 -80.566,-148.926 -28.076,-88.501 -28.076,-200.195 0,-114.746 28.076,-201.416 28.686,-86.67 81.177,-148.926 52.49,-60.425 126.342,-91.552 74.463,-31.739 166.016,-31.739 92.773,0 167.236,32.349 74.463,32.349 125.733,90.942 z m -16.48,350.342 q 0,-90.332 -19.531,-159.912 -19.531,-69.58 -54.932,-115.356 -36.01,-46.998 -87.28,-70.191 -50.659,-23.804 -114.136,-23.804 -65.918,0 -115.356,23.194 -48.828,22.583 -86.67,70.801 -36.011,46.386 -55.542,116.577 -18.921,70.19 -18.921,158.691 0,178.833 75.073,274.048 75.074,94.604 201.416,94.604 126.343,0 200.806,-94.604 75.073,-95.215 75.073,-274.048 z"
         style="font-style:normal;font-variant:normal;font-weight:normal;font-stretch:normal;font-size:1250px;font-family:Tahoma;-inkscape-font-specification:'Tahoma, Normal';font-variant-ligatures:normal;font-variant-caps:normal;font-variant-numeric:normal;font-variant-east-asian:normal;fill:#ff0000;fill-opacity:1;stroke-width:104.167"
         id="path944" />
      <path
         d="m 35708.592,36238.499 h -422.974 v 256.348 h 405.274 v 107.422 h -405.274 v 437.622 h -120.849 v -908.814 h 543.823 z"
         style="font-style:normal;font-variant:normal;font-weight:normal;font-stretch:normal;font-size:1250px;font-family:Tahoma;-inkscape-font-specification:'Tahoma, Normal';font-variant-ligatures:normal;font-variant-caps:normal;font-variant-numeric:normal;font-variant-east-asian:normal;fill:#ff0000;fill-opacity:1;stroke-width:104.167"
         id="path946" />
      <path
         d="m 36360.447,36238.499 h -422.973 v 256.348 h 405.273 v 107.422 h -405.273 v 437.622 h -120.85 v -908.814 h 543.823 z"
         style="font-style:normal;font-variant:normal;font-weight:normal;font-stretch:normal;font-size:1250px;font-family:Tahoma;-inkscape-font-specification:'Tahoma, Normal';font-variant-ligatures:normal;font-variant-caps:normal;font-variant-numeric:normal;font-variant-east-asian:normal;fill:#ff0000;fill-opacity:1;stroke-width:104.167"
         id="path948" />
    </g>
    <g
       aria-label="5v"
       transform="matrix(-0.00254,0,0,-0.00254,133.63541,104.85433)"
       id="text2704-2-5"
       style="font-style:normal;font-weight:normal;font-size:4166.67px;line-height:1.25;font-family:sans-serif;fill:#000000;fill-opacity:1;stroke:none;stroke-width:104.167;filter:url(#filter2726-3-3)">
      <path
         d="m 27761.759,36750.584 q 0,65.918 -21.363,122.07 -20.751,56.153 -58.593,97.046 -38.452,41.504 -95.825,65.308 -56.763,23.804 -127.564,23.804 -65.308,0 -128.784,-14.649 -62.866,-14.038 -109.253,-37.231 v -128.785 h 8.545 q 14.038,10.376 40.283,23.804 26.245,12.818 57.983,24.414 36.011,12.818 65.918,20.142 29.908,6.714 67.139,6.714 36.621,0 71.411,-12.818 34.79,-13.427 59.815,-42.724 22.583,-26.856 34.179,-62.866 12.207,-36.011 12.207,-84.839 0,-48.218 -13.427,-79.346 -12.818,-31.128 -37.842,-51.27 -26.245,-23.193 -64.697,-32.348 -37.842,-9.766 -84.839,-9.766 -49.439,0 -99.488,7.935 -50.048,7.324 -79.956,14.038 v -468.14 h 498.658 v 106.812 h -380.86 v 241.699 q 21.973,-2.442 43.335,-3.662 21.363,-1.221 39.063,-1.221 69.58,0 117.798,11.597 48.217,11.596 92.773,45.166 45.166,34.179 68.97,85.449 24.414,51.27 24.414,133.667 z"
         style="font-style:normal;font-variant:normal;font-weight:normal;font-stretch:normal;font-size:1250px;font-family:Tahoma;-inkscape-font-specification:'Tahoma, Normal';font-variant-ligatures:normal;font-variant-caps:normal;font-variant-numeric:normal;font-variant-east-asian:normal;fill:#ff0000;fill-opacity:1;stroke-width:104.167"
         id="path951" />
      <path
         d="m 28447.184,36358.128 -256.958,681.763 h -103.15 l -255.127,-681.763 h 123.902 l 186.767,526.123 184.937,-526.123 z"
         style="font-style:normal;font-variant:normal;font-weight:normal;font-stretch:normal;font-size:1250px;font-family:Tahoma;-inkscape-font-specification:'Tahoma, Normal';font-variant-ligatures:normal;font-variant-caps:normal;font-variant-numeric:normal;font-variant-east-asian:normal;fill:#ff0000;fill-opacity:1;stroke-width:104.167"
         id="path953" />
    </g>
    <g
       aria-label="LPF"
       transform="matrix(-0.00254,0,0,-0.00254,133.63541,104.85433)"
       id="text2704"
       style="font-style:normal;font-weight:normal;font-size:4166.67px;line-height:1.25;font-family:sans-serif;fill:#000000;fill-opacity:1;stroke:none;stroke-width:104.167;filter:url(#filter2726)">
      <path
         d="m 32919.418,35826.727 h -526.733 v -908.814 h 120.849 v 801.392 h 405.884 z"
         style="font-style:normal;font-variant:normal;font-weight:normal;font-stretch:normal;font-size:1250px;font-family:Tahoma;-inkscape-font-specification:'Tahoma, Normal';font-variant-ligatures:normal;font-variant-caps:normal;font-variant-numeric:normal;font-variant-east-asian:normal;fill:#ff0000;fill-opacity:1;stroke-width:104.167"
         id="path956" />
      <path
         d="m 33588.974,35191.961 q 0,59.204 -21.363,112.305 -20.752,52.49 -57.983,89.721 -46.997,46.387 -110.474,70.191 -63.476,23.803 -160.522,23.803 h -102.539 v 338.746 h -120.85 v -908.814 h 228.272 q 80.566,0 137.329,13.428 56.762,13.428 100.097,43.335 50.66,34.79 79.346,88.501 28.687,53.1 28.687,128.784 z m -125.733,3.052 q 0,-46.997 -16.479,-81.787 -15.869,-34.79 -48.828,-56.763 -28.687,-18.921 -67.139,-26.856 -37.842,-7.934 -94.605,-7.934 h -100.097 v 363.159 h 82.397 q 73.242,0 118.408,-11.597 45.166,-12.207 75.074,-42.724 26.855,-27.466 39.062,-59.815 12.207,-32.348 12.207,-75.683 z"
         style="font-style:normal;font-variant:normal;font-weight:normal;font-stretch:normal;font-size:1250px;font-family:Tahoma;-inkscape-font-specification:'Tahoma, Normal';font-variant-ligatures:normal;font-variant-caps:normal;font-variant-numeric:normal;font-variant-east-asian:normal;fill:#ff0000;fill-opacity:1;stroke-width:104.167"
         id="path958" />
      <path
         d="m 34247.543,35025.335 h -422.974 v 256.348 h 405.274 v 107.421 h -405.274 v 437.623 h -120.849 v -908.814 h 543.823 z"
         style="font-style:normal;font-variant:normal;font-weight:normal;font-stretch:normal;font-size:1250px;font-family:Tahoma;-inkscape-font-specification:'Tahoma, Normal';font-variant-ligatures:normal;font-variant-caps:normal;font-variant-numeric:normal;font-variant-east-asian:normal;fill:#ff0000;fill-opacity:1;stroke-width:104.167"
         id="path960" />
    </g>
  </g>
  <g
     id="XMLID_1_"
     transform="matrix(-0.08568931,0,0,-0.08568931,177.20453,78.591264)"
     style="fill:#ff000a;fill-opacity:1">
    <path
       d="m 383.5,183.7 -33.2,-6.2 c -0.8,-0.2 -1.7,-0.9 -2,-1.7 l -10.2,-23.7 c -0.4,-0.7 -0.3,-1.9 0.2,-2.6 l 19.3,-28.2 c 0.5,-0.7 0.4,-1.7 -0.2,-2.3 l -24,-24 c -0.6,-0.6 -1.6,-0.7 -2.3,-0.2 l -28.6,19.7 c -0.7,0.5 -1.8,0.5 -2.6,0.2 l -23,-9.4 c -0.8,-0.3 -1.5,-1.1 -1.7,-1.9 L 268.8,69 c -0.1,-0.8 -0.9,-1.5 -1.8,-1.5 h -34.1 c -0.8,0 -1.6,0.7 -1.8,1.5 l -6.4,34.3 c -0.2,0.8 -0.9,1.7 -1.7,1.9 l -23,9.4 c -0.7,0.4 -1.9,0.3 -2.6,-0.2 L 168.8,94.7 c -0.7,-0.5 -1.7,-0.4 -2.3,0.2 L 142.4,119 c -0.6,0.6 -0.7,1.6 -0.2,2.3 l 19.3,28.2 c 0.5,0.7 0.5,1.8 0.2,2.6 l -10.2,23.7 c -0.3,0.8 -1.2,1.5 -2,1.7 l -33.1,6.2 c -0.8,0.2 -1.5,0.9 -1.5,1.8 v 34.1 c 0,0.8 0.7,1.6 1.5,1.8 l 32.3,6 c 0.8,0.1 1.7,0.9 1.9,1.7 l 10.1,25.2 c 0.4,0.7 0.3,1.9 -0.2,2.6 l -18.4,26.8 c -0.5,0.7 -0.4,1.7 0.2,2.3 l 24.1,24.1 c 0.6,0.6 1.6,0.7 2.3,0.2 l 26.3,-18 c 0.7,-0.5 1.8,-0.5 2.5,-0.1 l 11.6,6.2 c 0.7,0.4 1.6,0.1 1.9,-0.7 l 23.9,-57.8 c 0.3,-0.8 0,-1.7 -0.7,-2.2 l -2.9,-1.8 c -0.5,-0.3 -1.3,-0.9 -1.8,-1.4 -10.5,-6.7 -17.4,-18.4 -17.4,-31.8 0,-20.8 16.9,-37.7 37.7,-37.7 20.8,0 37.7,16.9 37.7,37.7 0,13.4 -6.9,25.1 -17.4,31.8 -0.6,0.5 -1.3,1.1 -1.8,1.4 l -2.9,1.8 c -0.7,0.4 -1,1.4 -0.7,2.2 l 23.9,57.8 c 0.3,0.8 1.2,1.1 1.9,0.7 l 11.6,-6.2 c 0.7,-0.4 1.8,-0.4 2.5,0.1 l 26.3,18 c 0.7,0.5 1.7,0.4 2.3,-0.2 L 357.3,286 c 0.6,-0.6 0.7,-1.6 0.2,-2.3 l -18.4,-26.8 c -0.5,-0.7 -0.6,-1.8 -0.2,-2.6 L 349,229.1 c 0.2,-0.8 1.1,-1.6 1.9,-1.7 l 32.3,-6 c 0.8,-0.1 1.5,-0.9 1.5,-1.8 v -34.1 c 0.3,-0.9 -0.4,-1.7 -1.2,-1.8"
       class="st0"
       id="XMLID_2_"
       style="fill:#ff000a;fill-opacity:1" />
    <path
       d="m 168.3,432.1 h 7.3 v -24.7 c 0,-8.9 -6.1,-11.9 -15.1,-11.9 -5.4,0 -9.4,1.4 -12.2,5.3 l 5.7,4.4 c 1.3,-2.1 3.1,-2.8 6.9,-2.8 5.2,0 7.4,1.2 7.4,4.6 v 3.8 h -10.1 c -7.8,0 -11.8,4.9 -11.8,10.7 0,6.3 4.7,11.1 12.8,11.1 4.9,0 7.4,-1.1 8.9,-3.6 h 0.1 v 3.1 z m 0,-12.7 c 0,5.6 -2.1,6.3 -8.1,6.3 -4.9,0 -6.9,-2.1 -6.9,-4.6 0,-2.6 2,-4.4 6.3,-4.4 h 8.7 z"
       class="st0"
       id="XMLID_3_"
       style="fill:#ff000a;fill-opacity:1" />
    <path
       d="m 183.6,432.1 h 7.3 v -21.8 c 0,-5.3 3.5,-7.6 7.1,-7.6 1.9,0 3.1,0.5 4.8,1.8 l 5.3,-6.3 c -2.2,-1.7 -4.6,-2.8 -7.6,-2.8 -3.9,0 -7.1,1.4 -9.4,4.3 H 191 v -3.9 h -7.3 v 36.3 z"
       class="st0"
       id="XMLID_6_"
       style="fill:#ff000a;fill-opacity:1" />
    <path
       d="m 229.8,432.1 h 7.3 v -50.9 h -7.3 v 18.5 c -2.7,-2.6 -5.6,-4.3 -9.4,-4.3 -4.4,0 -7.6,2 -9.7,4.7 -2,2.6 -2.6,4.9 -2.6,13.8 0,8.9 0.6,11.3 2.6,13.9 2.1,2.7 5.3,4.7 9.7,4.7 3.7,0 7.1,-1.7 9.4,-4.2 z m -7.2,-29.4 c 6.8,0 7.1,6 7.1,11.2 0,5.3 -0.4,11.3 -7.1,11.3 -6.9,0 -7.2,-5.6 -7.2,-11.3 0,-5.5 0.4,-11.2 7.2,-11.2 z"
       class="st0"
       id="XMLID_7_"
       style="fill:#ff000a;fill-opacity:1" />
    <path
       id="XMLID_10_"
       style="fill:#ff000a;fill-opacity:1"
       d="m 264,395.9 -8.2,25.3 h -0.2 l -6.9,-25.3 H 241 l 11.5,36.2 h 6.5 l 7.5,-25.4 h 0.2 l 7.5,25.4 h 6.5 l 11.5,-36.2 h -7.7 l -6.9,25.3 h -0.1 l -8.3,-25.3 z"
       class="st0" />
    <path
       d="m 314.7,432.1 h 7.3 v -24.7 c 0,-8.9 -6.1,-11.9 -15.1,-11.9 -5.4,0 -9.4,1.4 -12.2,5.3 l 5.7,4.4 c 1.3,-2.1 3.1,-2.8 6.9,-2.8 5.2,0 7.4,1.2 7.4,4.6 v 3.8 h -10.1 c -7.8,0 -11.8,4.9 -11.8,10.7 0,6.3 4.7,11.1 12.8,11.1 4.9,0 7.4,-1.1 8.9,-3.6 h 0.1 z m 0,-12.7 c 0,5.6 -2.1,6.3 -8.1,6.3 -4.9,0 -6.9,-2.1 -6.9,-4.6 0,-2.6 2,-4.4 6.3,-4.4 h 8.7 z"
       class="st0"
       id="XMLID_11_"
       style="fill:#ff000a;fill-opacity:1" />
    <path
       d="m 330,432.1 h 7.3 v -21.8 c 0,-5.3 3.5,-7.6 7.1,-7.6 1.9,0 3.1,0.5 4.8,1.8 l 5.3,-6.3 c -2.2,-1.7 -4.6,-2.8 -7.6,-2.8 -3.9,0 -7.1,1.4 -9.4,4.3 h -0.1 v -3.9 H 330 Z"
       class="st0"
       id="XMLID_14_"
       style="fill:#ff000a;fill-opacity:1" />
    <path
       d="m 384.4,416.7 v -6 c 0,-9.4 -6.9,-15.3 -14.9,-15.3 -7,0 -14.9,4.6 -14.9,18.6 0,14.9 8.6,18.4 16.1,18.4 4.9,0 9.5,-1.7 13.1,-5.9 l -5.3,-4.5 c -2.1,2.2 -5.1,3.5 -7.9,3.5 -5,0 -8.6,-3 -8.6,-8.9 h 22.4 z m -22.6,-6 c 0.1,-5.5 3.4,-8.4 7.6,-8.4 4.3,0 7.4,2.9 7.6,8.4 z"
       class="st0"
       id="XMLID_15_"
       style="fill:#ff000a;fill-opacity:1" />
    <path
       d="m 76.3,356.7 c 0,7.9 1.1,10.9 3.9,13.9 2,2.2 5.4,4.6 11,4.6 5.6,0 9,-2.4 11,-4.6 2.8,-3.1 3.9,-6.1 3.9,-13.9 0,-7.8 -1.1,-10.8 -3.9,-13.9 -2,-2.2 -5.4,-4.6 -11,-4.6 -5.6,0 -9,2.4 -11,4.6 -2.7,3.2 -3.9,6.2 -3.9,13.9 m 22.6,0.1 c 0,5.2 -0.4,6.6 -1.8,8.6 -1.1,1.5 -3.4,2.6 -5.9,2.6 -2.5,0 -4.8,-1.1 -5.9,-2.6 -1.4,-1.9 -1.8,-3.4 -1.8,-8.6 0,-5.2 0.4,-6.6 1.8,-8.6 1.1,-1.5 3.4,-2.6 5.9,-2.6 2.5,0 4.8,1.1 5.9,2.6 1.4,1.9 1.8,3.3 1.8,8.6"
       class="st0"
       id="XMLID_18_"
       style="fill:#ff000a;fill-opacity:1" />
    <path
       d="m 176.1,359.5 v -6 c 0,-9.4 -6.9,-15.3 -14.9,-15.3 -7,0 -14.9,4.6 -14.9,18.6 0,14.9 8.6,18.4 16.1,18.4 4.9,0 9.5,-1.7 13.1,-5.9 l -5.3,-4.5 c -2.1,2.2 -5.1,3.5 -7.9,3.5 -5,0 -8.6,-3 -8.6,-8.9 h 22.4 z m -22.6,-6 c 0.1,-5.5 3.4,-8.4 7.6,-8.4 4.3,0 7.4,2.9 7.6,8.4 z"
       class="st0"
       id="XMLID_21_"
       style="fill:#ff000a;fill-opacity:1" />
    <path
       d="m 182.3,374.9 h 7.3 v -21.6 c 0,-4.9 3.1,-7.8 7.2,-7.8 4.1,0 7.1,2.9 7.1,7.8 v 21.6 h 7.3 v -24.1 c 0,-8.2 -6.4,-12.6 -12.1,-12.6 -3.9,0 -7.1,1.4 -9.4,4.3 h -0.1 v -3.9 h -7.3 z"
       class="st0"
       id="XMLID_24_"
       style="fill:#ff000a;fill-opacity:1" />
    <path
       d="m 230.9,368.8 c 4.6,4.4 10.1,6.5 15.9,6.5 8.4,0 15,-4.1 15,-11.1 0,-5.8 -3,-10.4 -10.5,-10.9 l -6,-0.4 c -3.6,-0.3 -4.8,-1.9 -4.8,-3.4 0,-2.5 1.6,-4.4 6.2,-4.4 3.9,0 6.9,1.4 9.7,3.4 l 4.5,-5.3 c -3.6,-3 -7.9,-4.9 -14.2,-4.9 -7.6,0 -13.5,3.8 -13.5,11.1 0,6.2 4.4,9.8 10.4,10.3 l 6.4,0.6 c 2.5,0.2 4.4,1 4.4,3.6 0,3.1 -3,4.6 -7.1,4.6 -4.9,0 -8.3,-1.6 -11.4,-4.6 z"
       class="st0"
       id="XMLID_25_"
       style="fill:#ff000a;fill-opacity:1" />
    <path
       d="m 266,356.7 c 0,7.9 1.1,10.9 3.9,13.9 2,2.2 5.4,4.6 11,4.6 5.6,0 9,-2.4 11,-4.6 2.8,-3.1 3.9,-6.1 3.9,-13.9 0,-7.8 -1.1,-10.8 -3.9,-13.9 -2,-2.2 -5.4,-4.6 -11,-4.6 -5.6,0 -9,2.4 -11,4.6 -2.8,3.2 -3.9,6.2 -3.9,13.9 m 22.6,0.1 c 0,5.2 -0.4,6.6 -1.8,8.6 -1.1,1.5 -3.4,2.6 -5.9,2.6 -2.5,0 -4.8,-1.1 -5.9,-2.6 -1.4,-1.9 -1.8,-3.4 -1.8,-8.6 0,-5.2 0.4,-6.6 1.8,-8.6 1.1,-1.5 3.4,-2.6 5.9,-2.6 2.5,0 4.8,1.1 5.9,2.6 1.3,1.9 1.8,3.3 1.8,8.6"
       class="st0"
       id="XMLID_26_"
       style="fill:#ff000a;fill-opacity:1" />
    <path
       d="m 302.1,362.7 c 0,8.2 6.4,12.6 12.1,12.6 3.8,0 7.1,-1.4 9.4,-4.3 h 0.1 v 3.9 h 7.3 v -36.2 h -7.3 v 21.6 c 0,4.9 -3.1,7.8 -7.1,7.8 -4.1,0 -7.2,-2.9 -7.2,-7.8 v -21.6 h -7.3 z"
       class="st0"
       id="XMLID_29_"
       style="fill:#ff000a;fill-opacity:1" />
    <path
       d="m 339,374.9 h 7.3 v -21.8 c 0,-5.3 3.5,-7.6 7.1,-7.6 1.9,0 3.1,0.5 4.8,1.8 l 5.3,-6.3 c -2.2,-1.7 -4.6,-2.8 -7.6,-2.8 -3.9,0 -7.1,1.4 -9.4,4.3 h -0.1 v -3.9 H 339 Z"
       class="st0"
       id="XMLID_30_"
       style="fill:#ff000a;fill-opacity:1" />
    <path
       d="m 386.6,364.2 c -1.8,2.2 -4.4,3.8 -7.4,3.8 -5.9,0 -9.4,-3.4 -9.4,-11.2 0,-7.9 3.5,-11.3 9.4,-11.3 3,0 5.6,1.6 7.4,3.8 l 5.4,-4.8 c -3.1,-3.6 -7.5,-6.3 -13,-6.3 -8.4,0 -16.4,5.3 -16.4,18.6 0,13.2 8.1,18.5 16.4,18.5 5.5,0 9.9,-2.6 13,-6.3 z"
       class="st0"
       id="XMLID_31_"
       style="fill:#ff000a;fill-opacity:1" />
    <path
       d="m 423.7,359.5 v -6 c 0,-9.4 -6.9,-15.3 -14.9,-15.3 -7,0 -14.9,4.6 -14.9,18.6 0,14.9 8.6,18.4 16.1,18.4 4.9,0 9.5,-1.7 13.1,-5.9 l -5.3,-4.5 c -2.1,2.2 -5.1,3.5 -7.9,3.5 -5,0 -8.6,-3 -8.6,-8.9 h 22.4 z m -22.6,-6 c 0.1,-5.5 3.4,-8.4 7.6,-8.4 4.3,0 7.4,2.9 7.6,8.4 z"
       class="st0"
       id="XMLID_32_"
       style="fill:#ff000a;fill-opacity:1" />
    <path
       d="m 126.8,368 c 6.9,0 7.2,-5.6 7.2,-11.2 0,-5.6 -0.4,-11.3 -7.2,-11.3 -6.8,0 -7.1,6 -7.1,11.3 0,5.2 0.3,11.2 7.1,11.2 z m -14.4,64.1 v -93.4 h 7.3 v 3.8 c 2.3,-2.5 5.6,-4.2 9.4,-4.2 4.4,0 7.6,2 9.7,4.7 2,2.6 2.6,4.9 2.6,13.9 0,8.9 -0.6,11.2 -2.6,13.8 -2.1,2.7 -5.3,4.7 -9.7,4.7 -3.7,0 -6.6,-1.7 -9.4,-4.3 v 28.7 c 2.4,-2.9 5.7,-4.3 9.6,-4.3 5.6,0 12.1,4.4 12.1,12.6 v 24.1 H 134 v -21.6 c 0,-4.9 -3.1,-7.8 -7.1,-7.8 -4.1,0 -7.2,2.9 -7.2,7.8 v 21.6 h -7.3 z"
       class="st0"
       id="XMLID_35_"
       style="fill:#ff000a;fill-opacity:1" />
  </g>
  <g
     aria-label="SCART Splitter"
     transform="scale(-1)"
     id="text3741"
     style="font-style:normal;font-weight:normal;font-size:10.0542px;line-height:1.25;font-family:sans-serif;fill:#000000;fill-opacity:1;stroke:none;stroke-width:0.251355">
    <path
       d="m -189.63567,-30.773155 v -0.705628 h 0.70922 v 0.705628 z m 0,-0.705628 v -0.723628 h 0.70922 v 0.723628 z m 0,-0.723628 v -0.720028 h 0.70922 v 0.720028 z m 0,-0.720028 v -0.723629 h 0.70922 v 0.723629 z m 0,-0.723629 v -0.720028 h 0.70922 v 0.720028 z m 0,-0.720028 v -0.723629 h 0.70922 v 0.723629 z m 0,-0.723629 v -0.723628 h 0.70922 v 0.723628 z m 0,4.31657 v 0.712828 h -0.72003 v -0.712828 z m -0.72003,0 v -0.705628 h 0.72003 v 0.705628 z m 0,-0.705628 v -0.723628 h 0.72003 v 0.723628 z m 0,-0.723628 v -0.720028 h 0.72003 v 0.720028 z m 0,-0.720028 v -0.723629 h 0.72003 v 0.723629 z m 0,-0.723629 v -0.720028 h 0.72003 v 0.720028 z m 0,-0.720028 v -0.723629 h 0.72003 v 0.723629 z m 0,-0.723629 v -0.723628 h 0.72003 v 0.723628 z m 0,-0.723628 v -0.705628 h 0.72003 v 0.705628 z m -0.72363,-0.705628 v -0.723628 h 0.72363 v 0.723628 z m 0.72363,5.745826 v 0.712828 h -0.72363 v -0.712828 z m -0.72363,0 v -0.705628 h 0.72363 v 0.705628 z m 0,-0.705628 v -0.723628 h 0.72363 v 0.723628 z m 0,-2.167285 v -0.720028 h 0.72363 v 0.720028 z m 0,-0.720028 v -0.723629 h 0.72363 v 0.723629 z m 0,-1.447257 v -0.705628 h 0.72363 v 0.705628 z m -0.72003,-0.705628 v -0.723628 h 0.72003 v 0.723628 z m 0.72003,5.745826 v 0.712828 h -0.72003 v -0.712828 z m -0.72003,0 v -0.705628 h 0.72003 v 0.705628 z m 0,-3.592941 v -0.723629 h 0.72003 v 0.723629 z m -0.72363,-2.152885 v -0.723628 h 0.72363 v 0.723628 z m 0.72363,5.745826 v 0.712828 h -0.72363 v -0.712828 z m -0.72363,0 v -0.705628 h 0.72363 v 0.705628 z m 0,-1.429256 v -0.720028 h 0.72363 v 0.720028 z m 0,-0.720028 v -0.723629 h 0.72363 v 0.723629 z m 0,-1.443657 v -0.723629 h 0.72363 v 0.723629 z m 0,-0.723629 v -0.723628 h 0.72363 v 0.723628 z m -0.72363,-1.429256 v -0.723628 h 0.72363 v 0.723628 z m 0.72363,5.745826 v 0.712828 h -0.72363 v -0.712828 z m -0.72363,0 v -0.705628 h 0.72363 v 0.705628 z m 0,-1.429256 v -0.720028 h 0.72363 v 0.720028 z m 0,-0.720028 v -0.723629 h 0.72363 v 0.723629 z m 0,-1.443657 v -0.723629 h 0.72363 v 0.723629 z m 0,-0.723629 v -0.723628 h 0.72363 v 0.723628 z m -0.70562,-1.429256 v -0.723628 h 0.70562 v 0.723628 z m 0.70562,5.745826 v 0.712828 h -0.70562 v -0.712828 z m -0.70562,0 v -0.705628 h 0.70562 v 0.705628 z m 0,-1.429256 v -0.720028 h 0.70562 v 0.720028 z m 0,-0.720028 v -0.723629 h 0.70562 v 0.723629 z m 0,-1.443657 v -0.723629 h 0.70562 v 0.723629 z m 0,-0.723629 v -0.723628 h 0.70562 v 0.723628 z m -0.72363,-1.429256 v -0.723628 h 0.72363 v 0.723628 z m 0.72363,5.745826 v 0.712828 h -0.72363 v -0.712828 z m -0.72363,0 v -0.705628 h 0.72363 v 0.705628 z m 0,-2.149284 v -0.723629 h 0.72363 v 0.723629 z m -0.72003,-3.596542 v -0.723628 h 0.72003 v 0.723628 z m 0,5.745826 v -0.705628 h 0.72003 v 0.705628 z m 0,-0.705628 v -0.723628 h 0.72003 v 0.723628 z m 0,-1.443656 v -0.723629 h 0.72003 v 0.723629 z m 0,-0.723629 v -0.720028 h 0.72003 v 0.720028 z m 0,-2.167285 v -0.705628 h 0.72003 v 0.705628 z m -0.72363,4.33457 v -0.723628 h 0.72363 v 0.723628 z m 0,-0.723628 v -0.720028 h 0.72363 v 0.720028 z m 0,-0.720028 v -0.723629 h 0.72363 v 0.723629 z m 0,-0.723629 v -0.720028 h 0.72363 v 0.720028 z m 0,-0.720028 v -0.723629 h 0.72363 v 0.723629 z m 0,-0.723629 v -0.723628 h 0.72363 v 0.723628 z m 0,-0.723628 v -0.705628 h 0.72363 v 0.705628 z"
       style="font-style:normal;font-variant:normal;font-weight:normal;font-stretch:normal;font-size:7.37309px;font-family:'Karmatic Arcade';-inkscape-font-specification:'Karmatic Arcade';text-align:center;text-anchor:middle;fill:#ff0000;fill-opacity:1;stroke-width:0.251355"
       id="path1017" />
    <path
       d="m -183.15542,-30.773155 v -0.705628 h 0.70923 v 0.705628 z m 0,-0.705628 v -0.723628 h 0.70923 v 0.723628 z m 0,-0.723628 v -0.720028 h 0.70923 v 0.720028 z m 0,-1.443657 v -0.720028 h 0.70923 v 0.720028 z m 0,-0.720028 v -0.723629 h 0.70923 v 0.723629 z m 0,-0.723629 v -0.723628 h 0.70923 v 0.723628 z m 0,4.31657 v 0.712828 h -0.72003 v -0.712828 z m -0.72003,0 v -0.705628 h 0.72003 v 0.705628 z m 0,-0.705628 v -0.723628 h 0.72003 v 0.723628 z m 0,-0.723628 v -0.720028 h 0.72003 v 0.720028 z m 0,-0.720028 v -0.723629 h 0.72003 v 0.723629 z m 0,-0.723629 v -0.720028 h 0.72003 v 0.720028 z m 0,-0.720028 v -0.723629 h 0.72003 v 0.723629 z m 0,-0.723629 v -0.723628 h 0.72003 v 0.723628 z m 0,-0.723628 v -0.705628 h 0.72003 v 0.705628 z m -0.72363,-0.705628 v -0.723628 h 0.72363 v 0.723628 z m 0.72363,5.745826 v 0.712828 h -0.72363 v -0.712828 z m -0.72363,0 v -0.705628 h 0.72363 v 0.705628 z m 0,-0.705628 v -0.723628 h 0.72363 v 0.723628 z m 0,-1.443656 v -0.723629 h 0.72363 v 0.723629 z m 0,-0.723629 v -0.720028 h 0.72363 v 0.720028 z m 0,-0.720028 v -0.723629 h 0.72363 v 0.723629 z m 0,-1.447257 v -0.705628 h 0.72363 v 0.705628 z m -0.72002,-0.705628 v -0.723628 h 0.72002 v 0.723628 z m 0.72002,5.745826 v 0.712828 h -0.72002 v -0.712828 z m -0.72002,0 v -0.705628 h 0.72002 v 0.705628 z m 0,-2.149284 v -0.723629 h 0.72002 v 0.723629 z m 0,-0.723629 v -0.720028 h 0.72002 v 0.720028 z m 0,-0.720028 v -0.723629 h 0.72002 v 0.723629 z m -0.72363,-2.152885 v -0.723628 h 0.72363 v 0.723628 z m 0.72363,5.745826 v 0.712828 h -0.72363 v -0.712828 z m -0.72363,0 v -0.705628 h 0.72363 v 0.705628 z m 0,-1.429256 v -0.720028 h 0.72363 v 0.720028 z m 0,-0.720028 v -0.723629 h 0.72363 v 0.723629 z m 0,-0.723629 v -0.720028 h 0.72363 v 0.720028 z m 0,-0.720028 v -0.723629 h 0.72363 v 0.723629 z m 0,-0.723629 v -0.723628 h 0.72363 v 0.723628 z m -0.72363,-1.429256 v -0.723628 h 0.72363 v 0.723628 z m 0.72363,5.745826 v 0.712828 h -0.72363 v -0.712828 z m -0.72363,0 v -0.705628 h 0.72363 v 0.705628 z m 0,-1.429256 v -0.720028 h 0.72363 v 0.720028 z m 0,-0.720028 v -0.723629 h 0.72363 v 0.723629 z m 0,-0.723629 v -0.720028 h 0.72363 v 0.720028 z m 0,-0.720028 v -0.723629 h 0.72363 v 0.723629 z m 0,-0.723629 v -0.723628 h 0.72363 v 0.723628 z m -0.70563,-1.429256 v -0.723628 h 0.70563 v 0.723628 z m 0.70563,5.745826 v 0.712828 h -0.70563 v -0.712828 z m -0.70563,0 v -0.705628 h 0.70563 v 0.705628 z m 0,-1.429256 v -0.720028 h 0.70563 v 0.720028 z m 0,-0.720028 v -0.723629 h 0.70563 v 0.723629 z m 0,-0.723629 v -0.720028 h 0.70563 v 0.720028 z m 0,-0.720028 v -0.723629 h 0.70563 v 0.723629 z m 0,-0.723629 v -0.723628 h 0.70563 v 0.723628 z m -0.72363,-1.429256 v -0.723628 h 0.72363 v 0.723628 z m 0.72363,5.745826 v 0.712828 h -0.72363 v -0.712828 z m -0.72363,0 v -0.705628 h 0.72363 v 0.705628 z m -0.72003,-5.745826 v -0.723628 h 0.72003 v 0.723628 z m 0,5.745826 v -0.705628 h 0.72003 v 0.705628 z m 0,-0.705628 v -0.723628 h 0.72003 v 0.723628 z m 0,-4.33457 v -0.705628 h 0.72003 v 0.705628 z m -0.72362,4.33457 v -0.723628 h 0.72362 v 0.723628 z m 0,-0.723628 v -0.720028 h 0.72362 v 0.720028 z m 0,-0.720028 v -0.723629 h 0.72362 v 0.723629 z m 0,-0.723629 v -0.720028 h 0.72362 v 0.720028 z m 0,-0.720028 v -0.723629 h 0.72362 v 0.723629 z m 0,-0.723629 v -0.723628 h 0.72362 v 0.723628 z m 0,-0.723628 v -0.705628 h 0.72362 v 0.705628 z"
       style="font-style:normal;font-variant:normal;font-weight:normal;font-stretch:normal;font-size:7.37309px;font-family:'Karmatic Arcade';-inkscape-font-specification:'Karmatic Arcade';text-align:center;text-anchor:middle;fill:#ff0000;fill-opacity:1;stroke-width:0.251355"
       id="path1019" />
    <path
       d="m -175.96594,-30.773155 v 0.712828 h -0.70923 v -0.712828 z m -0.70923,0 v -0.705628 h 0.70923 v 0.705628 z m 0,-0.705628 v -0.723628 h 0.70923 v 0.723628 z m 0,-0.723628 v -0.720028 h 0.70923 v 0.720028 z m 0,-0.720028 v -0.723629 h 0.70923 v 0.723629 z m 0,-0.723629 v -0.720028 h 0.70923 v 0.720028 z m 0,-0.720028 v -0.723629 h 0.70923 v 0.723629 z m 0,-0.723629 v -0.723628 h 0.70923 v 0.723628 z m 0,4.31657 v 0.712828 h -0.72002 v -0.712828 z m -0.72002,0 v -0.705628 h 0.72002 v 0.705628 z m 0,-0.705628 v -0.723628 h 0.72002 v 0.723628 z m 0,-0.723628 v -0.720028 h 0.72002 v 0.720028 z m 0,-0.720028 v -0.723629 h 0.72002 v 0.723629 z m 0,-0.723629 v -0.720028 h 0.72002 v 0.720028 z m 0,-0.720028 v -0.723629 h 0.72002 v 0.723629 z m 0,-0.723629 v -0.723628 h 0.72002 v 0.723628 z m 0,-0.723628 v -0.705628 h 0.72002 v 0.705628 z m -0.72363,-0.705628 v -0.723628 h 0.72363 v 0.723628 z m 0.72363,5.745826 v 0.712828 h -0.72363 v -0.712828 z m -0.72363,0 v -0.705628 h 0.72363 v 0.705628 z m 0,-5.040198 v -0.705628 h 0.72363 v 0.705628 z m -0.72003,-0.705628 v -0.723628 h 0.72003 v 0.723628 z m 0.72003,5.745826 v 0.712828 h -0.72003 v -0.712828 z m -0.72003,0 v -0.705628 h 0.72003 v 0.705628 z m -0.72363,-5.745826 v -0.723628 h 0.72363 v 0.723628 z m 0,5.745826 v -0.705628 h 0.72363 v 0.705628 z m 0,-0.705628 v -0.723628 h 0.72363 v 0.723628 z m 0,-0.723628 v -0.720028 h 0.72363 v 0.720028 z m 0,-1.443657 v -0.720028 h 0.72363 v 0.720028 z m 0,-0.720028 v -0.723629 h 0.72363 v 0.723629 z m 0,-0.723629 v -0.723628 h 0.72363 v 0.723628 z m -0.72363,-1.429256 v -0.723628 h 0.72363 v 0.723628 z m 0.72363,5.745826 v 0.712828 h -0.72363 v -0.712828 z m -0.72363,0 v -0.705628 h 0.72363 v 0.705628 z m 0,-0.705628 v -0.723628 h 0.72363 v 0.723628 z m 0,-0.723628 v -0.720028 h 0.72363 v 0.720028 z m 0,-1.443657 v -0.720028 h 0.72363 v 0.720028 z m 0,-0.720028 v -0.723629 h 0.72363 v 0.723629 z m 0,-0.723629 v -0.723628 h 0.72363 v 0.723628 z m -0.70562,-1.429256 v -0.723628 h 0.70562 v 0.723628 z m 0.70562,5.745826 v 0.712828 h -0.70562 v -0.712828 z m -0.70562,0 v -0.705628 h 0.70562 v 0.705628 z m 0,-0.705628 v -0.723628 h 0.70562 v 0.723628 z m 0,-0.723628 v -0.720028 h 0.70562 v 0.720028 z m 0,-1.443657 v -0.720028 h 0.70562 v 0.720028 z m 0,-0.720028 v -0.723629 h 0.70562 v 0.723629 z m 0,-0.723629 v -0.723628 h 0.70562 v 0.723628 z m -0.72363,-1.429256 v -0.723628 h 0.72363 v 0.723628 z m 0.72363,5.745826 v 0.712828 h -0.72363 v -0.712828 z m -0.72363,0 v -0.705628 h 0.72363 v 0.705628 z m -0.72003,-5.745826 v -0.723628 h 0.72003 v 0.723628 z m 0.72003,5.745826 v 0.712828 h -0.72003 v -0.712828 z m -0.72003,0 v -0.705628 h 0.72003 v 0.705628 z m 0,-5.040198 v -0.705628 h 0.72003 v 0.705628 z m -0.72363,5.040198 v -0.705628 h 0.72363 v 0.705628 z m 0,-0.705628 v -0.723628 h 0.72363 v 0.723628 z m 0,-0.723628 v -0.720028 h 0.72363 v 0.720028 z m 0,-0.720028 v -0.723629 h 0.72363 v 0.723629 z m 0,-0.723629 v -0.720028 h 0.72363 v 0.720028 z m 0,-0.720028 v -0.723629 h 0.72363 v 0.723629 z m 0,-0.723629 v -0.723628 h 0.72363 v 0.723628 z m 0,-0.723628 v -0.705628 h 0.72363 v 0.705628 z"
       style="font-style:normal;font-variant:normal;font-weight:normal;font-stretch:normal;font-size:7.37309px;font-family:'Karmatic Arcade';-inkscape-font-specification:'Karmatic Arcade';text-align:center;text-anchor:middle;fill:#ff0000;fill-opacity:1;stroke-width:0.251355"
       id="path1021" />
    <path
       d="m -169.48568,-30.773155 v 0.712828 h -0.70923 v -0.712828 z m -0.70923,0 v -0.705628 h 0.70923 v 0.705628 z m 0,-0.705628 v -0.723628 h 0.70923 v 0.723628 z m 0,-0.723628 v -0.720028 h 0.70923 v 0.720028 z m 0,-0.720028 v -0.723629 h 0.70923 v 0.723629 z m 0,-0.723629 v -0.720028 h 0.70923 v 0.720028 z m 0,-0.720028 v -0.723629 h 0.70923 v 0.723629 z m 0,-0.723629 v -0.723628 h 0.70923 v 0.723628 z m 0,4.31657 v 0.712828 h -0.72003 v -0.712828 z m -0.72003,0 v -0.705628 h 0.72003 v 0.705628 z m 0,-0.705628 v -0.723628 h 0.72003 v 0.723628 z m 0,-0.723628 v -0.720028 h 0.72003 v 0.720028 z m 0,-0.720028 v -0.723629 h 0.72003 v 0.723629 z m 0,-0.723629 v -0.720028 h 0.72003 v 0.720028 z m 0,-0.720028 v -0.723629 h 0.72003 v 0.723629 z m 0,-0.723629 v -0.723628 h 0.72003 v 0.723628 z m 0,-0.723628 v -0.705628 h 0.72003 v 0.705628 z m -0.72363,-0.705628 v -0.723628 h 0.72363 v 0.723628 z m 0.72363,5.745826 v 0.712828 h -0.72363 v -0.712828 z m -0.72363,0 v -0.705628 h 0.72363 v 0.705628 z m 0,-2.872913 v -0.720028 h 0.72363 v 0.720028 z m 0,-2.167285 v -0.705628 h 0.72363 v 0.705628 z m -0.72003,-0.705628 v -0.723628 h 0.72003 v 0.723628 z m 0.72003,5.745826 v 0.712828 h -0.72003 v -0.712828 z m -0.72003,0 v -0.705628 h 0.72003 v 0.705628 z m -0.72362,-5.745826 v -0.723628 h 0.72362 v 0.723628 z m 0,5.745826 v -0.705628 h 0.72362 v 0.705628 z m 0,-0.705628 v -0.723628 h 0.72362 v 0.723628 z m 0,-0.723628 v -0.720028 h 0.72362 v 0.720028 z m 0,-0.720028 v -0.723629 h 0.72362 v 0.723629 z m 0,-1.443657 v -0.723629 h 0.72362 v 0.723629 z m 0,-0.723629 v -0.723628 h 0.72362 v 0.723628 z m -0.72363,-1.429256 v -0.723628 h 0.72363 v 0.723628 z m 0.72363,5.745826 v 0.712828 h -0.72363 v -0.712828 z m -0.72363,0 v -0.705628 h 0.72363 v 0.705628 z m 0,-0.705628 v -0.723628 h 0.72363 v 0.723628 z m 0,-0.723628 v -0.720028 h 0.72363 v 0.720028 z m 0,-0.720028 v -0.723629 h 0.72363 v 0.723629 z m 0,-1.443657 v -0.723629 h 0.72363 v 0.723629 z m 0,-0.723629 v -0.723628 h 0.72363 v 0.723628 z m -0.70563,-1.429256 v -0.723628 h 0.70563 v 0.723628 z m 0.70563,5.745826 v 0.712828 h -0.70563 v -0.712828 z m -0.70563,0 v -0.705628 h 0.70563 v 0.705628 z m 0,-0.705628 v -0.723628 h 0.70563 v 0.723628 z m 0,-0.723628 v -0.720028 h 0.70563 v 0.720028 z m 0,-0.720028 v -0.723629 h 0.70563 v 0.723629 z m 0,-1.443657 v -0.723629 h 0.70563 v 0.723629 z m 0,-0.723629 v -0.723628 h 0.70563 v 0.723628 z m -0.72363,-1.429256 v -0.723628 h 0.72363 v 0.723628 z m 0.72363,5.745826 v 0.712828 h -0.72363 v -0.712828 z m -0.72363,0 v -0.705628 h 0.72363 v 0.705628 z m -0.72003,-5.745826 v -0.723628 h 0.72003 v 0.723628 z m 0.72003,5.745826 v 0.712828 h -0.72003 v -0.712828 z m -0.72003,0 v -0.705628 h 0.72003 v 0.705628 z m -0.72363,-5.745826 v -0.723628 h 0.72363 v 0.723628 z m 0,5.745826 v -0.705628 h 0.72363 v 0.705628 z m 0,-0.705628 v -0.723628 h 0.72363 v 0.723628 z m 0,-0.723628 v -0.720028 h 0.72363 v 0.720028 z m 0,-0.720028 v -0.723629 h 0.72363 v 0.723629 z m 0,-0.723629 v -0.720028 h 0.72363 v 0.720028 z m 0,-0.720028 v -0.723629 h 0.72363 v 0.723629 z m 0,-0.723629 v -0.723628 h 0.72363 v 0.723628 z m 0,-0.723628 v -0.705628 h 0.72363 v 0.705628 z"
       style="font-style:normal;font-variant:normal;font-weight:normal;font-stretch:normal;font-size:7.37309px;font-family:'Karmatic Arcade';-inkscape-font-specification:'Karmatic Arcade';text-align:center;text-anchor:middle;fill:#ff0000;fill-opacity:1;stroke-width:0.251355"
       id="path1023" />
    <path
       d="m -164.43468,-34.366096 v -0.723629 h 0.72002 v 0.723629 z m 0,-0.723629 v -0.723628 h 0.72002 v 0.723628 z m 0,-0.723628 v -0.705628 h 0.72002 v 0.705628 z m -0.72363,-0.705628 v -0.723628 h 0.72363 v 0.723628 z m 0,2.152885 v -0.723629 h 0.72363 v 0.723629 z m 0,-0.723629 v -0.723628 h 0.72363 v 0.723628 z m 0,-0.723628 v -0.705628 h 0.72363 v 0.705628 z m -0.72003,-0.705628 v -0.723628 h 0.72003 v 0.723628 z m 0.72003,5.745826 v 0.712828 h -0.72003 v -0.712828 z m -0.72003,0 v -0.705628 h 0.72003 v 0.705628 z m 0,-0.705628 v -0.723628 h 0.72003 v 0.723628 z m 0,-0.723628 v -0.720028 h 0.72003 v 0.720028 z m 0,-0.720028 v -0.723629 h 0.72003 v 0.723629 z m 0,-0.723629 v -0.720028 h 0.72003 v 0.720028 z m 0,-0.720028 v -0.723629 h 0.72003 v 0.723629 z m 0,-0.723629 v -0.723628 h 0.72003 v 0.723628 z m -0.72363,-1.429256 v -0.723628 h 0.72363 v 0.723628 z m 0.72363,5.745826 v 0.712828 h -0.72363 v -0.712828 z m -0.72363,0 v -0.705628 h 0.72363 v 0.705628 z m 0,-0.705628 v -0.723628 h 0.72363 v 0.723628 z m 0,-0.723628 v -0.720028 h 0.72363 v 0.720028 z m 0,-0.720028 v -0.723629 h 0.72363 v 0.723629 z m 0,-0.723629 v -0.720028 h 0.72363 v 0.720028 z m 0,-0.720028 v -0.723629 h 0.72363 v 0.723629 z m 0,-0.723629 v -0.723628 h 0.72363 v 0.723628 z m -0.72363,-1.429256 v -0.723628 h 0.72363 v 0.723628 z m 0.72363,5.745826 v 0.712828 h -0.72363 v -0.712828 z m -0.72363,0 v -0.705628 h 0.72363 v 0.705628 z m -0.70563,-5.745826 v -0.723628 h 0.70563 v 0.723628 z m 0.70563,5.745826 v 0.712828 h -0.70563 v -0.712828 z m -0.70563,0 v -0.705628 h 0.70563 v 0.705628 z m -0.72362,-5.745826 v -0.723628 h 0.72362 v 0.723628 z m 0,5.745826 v -0.705628 h 0.72362 v 0.705628 z m 0,-0.705628 v -0.723628 h 0.72362 v 0.723628 z m 0,-0.723628 v -0.720028 h 0.72362 v 0.720028 z m 0,-0.720028 v -0.723629 h 0.72362 v 0.723629 z m 0,-0.723629 v -0.720028 h 0.72362 v 0.720028 z m 0,-0.720028 v -0.723629 h 0.72362 v 0.723629 z m 0,-0.723629 v -0.723628 h 0.72362 v 0.723628 z m -0.72003,-1.429256 v -0.723628 h 0.72003 v 0.723628 z m 0,1.429256 v -0.723628 h 0.72003 v 0.723628 z m -0.72363,-1.429256 v -0.723628 h 0.72363 v 0.723628 z m 0,1.429256 v -0.723628 h 0.72363 v 0.723628 z m 0,-0.723628 v -0.705628 h 0.72363 v 0.705628 z"
       style="font-style:normal;font-variant:normal;font-weight:normal;font-stretch:normal;font-size:7.37309px;font-family:'Karmatic Arcade';-inkscape-font-specification:'Karmatic Arcade';text-align:center;text-anchor:middle;fill:#ff0000;fill-opacity:1;stroke-width:0.251355"
       id="path1025" />
    <path
       d="m -155.90955,-30.773155 v -0.705628 h 0.70923 v 0.705628 z m 0,-0.705628 v -0.723628 h 0.70923 v 0.723628 z m 0,-0.723628 v -0.720028 h 0.70923 v 0.720028 z m 0,-0.720028 v -0.723629 h 0.70923 v 0.723629 z m 0,-0.723629 v -0.720028 h 0.70923 v 0.720028 z m 0,-0.720028 v -0.723629 h 0.70923 v 0.723629 z m 0,-0.723629 v -0.723628 h 0.70923 v 0.723628 z m 0,4.31657 v 0.712828 h -0.72003 v -0.712828 z m -0.72003,0 v -0.705628 h 0.72003 v 0.705628 z m 0,-0.705628 v -0.723628 h 0.72003 v 0.723628 z m 0,-0.723628 v -0.720028 h 0.72003 v 0.720028 z m 0,-0.720028 v -0.723629 h 0.72003 v 0.723629 z m 0,-0.723629 v -0.720028 h 0.72003 v 0.720028 z m 0,-0.720028 v -0.723629 h 0.72003 v 0.723629 z m 0,-0.723629 v -0.723628 h 0.72003 v 0.723628 z m 0,-0.723628 v -0.705628 h 0.72003 v 0.705628 z m -0.72363,-0.705628 v -0.723628 h 0.72363 v 0.723628 z m 0.72363,5.745826 v 0.712828 h -0.72363 v -0.712828 z m -0.72363,0 v -0.705628 h 0.72363 v 0.705628 z m 0,-0.705628 v -0.723628 h 0.72363 v 0.723628 z m 0,-2.167285 v -0.720028 h 0.72363 v 0.720028 z m 0,-0.720028 v -0.723629 h 0.72363 v 0.723629 z m 0,-1.447257 v -0.705628 h 0.72363 v 0.705628 z m -0.72003,-0.705628 v -0.723628 h 0.72003 v 0.723628 z m 0.72003,5.745826 v 0.712828 h -0.72003 v -0.712828 z m -0.72003,0 v -0.705628 h 0.72003 v 0.705628 z m 0,-3.592941 v -0.723629 h 0.72003 v 0.723629 z m -0.72362,-2.152885 v -0.723628 h 0.72362 v 0.723628 z m 0.72362,5.745826 v 0.712828 h -0.72362 v -0.712828 z m -0.72362,0 v -0.705628 h 0.72362 v 0.705628 z m 0,-1.429256 v -0.720028 h 0.72362 v 0.720028 z m 0,-0.720028 v -0.723629 h 0.72362 v 0.723629 z m 0,-1.443657 v -0.723629 h 0.72362 v 0.723629 z m 0,-0.723629 v -0.723628 h 0.72362 v 0.723628 z m -0.72363,-1.429256 v -0.723628 h 0.72363 v 0.723628 z m 0.72363,5.745826 v 0.712828 h -0.72363 v -0.712828 z m -0.72363,0 v -0.705628 h 0.72363 v 0.705628 z m 0,-1.429256 v -0.720028 h 0.72363 v 0.720028 z m 0,-0.720028 v -0.723629 h 0.72363 v 0.723629 z m 0,-1.443657 v -0.723629 h 0.72363 v 0.723629 z m 0,-0.723629 v -0.723628 h 0.72363 v 0.723628 z m -0.70563,-1.429256 v -0.723628 h 0.70563 v 0.723628 z m 0.70563,5.745826 v 0.712828 h -0.70563 v -0.712828 z m -0.70563,0 v -0.705628 h 0.70563 v 0.705628 z m 0,-1.429256 v -0.720028 h 0.70563 v 0.720028 z m 0,-0.720028 v -0.723629 h 0.70563 v 0.723629 z m 0,-1.443657 v -0.723629 h 0.70563 v 0.723629 z m 0,-0.723629 v -0.723628 h 0.70563 v 0.723628 z m -0.72363,-1.429256 v -0.723628 h 0.72363 v 0.723628 z m 0.72363,5.745826 v 0.712828 h -0.72363 v -0.712828 z m -0.72363,0 v -0.705628 h 0.72363 v 0.705628 z m 0,-2.149284 v -0.723629 h 0.72363 v 0.723629 z m -0.72003,-3.596542 v -0.723628 h 0.72003 v 0.723628 z m 0,5.745826 v -0.705628 h 0.72003 v 0.705628 z m 0,-0.705628 v -0.723628 h 0.72003 v 0.723628 z m 0,-1.443656 v -0.723629 h 0.72003 v 0.723629 z m 0,-0.723629 v -0.720028 h 0.72003 v 0.720028 z m 0,-2.167285 v -0.705628 h 0.72003 v 0.705628 z m -0.72363,4.33457 v -0.723628 h 0.72363 v 0.723628 z m 0,-0.723628 v -0.720028 h 0.72363 v 0.720028 z m 0,-0.720028 v -0.723629 h 0.72363 v 0.723629 z m 0,-0.723629 v -0.720028 h 0.72363 v 0.720028 z m 0,-0.720028 v -0.723629 h 0.72363 v 0.723629 z m 0,-0.723629 v -0.723628 h 0.72363 v 0.723628 z m 0,-0.723628 v -0.705628 h 0.72363 v 0.705628 z"
       style="font-style:normal;font-variant:normal;font-weight:normal;font-stretch:normal;font-size:7.37309px;font-family:'Karmatic Arcade';-inkscape-font-specification:'Karmatic Arcade';text-align:center;text-anchor:middle;fill:#ff0000;fill-opacity:1;stroke-width:0.251355"
       id="path1027" />
    <path
       d="m -149.4293,-32.202411 v -0.720028 h 0.70923 v 0.720028 z m 0,-0.720028 v -0.723629 h 0.70923 v 0.723629 z m 0,-0.723629 v -0.720028 h 0.70923 v 0.720028 z m 0,-0.720028 v -0.723629 h 0.70923 v 0.723629 z m 0,-0.723629 v -0.723628 h 0.70923 v 0.723628 z m -0.72002,3.610942 v -0.723628 h 0.72002 v 0.723628 z m 0,-0.723628 v -0.720028 h 0.72002 v 0.720028 z m 0,-0.720028 v -0.723629 h 0.72002 v 0.723629 z m 0,-0.723629 v -0.720028 h 0.72002 v 0.720028 z m 0,-0.720028 v -0.723629 h 0.72002 v 0.723629 z m 0,-0.723629 v -0.723628 h 0.72002 v 0.723628 z m 0,-0.723628 v -0.705628 h 0.72002 v 0.705628 z m -0.72363,-0.705628 v -0.723628 h 0.72363 v 0.723628 z m 0,5.040198 v -0.723628 h 0.72363 v 0.723628 z m 0,-0.723628 v -0.720028 h 0.72363 v 0.720028 z m 0,-0.720028 v -0.723629 h 0.72363 v 0.723629 z m 0,-2.890914 v -0.705628 h 0.72363 v 0.705628 z m -0.72003,-0.705628 v -0.723628 h 0.72003 v 0.723628 z m 0,5.040198 v -0.723628 h 0.72003 v 0.723628 z m 0,-0.723628 v -0.720028 h 0.72003 v 0.720028 z m -0.72363,-4.31657 v -0.723628 h 0.72363 v 0.723628 z m 0,5.040198 v -0.723628 h 0.72363 v 0.723628 z m 0,-0.723628 v -0.720028 h 0.72363 v 0.720028 z m 0,-1.443657 v -0.720028 h 0.72363 v 0.720028 z m 0,-0.720028 v -0.723629 h 0.72363 v 0.723629 z m 0,-0.723629 v -0.723628 h 0.72363 v 0.723628 z m -0.72363,-1.429256 v -0.723628 h 0.72363 v 0.723628 z m 0.72363,5.745826 v 0.712828 h -0.72363 v -0.712828 z m -0.72363,0 v -0.705628 h 0.72363 v 0.705628 z m 0,-0.705628 v -0.723628 h 0.72363 v 0.723628 z m 0,-0.723628 v -0.720028 h 0.72363 v 0.720028 z m 0,-1.443657 v -0.720028 h 0.72363 v 0.720028 z m 0,-0.720028 v -0.723629 h 0.72363 v 0.723629 z m 0,-0.723629 v -0.723628 h 0.72363 v 0.723628 z m -0.70563,-1.429256 v -0.723628 h 0.70563 v 0.723628 z m 0.70563,5.745826 v 0.712828 h -0.70563 v -0.712828 z m -0.70563,0 v -0.705628 h 0.70563 v 0.705628 z m 0,-0.705628 v -0.723628 h 0.70563 v 0.723628 z m 0,-0.723628 v -0.720028 h 0.70563 v 0.720028 z m 0,-1.443657 v -0.720028 h 0.70563 v 0.720028 z m 0,-0.720028 v -0.723629 h 0.70563 v 0.723629 z m 0,-0.723629 v -0.723628 h 0.70563 v 0.723628 z m -0.72362,-1.429256 v -0.723628 h 0.72362 v 0.723628 z m 0.72362,5.745826 v 0.712828 h -0.72362 v -0.712828 z m -0.72362,0 v -0.705628 h 0.72362 v 0.705628 z m -0.72003,-5.745826 v -0.723628 h 0.72003 v 0.723628 z m 0.72003,5.745826 v 0.712828 h -0.72003 v -0.712828 z m -0.72003,0 v -0.705628 h 0.72003 v 0.705628 z m -0.72363,-5.745826 v -0.723628 h 0.72363 v 0.723628 z m 0,5.745826 v -0.705628 h 0.72363 v 0.705628 z m 0,-0.705628 v -0.723628 h 0.72363 v 0.723628 z m 0,-0.723628 v -0.720028 h 0.72363 v 0.720028 z m 0,-0.720028 v -0.723629 h 0.72363 v 0.723629 z m 0,-0.723629 v -0.720028 h 0.72363 v 0.720028 z m 0,-0.720028 v -0.723629 h 0.72363 v 0.723629 z m 0,-0.723629 v -0.723628 h 0.72363 v 0.723628 z m 0,-0.723628 v -0.705628 h 0.72363 v 0.705628 z"
       style="font-style:normal;font-variant:normal;font-weight:normal;font-stretch:normal;font-size:7.37309px;font-family:'Karmatic Arcade';-inkscape-font-specification:'Karmatic Arcade';text-align:center;text-anchor:middle;fill:#ff0000;fill-opacity:1;stroke-width:0.251355"
       id="path1029" />
    <path
       d="m -142.94904,-30.773155 v 0.712828 h -0.72003 v -0.712828 z m -0.72003,0 v -0.705628 h 0.72003 v 0.705628 z m 0,-0.705628 v -0.723628 h 0.72003 v 0.723628 z m 0,0.705628 v 0.712828 h -0.72363 v -0.712828 z m -0.72363,0 v -0.705628 h 0.72363 v 0.705628 z m 0,-0.705628 v -0.723628 h 0.72363 v 0.723628 z m 0,-0.723628 v -0.720028 h 0.72363 v 0.720028 z m 0,1.429256 v 0.712828 h -0.72003 v -0.712828 z m -0.72003,0 v -0.705628 h 0.72003 v 0.705628 z m 0,-1.429256 v -0.720028 h 0.72003 v 0.720028 z m 0,1.429256 v 0.712828 h -0.72362 v -0.712828 z m -0.72362,0 v -0.705628 h 0.72362 v 0.705628 z m 0,-1.429256 v -0.720028 h 0.72362 v 0.720028 z m 0,1.429256 v 0.712828 h -0.72363 v -0.712828 z m -0.72363,0 v -0.705628 h 0.72363 v 0.705628 z m 0,-1.429256 v -0.720028 h 0.72363 v 0.720028 z m 0,-0.720028 v -0.723629 h 0.72363 v 0.723629 z m 0,-0.723629 v -0.720028 h 0.72363 v 0.720028 z m 0,-0.720028 v -0.723629 h 0.72363 v 0.723629 z m 0,-0.723629 v -0.723628 h 0.72363 v 0.723628 z m 0,-0.723628 v -0.705628 h 0.72363 v 0.705628 z m -0.70563,-0.705628 v -0.723628 h 0.70563 v 0.723628 z m 0.70563,5.745826 v 0.712828 h -0.70563 v -0.712828 z m -0.70563,0 v -0.705628 h 0.70563 v 0.705628 z m 0,-1.429256 v -0.720028 h 0.70563 v 0.720028 z m 0,-0.720028 v -0.723629 h 0.70563 v 0.723629 z m 0,-0.723629 v -0.720028 h 0.70563 v 0.720028 z m 0,-0.720028 v -0.723629 h 0.70563 v 0.723629 z m 0,-0.723629 v -0.723628 h 0.70563 v 0.723628 z m 0,-0.723628 v -0.705628 h 0.70563 v 0.705628 z m -0.72363,-0.705628 v -0.723628 h 0.72363 v 0.723628 z m 0.72363,5.745826 v 0.712828 h -0.72363 v -0.712828 z m -0.72363,0 v -0.705628 h 0.72363 v 0.705628 z m -0.72003,-5.745826 v -0.723628 h 0.72003 v 0.723628 z m 0.72003,5.745826 v 0.712828 h -0.72003 v -0.712828 z m -0.72003,0 v -0.705628 h 0.72003 v 0.705628 z m -0.72363,-5.745826 v -0.723628 h 0.72363 v 0.723628 z m 0,5.745826 v -0.705628 h 0.72363 v 0.705628 z m 0,-0.705628 v -0.723628 h 0.72363 v 0.723628 z m 0,-0.723628 v -0.720028 h 0.72363 v 0.720028 z m 0,-0.720028 v -0.723629 h 0.72363 v 0.723629 z m 0,-0.723629 v -0.720028 h 0.72363 v 0.720028 z m 0,-0.720028 v -0.723629 h 0.72363 v 0.723629 z m 0,-0.723629 v -0.723628 h 0.72363 v 0.723628 z m 0,-0.723628 v -0.705628 h 0.72363 v 0.705628 z"
       style="font-style:normal;font-variant:normal;font-weight:normal;font-stretch:normal;font-size:7.37309px;font-family:'Karmatic Arcade';-inkscape-font-specification:'Karmatic Arcade';text-align:center;text-anchor:middle;fill:#ff0000;fill-opacity:1;stroke-width:0.251355"
       id="path1031" />
    <path
       d="m -140.07613,-30.773155 v 0.712828 h -0.72363 v -0.712828 z m -0.72363,0 v -0.705628 h 0.72363 v 0.705628 z m 0,-0.705628 v -0.723628 h 0.72363 v 0.723628 z m 0,-0.723628 v -0.720028 h 0.72363 v 0.720028 z m 0,-0.720028 v -0.723629 h 0.72363 v 0.723629 z m 0,-0.723629 v -0.720028 h 0.72363 v 0.720028 z m 0,-0.720028 v -0.723629 h 0.72363 v 0.723629 z m 0,-0.723629 v -0.723628 h 0.72363 v 0.723628 z m 0,-0.723628 v -0.705628 h 0.72363 v 0.705628 z m -0.70562,-0.705628 v -0.723628 h 0.70562 v 0.723628 z m 0.70562,5.745826 v 0.712828 h -0.70562 v -0.712828 z m -0.70562,0 v -0.705628 h 0.70562 v 0.705628 z m 0,-0.705628 v -0.723628 h 0.70562 v 0.723628 z m 0,-0.723628 v -0.720028 h 0.70562 v 0.720028 z m 0,-0.720028 v -0.723629 h 0.70562 v 0.723629 z m 0,-0.723629 v -0.720028 h 0.70562 v 0.720028 z m 0,-0.720028 v -0.723629 h 0.70562 v 0.723629 z m 0,-0.723629 v -0.723628 h 0.70562 v 0.723628 z m 0,-0.723628 v -0.705628 h 0.70562 v 0.705628 z m -0.72363,-0.705628 v -0.723628 h 0.72363 v 0.723628 z m 0.72363,5.745826 v 0.712828 h -0.72363 v -0.712828 z m -0.72363,0 v -0.705628 h 0.72363 v 0.705628 z m -0.72003,-5.745826 v -0.723628 h 0.72003 v 0.723628 z m 0.72003,5.745826 v 0.712828 h -0.72003 v -0.712828 z m -0.72003,0 v -0.705628 h 0.72003 v 0.705628 z m -0.72363,-5.745826 v -0.723628 h 0.72363 v 0.723628 z m 0,5.745826 v -0.705628 h 0.72363 v 0.705628 z m 0,-0.705628 v -0.723628 h 0.72363 v 0.723628 z m 0,-0.723628 v -0.720028 h 0.72363 v 0.720028 z m 0,-0.720028 v -0.723629 h 0.72363 v 0.723629 z m 0,-0.723629 v -0.720028 h 0.72363 v 0.720028 z m 0,-0.720028 v -0.723629 h 0.72363 v 0.723629 z m 0,-0.723629 v -0.723628 h 0.72363 v 0.723628 z m 0,-0.723628 v -0.705628 h 0.72363 v 0.705628 z"
       style="font-style:normal;font-variant:normal;font-weight:normal;font-stretch:normal;font-size:7.37309px;font-family:'Karmatic Arcade';-inkscape-font-specification:'Karmatic Arcade';text-align:center;text-anchor:middle;fill:#ff0000;fill-opacity:1;stroke-width:0.251355"
       id="path1033" />
    <path
       d="m -135.02873,-34.366096 v -0.723629 h 0.72003 v 0.723629 z m 0,-0.723629 v -0.723628 h 0.72003 v 0.723628 z m 0,-0.723628 v -0.705628 h 0.72003 v 0.705628 z m -0.72363,-0.705628 v -0.723628 h 0.72363 v 0.723628 z m 0,2.152885 v -0.723629 h 0.72363 v 0.723629 z m 0,-0.723629 v -0.723628 h 0.72363 v 0.723628 z m 0,-0.723628 v -0.705628 h 0.72363 v 0.705628 z m -0.72003,-0.705628 v -0.723628 h 0.72003 v 0.723628 z m 0.72003,5.745826 v 0.712828 h -0.72003 v -0.712828 z m -0.72003,0 v -0.705628 h 0.72003 v 0.705628 z m 0,-0.705628 v -0.723628 h 0.72003 v 0.723628 z m 0,-0.723628 v -0.720028 h 0.72003 v 0.720028 z m 0,-0.720028 v -0.723629 h 0.72003 v 0.723629 z m 0,-0.723629 v -0.720028 h 0.72003 v 0.720028 z m 0,-0.720028 v -0.723629 h 0.72003 v 0.723629 z m 0,-0.723629 v -0.723628 h 0.72003 v 0.723628 z m -0.72362,-1.429256 v -0.723628 h 0.72362 v 0.723628 z m 0.72362,5.745826 v 0.712828 h -0.72362 v -0.712828 z m -0.72362,0 v -0.705628 h 0.72362 v 0.705628 z m 0,-0.705628 v -0.723628 h 0.72362 v 0.723628 z m 0,-0.723628 v -0.720028 h 0.72362 v 0.720028 z m 0,-0.720028 v -0.723629 h 0.72362 v 0.723629 z m 0,-0.723629 v -0.720028 h 0.72362 v 0.720028 z m 0,-0.720028 v -0.723629 h 0.72362 v 0.723629 z m 0,-0.723629 v -0.723628 h 0.72362 v 0.723628 z m -0.72363,-1.429256 v -0.723628 h 0.72363 v 0.723628 z m 0.72363,5.745826 v 0.712828 h -0.72363 v -0.712828 z m -0.72363,0 v -0.705628 h 0.72363 v 0.705628 z m -0.70563,-5.745826 v -0.723628 h 0.70563 v 0.723628 z m 0.70563,5.745826 v 0.712828 h -0.70563 v -0.712828 z m -0.70563,0 v -0.705628 h 0.70563 v 0.705628 z m -0.72363,-5.745826 v -0.723628 h 0.72363 v 0.723628 z m 0,5.745826 v -0.705628 h 0.72363 v 0.705628 z m 0,-0.705628 v -0.723628 h 0.72363 v 0.723628 z m 0,-0.723628 v -0.720028 h 0.72363 v 0.720028 z m 0,-0.720028 v -0.723629 h 0.72363 v 0.723629 z m 0,-0.723629 v -0.720028 h 0.72363 v 0.720028 z m 0,-0.720028 v -0.723629 h 0.72363 v 0.723629 z m 0,-0.723629 v -0.723628 h 0.72363 v 0.723628 z m -0.72003,-1.429256 v -0.723628 h 0.72003 v 0.723628 z m 0,1.429256 v -0.723628 h 0.72003 v 0.723628 z m -0.72363,-1.429256 v -0.723628 h 0.72363 v 0.723628 z m 0,1.429256 v -0.723628 h 0.72363 v 0.723628 z m 0,-0.723628 v -0.705628 h 0.72363 v 0.705628 z"
       style="font-style:normal;font-variant:normal;font-weight:normal;font-stretch:normal;font-size:7.37309px;font-family:'Karmatic Arcade';-inkscape-font-specification:'Karmatic Arcade';text-align:center;text-anchor:middle;fill:#ff0000;fill-opacity:1;stroke-width:0.251355"
       id="path1035" />
    <path
       d="m -129.2685,-34.366096 v -0.723629 h 0.72003 v 0.723629 z m 0,-0.723629 v -0.723628 h 0.72003 v 0.723628 z m 0,-0.723628 v -0.705628 h 0.72003 v 0.705628 z m -0.72363,-0.705628 v -0.723628 h 0.72363 v 0.723628 z m 0,2.152885 v -0.723629 h 0.72363 v 0.723629 z m 0,-0.723629 v -0.723628 h 0.72363 v 0.723628 z m 0,-0.723628 v -0.705628 h 0.72363 v 0.705628 z m -0.72003,-0.705628 v -0.723628 h 0.72003 v 0.723628 z m 0.72003,5.745826 v 0.712828 h -0.72003 v -0.712828 z m -0.72003,0 v -0.705628 h 0.72003 v 0.705628 z m 0,-0.705628 v -0.723628 h 0.72003 v 0.723628 z m 0,-0.723628 v -0.720028 h 0.72003 v 0.720028 z m 0,-0.720028 v -0.723629 h 0.72003 v 0.723629 z m 0,-0.723629 v -0.720028 h 0.72003 v 0.720028 z m 0,-0.720028 v -0.723629 h 0.72003 v 0.723629 z m 0,-0.723629 v -0.723628 h 0.72003 v 0.723628 z m -0.72363,-1.429256 v -0.723628 h 0.72363 v 0.723628 z m 0.72363,5.745826 v 0.712828 h -0.72363 v -0.712828 z m -0.72363,0 v -0.705628 h 0.72363 v 0.705628 z m 0,-0.705628 v -0.723628 h 0.72363 v 0.723628 z m 0,-0.723628 v -0.720028 h 0.72363 v 0.720028 z m 0,-0.720028 v -0.723629 h 0.72363 v 0.723629 z m 0,-0.723629 v -0.720028 h 0.72363 v 0.720028 z m 0,-0.720028 v -0.723629 h 0.72363 v 0.723629 z m 0,-0.723629 v -0.723628 h 0.72363 v 0.723628 z m -0.72363,-1.429256 v -0.723628 h 0.72363 v 0.723628 z m 0.72363,5.745826 v 0.712828 h -0.72363 v -0.712828 z m -0.72363,0 v -0.705628 h 0.72363 v 0.705628 z m -0.70562,-5.745826 v -0.723628 h 0.70562 v 0.723628 z m 0.70562,5.745826 v 0.712828 h -0.70562 v -0.712828 z m -0.70562,0 v -0.705628 h 0.70562 v 0.705628 z m -0.72363,-5.745826 v -0.723628 h 0.72363 v 0.723628 z m 0,5.745826 v -0.705628 h 0.72363 v 0.705628 z m 0,-0.705628 v -0.723628 h 0.72363 v 0.723628 z m 0,-0.723628 v -0.720028 h 0.72363 v 0.720028 z m 0,-0.720028 v -0.723629 h 0.72363 v 0.723629 z m 0,-0.723629 v -0.720028 h 0.72363 v 0.720028 z m 0,-0.720028 v -0.723629 h 0.72363 v 0.723629 z m 0,-0.723629 v -0.723628 h 0.72363 v 0.723628 z m -0.72003,-1.429256 v -0.723628 h 0.72003 v 0.723628 z m 0,1.429256 v -0.723628 h 0.72003 v 0.723628 z m -0.72363,-1.429256 v -0.723628 h 0.72363 v 0.723628 z m 0,1.429256 v -0.723628 h 0.72363 v 0.723628 z m 0,-0.723628 v -0.705628 h 0.72363 v 0.705628 z"
       style="font-style:normal;font-variant:normal;font-weight:normal;font-stretch:normal;font-size:7.37309px;font-family:'Karmatic Arcade';-inkscape-font-specification:'Karmatic Arcade';text-align:center;text-anchor:middle;fill:#ff0000;fill-opacity:1;stroke-width:0.251355"
       id="path1037" />
    <path
       d="m -122.07902,-30.773155 v 0.712828 h -0.70923 v -0.712828 z m -0.70923,0 v -0.705628 h 0.70923 v 0.705628 z m 0,-0.705628 v -0.723628 h 0.70923 v 0.723628 z m 0,-2.887313 v -0.723629 h 0.70923 v 0.723629 z m 0,-0.723629 v -0.723628 h 0.70923 v 0.723628 z m 0,-0.723628 v -0.705628 h 0.70923 v 0.705628 z m -0.72003,-0.705628 v -0.723628 h 0.72003 v 0.723628 z m 0.72003,5.745826 v 0.712828 h -0.72003 v -0.712828 z m -0.72003,0 v -0.705628 h 0.72003 v 0.705628 z m 0,-0.705628 v -0.723628 h 0.72003 v 0.723628 z m 0,-0.723628 v -0.720028 h 0.72003 v 0.720028 z m 0,-0.720028 v -0.723629 h 0.72003 v 0.723629 z m 0,-0.723629 v -0.720028 h 0.72003 v 0.720028 z m 0,-0.720028 v -0.723629 h 0.72003 v 0.723629 z m 0,-0.723629 v -0.723628 h 0.72003 v 0.723628 z m 0,-0.723628 v -0.705628 h 0.72003 v 0.705628 z m -0.72362,-0.705628 v -0.723628 h 0.72362 v 0.723628 z m 0.72362,5.745826 v 0.712828 h -0.72362 v -0.712828 z m -0.72362,0 v -0.705628 h 0.72362 v 0.705628 z m 0,-1.429256 v -0.720028 h 0.72362 v 0.720028 z m 0,-0.720028 v -0.723629 h 0.72362 v 0.723629 z m 0,-0.723629 v -0.720028 h 0.72362 v 0.720028 z m 0,-0.720028 v -0.723629 h 0.72362 v 0.723629 z m 0,-0.723629 v -0.723628 h 0.72362 v 0.723628 z m -0.72003,-1.429256 v -0.723628 h 0.72003 v 0.723628 z m 0.72003,5.745826 v 0.712828 h -0.72003 v -0.712828 z m -0.72003,0 v -0.705628 h 0.72003 v 0.705628 z m 0,-1.429256 v -0.720028 h 0.72003 v 0.720028 z m 0,-0.720028 v -0.723629 h 0.72003 v 0.723629 z m 0,-1.443657 v -0.723629 h 0.72003 v 0.723629 z m 0,-0.723629 v -0.723628 h 0.72003 v 0.723628 z m -0.72363,-1.429256 v -0.723628 h 0.72363 v 0.723628 z m 0.72363,5.745826 v 0.712828 h -0.72363 v -0.712828 z m -0.72363,0 v -0.705628 h 0.72363 v 0.705628 z m 0,-1.429256 v -0.720028 h 0.72363 v 0.720028 z m 0,-0.720028 v -0.723629 h 0.72363 v 0.723629 z m 0,-1.443657 v -0.723629 h 0.72363 v 0.723629 z m 0,-0.723629 v -0.723628 h 0.72363 v 0.723628 z m -0.72363,-1.429256 v -0.723628 h 0.72363 v 0.723628 z m 0.72363,5.745826 v 0.712828 h -0.72363 v -0.712828 z m -0.72363,0 v -0.705628 h 0.72363 v 0.705628 z m 0,-1.429256 v -0.720028 h 0.72363 v 0.720028 z m 0,-0.720028 v -0.723629 h 0.72363 v 0.723629 z m 0,-1.443657 v -0.723629 h 0.72363 v 0.723629 z m 0,-0.723629 v -0.723628 h 0.72363 v 0.723628 z m -0.70563,-1.429256 v -0.723628 h 0.70563 v 0.723628 z m 0.70563,5.745826 v 0.712828 h -0.70563 v -0.712828 z m -0.70563,0 v -0.705628 h 0.70563 v 0.705628 z m 0,-1.429256 v -0.720028 h 0.70563 v 0.720028 z m 0,-0.720028 v -0.723629 h 0.70563 v 0.723629 z m 0,-1.443657 v -0.723629 h 0.70563 v 0.723629 z m 0,-0.723629 v -0.723628 h 0.70563 v 0.723628 z m -0.72363,-1.429256 v -0.723628 h 0.72363 v 0.723628 z m 0.72363,5.745826 v 0.712828 h -0.72363 v -0.712828 z m -0.72363,0 v -0.705628 h 0.72363 v 0.705628 z m -0.72002,-5.745826 v -0.723628 h 0.72002 v 0.723628 z m 0.72002,5.745826 v 0.712828 h -0.72002 v -0.712828 z m -0.72002,0 v -0.705628 h 0.72002 v 0.705628 z m -0.72363,-5.745826 v -0.723628 h 0.72363 v 0.723628 z m 0,5.745826 v -0.705628 h 0.72363 v 0.705628 z m 0,-0.705628 v -0.723628 h 0.72363 v 0.723628 z m 0,-0.723628 v -0.720028 h 0.72363 v 0.720028 z m 0,-0.720028 v -0.723629 h 0.72363 v 0.723629 z m 0,-0.723629 v -0.720028 h 0.72363 v 0.720028 z m 0,-0.720028 v -0.723629 h 0.72363 v 0.723629 z m 0,-0.723629 v -0.723628 h 0.72363 v 0.723628 z m 0,-0.723628 v -0.705628 h 0.72363 v 0.705628 z"
       style="font-style:normal;font-variant:normal;font-weight:normal;font-stretch:normal;font-size:7.37309px;font-family:'Karmatic Arcade';-inkscape-font-specification:'Karmatic Arcade';text-align:center;text-anchor:middle;fill:#ff0000;fill-opacity:1;stroke-width:0.251355"
       id="path1039" />
    <path
       d="m -115.59876,-30.773155 v 0.712828 h -0.70923 v -0.712828 z m -0.70923,0 v -0.705628 h 0.70923 v 0.705628 z m 0,-0.705628 v -0.723628 h 0.70923 v 0.723628 z m 0,-0.723628 v -0.720028 h 0.70923 v 0.720028 z m 0,-0.720028 v -0.723629 h 0.70923 v 0.723629 z m 0,-0.723629 v -0.720028 h 0.70923 v 0.720028 z m 0,-0.720028 v -0.723629 h 0.70923 v 0.723629 z m 0,-0.723629 v -0.723628 h 0.70923 v 0.723628 z m 0,4.31657 v 0.712828 h -0.72003 v -0.712828 z m -0.72003,0 v -0.705628 h 0.72003 v 0.705628 z m 0,-0.705628 v -0.723628 h 0.72003 v 0.723628 z m 0,-0.723628 v -0.720028 h 0.72003 v 0.720028 z m 0,-0.720028 v -0.723629 h 0.72003 v 0.723629 z m 0,-0.723629 v -0.720028 h 0.72003 v 0.720028 z m 0,-0.720028 v -0.723629 h 0.72003 v 0.723629 z m 0,-0.723629 v -0.723628 h 0.72003 v 0.723628 z m 0,-0.723628 v -0.705628 h 0.72003 v 0.705628 z m -0.72363,-0.705628 v -0.723628 h 0.72363 v 0.723628 z m 0.72363,5.745826 v 0.712828 h -0.72363 v -0.712828 z m -0.72363,0 v -0.705628 h 0.72363 v 0.705628 z m 0,-2.872913 v -0.720028 h 0.72363 v 0.720028 z m 0,-2.167285 v -0.705628 h 0.72363 v 0.705628 z m -0.72003,-0.705628 v -0.723628 h 0.72003 v 0.723628 z m 0.72003,5.745826 v 0.712828 h -0.72003 v -0.712828 z m -0.72003,0 v -0.705628 h 0.72003 v 0.705628 z m -0.72363,-5.745826 v -0.723628 h 0.72363 v 0.723628 z m 0,5.745826 v -0.705628 h 0.72363 v 0.705628 z m 0,-0.705628 v -0.723628 h 0.72363 v 0.723628 z m 0,-0.723628 v -0.720028 h 0.72363 v 0.720028 z m 0,-0.720028 v -0.723629 h 0.72363 v 0.723629 z m 0,-1.443657 v -0.723629 h 0.72363 v 0.723629 z m 0,-0.723629 v -0.723628 h 0.72363 v 0.723628 z m -0.72362,-1.429256 v -0.723628 h 0.72362 v 0.723628 z m 0.72362,5.745826 v 0.712828 h -0.72362 v -0.712828 z m -0.72362,0 v -0.705628 h 0.72362 v 0.705628 z m 0,-0.705628 v -0.723628 h 0.72362 v 0.723628 z m 0,-0.723628 v -0.720028 h 0.72362 v 0.720028 z m 0,-0.720028 v -0.723629 h 0.72362 v 0.723629 z m 0,-1.443657 v -0.723629 h 0.72362 v 0.723629 z m 0,-0.723629 v -0.723628 h 0.72362 v 0.723628 z m -0.70563,-1.429256 v -0.723628 h 0.70563 v 0.723628 z m 0.70563,5.745826 v 0.712828 h -0.70563 v -0.712828 z m -0.70563,0 v -0.705628 h 0.70563 v 0.705628 z m 0,-0.705628 v -0.723628 h 0.70563 v 0.723628 z m 0,-0.723628 v -0.720028 h 0.70563 v 0.720028 z m 0,-0.720028 v -0.723629 h 0.70563 v 0.723629 z m 0,-1.443657 v -0.723629 h 0.70563 v 0.723629 z m 0,-0.723629 v -0.723628 h 0.70563 v 0.723628 z m -0.72363,-1.429256 v -0.723628 h 0.72363 v 0.723628 z m 0.72363,5.745826 v 0.712828 h -0.72363 v -0.712828 z m -0.72363,0 v -0.705628 h 0.72363 v 0.705628 z m -0.72003,-5.745826 v -0.723628 h 0.72003 v 0.723628 z m 0.72003,5.745826 v 0.712828 h -0.72003 v -0.712828 z m -0.72003,0 v -0.705628 h 0.72003 v 0.705628 z m -0.72363,-5.745826 v -0.723628 h 0.72363 v 0.723628 z m 0,5.745826 v -0.705628 h 0.72363 v 0.705628 z m 0,-0.705628 v -0.723628 h 0.72363 v 0.723628 z m 0,-0.723628 v -0.720028 h 0.72363 v 0.720028 z m 0,-0.720028 v -0.723629 h 0.72363 v 0.723629 z m 0,-0.723629 v -0.720028 h 0.72363 v 0.720028 z m 0,-0.720028 v -0.723629 h 0.72363 v 0.723629 z m 0,-0.723629 v -0.723628 h 0.72363 v 0.723628 z m 0,-0.723628 v -0.705628 h 0.72363 v 0.705628 z"
       style="font-style:normal;font-variant:normal;font-weight:normal;font-stretch:normal;font-size:7.37309px;font-family:'Karmatic Arcade';-inkscape-font-specification:'Karmatic Arcade';text-align:center;text-anchor:middle;fill:#ff0000;fill-opacity:1;stroke-width:0.251355"
       id="path1041" />
  </g>
  <g
     aria-label="arithmaldor"
     transform="scale(-1)"
     id="text3845"
     style="font-style:normal;font-weight:normal;font-size:7.05556px;line-height:1.25;font-family:sans-serif;fill:#fd0000;fill-opacity:1;stroke:none;stroke-width:0.264583">
    <path
       d="m -172.94568,-21.544636 h -0.64423 v -0.409966 q -0.0861,0.05857 -0.23427,0.165364 -0.14469,0.103353 -0.28249,0.165365 -0.16192,0.07924 -0.37207,0.130914 -0.21016,0.05512 -0.49265,0.05512 -0.52021,0 -0.88195,-0.34451 -0.36173,-0.344509 -0.36173,-0.878499 0,-0.437528 0.18603,-0.706245 0.18948,-0.272163 0.53744,-0.427193 0.3514,-0.155029 0.84405,-0.210151 0.49264,-0.05512 1.05764,-0.08268 v -0.09991 q 0,-0.220486 -0.0792,-0.36518 -0.0758,-0.144694 -0.22048,-0.227377 -0.13781,-0.07924 -0.33073,-0.106798 -0.19293,-0.02756 -0.40308,-0.02756 -0.25494,0 -0.56844,0.0689 -0.3135,0.06546 -0.64768,0.192925 h -0.0344 v -0.658014 q 0.18948,-0.05168 0.54777,-0.113688 0.35829,-0.06201 0.70625,-0.06201 0.40652,0 0.70624,0.0689 0.30317,0.06546 0.52366,0.227377 0.21704,0.158474 0.33073,0.409966 0.11368,0.251493 0.11368,0.623563 z m -0.64423,-0.947402 v -1.071425 q -0.29628,0.01722 -0.69935,0.05168 -0.39964,0.03445 -0.6339,0.09991 -0.27906,0.07924 -0.45131,0.248047 -0.17225,0.165365 -0.17225,0.458198 0,0.33073 0.19981,0.499539 0.19982,0.165365 0.60978,0.165365 0.34107,0 0.62357,-0.130914 0.28249,-0.134358 0.52365,-0.320394 z"
       style="font-size:7.05556px;text-align:center;text-anchor:middle;fill:#fd0000;fill-opacity:1;stroke-width:0.264583"
       id="path1044" />
    <path
       d="m -169.29043,-24.686565 h -0.0345 q -0.14469,-0.03445 -0.2825,-0.04823 -0.13436,-0.01723 -0.32039,-0.01723 -0.29972,0 -0.57878,0.134359 -0.27905,0.130914 -0.53743,0.341065 v 2.731962 h -0.64768 v -3.848174 h 0.64768 v 0.568441 q 0.38585,-0.310059 0.67868,-0.437527 0.29628,-0.130914 0.60289,-0.130914 0.16881,0 0.24461,0.01034 0.0758,0.0069 0.22737,0.03101 z"
       style="font-size:7.05556px;text-align:center;text-anchor:middle;fill:#fd0000;fill-opacity:1;stroke-width:0.264583"
       id="path1046" />
    <path
       d="m -167.97785,-26.037043 h -0.73036 v -0.671794 h 0.73036 z m -0.0413,4.492407 h -0.64767 v -3.848174 h 0.64767 z"
       style="font-size:7.05556px;text-align:center;text-anchor:middle;fill:#fd0000;fill-opacity:1;stroke-width:0.264583"
       id="path1048" />
    <path
       d="m -164.73256,-21.579087 q -0.18259,0.04823 -0.39963,0.07924 -0.2136,0.03101 -0.38241,0.03101 -0.58911,0 -0.89573,-0.316949 -0.30661,-0.316949 -0.30661,-1.016303 v -2.046388 h -0.43753 v -0.544326 h 0.43753 v -1.105876 h 0.64768 v 1.105876 h 1.3367 v 0.544326 h -1.3367 v 1.753554 q 0,0.303169 0.0138,0.475424 0.0138,0.16881 0.0965,0.316949 0.0758,0.137804 0.20671,0.20326 0.13436,0.06201 0.40652,0.06201 0.15847,0 0.33073,-0.04479 0.17225,-0.04823 0.24805,-0.07924 h 0.0344 z"
       style="font-size:7.05556px;text-align:center;text-anchor:middle;fill:#fd0000;fill-opacity:1;stroke-width:0.264583"
       id="path1050" />
    <path
       d="m -160.72936,-21.544636 h -0.64768 v -2.191082 q 0,-0.265272 -0.031,-0.496094 -0.031,-0.234267 -0.11369,-0.36518 -0.0861,-0.144694 -0.24805,-0.213596 -0.16192,-0.07235 -0.4203,-0.07235 -0.26527,0 -0.55466,0.130913 -0.28939,0.130914 -0.55466,0.334175 v 2.873211 h -0.64768 v -5.360572 h 0.64768 v 1.93959 q 0.30317,-0.251492 0.62701,-0.392741 0.32383,-0.141249 0.6649,-0.141249 0.62356,0 0.95085,0.375516 0.32728,0.375515 0.32728,1.08176 z"
       style="font-size:7.05556px;text-align:center;text-anchor:middle;fill:#fd0000;fill-opacity:1;stroke-width:0.264583"
       id="path1052" />
    <path
       d="m -153.86672,-21.544636 h -0.64768 v -2.191082 q 0,-0.248047 -0.0241,-0.478868 -0.0207,-0.230822 -0.093,-0.368626 -0.0792,-0.148139 -0.22737,-0.223931 -0.14814,-0.07579 -0.4272,-0.07579 -0.27216,0 -0.54432,0.137803 -0.27216,0.134359 -0.54433,0.34451 0.0103,0.07924 0.0172,0.186036 0.007,0.103352 0.007,0.206705 v 2.463245 h -0.64768 v -2.191082 q 0,-0.254937 -0.0241,-0.482314 -0.0207,-0.230821 -0.093,-0.368625 -0.0792,-0.148139 -0.22738,-0.220486 -0.14814,-0.07579 -0.42719,-0.07579 -0.26527,0 -0.53399,0.130913 -0.26527,0.130914 -0.53055,0.334175 v 2.873211 h -0.64767 v -3.848174 h 0.64767 v 0.427192 q 0.30317,-0.251492 0.6029,-0.392741 0.30316,-0.141249 0.64423,-0.141249 0.39274,0 0.6649,0.165365 0.27561,0.165364 0.40997,0.458198 0.39274,-0.33073 0.71658,-0.475424 0.32384,-0.148139 0.69247,-0.148139 0.63389,0 0.93362,0.385851 0.30317,0.382406 0.30317,1.071425 z"
       style="font-size:7.05556px;text-align:center;text-anchor:middle;fill:#fd0000;fill-opacity:1;stroke-width:0.264583"
       id="path1054" />
    <path
       d="m -149.62925,-21.544636 h -0.64424 v -0.409966 q -0.0861,0.05857 -0.23426,0.165364 -0.1447,0.103353 -0.2825,0.165365 -0.16192,0.07924 -0.37207,0.130914 -0.21015,0.05512 -0.49265,0.05512 -0.52021,0 -0.88195,-0.34451 -0.36173,-0.344509 -0.36173,-0.878499 0,-0.437528 0.18603,-0.706245 0.18948,-0.272163 0.53744,-0.427193 0.3514,-0.155029 0.84405,-0.210151 0.49265,-0.05512 1.05764,-0.08268 v -0.09991 q 0,-0.220486 -0.0792,-0.36518 -0.0758,-0.144694 -0.22048,-0.227377 -0.13781,-0.07924 -0.33073,-0.106798 -0.19293,-0.02756 -0.40308,-0.02756 -0.25493,0 -0.56844,0.0689 -0.3135,0.06546 -0.64768,0.192925 h -0.0344 v -0.658014 q 0.18948,-0.05168 0.54777,-0.113688 0.35829,-0.06201 0.70625,-0.06201 0.40652,0 0.70624,0.0689 0.30317,0.06546 0.52366,0.227377 0.21704,0.158474 0.33073,0.409966 0.11369,0.251493 0.11369,0.623563 z m -0.64424,-0.947402 v -1.071425 q -0.29628,0.01722 -0.69935,0.05168 -0.39963,0.03445 -0.6339,0.09991 -0.27905,0.07924 -0.45131,0.248047 -0.17225,0.165365 -0.17225,0.458198 0,0.33073 0.19981,0.499539 0.19982,0.165365 0.60978,0.165365 0.34107,0 0.62357,-0.130914 0.2825,-0.134358 0.52365,-0.320394 z"
       style="font-size:7.05556px;text-align:center;text-anchor:middle;fill:#fd0000;fill-opacity:1;stroke-width:0.264583"
       id="path1056" />
    <path
       d="m -147.72067,-21.544636 h -0.64768 v -5.360572 h 0.64768 z"
       style="font-size:7.05556px;text-align:center;text-anchor:middle;fill:#fd0000;fill-opacity:1;stroke-width:0.264583"
       id="path1058" />
    <path
       d="m -143.31095,-21.544636 h -0.64767 v -0.403076 q -0.27906,0.241157 -0.58223,0.375515 -0.30316,0.134359 -0.65801,0.134359 -0.68902,0 -1.09554,-0.530545 -0.40308,-0.530545 -0.40308,-1.471057 0,-0.489203 0.13781,-0.871609 0.14125,-0.382406 0.37896,-0.651124 0.23426,-0.261827 0.54432,-0.399631 0.31351,-0.137804 0.64768,-0.137804 0.30317,0 0.53744,0.06546 0.23426,0.06201 0.49265,0.19637 v -1.667427 h 0.64767 z m -0.64767,-0.947402 v -2.208307 q -0.26183,-0.117134 -0.46854,-0.16192 -0.2067,-0.04479 -0.45131,-0.04479 -0.54432,0 -0.84749,0.378961 -0.30317,0.37896 -0.30317,1.07487 0,0.685575 0.23427,1.043865 0.23427,0.354845 0.75103,0.354845 0.27561,0 0.55811,-0.120579 0.28249,-0.124023 0.5271,-0.316949 z"
       style="font-size:7.05556px;text-align:center;text-anchor:middle;fill:#fd0000;fill-opacity:1;stroke-width:0.264583"
       id="path1060" />
    <path
       d="m -138.75653,-23.467 q 0,0.940511 -0.48231,1.484837 -0.48231,0.544325 -1.29191,0.544325 -0.81649,0 -1.2988,-0.544325 -0.47887,-0.544326 -0.47887,-1.484837 0,-0.940512 0.47887,-1.484837 0.48231,-0.547771 1.2988,-0.547771 0.8096,0 1.29191,0.547771 0.48231,0.544325 0.48231,1.484837 z m -0.66835,0 q 0,-0.747586 -0.29283,-1.109322 -0.29283,-0.36518 -0.81304,-0.36518 -0.5271,0 -0.81994,0.36518 -0.28938,0.361736 -0.28938,1.109322 0,0.72347 0.29283,1.098986 0.29283,0.37207 0.81649,0.37207 0.51676,0 0.8096,-0.368625 0.29627,-0.372071 0.29627,-1.102431 z"
       style="font-size:7.05556px;text-align:center;text-anchor:middle;fill:#fd0000;fill-opacity:1;stroke-width:0.264583"
       id="path1062" />
    <path
       d="m -135.34932,-24.686565 h -0.0345 q -0.14469,-0.03445 -0.28249,-0.04823 -0.13436,-0.01723 -0.3204,-0.01723 -0.29972,0 -0.57877,0.134359 -0.27906,0.130914 -0.53744,0.341065 v 2.731962 h -0.64768 v -3.848174 h 0.64768 v 0.568441 q 0.38585,-0.310059 0.67868,-0.437527 0.29628,-0.130914 0.6029,-0.130914 0.16881,0 0.2446,0.01034 0.0758,0.0069 0.22738,0.03101 z"
       style="font-size:7.05556px;text-align:center;text-anchor:middle;fill:#fd0000;fill-opacity:1;stroke-width:0.264583"
       id="path1064" />
  </g>
  <g
     transform="translate(99.785714)"
     id="g4020">
    <path
       id="circle4010"
       style="fill:none;fill-opacity:0;stroke:#000001;stroke-width:0.0248709;stroke-linecap:round;stroke-linejoin:round;stroke-miterlimit:4;stroke-dasharray:none;stroke-opacity:1"
       d="m 29.119929,64.351257 a 1.6215028,1.6215028 0 0 1 -1.621503,1.621503 1.6215028,1.6215028 0 0 1 -1.621502,-1.621503 1.6215028,1.6215028 0 0 1 1.621502,-1.621502 1.6215028,1.6215028 0 0 1 1.621503,1.621502" />
    <path
       id="circle4012"
       style="fill:#c2c2c2;fill-opacity:0;stroke:#000000;stroke-width:0.0248709;stroke-linecap:round;stroke-linejoin:round;stroke-miterlimit:4;stroke-dasharray:none;stroke-opacity:1"
       d="m 86.269925,64.351257 a 1.6215028,1.6215028 0 0 1 -1.621503,1.621503 1.6215028,1.6215028 0 0 1 -1.621503,-1.621503 1.6215028,1.6215028 0 0 1 1.621503,-1.621502 1.6215028,1.6215028 0 0 1 1.621503,1.621502" />
    <path
       id="circle4014"
       style="fill:#c2c2c2;fill-opacity:0;stroke:#000000;stroke-width:0.0248709;stroke-linecap:round;stroke-linejoin:round;stroke-miterlimit:4;stroke-dasharray:none;stroke-opacity:1"
       d="m 86.269925,16.091255 a 1.6215028,1.6215028 0 0 1 -1.621503,1.621503 1.6215028,1.6215028 0 0 1 -1.621503,-1.621503 1.6215028,1.6215028 0 0 1 1.621503,-1.621503 1.6215028,1.6215028 0 0 1 1.621503,1.621503" />
    <path
       id="circle4016"
       style="fill:#c2c2c2;fill-opacity:0;stroke:#000000;stroke-width:0.0248709;stroke-linecap:round;stroke-linejoin:round;stroke-miterlimit:4;stroke-dasharray:none;stroke-opacity:1"
       d="m 29.119929,16.091255 a 1.6215028,1.6215028 0 0 1 -1.621503,1.621503 1.6215028,1.6215028 0 0 1 -1.621502,-1.621503 1.6215028,1.6215028 0 0 1 1.621502,-1.621503 1.6215028,1.6215028 0 0 1 1.621503,1.621503" />
    <path
       id="rect4018"
       style="fill:none;stroke:#000000;stroke-width:0.0506071;stroke-miterlimit:10;stroke-dasharray:none"
       d="m 20.174961,8.9516106 h 71.796933 c 4.350605,0 7.853078,3.5024734 7.853078,7.8530784 v 56.858754 c 0,4.350606 -3.502473,7.853078 -7.853078,7.853078 H 20.174961 c -4.350606,0 -7.853079,-3.502472 -7.853079,-7.853078 V 16.804689 c 0,-4.350605 3.502473,-7.8530784 7.853079,-7.8530784 z" />
  </g>
</svg>
