M48
; DRILL file {KiCad (5.1.0)-1} date 4/4/2019 1:13:12 AM
; FORMAT={-:-/ absolute / inch / decimal}
; #@! TF.CreationDate,2019-04-04T01:13:12-04:00
; #@! TF.GenerationSoftware,Kicad,Pcbnew,(5.1.0)-1
FMAT,2
INCH
T1C0.0157
T2C0.0236
T3C0.0335
T4C0.0354
T5C0.0520
T6C0.1190
T7C0.1260
%
G90
G05
T1
X4.315Y-4.16
X4.315Y-4.205
X4.315Y-4.26
X4.335Y-3.005
X4.35Y-4.575
X4.355Y-4.43
X4.36Y-3.92
X4.465Y-4.05
X4.525Y-4.43
X4.5298Y-4.0802
X4.53Y-4.165
X4.53Y-4.205
X4.53Y-4.255
X4.5302Y-4.1202
X4.695Y-4.43
X4.765Y-4.09
X4.77Y-3.9
X4.77Y-3.96
X4.77Y-4.025
X4.77Y-4.15
X4.77Y-4.275
X4.87Y-4.43
X5.0Y-4.265
X5.065Y-4.15
X5.275Y-3.305
X5.275Y-3.675
T3
X4.7016Y-2.7876
X4.8984Y-2.7876
T4
X4.1516Y-2.6831
X4.1516Y-2.813
X4.25Y-2.6831
X4.25Y-2.813
X4.3484Y-2.6831
X4.3484Y-2.813
T5
X5.66Y-3.0175
X5.66Y-3.1675
X5.66Y-3.3175
X5.66Y-3.4675
X5.66Y-3.6175
X5.66Y-3.7675
X5.66Y-3.9175
X5.66Y-4.0675
X5.66Y-4.2175
X5.66Y-4.3675
X5.66Y-4.5175
X5.86Y-3.0925
X5.86Y-3.2425
X5.86Y-3.3925
X5.86Y-3.5425
X5.86Y-3.6925
X5.86Y-3.8425
X5.86Y-3.9925
X5.86Y-4.1425
X5.86Y-4.2925
X5.86Y-4.4425
X3.765Y-4.75
X3.84Y-4.95
X3.915Y-4.75
X3.99Y-4.95
X4.065Y-4.75
X4.14Y-4.95
X4.215Y-4.75
X4.29Y-4.95
X4.365Y-4.75
X4.44Y-4.95
X4.515Y-4.75
X4.59Y-4.95
X4.665Y-4.75
X4.74Y-4.95
X4.815Y-4.75
X4.89Y-4.95
X4.965Y-4.75
X5.04Y-4.95
X5.115Y-4.75
X5.19Y-4.95
X5.265Y-4.75
X3.185Y-3.0925
X3.185Y-3.2425
X3.185Y-3.3925
X3.185Y-3.5425
X3.185Y-3.6925
X3.185Y-3.8425
X3.185Y-3.9925
X3.185Y-4.1425
X3.185Y-4.2925
X3.185Y-4.4425
X3.385Y-3.0175
X3.385Y-3.1675
X3.385Y-3.3175
X3.385Y-3.4675
X3.385Y-3.6175
X3.385Y-3.7675
X3.385Y-3.9175
X3.385Y-4.0675
X3.385Y-4.2175
X3.385Y-4.3675
X3.385Y-4.5175
T6
X5.85Y-2.7275
X5.85Y-4.8075
X5.99Y-2.7275
X5.99Y-4.8075
X3.475Y-4.94
X3.475Y-5.08
X5.555Y-4.94
X5.555Y-5.08
X3.055Y-2.7275
X3.055Y-4.8075
X3.195Y-2.7275
X3.195Y-4.8075
T7
X3.4Y-2.825
X5.65Y-4.725
X5.65Y-2.825
X3.4Y-4.725
T2
G00X4.6622Y-2.6951
M15
G01X4.6622Y-2.6675
M16
G05
G00X4.9378Y-2.6675
M15
G01X4.9378Y-2.6951
M16
G05
T0
M30
