G04 #@! TF.GenerationSoftware,KiCad,Pcbnew,(5.1.0)-1*
G04 #@! TF.CreationDate,2019-04-04T01:13:05-04:00*
G04 #@! TF.ProjectId,SCART Splitter,53434152-5420-4537-906c-69747465722e,rev?*
G04 #@! TF.SameCoordinates,Original*
G04 #@! TF.FileFunction,Soldermask,Bot*
G04 #@! TF.FilePolarity,Negative*
%FSLAX46Y46*%
G04 Gerber Fmt 4.6, Leading zero omitted, Abs format (unit mm)*
G04 Created by KiCad (PCBNEW (5.1.0)-1) date 2019-04-04 01:13:05*
%MOMM*%
%LPD*%
G04 APERTURE LIST*
%ADD10C,0.100000*%
G04 APERTURE END LIST*
D10*
G36*
X141552705Y-127529738D02*
G01*
X141837025Y-127647507D01*
X142092907Y-127818482D01*
X142310518Y-128036093D01*
X142481493Y-128291975D01*
X142599262Y-128576295D01*
X142659300Y-128878126D01*
X142659300Y-129185874D01*
X142599262Y-129487705D01*
X142481493Y-129772025D01*
X142310518Y-130027907D01*
X142092907Y-130245518D01*
X141837025Y-130416493D01*
X141552705Y-130534262D01*
X141250874Y-130594300D01*
X140943126Y-130594300D01*
X140641295Y-130534262D01*
X140356975Y-130416493D01*
X140101093Y-130245518D01*
X139883482Y-130027907D01*
X139712507Y-129772025D01*
X139594738Y-129487705D01*
X139534700Y-129185874D01*
X139534700Y-128878126D01*
X139594738Y-128576295D01*
X139712507Y-128291975D01*
X139883482Y-128036093D01*
X140101093Y-127818482D01*
X140356975Y-127647507D01*
X140641295Y-127529738D01*
X140943126Y-127469700D01*
X141250874Y-127469700D01*
X141552705Y-127529738D01*
X141552705Y-127529738D01*
G37*
G36*
X88720705Y-127529738D02*
G01*
X89005025Y-127647507D01*
X89260907Y-127818482D01*
X89478518Y-128036093D01*
X89649493Y-128291975D01*
X89767262Y-128576295D01*
X89827300Y-128878126D01*
X89827300Y-129185874D01*
X89767262Y-129487705D01*
X89649493Y-129772025D01*
X89478518Y-130027907D01*
X89260907Y-130245518D01*
X89005025Y-130416493D01*
X88720705Y-130534262D01*
X88418874Y-130594300D01*
X88111126Y-130594300D01*
X87809295Y-130534262D01*
X87524975Y-130416493D01*
X87269093Y-130245518D01*
X87051482Y-130027907D01*
X86880507Y-129772025D01*
X86762738Y-129487705D01*
X86702700Y-129185874D01*
X86702700Y-128878126D01*
X86762738Y-128576295D01*
X86880507Y-128291975D01*
X87051482Y-128036093D01*
X87269093Y-127818482D01*
X87524975Y-127647507D01*
X87809295Y-127529738D01*
X88111126Y-127469700D01*
X88418874Y-127469700D01*
X88720705Y-127529738D01*
X88720705Y-127529738D01*
G37*
G36*
X101560106Y-123663003D02*
G01*
X101765991Y-123725458D01*
X101936256Y-123816467D01*
X101955729Y-123826875D01*
X102009060Y-123870642D01*
X102122036Y-123963359D01*
X102258528Y-124129675D01*
X102359942Y-124319408D01*
X102422397Y-124525293D01*
X102438200Y-124685747D01*
X102438200Y-126774253D01*
X102422397Y-126934707D01*
X102359942Y-127140592D01*
X102258528Y-127330325D01*
X102258526Y-127330328D01*
X102258525Y-127330329D01*
X102122038Y-127496638D01*
X102081705Y-127529739D01*
X101955725Y-127633128D01*
X101765992Y-127734542D01*
X101560107Y-127796997D01*
X101346000Y-127818084D01*
X101131894Y-127796997D01*
X100926009Y-127734542D01*
X100736276Y-127633128D01*
X100610297Y-127529739D01*
X100569963Y-127496638D01*
X100433476Y-127330329D01*
X100433475Y-127330328D01*
X100433473Y-127330325D01*
X100332059Y-127140592D01*
X100269604Y-126934707D01*
X100253801Y-126774253D01*
X100253800Y-124685748D01*
X100269603Y-124525294D01*
X100332058Y-124319409D01*
X100433474Y-124129673D01*
X100433475Y-124129671D01*
X100477242Y-124076341D01*
X100569959Y-123963364D01*
X100736275Y-123826872D01*
X100926008Y-123725458D01*
X101131893Y-123663003D01*
X101346000Y-123641916D01*
X101560106Y-123663003D01*
X101560106Y-123663003D01*
G37*
G36*
X109180106Y-123663003D02*
G01*
X109385991Y-123725458D01*
X109556256Y-123816467D01*
X109575729Y-123826875D01*
X109629060Y-123870642D01*
X109742036Y-123963359D01*
X109878528Y-124129675D01*
X109979942Y-124319408D01*
X110042397Y-124525293D01*
X110058200Y-124685747D01*
X110058200Y-126774253D01*
X110042397Y-126934707D01*
X109979942Y-127140592D01*
X109878528Y-127330325D01*
X109878526Y-127330328D01*
X109878525Y-127330329D01*
X109742038Y-127496638D01*
X109701705Y-127529739D01*
X109575725Y-127633128D01*
X109385992Y-127734542D01*
X109180107Y-127796997D01*
X108966000Y-127818084D01*
X108751894Y-127796997D01*
X108546009Y-127734542D01*
X108356276Y-127633128D01*
X108230297Y-127529739D01*
X108189963Y-127496638D01*
X108053476Y-127330329D01*
X108053475Y-127330328D01*
X108053473Y-127330325D01*
X107952059Y-127140592D01*
X107889604Y-126934707D01*
X107873801Y-126774253D01*
X107873800Y-124685748D01*
X107889603Y-124525294D01*
X107952058Y-124319409D01*
X108053474Y-124129673D01*
X108053475Y-124129671D01*
X108097242Y-124076341D01*
X108189959Y-123963364D01*
X108356275Y-123826872D01*
X108546008Y-123725458D01*
X108751893Y-123663003D01*
X108966000Y-123641916D01*
X109180106Y-123663003D01*
X109180106Y-123663003D01*
G37*
G36*
X128230106Y-123663003D02*
G01*
X128435991Y-123725458D01*
X128606256Y-123816467D01*
X128625729Y-123826875D01*
X128679060Y-123870642D01*
X128792036Y-123963359D01*
X128928528Y-124129675D01*
X129029942Y-124319408D01*
X129092397Y-124525293D01*
X129108200Y-124685747D01*
X129108200Y-126774253D01*
X129092397Y-126934707D01*
X129029942Y-127140592D01*
X128928528Y-127330325D01*
X128928526Y-127330328D01*
X128928525Y-127330329D01*
X128792038Y-127496638D01*
X128751705Y-127529739D01*
X128625725Y-127633128D01*
X128435992Y-127734542D01*
X128230107Y-127796997D01*
X128016000Y-127818084D01*
X127801894Y-127796997D01*
X127596009Y-127734542D01*
X127406276Y-127633128D01*
X127280297Y-127529739D01*
X127239963Y-127496638D01*
X127103476Y-127330329D01*
X127103475Y-127330328D01*
X127103473Y-127330325D01*
X127002059Y-127140592D01*
X126939604Y-126934707D01*
X126923801Y-126774253D01*
X126923800Y-124685748D01*
X126939603Y-124525294D01*
X127002058Y-124319409D01*
X127103474Y-124129673D01*
X127103475Y-124129671D01*
X127147242Y-124076341D01*
X127239959Y-123963364D01*
X127406275Y-123826872D01*
X127596008Y-123725458D01*
X127801893Y-123663003D01*
X128016000Y-123641916D01*
X128230106Y-123663003D01*
X128230106Y-123663003D01*
G37*
G36*
X132040106Y-123663003D02*
G01*
X132245991Y-123725458D01*
X132416256Y-123816467D01*
X132435729Y-123826875D01*
X132489060Y-123870642D01*
X132602036Y-123963359D01*
X132738528Y-124129675D01*
X132839942Y-124319408D01*
X132902397Y-124525293D01*
X132918200Y-124685747D01*
X132918200Y-126774253D01*
X132902397Y-126934707D01*
X132839942Y-127140592D01*
X132738528Y-127330325D01*
X132738526Y-127330328D01*
X132738525Y-127330329D01*
X132602038Y-127496638D01*
X132561705Y-127529739D01*
X132435725Y-127633128D01*
X132245992Y-127734542D01*
X132040107Y-127796997D01*
X131826000Y-127818084D01*
X131611894Y-127796997D01*
X131406009Y-127734542D01*
X131216276Y-127633128D01*
X131090297Y-127529739D01*
X131049963Y-127496638D01*
X130913476Y-127330329D01*
X130913475Y-127330328D01*
X130913473Y-127330325D01*
X130812059Y-127140592D01*
X130749604Y-126934707D01*
X130733801Y-126774253D01*
X130733800Y-124685748D01*
X130749603Y-124525294D01*
X130812058Y-124319409D01*
X130913474Y-124129673D01*
X130913475Y-124129671D01*
X130957242Y-124076341D01*
X131049959Y-123963364D01*
X131216275Y-123826872D01*
X131406008Y-123725458D01*
X131611893Y-123663003D01*
X131826000Y-123641916D01*
X132040106Y-123663003D01*
X132040106Y-123663003D01*
G37*
G36*
X124420106Y-123663003D02*
G01*
X124625991Y-123725458D01*
X124796256Y-123816467D01*
X124815729Y-123826875D01*
X124869060Y-123870642D01*
X124982036Y-123963359D01*
X125118528Y-124129675D01*
X125219942Y-124319408D01*
X125282397Y-124525293D01*
X125298200Y-124685747D01*
X125298200Y-126774253D01*
X125282397Y-126934707D01*
X125219942Y-127140592D01*
X125118528Y-127330325D01*
X125118526Y-127330328D01*
X125118525Y-127330329D01*
X124982038Y-127496638D01*
X124941705Y-127529739D01*
X124815725Y-127633128D01*
X124625992Y-127734542D01*
X124420107Y-127796997D01*
X124206000Y-127818084D01*
X123991894Y-127796997D01*
X123786009Y-127734542D01*
X123596276Y-127633128D01*
X123470297Y-127529739D01*
X123429963Y-127496638D01*
X123293476Y-127330329D01*
X123293475Y-127330328D01*
X123293473Y-127330325D01*
X123192059Y-127140592D01*
X123129604Y-126934707D01*
X123113801Y-126774253D01*
X123113800Y-124685748D01*
X123129603Y-124525294D01*
X123192058Y-124319409D01*
X123293474Y-124129673D01*
X123293475Y-124129671D01*
X123337242Y-124076341D01*
X123429959Y-123963364D01*
X123596275Y-123826872D01*
X123786008Y-123725458D01*
X123991893Y-123663003D01*
X124206000Y-123641916D01*
X124420106Y-123663003D01*
X124420106Y-123663003D01*
G37*
G36*
X120610106Y-123663003D02*
G01*
X120815991Y-123725458D01*
X120986256Y-123816467D01*
X121005729Y-123826875D01*
X121059060Y-123870642D01*
X121172036Y-123963359D01*
X121308528Y-124129675D01*
X121409942Y-124319408D01*
X121472397Y-124525293D01*
X121488200Y-124685747D01*
X121488200Y-126774253D01*
X121472397Y-126934707D01*
X121409942Y-127140592D01*
X121308528Y-127330325D01*
X121308526Y-127330328D01*
X121308525Y-127330329D01*
X121172038Y-127496638D01*
X121131705Y-127529739D01*
X121005725Y-127633128D01*
X120815992Y-127734542D01*
X120610107Y-127796997D01*
X120396000Y-127818084D01*
X120181894Y-127796997D01*
X119976009Y-127734542D01*
X119786276Y-127633128D01*
X119660297Y-127529739D01*
X119619963Y-127496638D01*
X119483476Y-127330329D01*
X119483475Y-127330328D01*
X119483473Y-127330325D01*
X119382059Y-127140592D01*
X119319604Y-126934707D01*
X119303801Y-126774253D01*
X119303800Y-124685748D01*
X119319603Y-124525294D01*
X119382058Y-124319409D01*
X119483474Y-124129673D01*
X119483475Y-124129671D01*
X119527242Y-124076341D01*
X119619959Y-123963364D01*
X119786275Y-123826872D01*
X119976008Y-123725458D01*
X120181893Y-123663003D01*
X120396000Y-123641916D01*
X120610106Y-123663003D01*
X120610106Y-123663003D01*
G37*
G36*
X116800106Y-123663003D02*
G01*
X117005991Y-123725458D01*
X117176256Y-123816467D01*
X117195729Y-123826875D01*
X117249060Y-123870642D01*
X117362036Y-123963359D01*
X117498528Y-124129675D01*
X117599942Y-124319408D01*
X117662397Y-124525293D01*
X117678200Y-124685747D01*
X117678200Y-126774253D01*
X117662397Y-126934707D01*
X117599942Y-127140592D01*
X117498528Y-127330325D01*
X117498526Y-127330328D01*
X117498525Y-127330329D01*
X117362038Y-127496638D01*
X117321705Y-127529739D01*
X117195725Y-127633128D01*
X117005992Y-127734542D01*
X116800107Y-127796997D01*
X116586000Y-127818084D01*
X116371894Y-127796997D01*
X116166009Y-127734542D01*
X115976276Y-127633128D01*
X115850297Y-127529739D01*
X115809963Y-127496638D01*
X115673476Y-127330329D01*
X115673475Y-127330328D01*
X115673473Y-127330325D01*
X115572059Y-127140592D01*
X115509604Y-126934707D01*
X115493801Y-126774253D01*
X115493800Y-124685748D01*
X115509603Y-124525294D01*
X115572058Y-124319409D01*
X115673474Y-124129673D01*
X115673475Y-124129671D01*
X115717242Y-124076341D01*
X115809959Y-123963364D01*
X115976275Y-123826872D01*
X116166008Y-123725458D01*
X116371893Y-123663003D01*
X116586000Y-123641916D01*
X116800106Y-123663003D01*
X116800106Y-123663003D01*
G37*
G36*
X112990106Y-123663003D02*
G01*
X113195991Y-123725458D01*
X113366256Y-123816467D01*
X113385729Y-123826875D01*
X113439060Y-123870642D01*
X113552036Y-123963359D01*
X113688528Y-124129675D01*
X113789942Y-124319408D01*
X113852397Y-124525293D01*
X113868200Y-124685747D01*
X113868200Y-126774253D01*
X113852397Y-126934707D01*
X113789942Y-127140592D01*
X113688528Y-127330325D01*
X113688526Y-127330328D01*
X113688525Y-127330329D01*
X113552038Y-127496638D01*
X113511705Y-127529739D01*
X113385725Y-127633128D01*
X113195992Y-127734542D01*
X112990107Y-127796997D01*
X112776000Y-127818084D01*
X112561894Y-127796997D01*
X112356009Y-127734542D01*
X112166276Y-127633128D01*
X112040297Y-127529739D01*
X111999963Y-127496638D01*
X111863476Y-127330329D01*
X111863475Y-127330328D01*
X111863473Y-127330325D01*
X111762059Y-127140592D01*
X111699604Y-126934707D01*
X111683801Y-126774253D01*
X111683800Y-124685748D01*
X111699603Y-124525294D01*
X111762058Y-124319409D01*
X111863474Y-124129673D01*
X111863475Y-124129671D01*
X111907242Y-124076341D01*
X111999959Y-123963364D01*
X112166275Y-123826872D01*
X112356008Y-123725458D01*
X112561893Y-123663003D01*
X112776000Y-123641916D01*
X112990106Y-123663003D01*
X112990106Y-123663003D01*
G37*
G36*
X97750106Y-123663003D02*
G01*
X97955991Y-123725458D01*
X98126256Y-123816467D01*
X98145729Y-123826875D01*
X98199060Y-123870642D01*
X98312036Y-123963359D01*
X98448528Y-124129675D01*
X98549942Y-124319408D01*
X98612397Y-124525293D01*
X98628200Y-124685747D01*
X98628200Y-126774253D01*
X98612397Y-126934707D01*
X98549942Y-127140592D01*
X98448528Y-127330325D01*
X98448526Y-127330328D01*
X98448525Y-127330329D01*
X98312038Y-127496638D01*
X98271705Y-127529739D01*
X98145725Y-127633128D01*
X97955992Y-127734542D01*
X97750107Y-127796997D01*
X97536000Y-127818084D01*
X97321894Y-127796997D01*
X97116009Y-127734542D01*
X96926276Y-127633128D01*
X96800297Y-127529739D01*
X96759963Y-127496638D01*
X96623476Y-127330329D01*
X96623475Y-127330328D01*
X96623473Y-127330325D01*
X96522059Y-127140592D01*
X96459604Y-126934707D01*
X96443801Y-126774253D01*
X96443800Y-124685748D01*
X96459603Y-124525294D01*
X96522058Y-124319409D01*
X96623474Y-124129673D01*
X96623475Y-124129671D01*
X96667242Y-124076341D01*
X96759959Y-123963364D01*
X96926275Y-123826872D01*
X97116008Y-123725458D01*
X97321893Y-123663003D01*
X97536000Y-123641916D01*
X97750106Y-123663003D01*
X97750106Y-123663003D01*
G37*
G36*
X105370106Y-123663003D02*
G01*
X105575991Y-123725458D01*
X105746256Y-123816467D01*
X105765729Y-123826875D01*
X105819060Y-123870642D01*
X105932036Y-123963359D01*
X106068528Y-124129675D01*
X106169942Y-124319408D01*
X106232397Y-124525293D01*
X106248200Y-124685747D01*
X106248200Y-126774253D01*
X106232397Y-126934707D01*
X106169942Y-127140592D01*
X106068528Y-127330325D01*
X106068526Y-127330328D01*
X106068525Y-127330329D01*
X105932038Y-127496638D01*
X105891705Y-127529739D01*
X105765725Y-127633128D01*
X105575992Y-127734542D01*
X105370107Y-127796997D01*
X105156000Y-127818084D01*
X104941894Y-127796997D01*
X104736009Y-127734542D01*
X104546276Y-127633128D01*
X104420297Y-127529739D01*
X104379963Y-127496638D01*
X104243476Y-127330329D01*
X104243475Y-127330328D01*
X104243473Y-127330325D01*
X104142059Y-127140592D01*
X104079604Y-126934707D01*
X104063801Y-126774253D01*
X104063800Y-124685748D01*
X104079603Y-124525294D01*
X104142058Y-124319409D01*
X104243474Y-124129673D01*
X104243475Y-124129671D01*
X104287242Y-124076341D01*
X104379959Y-123963364D01*
X104546275Y-123826872D01*
X104736008Y-123725458D01*
X104941893Y-123663003D01*
X105156000Y-123641916D01*
X105370106Y-123663003D01*
X105370106Y-123663003D01*
G37*
G36*
X88720705Y-123973738D02*
G01*
X89005025Y-124091507D01*
X89260907Y-124262482D01*
X89478518Y-124480093D01*
X89649493Y-124735975D01*
X89767262Y-125020295D01*
X89827300Y-125322126D01*
X89827300Y-125629874D01*
X89767262Y-125931705D01*
X89649493Y-126216025D01*
X89478518Y-126471907D01*
X89260907Y-126689518D01*
X89005025Y-126860493D01*
X88720705Y-126978262D01*
X88418874Y-127038300D01*
X88111126Y-127038300D01*
X87809295Y-126978262D01*
X87524975Y-126860493D01*
X87269093Y-126689518D01*
X87051482Y-126471907D01*
X86880507Y-126216025D01*
X86762738Y-125931705D01*
X86702700Y-125629874D01*
X86702700Y-125322126D01*
X86762738Y-125020295D01*
X86880507Y-124735975D01*
X87051482Y-124480093D01*
X87269093Y-124262482D01*
X87524975Y-124091507D01*
X87809295Y-123973738D01*
X88111126Y-123913700D01*
X88418874Y-123913700D01*
X88720705Y-123973738D01*
X88720705Y-123973738D01*
G37*
G36*
X141552705Y-123973738D02*
G01*
X141837025Y-124091507D01*
X142092907Y-124262482D01*
X142310518Y-124480093D01*
X142481493Y-124735975D01*
X142599262Y-125020295D01*
X142659300Y-125322126D01*
X142659300Y-125629874D01*
X142599262Y-125931705D01*
X142481493Y-126216025D01*
X142310518Y-126471907D01*
X142092907Y-126689518D01*
X141837025Y-126860493D01*
X141552705Y-126978262D01*
X141250874Y-127038300D01*
X140943126Y-127038300D01*
X140641295Y-126978262D01*
X140356975Y-126860493D01*
X140101093Y-126689518D01*
X139883482Y-126471907D01*
X139712507Y-126216025D01*
X139594738Y-125931705D01*
X139534700Y-125629874D01*
X139534700Y-125322126D01*
X139594738Y-125020295D01*
X139712507Y-124735975D01*
X139883482Y-124480093D01*
X140101093Y-124262482D01*
X140356975Y-124091507D01*
X140641295Y-123973738D01*
X140943126Y-123913700D01*
X141250874Y-123913700D01*
X141552705Y-123973738D01*
X141552705Y-123973738D01*
G37*
G36*
X81608705Y-120608238D02*
G01*
X81893025Y-120726007D01*
X82148907Y-120896982D01*
X82366518Y-121114593D01*
X82537493Y-121370475D01*
X82655262Y-121654795D01*
X82715300Y-121956626D01*
X82715300Y-122264374D01*
X82655262Y-122566205D01*
X82537493Y-122850525D01*
X82366518Y-123106407D01*
X82148907Y-123324018D01*
X81893025Y-123494993D01*
X81608705Y-123612762D01*
X81306874Y-123672800D01*
X80999126Y-123672800D01*
X80697295Y-123612762D01*
X80412975Y-123494993D01*
X80157093Y-123324018D01*
X79939482Y-123106407D01*
X79768507Y-122850525D01*
X79650738Y-122566205D01*
X79590700Y-122264374D01*
X79590700Y-121956626D01*
X79650738Y-121654795D01*
X79768507Y-121370475D01*
X79939482Y-121114593D01*
X80157093Y-120896982D01*
X80412975Y-120726007D01*
X80697295Y-120608238D01*
X80999126Y-120548200D01*
X81306874Y-120548200D01*
X81608705Y-120608238D01*
X81608705Y-120608238D01*
G37*
G36*
X152601705Y-120608238D02*
G01*
X152886025Y-120726007D01*
X153141907Y-120896982D01*
X153359518Y-121114593D01*
X153530493Y-121370475D01*
X153648262Y-121654795D01*
X153708300Y-121956626D01*
X153708300Y-122264374D01*
X153648262Y-122566205D01*
X153530493Y-122850525D01*
X153359518Y-123106407D01*
X153141907Y-123324018D01*
X152886025Y-123494993D01*
X152601705Y-123612762D01*
X152299874Y-123672800D01*
X151992126Y-123672800D01*
X151690295Y-123612762D01*
X151405975Y-123494993D01*
X151150093Y-123324018D01*
X150932482Y-123106407D01*
X150761507Y-122850525D01*
X150643738Y-122566205D01*
X150583700Y-122264374D01*
X150583700Y-121956626D01*
X150643738Y-121654795D01*
X150761507Y-121370475D01*
X150932482Y-121114593D01*
X151150093Y-120896982D01*
X151405975Y-120726007D01*
X151690295Y-120608238D01*
X151992126Y-120548200D01*
X152299874Y-120548200D01*
X152601705Y-120608238D01*
X152601705Y-120608238D01*
G37*
G36*
X149045705Y-120608238D02*
G01*
X149330025Y-120726007D01*
X149585907Y-120896982D01*
X149803518Y-121114593D01*
X149974493Y-121370475D01*
X150092262Y-121654795D01*
X150152300Y-121956626D01*
X150152300Y-122264374D01*
X150092262Y-122566205D01*
X149974493Y-122850525D01*
X149803518Y-123106407D01*
X149585907Y-123324018D01*
X149330025Y-123494993D01*
X149045705Y-123612762D01*
X148743874Y-123672800D01*
X148436126Y-123672800D01*
X148134295Y-123612762D01*
X147849975Y-123494993D01*
X147594093Y-123324018D01*
X147376482Y-123106407D01*
X147205507Y-122850525D01*
X147087738Y-122566205D01*
X147027700Y-122264374D01*
X147027700Y-121956626D01*
X147087738Y-121654795D01*
X147205507Y-121370475D01*
X147376482Y-121114593D01*
X147594093Y-120896982D01*
X147849975Y-120726007D01*
X148134295Y-120608238D01*
X148436126Y-120548200D01*
X148743874Y-120548200D01*
X149045705Y-120608238D01*
X149045705Y-120608238D01*
G37*
G36*
X78052705Y-120608238D02*
G01*
X78337025Y-120726007D01*
X78592907Y-120896982D01*
X78810518Y-121114593D01*
X78981493Y-121370475D01*
X79099262Y-121654795D01*
X79159300Y-121956626D01*
X79159300Y-122264374D01*
X79099262Y-122566205D01*
X78981493Y-122850525D01*
X78810518Y-123106407D01*
X78592907Y-123324018D01*
X78337025Y-123494993D01*
X78052705Y-123612762D01*
X77750874Y-123672800D01*
X77443126Y-123672800D01*
X77141295Y-123612762D01*
X76856975Y-123494993D01*
X76601093Y-123324018D01*
X76383482Y-123106407D01*
X76212507Y-122850525D01*
X76094738Y-122566205D01*
X76034700Y-122264374D01*
X76034700Y-121956626D01*
X76094738Y-121654795D01*
X76212507Y-121370475D01*
X76383482Y-121114593D01*
X76601093Y-120896982D01*
X76856975Y-120726007D01*
X77141295Y-120608238D01*
X77443126Y-120548200D01*
X77750874Y-120548200D01*
X78052705Y-120608238D01*
X78052705Y-120608238D01*
G37*
G36*
X130135106Y-118583003D02*
G01*
X130340991Y-118645458D01*
X130503992Y-118732584D01*
X130530729Y-118746875D01*
X130584060Y-118790642D01*
X130697036Y-118883359D01*
X130833528Y-119049675D01*
X130934942Y-119239408D01*
X130997397Y-119445293D01*
X131013200Y-119605747D01*
X131013200Y-121694253D01*
X130997397Y-121854707D01*
X130934942Y-122060592D01*
X130833528Y-122250325D01*
X130833526Y-122250328D01*
X130833525Y-122250329D01*
X130697038Y-122416638D01*
X130530725Y-122553128D01*
X130340992Y-122654542D01*
X130135107Y-122716997D01*
X129921000Y-122738084D01*
X129706894Y-122716997D01*
X129501009Y-122654542D01*
X129311276Y-122553128D01*
X129144963Y-122416638D01*
X129008476Y-122250329D01*
X129008475Y-122250328D01*
X129008473Y-122250325D01*
X128907059Y-122060592D01*
X128844604Y-121854707D01*
X128828801Y-121694253D01*
X128828800Y-119605748D01*
X128844603Y-119445294D01*
X128907058Y-119239409D01*
X129008474Y-119049673D01*
X129008475Y-119049671D01*
X129079973Y-118962551D01*
X129144959Y-118883364D01*
X129311275Y-118746872D01*
X129501008Y-118645458D01*
X129706893Y-118583003D01*
X129921000Y-118561916D01*
X130135106Y-118583003D01*
X130135106Y-118583003D01*
G37*
G36*
X133945106Y-118583003D02*
G01*
X134150991Y-118645458D01*
X134313992Y-118732584D01*
X134340729Y-118746875D01*
X134394060Y-118790642D01*
X134507036Y-118883359D01*
X134643528Y-119049675D01*
X134744942Y-119239408D01*
X134807397Y-119445293D01*
X134823200Y-119605747D01*
X134823200Y-121694253D01*
X134807397Y-121854707D01*
X134744942Y-122060592D01*
X134643528Y-122250325D01*
X134643526Y-122250328D01*
X134643525Y-122250329D01*
X134507038Y-122416638D01*
X134340725Y-122553128D01*
X134150992Y-122654542D01*
X133945107Y-122716997D01*
X133731000Y-122738084D01*
X133516894Y-122716997D01*
X133311009Y-122654542D01*
X133121276Y-122553128D01*
X132954963Y-122416638D01*
X132818476Y-122250329D01*
X132818475Y-122250328D01*
X132818473Y-122250325D01*
X132717059Y-122060592D01*
X132654604Y-121854707D01*
X132638801Y-121694253D01*
X132638800Y-119605748D01*
X132654603Y-119445294D01*
X132717058Y-119239409D01*
X132818474Y-119049673D01*
X132818475Y-119049671D01*
X132889973Y-118962551D01*
X132954959Y-118883364D01*
X133121275Y-118746872D01*
X133311008Y-118645458D01*
X133516893Y-118583003D01*
X133731000Y-118561916D01*
X133945106Y-118583003D01*
X133945106Y-118583003D01*
G37*
G36*
X122515106Y-118583003D02*
G01*
X122720991Y-118645458D01*
X122883992Y-118732584D01*
X122910729Y-118746875D01*
X122964060Y-118790642D01*
X123077036Y-118883359D01*
X123213528Y-119049675D01*
X123314942Y-119239408D01*
X123377397Y-119445293D01*
X123393200Y-119605747D01*
X123393200Y-121694253D01*
X123377397Y-121854707D01*
X123314942Y-122060592D01*
X123213528Y-122250325D01*
X123213526Y-122250328D01*
X123213525Y-122250329D01*
X123077038Y-122416638D01*
X122910725Y-122553128D01*
X122720992Y-122654542D01*
X122515107Y-122716997D01*
X122301000Y-122738084D01*
X122086894Y-122716997D01*
X121881009Y-122654542D01*
X121691276Y-122553128D01*
X121524963Y-122416638D01*
X121388476Y-122250329D01*
X121388475Y-122250328D01*
X121388473Y-122250325D01*
X121287059Y-122060592D01*
X121224604Y-121854707D01*
X121208801Y-121694253D01*
X121208800Y-119605748D01*
X121224603Y-119445294D01*
X121287058Y-119239409D01*
X121388474Y-119049673D01*
X121388475Y-119049671D01*
X121459973Y-118962551D01*
X121524959Y-118883364D01*
X121691275Y-118746872D01*
X121881008Y-118645458D01*
X122086893Y-118583003D01*
X122301000Y-118561916D01*
X122515106Y-118583003D01*
X122515106Y-118583003D01*
G37*
G36*
X118705106Y-118583003D02*
G01*
X118910991Y-118645458D01*
X119073992Y-118732584D01*
X119100729Y-118746875D01*
X119154060Y-118790642D01*
X119267036Y-118883359D01*
X119403528Y-119049675D01*
X119504942Y-119239408D01*
X119567397Y-119445293D01*
X119583200Y-119605747D01*
X119583200Y-121694253D01*
X119567397Y-121854707D01*
X119504942Y-122060592D01*
X119403528Y-122250325D01*
X119403526Y-122250328D01*
X119403525Y-122250329D01*
X119267038Y-122416638D01*
X119100725Y-122553128D01*
X118910992Y-122654542D01*
X118705107Y-122716997D01*
X118491000Y-122738084D01*
X118276894Y-122716997D01*
X118071009Y-122654542D01*
X117881276Y-122553128D01*
X117714963Y-122416638D01*
X117578476Y-122250329D01*
X117578475Y-122250328D01*
X117578473Y-122250325D01*
X117477059Y-122060592D01*
X117414604Y-121854707D01*
X117398801Y-121694253D01*
X117398800Y-119605748D01*
X117414603Y-119445294D01*
X117477058Y-119239409D01*
X117578474Y-119049673D01*
X117578475Y-119049671D01*
X117649973Y-118962551D01*
X117714959Y-118883364D01*
X117881275Y-118746872D01*
X118071008Y-118645458D01*
X118276893Y-118583003D01*
X118491000Y-118561916D01*
X118705106Y-118583003D01*
X118705106Y-118583003D01*
G37*
G36*
X114895106Y-118583003D02*
G01*
X115100991Y-118645458D01*
X115263992Y-118732584D01*
X115290729Y-118746875D01*
X115344060Y-118790642D01*
X115457036Y-118883359D01*
X115593528Y-119049675D01*
X115694942Y-119239408D01*
X115757397Y-119445293D01*
X115773200Y-119605747D01*
X115773200Y-121694253D01*
X115757397Y-121854707D01*
X115694942Y-122060592D01*
X115593528Y-122250325D01*
X115593526Y-122250328D01*
X115593525Y-122250329D01*
X115457038Y-122416638D01*
X115290725Y-122553128D01*
X115100992Y-122654542D01*
X114895107Y-122716997D01*
X114681000Y-122738084D01*
X114466894Y-122716997D01*
X114261009Y-122654542D01*
X114071276Y-122553128D01*
X113904963Y-122416638D01*
X113768476Y-122250329D01*
X113768475Y-122250328D01*
X113768473Y-122250325D01*
X113667059Y-122060592D01*
X113604604Y-121854707D01*
X113588801Y-121694253D01*
X113588800Y-119605748D01*
X113604603Y-119445294D01*
X113667058Y-119239409D01*
X113768474Y-119049673D01*
X113768475Y-119049671D01*
X113839973Y-118962551D01*
X113904959Y-118883364D01*
X114071275Y-118746872D01*
X114261008Y-118645458D01*
X114466893Y-118583003D01*
X114681000Y-118561916D01*
X114895106Y-118583003D01*
X114895106Y-118583003D01*
G37*
G36*
X111085106Y-118583003D02*
G01*
X111290991Y-118645458D01*
X111453992Y-118732584D01*
X111480729Y-118746875D01*
X111534060Y-118790642D01*
X111647036Y-118883359D01*
X111783528Y-119049675D01*
X111884942Y-119239408D01*
X111947397Y-119445293D01*
X111963200Y-119605747D01*
X111963200Y-121694253D01*
X111947397Y-121854707D01*
X111884942Y-122060592D01*
X111783528Y-122250325D01*
X111783526Y-122250328D01*
X111783525Y-122250329D01*
X111647038Y-122416638D01*
X111480725Y-122553128D01*
X111290992Y-122654542D01*
X111085107Y-122716997D01*
X110871000Y-122738084D01*
X110656894Y-122716997D01*
X110451009Y-122654542D01*
X110261276Y-122553128D01*
X110094963Y-122416638D01*
X109958476Y-122250329D01*
X109958475Y-122250328D01*
X109958473Y-122250325D01*
X109857059Y-122060592D01*
X109794604Y-121854707D01*
X109778801Y-121694253D01*
X109778800Y-119605748D01*
X109794603Y-119445294D01*
X109857058Y-119239409D01*
X109958474Y-119049673D01*
X109958475Y-119049671D01*
X110029973Y-118962551D01*
X110094959Y-118883364D01*
X110261275Y-118746872D01*
X110451008Y-118645458D01*
X110656893Y-118583003D01*
X110871000Y-118561916D01*
X111085106Y-118583003D01*
X111085106Y-118583003D01*
G37*
G36*
X103465106Y-118583003D02*
G01*
X103670991Y-118645458D01*
X103833992Y-118732584D01*
X103860729Y-118746875D01*
X103914060Y-118790642D01*
X104027036Y-118883359D01*
X104163528Y-119049675D01*
X104264942Y-119239408D01*
X104327397Y-119445293D01*
X104343200Y-119605747D01*
X104343200Y-121694253D01*
X104327397Y-121854707D01*
X104264942Y-122060592D01*
X104163528Y-122250325D01*
X104163526Y-122250328D01*
X104163525Y-122250329D01*
X104027038Y-122416638D01*
X103860725Y-122553128D01*
X103670992Y-122654542D01*
X103465107Y-122716997D01*
X103251000Y-122738084D01*
X103036894Y-122716997D01*
X102831009Y-122654542D01*
X102641276Y-122553128D01*
X102474963Y-122416638D01*
X102338476Y-122250329D01*
X102338475Y-122250328D01*
X102338473Y-122250325D01*
X102237059Y-122060592D01*
X102174604Y-121854707D01*
X102158801Y-121694253D01*
X102158800Y-119605748D01*
X102174603Y-119445294D01*
X102237058Y-119239409D01*
X102338474Y-119049673D01*
X102338475Y-119049671D01*
X102409973Y-118962551D01*
X102474959Y-118883364D01*
X102641275Y-118746872D01*
X102831008Y-118645458D01*
X103036893Y-118583003D01*
X103251000Y-118561916D01*
X103465106Y-118583003D01*
X103465106Y-118583003D01*
G37*
G36*
X126325106Y-118583003D02*
G01*
X126530991Y-118645458D01*
X126693992Y-118732584D01*
X126720729Y-118746875D01*
X126774060Y-118790642D01*
X126887036Y-118883359D01*
X127023528Y-119049675D01*
X127124942Y-119239408D01*
X127187397Y-119445293D01*
X127203200Y-119605747D01*
X127203200Y-121694253D01*
X127187397Y-121854707D01*
X127124942Y-122060592D01*
X127023528Y-122250325D01*
X127023526Y-122250328D01*
X127023525Y-122250329D01*
X126887038Y-122416638D01*
X126720725Y-122553128D01*
X126530992Y-122654542D01*
X126325107Y-122716997D01*
X126111000Y-122738084D01*
X125896894Y-122716997D01*
X125691009Y-122654542D01*
X125501276Y-122553128D01*
X125334963Y-122416638D01*
X125198476Y-122250329D01*
X125198475Y-122250328D01*
X125198473Y-122250325D01*
X125097059Y-122060592D01*
X125034604Y-121854707D01*
X125018801Y-121694253D01*
X125018800Y-119605748D01*
X125034603Y-119445294D01*
X125097058Y-119239409D01*
X125198474Y-119049673D01*
X125198475Y-119049671D01*
X125269973Y-118962551D01*
X125334959Y-118883364D01*
X125501275Y-118746872D01*
X125691008Y-118645458D01*
X125896893Y-118583003D01*
X126111000Y-118561916D01*
X126325106Y-118583003D01*
X126325106Y-118583003D01*
G37*
G36*
X99655106Y-118583003D02*
G01*
X99860991Y-118645458D01*
X100023992Y-118732584D01*
X100050729Y-118746875D01*
X100104060Y-118790642D01*
X100217036Y-118883359D01*
X100353528Y-119049675D01*
X100454942Y-119239408D01*
X100517397Y-119445293D01*
X100533200Y-119605747D01*
X100533200Y-121694253D01*
X100517397Y-121854707D01*
X100454942Y-122060592D01*
X100353528Y-122250325D01*
X100353526Y-122250328D01*
X100353525Y-122250329D01*
X100217038Y-122416638D01*
X100050725Y-122553128D01*
X99860992Y-122654542D01*
X99655107Y-122716997D01*
X99441000Y-122738084D01*
X99226894Y-122716997D01*
X99021009Y-122654542D01*
X98831276Y-122553128D01*
X98664963Y-122416638D01*
X98528476Y-122250329D01*
X98528475Y-122250328D01*
X98528473Y-122250325D01*
X98427059Y-122060592D01*
X98364604Y-121854707D01*
X98348801Y-121694253D01*
X98348800Y-119605748D01*
X98364603Y-119445294D01*
X98427058Y-119239409D01*
X98528474Y-119049673D01*
X98528475Y-119049671D01*
X98599973Y-118962551D01*
X98664959Y-118883364D01*
X98831275Y-118746872D01*
X99021008Y-118645458D01*
X99226893Y-118583003D01*
X99441000Y-118561916D01*
X99655106Y-118583003D01*
X99655106Y-118583003D01*
G37*
G36*
X95845106Y-118583003D02*
G01*
X96050991Y-118645458D01*
X96213992Y-118732584D01*
X96240729Y-118746875D01*
X96294060Y-118790642D01*
X96407036Y-118883359D01*
X96543528Y-119049675D01*
X96644942Y-119239408D01*
X96707397Y-119445293D01*
X96723200Y-119605747D01*
X96723200Y-121694253D01*
X96707397Y-121854707D01*
X96644942Y-122060592D01*
X96543528Y-122250325D01*
X96543526Y-122250328D01*
X96543525Y-122250329D01*
X96407038Y-122416638D01*
X96240725Y-122553128D01*
X96050992Y-122654542D01*
X95845107Y-122716997D01*
X95631000Y-122738084D01*
X95416894Y-122716997D01*
X95211009Y-122654542D01*
X95021276Y-122553128D01*
X94854963Y-122416638D01*
X94718476Y-122250329D01*
X94718475Y-122250328D01*
X94718473Y-122250325D01*
X94617059Y-122060592D01*
X94554604Y-121854707D01*
X94538801Y-121694253D01*
X94538800Y-119605748D01*
X94554603Y-119445294D01*
X94617058Y-119239409D01*
X94718474Y-119049673D01*
X94718475Y-119049671D01*
X94789973Y-118962551D01*
X94854959Y-118883364D01*
X95021275Y-118746872D01*
X95211008Y-118645458D01*
X95416893Y-118583003D01*
X95631000Y-118561916D01*
X95845106Y-118583003D01*
X95845106Y-118583003D01*
G37*
G36*
X107275106Y-118583003D02*
G01*
X107480991Y-118645458D01*
X107643992Y-118732584D01*
X107670729Y-118746875D01*
X107724060Y-118790642D01*
X107837036Y-118883359D01*
X107973528Y-119049675D01*
X108074942Y-119239408D01*
X108137397Y-119445293D01*
X108153200Y-119605747D01*
X108153200Y-121694253D01*
X108137397Y-121854707D01*
X108074942Y-122060592D01*
X107973528Y-122250325D01*
X107973526Y-122250328D01*
X107973525Y-122250329D01*
X107837038Y-122416638D01*
X107670725Y-122553128D01*
X107480992Y-122654542D01*
X107275107Y-122716997D01*
X107061000Y-122738084D01*
X106846894Y-122716997D01*
X106641009Y-122654542D01*
X106451276Y-122553128D01*
X106284963Y-122416638D01*
X106148476Y-122250329D01*
X106148475Y-122250328D01*
X106148473Y-122250325D01*
X106047059Y-122060592D01*
X105984604Y-121854707D01*
X105968801Y-121694253D01*
X105968800Y-119605748D01*
X105984603Y-119445294D01*
X106047058Y-119239409D01*
X106148474Y-119049673D01*
X106148475Y-119049671D01*
X106219973Y-118962551D01*
X106284959Y-118883364D01*
X106451275Y-118746872D01*
X106641008Y-118645458D01*
X106846893Y-118583003D01*
X107061000Y-118561916D01*
X107275106Y-118583003D01*
X107275106Y-118583003D01*
G37*
G36*
X143885256Y-118406298D02*
G01*
X143991579Y-118427447D01*
X144292042Y-118551903D01*
X144562451Y-118732585D01*
X144792415Y-118962549D01*
X144973097Y-119232958D01*
X145097553Y-119533421D01*
X145161000Y-119852391D01*
X145161000Y-120177609D01*
X145097553Y-120496579D01*
X144973097Y-120797042D01*
X144792415Y-121067451D01*
X144562451Y-121297415D01*
X144292042Y-121478097D01*
X143991579Y-121602553D01*
X143885256Y-121623702D01*
X143672611Y-121666000D01*
X143347389Y-121666000D01*
X143134744Y-121623702D01*
X143028421Y-121602553D01*
X142727958Y-121478097D01*
X142457549Y-121297415D01*
X142227585Y-121067451D01*
X142046903Y-120797042D01*
X141922447Y-120496579D01*
X141859000Y-120177609D01*
X141859000Y-119852391D01*
X141922447Y-119533421D01*
X142046903Y-119232958D01*
X142227585Y-118962549D01*
X142457549Y-118732585D01*
X142727958Y-118551903D01*
X143028421Y-118427447D01*
X143134744Y-118406298D01*
X143347389Y-118364000D01*
X143672611Y-118364000D01*
X143885256Y-118406298D01*
X143885256Y-118406298D01*
G37*
G36*
X86735256Y-118406298D02*
G01*
X86841579Y-118427447D01*
X87142042Y-118551903D01*
X87412451Y-118732585D01*
X87642415Y-118962549D01*
X87823097Y-119232958D01*
X87947553Y-119533421D01*
X88011000Y-119852391D01*
X88011000Y-120177609D01*
X87947553Y-120496579D01*
X87823097Y-120797042D01*
X87642415Y-121067451D01*
X87412451Y-121297415D01*
X87142042Y-121478097D01*
X86841579Y-121602553D01*
X86735256Y-121623702D01*
X86522611Y-121666000D01*
X86197389Y-121666000D01*
X85984744Y-121623702D01*
X85878421Y-121602553D01*
X85577958Y-121478097D01*
X85307549Y-121297415D01*
X85077585Y-121067451D01*
X84896903Y-120797042D01*
X84772447Y-120496579D01*
X84709000Y-120177609D01*
X84709000Y-119852391D01*
X84772447Y-119533421D01*
X84896903Y-119232958D01*
X85077585Y-118962549D01*
X85307549Y-118732585D01*
X85577958Y-118551903D01*
X85878421Y-118427447D01*
X85984744Y-118406298D01*
X86197389Y-118364000D01*
X86522611Y-118364000D01*
X86735256Y-118406298D01*
X86735256Y-118406298D01*
G37*
G36*
X144968707Y-113668103D02*
G01*
X145174592Y-113730558D01*
X145364325Y-113831972D01*
X145364328Y-113831974D01*
X145364329Y-113831975D01*
X145466586Y-113915896D01*
X145530638Y-113968462D01*
X145667128Y-114134775D01*
X145768542Y-114324508D01*
X145830997Y-114530393D01*
X145852084Y-114744500D01*
X145830997Y-114958607D01*
X145768542Y-115164492D01*
X145667128Y-115354225D01*
X145530638Y-115520538D01*
X145364325Y-115657028D01*
X145174592Y-115758442D01*
X144968707Y-115820897D01*
X144808253Y-115836700D01*
X142719747Y-115836700D01*
X142559293Y-115820897D01*
X142353408Y-115758442D01*
X142163675Y-115657028D01*
X141997362Y-115520538D01*
X141860872Y-115354225D01*
X141759458Y-115164492D01*
X141697003Y-114958607D01*
X141675916Y-114744500D01*
X141697003Y-114530393D01*
X141759458Y-114324508D01*
X141860872Y-114134775D01*
X141997362Y-113968462D01*
X142061414Y-113915896D01*
X142163671Y-113831975D01*
X142163672Y-113831974D01*
X142163675Y-113831972D01*
X142353408Y-113730558D01*
X142559293Y-113668103D01*
X142719747Y-113652300D01*
X144808253Y-113652300D01*
X144968707Y-113668103D01*
X144968707Y-113668103D01*
G37*
G36*
X87183707Y-113668103D02*
G01*
X87389592Y-113730558D01*
X87579325Y-113831972D01*
X87579328Y-113831974D01*
X87579329Y-113831975D01*
X87681586Y-113915896D01*
X87745638Y-113968462D01*
X87882128Y-114134775D01*
X87983542Y-114324508D01*
X88045997Y-114530393D01*
X88067084Y-114744500D01*
X88045997Y-114958607D01*
X87983542Y-115164492D01*
X87882128Y-115354225D01*
X87745638Y-115520538D01*
X87579325Y-115657028D01*
X87389592Y-115758442D01*
X87183707Y-115820897D01*
X87023253Y-115836700D01*
X84934747Y-115836700D01*
X84774293Y-115820897D01*
X84568408Y-115758442D01*
X84378675Y-115657028D01*
X84212362Y-115520538D01*
X84075872Y-115354225D01*
X83974458Y-115164492D01*
X83912003Y-114958607D01*
X83890916Y-114744500D01*
X83912003Y-114530393D01*
X83974458Y-114324508D01*
X84075872Y-114134775D01*
X84212362Y-113968462D01*
X84276414Y-113915896D01*
X84378671Y-113831975D01*
X84378672Y-113831974D01*
X84378675Y-113831972D01*
X84568408Y-113730558D01*
X84774293Y-113668103D01*
X84934747Y-113652300D01*
X87023253Y-113652300D01*
X87183707Y-113668103D01*
X87183707Y-113668103D01*
G37*
G36*
X150048707Y-111763103D02*
G01*
X150254592Y-111825558D01*
X150444325Y-111926972D01*
X150444328Y-111926974D01*
X150444329Y-111926975D01*
X150546586Y-112010896D01*
X150610638Y-112063462D01*
X150747128Y-112229775D01*
X150848542Y-112419508D01*
X150910997Y-112625393D01*
X150932084Y-112839500D01*
X150910997Y-113053607D01*
X150848542Y-113259492D01*
X150747128Y-113449225D01*
X150747126Y-113449228D01*
X150747125Y-113449229D01*
X150610638Y-113615538D01*
X150470488Y-113730557D01*
X150444325Y-113752028D01*
X150254592Y-113853442D01*
X150048707Y-113915897D01*
X149888253Y-113931700D01*
X147799747Y-113931700D01*
X147639293Y-113915897D01*
X147433408Y-113853442D01*
X147243675Y-113752028D01*
X147217513Y-113730557D01*
X147077362Y-113615538D01*
X146940875Y-113449229D01*
X146940874Y-113449228D01*
X146940872Y-113449225D01*
X146839458Y-113259492D01*
X146777003Y-113053607D01*
X146755916Y-112839500D01*
X146777003Y-112625393D01*
X146839458Y-112419508D01*
X146940872Y-112229775D01*
X147077362Y-112063462D01*
X147141414Y-112010896D01*
X147243671Y-111926975D01*
X147243672Y-111926974D01*
X147243675Y-111926972D01*
X147433408Y-111825558D01*
X147639293Y-111763103D01*
X147799747Y-111747300D01*
X149888253Y-111747300D01*
X150048707Y-111763103D01*
X150048707Y-111763103D01*
G37*
G36*
X82103707Y-111763103D02*
G01*
X82309592Y-111825558D01*
X82499325Y-111926972D01*
X82499328Y-111926974D01*
X82499329Y-111926975D01*
X82601586Y-112010896D01*
X82665638Y-112063462D01*
X82802128Y-112229775D01*
X82903542Y-112419508D01*
X82965997Y-112625393D01*
X82987084Y-112839500D01*
X82965997Y-113053607D01*
X82903542Y-113259492D01*
X82802128Y-113449225D01*
X82802126Y-113449228D01*
X82802125Y-113449229D01*
X82665638Y-113615538D01*
X82525488Y-113730557D01*
X82499325Y-113752028D01*
X82309592Y-113853442D01*
X82103707Y-113915897D01*
X81943253Y-113931700D01*
X79854747Y-113931700D01*
X79694293Y-113915897D01*
X79488408Y-113853442D01*
X79298675Y-113752028D01*
X79272513Y-113730557D01*
X79132362Y-113615538D01*
X78995875Y-113449229D01*
X78995874Y-113449228D01*
X78995872Y-113449225D01*
X78894458Y-113259492D01*
X78832003Y-113053607D01*
X78810916Y-112839500D01*
X78832003Y-112625393D01*
X78894458Y-112419508D01*
X78995872Y-112229775D01*
X79132362Y-112063462D01*
X79196414Y-112010896D01*
X79298671Y-111926975D01*
X79298672Y-111926974D01*
X79298675Y-111926972D01*
X79488408Y-111825558D01*
X79694293Y-111763103D01*
X79854747Y-111747300D01*
X81943253Y-111747300D01*
X82103707Y-111763103D01*
X82103707Y-111763103D01*
G37*
G36*
X87183707Y-109858103D02*
G01*
X87389592Y-109920558D01*
X87579325Y-110021972D01*
X87579328Y-110021974D01*
X87579329Y-110021975D01*
X87681586Y-110105896D01*
X87745638Y-110158462D01*
X87882128Y-110324775D01*
X87983542Y-110514508D01*
X88045997Y-110720393D01*
X88067084Y-110934500D01*
X88045997Y-111148607D01*
X87983542Y-111354492D01*
X87882128Y-111544225D01*
X87882126Y-111544228D01*
X87882125Y-111544229D01*
X87745638Y-111710538D01*
X87605488Y-111825557D01*
X87579325Y-111847028D01*
X87389592Y-111948442D01*
X87183707Y-112010897D01*
X87023253Y-112026700D01*
X84934747Y-112026700D01*
X84774293Y-112010897D01*
X84568408Y-111948442D01*
X84378675Y-111847028D01*
X84352513Y-111825557D01*
X84212362Y-111710538D01*
X84075875Y-111544229D01*
X84075874Y-111544228D01*
X84075872Y-111544225D01*
X83974458Y-111354492D01*
X83912003Y-111148607D01*
X83890916Y-110934500D01*
X83912003Y-110720393D01*
X83974458Y-110514508D01*
X84075872Y-110324775D01*
X84212362Y-110158462D01*
X84276414Y-110105896D01*
X84378671Y-110021975D01*
X84378672Y-110021974D01*
X84378675Y-110021972D01*
X84568408Y-109920558D01*
X84774293Y-109858103D01*
X84934747Y-109842300D01*
X87023253Y-109842300D01*
X87183707Y-109858103D01*
X87183707Y-109858103D01*
G37*
G36*
X144968707Y-109858103D02*
G01*
X145174592Y-109920558D01*
X145364325Y-110021972D01*
X145364328Y-110021974D01*
X145364329Y-110021975D01*
X145466586Y-110105896D01*
X145530638Y-110158462D01*
X145667128Y-110324775D01*
X145768542Y-110514508D01*
X145830997Y-110720393D01*
X145852084Y-110934500D01*
X145830997Y-111148607D01*
X145768542Y-111354492D01*
X145667128Y-111544225D01*
X145667126Y-111544228D01*
X145667125Y-111544229D01*
X145530638Y-111710538D01*
X145390488Y-111825557D01*
X145364325Y-111847028D01*
X145174592Y-111948442D01*
X144968707Y-112010897D01*
X144808253Y-112026700D01*
X142719747Y-112026700D01*
X142559293Y-112010897D01*
X142353408Y-111948442D01*
X142163675Y-111847028D01*
X142137513Y-111825557D01*
X141997362Y-111710538D01*
X141860875Y-111544229D01*
X141860874Y-111544228D01*
X141860872Y-111544225D01*
X141759458Y-111354492D01*
X141697003Y-111148607D01*
X141675916Y-110934500D01*
X141697003Y-110720393D01*
X141759458Y-110514508D01*
X141860872Y-110324775D01*
X141997362Y-110158462D01*
X142061414Y-110105896D01*
X142163671Y-110021975D01*
X142163672Y-110021974D01*
X142163675Y-110021972D01*
X142353408Y-109920558D01*
X142559293Y-109858103D01*
X142719747Y-109842300D01*
X144808253Y-109842300D01*
X144968707Y-109858103D01*
X144968707Y-109858103D01*
G37*
G36*
X150048707Y-107953103D02*
G01*
X150254592Y-108015558D01*
X150444325Y-108116972D01*
X150444328Y-108116974D01*
X150444329Y-108116975D01*
X150546586Y-108200896D01*
X150610638Y-108253462D01*
X150747128Y-108419775D01*
X150848542Y-108609508D01*
X150910997Y-108815393D01*
X150932084Y-109029500D01*
X150910997Y-109243607D01*
X150848542Y-109449492D01*
X150747128Y-109639225D01*
X150747126Y-109639228D01*
X150747125Y-109639229D01*
X150610638Y-109805538D01*
X150470488Y-109920557D01*
X150444325Y-109942028D01*
X150254592Y-110043442D01*
X150048707Y-110105897D01*
X149888253Y-110121700D01*
X147799747Y-110121700D01*
X147639293Y-110105897D01*
X147433408Y-110043442D01*
X147243675Y-109942028D01*
X147217513Y-109920557D01*
X147077362Y-109805538D01*
X146940875Y-109639229D01*
X146940874Y-109639228D01*
X146940872Y-109639225D01*
X146839458Y-109449492D01*
X146777003Y-109243607D01*
X146755916Y-109029500D01*
X146777003Y-108815393D01*
X146839458Y-108609508D01*
X146940872Y-108419775D01*
X147077362Y-108253462D01*
X147141414Y-108200896D01*
X147243671Y-108116975D01*
X147243672Y-108116974D01*
X147243675Y-108116972D01*
X147433408Y-108015558D01*
X147639293Y-107953103D01*
X147799747Y-107937300D01*
X149888253Y-107937300D01*
X150048707Y-107953103D01*
X150048707Y-107953103D01*
G37*
G36*
X82103707Y-107953103D02*
G01*
X82309592Y-108015558D01*
X82499325Y-108116972D01*
X82499328Y-108116974D01*
X82499329Y-108116975D01*
X82601586Y-108200896D01*
X82665638Y-108253462D01*
X82802128Y-108419775D01*
X82903542Y-108609508D01*
X82965997Y-108815393D01*
X82987084Y-109029500D01*
X82965997Y-109243607D01*
X82903542Y-109449492D01*
X82802128Y-109639225D01*
X82802126Y-109639228D01*
X82802125Y-109639229D01*
X82665638Y-109805538D01*
X82525488Y-109920557D01*
X82499325Y-109942028D01*
X82309592Y-110043442D01*
X82103707Y-110105897D01*
X81943253Y-110121700D01*
X79854747Y-110121700D01*
X79694293Y-110105897D01*
X79488408Y-110043442D01*
X79298675Y-109942028D01*
X79272513Y-109920557D01*
X79132362Y-109805538D01*
X78995875Y-109639229D01*
X78995874Y-109639228D01*
X78995872Y-109639225D01*
X78894458Y-109449492D01*
X78832003Y-109243607D01*
X78810916Y-109029500D01*
X78832003Y-108815393D01*
X78894458Y-108609508D01*
X78995872Y-108419775D01*
X79132362Y-108253462D01*
X79196414Y-108200896D01*
X79298671Y-108116975D01*
X79298672Y-108116974D01*
X79298675Y-108116972D01*
X79488408Y-108015558D01*
X79694293Y-107953103D01*
X79854747Y-107937300D01*
X81943253Y-107937300D01*
X82103707Y-107953103D01*
X82103707Y-107953103D01*
G37*
G36*
X144968707Y-106048103D02*
G01*
X145174592Y-106110558D01*
X145364325Y-106211972D01*
X145364328Y-106211974D01*
X145364329Y-106211975D01*
X145466586Y-106295896D01*
X145530638Y-106348462D01*
X145667128Y-106514775D01*
X145768542Y-106704508D01*
X145830997Y-106910393D01*
X145852084Y-107124500D01*
X145830997Y-107338607D01*
X145768542Y-107544492D01*
X145667128Y-107734225D01*
X145667126Y-107734228D01*
X145667125Y-107734229D01*
X145530638Y-107900538D01*
X145390488Y-108015557D01*
X145364325Y-108037028D01*
X145174592Y-108138442D01*
X144968707Y-108200897D01*
X144808253Y-108216700D01*
X142719747Y-108216700D01*
X142559293Y-108200897D01*
X142353408Y-108138442D01*
X142163675Y-108037028D01*
X142137513Y-108015557D01*
X141997362Y-107900538D01*
X141860875Y-107734229D01*
X141860874Y-107734228D01*
X141860872Y-107734225D01*
X141759458Y-107544492D01*
X141697003Y-107338607D01*
X141675916Y-107124500D01*
X141697003Y-106910393D01*
X141759458Y-106704508D01*
X141860872Y-106514775D01*
X141997362Y-106348462D01*
X142061414Y-106295896D01*
X142163671Y-106211975D01*
X142163672Y-106211974D01*
X142163675Y-106211972D01*
X142353408Y-106110558D01*
X142559293Y-106048103D01*
X142719747Y-106032300D01*
X144808253Y-106032300D01*
X144968707Y-106048103D01*
X144968707Y-106048103D01*
G37*
G36*
X87183707Y-106048103D02*
G01*
X87389592Y-106110558D01*
X87579325Y-106211972D01*
X87579328Y-106211974D01*
X87579329Y-106211975D01*
X87681586Y-106295896D01*
X87745638Y-106348462D01*
X87882128Y-106514775D01*
X87983542Y-106704508D01*
X88045997Y-106910393D01*
X88067084Y-107124500D01*
X88045997Y-107338607D01*
X87983542Y-107544492D01*
X87882128Y-107734225D01*
X87882126Y-107734228D01*
X87882125Y-107734229D01*
X87745638Y-107900538D01*
X87605488Y-108015557D01*
X87579325Y-108037028D01*
X87389592Y-108138442D01*
X87183707Y-108200897D01*
X87023253Y-108216700D01*
X84934747Y-108216700D01*
X84774293Y-108200897D01*
X84568408Y-108138442D01*
X84378675Y-108037028D01*
X84352513Y-108015557D01*
X84212362Y-107900538D01*
X84075875Y-107734229D01*
X84075874Y-107734228D01*
X84075872Y-107734225D01*
X83974458Y-107544492D01*
X83912003Y-107338607D01*
X83890916Y-107124500D01*
X83912003Y-106910393D01*
X83974458Y-106704508D01*
X84075872Y-106514775D01*
X84212362Y-106348462D01*
X84276414Y-106295896D01*
X84378671Y-106211975D01*
X84378672Y-106211974D01*
X84378675Y-106211972D01*
X84568408Y-106110558D01*
X84774293Y-106048103D01*
X84934747Y-106032300D01*
X87023253Y-106032300D01*
X87183707Y-106048103D01*
X87183707Y-106048103D01*
G37*
G36*
X150048707Y-104143103D02*
G01*
X150254592Y-104205558D01*
X150444325Y-104306972D01*
X150444328Y-104306974D01*
X150444329Y-104306975D01*
X150546586Y-104390896D01*
X150610638Y-104443462D01*
X150747128Y-104609775D01*
X150848542Y-104799508D01*
X150910997Y-105005393D01*
X150932084Y-105219500D01*
X150910997Y-105433607D01*
X150848542Y-105639492D01*
X150747128Y-105829225D01*
X150747126Y-105829228D01*
X150747125Y-105829229D01*
X150610638Y-105995538D01*
X150470488Y-106110557D01*
X150444325Y-106132028D01*
X150254592Y-106233442D01*
X150048707Y-106295897D01*
X149888253Y-106311700D01*
X147799747Y-106311700D01*
X147639293Y-106295897D01*
X147433408Y-106233442D01*
X147243675Y-106132028D01*
X147217513Y-106110557D01*
X147077362Y-105995538D01*
X146940875Y-105829229D01*
X146940874Y-105829228D01*
X146940872Y-105829225D01*
X146839458Y-105639492D01*
X146777003Y-105433607D01*
X146755916Y-105219500D01*
X146777003Y-105005393D01*
X146839458Y-104799508D01*
X146940872Y-104609775D01*
X147077362Y-104443462D01*
X147141414Y-104390896D01*
X147243671Y-104306975D01*
X147243672Y-104306974D01*
X147243675Y-104306972D01*
X147433408Y-104205558D01*
X147639293Y-104143103D01*
X147799747Y-104127300D01*
X149888253Y-104127300D01*
X150048707Y-104143103D01*
X150048707Y-104143103D01*
G37*
G36*
X82103707Y-104143103D02*
G01*
X82309592Y-104205558D01*
X82499325Y-104306972D01*
X82499328Y-104306974D01*
X82499329Y-104306975D01*
X82601586Y-104390896D01*
X82665638Y-104443462D01*
X82802128Y-104609775D01*
X82903542Y-104799508D01*
X82965997Y-105005393D01*
X82987084Y-105219500D01*
X82965997Y-105433607D01*
X82903542Y-105639492D01*
X82802128Y-105829225D01*
X82802126Y-105829228D01*
X82802125Y-105829229D01*
X82665638Y-105995538D01*
X82525488Y-106110557D01*
X82499325Y-106132028D01*
X82309592Y-106233442D01*
X82103707Y-106295897D01*
X81943253Y-106311700D01*
X79854747Y-106311700D01*
X79694293Y-106295897D01*
X79488408Y-106233442D01*
X79298675Y-106132028D01*
X79272513Y-106110557D01*
X79132362Y-105995538D01*
X78995875Y-105829229D01*
X78995874Y-105829228D01*
X78995872Y-105829225D01*
X78894458Y-105639492D01*
X78832003Y-105433607D01*
X78810916Y-105219500D01*
X78832003Y-105005393D01*
X78894458Y-104799508D01*
X78995872Y-104609775D01*
X79132362Y-104443462D01*
X79196414Y-104390896D01*
X79298671Y-104306975D01*
X79298672Y-104306974D01*
X79298675Y-104306972D01*
X79488408Y-104205558D01*
X79694293Y-104143103D01*
X79854747Y-104127300D01*
X81943253Y-104127300D01*
X82103707Y-104143103D01*
X82103707Y-104143103D01*
G37*
G36*
X87183707Y-102238103D02*
G01*
X87389592Y-102300558D01*
X87579325Y-102401972D01*
X87579328Y-102401974D01*
X87579329Y-102401975D01*
X87681586Y-102485896D01*
X87745638Y-102538462D01*
X87882128Y-102704775D01*
X87983542Y-102894508D01*
X88045997Y-103100393D01*
X88067084Y-103314500D01*
X88045997Y-103528607D01*
X87983542Y-103734492D01*
X87882128Y-103924225D01*
X87882126Y-103924228D01*
X87882125Y-103924229D01*
X87745638Y-104090538D01*
X87605488Y-104205557D01*
X87579325Y-104227028D01*
X87389592Y-104328442D01*
X87183707Y-104390897D01*
X87023253Y-104406700D01*
X84934747Y-104406700D01*
X84774293Y-104390897D01*
X84568408Y-104328442D01*
X84378675Y-104227028D01*
X84352513Y-104205557D01*
X84212362Y-104090538D01*
X84075875Y-103924229D01*
X84075874Y-103924228D01*
X84075872Y-103924225D01*
X83974458Y-103734492D01*
X83912003Y-103528607D01*
X83890916Y-103314500D01*
X83912003Y-103100393D01*
X83974458Y-102894508D01*
X84075872Y-102704775D01*
X84212362Y-102538462D01*
X84276414Y-102485896D01*
X84378671Y-102401975D01*
X84378672Y-102401974D01*
X84378675Y-102401972D01*
X84568408Y-102300558D01*
X84774293Y-102238103D01*
X84934747Y-102222300D01*
X87023253Y-102222300D01*
X87183707Y-102238103D01*
X87183707Y-102238103D01*
G37*
G36*
X144968707Y-102238103D02*
G01*
X145174592Y-102300558D01*
X145364325Y-102401972D01*
X145364328Y-102401974D01*
X145364329Y-102401975D01*
X145466586Y-102485896D01*
X145530638Y-102538462D01*
X145667128Y-102704775D01*
X145768542Y-102894508D01*
X145830997Y-103100393D01*
X145852084Y-103314500D01*
X145830997Y-103528607D01*
X145768542Y-103734492D01*
X145667128Y-103924225D01*
X145667126Y-103924228D01*
X145667125Y-103924229D01*
X145530638Y-104090538D01*
X145390488Y-104205557D01*
X145364325Y-104227028D01*
X145174592Y-104328442D01*
X144968707Y-104390897D01*
X144808253Y-104406700D01*
X142719747Y-104406700D01*
X142559293Y-104390897D01*
X142353408Y-104328442D01*
X142163675Y-104227028D01*
X142137513Y-104205557D01*
X141997362Y-104090538D01*
X141860875Y-103924229D01*
X141860874Y-103924228D01*
X141860872Y-103924225D01*
X141759458Y-103734492D01*
X141697003Y-103528607D01*
X141675916Y-103314500D01*
X141697003Y-103100393D01*
X141759458Y-102894508D01*
X141860872Y-102704775D01*
X141997362Y-102538462D01*
X142061414Y-102485896D01*
X142163671Y-102401975D01*
X142163672Y-102401974D01*
X142163675Y-102401972D01*
X142353408Y-102300558D01*
X142559293Y-102238103D01*
X142719747Y-102222300D01*
X144808253Y-102222300D01*
X144968707Y-102238103D01*
X144968707Y-102238103D01*
G37*
G36*
X82103707Y-100333103D02*
G01*
X82309592Y-100395558D01*
X82499325Y-100496972D01*
X82499328Y-100496974D01*
X82499329Y-100496975D01*
X82601586Y-100580896D01*
X82665638Y-100633462D01*
X82802128Y-100799775D01*
X82903542Y-100989508D01*
X82965997Y-101195393D01*
X82987084Y-101409500D01*
X82965997Y-101623607D01*
X82903542Y-101829492D01*
X82802128Y-102019225D01*
X82802126Y-102019228D01*
X82802125Y-102019229D01*
X82665638Y-102185538D01*
X82525488Y-102300557D01*
X82499325Y-102322028D01*
X82309592Y-102423442D01*
X82103707Y-102485897D01*
X81943253Y-102501700D01*
X79854747Y-102501700D01*
X79694293Y-102485897D01*
X79488408Y-102423442D01*
X79298675Y-102322028D01*
X79272513Y-102300557D01*
X79132362Y-102185538D01*
X78995875Y-102019229D01*
X78995874Y-102019228D01*
X78995872Y-102019225D01*
X78894458Y-101829492D01*
X78832003Y-101623607D01*
X78810916Y-101409500D01*
X78832003Y-101195393D01*
X78894458Y-100989508D01*
X78995872Y-100799775D01*
X79132362Y-100633462D01*
X79196414Y-100580896D01*
X79298671Y-100496975D01*
X79298672Y-100496974D01*
X79298675Y-100496972D01*
X79488408Y-100395558D01*
X79694293Y-100333103D01*
X79854747Y-100317300D01*
X81943253Y-100317300D01*
X82103707Y-100333103D01*
X82103707Y-100333103D01*
G37*
G36*
X150048707Y-100333103D02*
G01*
X150254592Y-100395558D01*
X150444325Y-100496972D01*
X150444328Y-100496974D01*
X150444329Y-100496975D01*
X150546586Y-100580896D01*
X150610638Y-100633462D01*
X150747128Y-100799775D01*
X150848542Y-100989508D01*
X150910997Y-101195393D01*
X150932084Y-101409500D01*
X150910997Y-101623607D01*
X150848542Y-101829492D01*
X150747128Y-102019225D01*
X150747126Y-102019228D01*
X150747125Y-102019229D01*
X150610638Y-102185538D01*
X150470488Y-102300557D01*
X150444325Y-102322028D01*
X150254592Y-102423442D01*
X150048707Y-102485897D01*
X149888253Y-102501700D01*
X147799747Y-102501700D01*
X147639293Y-102485897D01*
X147433408Y-102423442D01*
X147243675Y-102322028D01*
X147217513Y-102300557D01*
X147077362Y-102185538D01*
X146940875Y-102019229D01*
X146940874Y-102019228D01*
X146940872Y-102019225D01*
X146839458Y-101829492D01*
X146777003Y-101623607D01*
X146755916Y-101409500D01*
X146777003Y-101195393D01*
X146839458Y-100989508D01*
X146940872Y-100799775D01*
X147077362Y-100633462D01*
X147141414Y-100580896D01*
X147243671Y-100496975D01*
X147243672Y-100496974D01*
X147243675Y-100496972D01*
X147433408Y-100395558D01*
X147639293Y-100333103D01*
X147799747Y-100317300D01*
X149888253Y-100317300D01*
X150048707Y-100333103D01*
X150048707Y-100333103D01*
G37*
G36*
X87183707Y-98428103D02*
G01*
X87389592Y-98490558D01*
X87579325Y-98591972D01*
X87579328Y-98591974D01*
X87579329Y-98591975D01*
X87681586Y-98675896D01*
X87745638Y-98728462D01*
X87882128Y-98894775D01*
X87983542Y-99084508D01*
X88045997Y-99290393D01*
X88067084Y-99504500D01*
X88045997Y-99718607D01*
X87983542Y-99924492D01*
X87882128Y-100114225D01*
X87882126Y-100114228D01*
X87882125Y-100114229D01*
X87745638Y-100280538D01*
X87605488Y-100395557D01*
X87579325Y-100417028D01*
X87389592Y-100518442D01*
X87183707Y-100580897D01*
X87023253Y-100596700D01*
X84934747Y-100596700D01*
X84774293Y-100580897D01*
X84568408Y-100518442D01*
X84378675Y-100417028D01*
X84352513Y-100395557D01*
X84212362Y-100280538D01*
X84075875Y-100114229D01*
X84075874Y-100114228D01*
X84075872Y-100114225D01*
X83974458Y-99924492D01*
X83912003Y-99718607D01*
X83890916Y-99504500D01*
X83912003Y-99290393D01*
X83974458Y-99084508D01*
X84075872Y-98894775D01*
X84212362Y-98728462D01*
X84276414Y-98675896D01*
X84378671Y-98591975D01*
X84378672Y-98591974D01*
X84378675Y-98591972D01*
X84568408Y-98490558D01*
X84774293Y-98428103D01*
X84934747Y-98412300D01*
X87023253Y-98412300D01*
X87183707Y-98428103D01*
X87183707Y-98428103D01*
G37*
G36*
X144968707Y-98428103D02*
G01*
X145174592Y-98490558D01*
X145364325Y-98591972D01*
X145364328Y-98591974D01*
X145364329Y-98591975D01*
X145466586Y-98675896D01*
X145530638Y-98728462D01*
X145667128Y-98894775D01*
X145768542Y-99084508D01*
X145830997Y-99290393D01*
X145852084Y-99504500D01*
X145830997Y-99718607D01*
X145768542Y-99924492D01*
X145667128Y-100114225D01*
X145667126Y-100114228D01*
X145667125Y-100114229D01*
X145530638Y-100280538D01*
X145390488Y-100395557D01*
X145364325Y-100417028D01*
X145174592Y-100518442D01*
X144968707Y-100580897D01*
X144808253Y-100596700D01*
X142719747Y-100596700D01*
X142559293Y-100580897D01*
X142353408Y-100518442D01*
X142163675Y-100417028D01*
X142137513Y-100395557D01*
X141997362Y-100280538D01*
X141860875Y-100114229D01*
X141860874Y-100114228D01*
X141860872Y-100114225D01*
X141759458Y-99924492D01*
X141697003Y-99718607D01*
X141675916Y-99504500D01*
X141697003Y-99290393D01*
X141759458Y-99084508D01*
X141860872Y-98894775D01*
X141997362Y-98728462D01*
X142061414Y-98675896D01*
X142163671Y-98591975D01*
X142163672Y-98591974D01*
X142163675Y-98591972D01*
X142353408Y-98490558D01*
X142559293Y-98428103D01*
X142719747Y-98412300D01*
X144808253Y-98412300D01*
X144968707Y-98428103D01*
X144968707Y-98428103D01*
G37*
G36*
X150048707Y-96523103D02*
G01*
X150254592Y-96585558D01*
X150444325Y-96686972D01*
X150444328Y-96686974D01*
X150444329Y-96686975D01*
X150546586Y-96770896D01*
X150610638Y-96823462D01*
X150747128Y-96989775D01*
X150848542Y-97179508D01*
X150910997Y-97385393D01*
X150932084Y-97599500D01*
X150910997Y-97813607D01*
X150848542Y-98019492D01*
X150747128Y-98209225D01*
X150747126Y-98209228D01*
X150747125Y-98209229D01*
X150610638Y-98375538D01*
X150470488Y-98490557D01*
X150444325Y-98512028D01*
X150254592Y-98613442D01*
X150048707Y-98675897D01*
X149888253Y-98691700D01*
X147799747Y-98691700D01*
X147639293Y-98675897D01*
X147433408Y-98613442D01*
X147243675Y-98512028D01*
X147217513Y-98490557D01*
X147077362Y-98375538D01*
X146940875Y-98209229D01*
X146940874Y-98209228D01*
X146940872Y-98209225D01*
X146839458Y-98019492D01*
X146777003Y-97813607D01*
X146755916Y-97599500D01*
X146777003Y-97385393D01*
X146839458Y-97179508D01*
X146940872Y-96989775D01*
X147077362Y-96823462D01*
X147141414Y-96770896D01*
X147243671Y-96686975D01*
X147243672Y-96686974D01*
X147243675Y-96686972D01*
X147433408Y-96585558D01*
X147639293Y-96523103D01*
X147799747Y-96507300D01*
X149888253Y-96507300D01*
X150048707Y-96523103D01*
X150048707Y-96523103D01*
G37*
G36*
X82103707Y-96523103D02*
G01*
X82309592Y-96585558D01*
X82499325Y-96686972D01*
X82499328Y-96686974D01*
X82499329Y-96686975D01*
X82601586Y-96770896D01*
X82665638Y-96823462D01*
X82802128Y-96989775D01*
X82903542Y-97179508D01*
X82965997Y-97385393D01*
X82987084Y-97599500D01*
X82965997Y-97813607D01*
X82903542Y-98019492D01*
X82802128Y-98209225D01*
X82802126Y-98209228D01*
X82802125Y-98209229D01*
X82665638Y-98375538D01*
X82525488Y-98490557D01*
X82499325Y-98512028D01*
X82309592Y-98613442D01*
X82103707Y-98675897D01*
X81943253Y-98691700D01*
X79854747Y-98691700D01*
X79694293Y-98675897D01*
X79488408Y-98613442D01*
X79298675Y-98512028D01*
X79272513Y-98490557D01*
X79132362Y-98375538D01*
X78995875Y-98209229D01*
X78995874Y-98209228D01*
X78995872Y-98209225D01*
X78894458Y-98019492D01*
X78832003Y-97813607D01*
X78810916Y-97599500D01*
X78832003Y-97385393D01*
X78894458Y-97179508D01*
X78995872Y-96989775D01*
X79132362Y-96823462D01*
X79196414Y-96770896D01*
X79298671Y-96686975D01*
X79298672Y-96686974D01*
X79298675Y-96686972D01*
X79488408Y-96585558D01*
X79694293Y-96523103D01*
X79854747Y-96507300D01*
X81943253Y-96507300D01*
X82103707Y-96523103D01*
X82103707Y-96523103D01*
G37*
G36*
X144968707Y-94618103D02*
G01*
X145174592Y-94680558D01*
X145364325Y-94781972D01*
X145364328Y-94781974D01*
X145364329Y-94781975D01*
X145466586Y-94865896D01*
X145530638Y-94918462D01*
X145667128Y-95084775D01*
X145768542Y-95274508D01*
X145830997Y-95480393D01*
X145852084Y-95694500D01*
X145830997Y-95908607D01*
X145768542Y-96114492D01*
X145667128Y-96304225D01*
X145667126Y-96304228D01*
X145667125Y-96304229D01*
X145530638Y-96470538D01*
X145390488Y-96585557D01*
X145364325Y-96607028D01*
X145174592Y-96708442D01*
X144968707Y-96770897D01*
X144808253Y-96786700D01*
X142719747Y-96786700D01*
X142559293Y-96770897D01*
X142353408Y-96708442D01*
X142163675Y-96607028D01*
X142137513Y-96585557D01*
X141997362Y-96470538D01*
X141860875Y-96304229D01*
X141860874Y-96304228D01*
X141860872Y-96304225D01*
X141759458Y-96114492D01*
X141697003Y-95908607D01*
X141675916Y-95694500D01*
X141697003Y-95480393D01*
X141759458Y-95274508D01*
X141860872Y-95084775D01*
X141997362Y-94918462D01*
X142061414Y-94865896D01*
X142163671Y-94781975D01*
X142163672Y-94781974D01*
X142163675Y-94781972D01*
X142353408Y-94680558D01*
X142559293Y-94618103D01*
X142719747Y-94602300D01*
X144808253Y-94602300D01*
X144968707Y-94618103D01*
X144968707Y-94618103D01*
G37*
G36*
X87183707Y-94618103D02*
G01*
X87389592Y-94680558D01*
X87579325Y-94781972D01*
X87579328Y-94781974D01*
X87579329Y-94781975D01*
X87681586Y-94865896D01*
X87745638Y-94918462D01*
X87882128Y-95084775D01*
X87983542Y-95274508D01*
X88045997Y-95480393D01*
X88067084Y-95694500D01*
X88045997Y-95908607D01*
X87983542Y-96114492D01*
X87882128Y-96304225D01*
X87882126Y-96304228D01*
X87882125Y-96304229D01*
X87745638Y-96470538D01*
X87605488Y-96585557D01*
X87579325Y-96607028D01*
X87389592Y-96708442D01*
X87183707Y-96770897D01*
X87023253Y-96786700D01*
X84934747Y-96786700D01*
X84774293Y-96770897D01*
X84568408Y-96708442D01*
X84378675Y-96607028D01*
X84352513Y-96585557D01*
X84212362Y-96470538D01*
X84075875Y-96304229D01*
X84075874Y-96304228D01*
X84075872Y-96304225D01*
X83974458Y-96114492D01*
X83912003Y-95908607D01*
X83890916Y-95694500D01*
X83912003Y-95480393D01*
X83974458Y-95274508D01*
X84075872Y-95084775D01*
X84212362Y-94918462D01*
X84276414Y-94865896D01*
X84378671Y-94781975D01*
X84378672Y-94781974D01*
X84378675Y-94781972D01*
X84568408Y-94680558D01*
X84774293Y-94618103D01*
X84934747Y-94602300D01*
X87023253Y-94602300D01*
X87183707Y-94618103D01*
X87183707Y-94618103D01*
G37*
G36*
X150048707Y-92713103D02*
G01*
X150254592Y-92775558D01*
X150444325Y-92876972D01*
X150444328Y-92876974D01*
X150444329Y-92876975D01*
X150546586Y-92960896D01*
X150610638Y-93013462D01*
X150747128Y-93179775D01*
X150848542Y-93369508D01*
X150910997Y-93575393D01*
X150932084Y-93789500D01*
X150910997Y-94003607D01*
X150848542Y-94209492D01*
X150747128Y-94399225D01*
X150747126Y-94399228D01*
X150747125Y-94399229D01*
X150610638Y-94565538D01*
X150470488Y-94680557D01*
X150444325Y-94702028D01*
X150254592Y-94803442D01*
X150048707Y-94865897D01*
X149888253Y-94881700D01*
X147799747Y-94881700D01*
X147639293Y-94865897D01*
X147433408Y-94803442D01*
X147243675Y-94702028D01*
X147217513Y-94680557D01*
X147077362Y-94565538D01*
X146940875Y-94399229D01*
X146940874Y-94399228D01*
X146940872Y-94399225D01*
X146839458Y-94209492D01*
X146777003Y-94003607D01*
X146755916Y-93789500D01*
X146777003Y-93575393D01*
X146839458Y-93369508D01*
X146940872Y-93179775D01*
X147077362Y-93013462D01*
X147141414Y-92960896D01*
X147243671Y-92876975D01*
X147243672Y-92876974D01*
X147243675Y-92876972D01*
X147433408Y-92775558D01*
X147639293Y-92713103D01*
X147799747Y-92697300D01*
X149888253Y-92697300D01*
X150048707Y-92713103D01*
X150048707Y-92713103D01*
G37*
G36*
X82103707Y-92713103D02*
G01*
X82309592Y-92775558D01*
X82499325Y-92876972D01*
X82499328Y-92876974D01*
X82499329Y-92876975D01*
X82601586Y-92960896D01*
X82665638Y-93013462D01*
X82802128Y-93179775D01*
X82903542Y-93369508D01*
X82965997Y-93575393D01*
X82987084Y-93789500D01*
X82965997Y-94003607D01*
X82903542Y-94209492D01*
X82802128Y-94399225D01*
X82802126Y-94399228D01*
X82802125Y-94399229D01*
X82665638Y-94565538D01*
X82525488Y-94680557D01*
X82499325Y-94702028D01*
X82309592Y-94803442D01*
X82103707Y-94865897D01*
X81943253Y-94881700D01*
X79854747Y-94881700D01*
X79694293Y-94865897D01*
X79488408Y-94803442D01*
X79298675Y-94702028D01*
X79272513Y-94680557D01*
X79132362Y-94565538D01*
X78995875Y-94399229D01*
X78995874Y-94399228D01*
X78995872Y-94399225D01*
X78894458Y-94209492D01*
X78832003Y-94003607D01*
X78810916Y-93789500D01*
X78832003Y-93575393D01*
X78894458Y-93369508D01*
X78995872Y-93179775D01*
X79132362Y-93013462D01*
X79196414Y-92960896D01*
X79298671Y-92876975D01*
X79298672Y-92876974D01*
X79298675Y-92876972D01*
X79488408Y-92775558D01*
X79694293Y-92713103D01*
X79854747Y-92697300D01*
X81943253Y-92697300D01*
X82103707Y-92713103D01*
X82103707Y-92713103D01*
G37*
G36*
X87183707Y-90808103D02*
G01*
X87389592Y-90870558D01*
X87579325Y-90971972D01*
X87579328Y-90971974D01*
X87579329Y-90971975D01*
X87681586Y-91055896D01*
X87745638Y-91108462D01*
X87882128Y-91274775D01*
X87983542Y-91464508D01*
X88045997Y-91670393D01*
X88067084Y-91884500D01*
X88045997Y-92098607D01*
X87983542Y-92304492D01*
X87882128Y-92494225D01*
X87882126Y-92494228D01*
X87882125Y-92494229D01*
X87745638Y-92660538D01*
X87605488Y-92775557D01*
X87579325Y-92797028D01*
X87389592Y-92898442D01*
X87183707Y-92960897D01*
X87023253Y-92976700D01*
X84934747Y-92976700D01*
X84774293Y-92960897D01*
X84568408Y-92898442D01*
X84378675Y-92797028D01*
X84352513Y-92775557D01*
X84212362Y-92660538D01*
X84075875Y-92494229D01*
X84075874Y-92494228D01*
X84075872Y-92494225D01*
X83974458Y-92304492D01*
X83912003Y-92098607D01*
X83890916Y-91884500D01*
X83912003Y-91670393D01*
X83974458Y-91464508D01*
X84075872Y-91274775D01*
X84212362Y-91108462D01*
X84276414Y-91055896D01*
X84378671Y-90971975D01*
X84378672Y-90971974D01*
X84378675Y-90971972D01*
X84568408Y-90870558D01*
X84774293Y-90808103D01*
X84934747Y-90792300D01*
X87023253Y-90792300D01*
X87183707Y-90808103D01*
X87183707Y-90808103D01*
G37*
G36*
X144968707Y-90808103D02*
G01*
X145174592Y-90870558D01*
X145364325Y-90971972D01*
X145364328Y-90971974D01*
X145364329Y-90971975D01*
X145466586Y-91055896D01*
X145530638Y-91108462D01*
X145667128Y-91274775D01*
X145768542Y-91464508D01*
X145830997Y-91670393D01*
X145852084Y-91884500D01*
X145830997Y-92098607D01*
X145768542Y-92304492D01*
X145667128Y-92494225D01*
X145667126Y-92494228D01*
X145667125Y-92494229D01*
X145530638Y-92660538D01*
X145390488Y-92775557D01*
X145364325Y-92797028D01*
X145174592Y-92898442D01*
X144968707Y-92960897D01*
X144808253Y-92976700D01*
X142719747Y-92976700D01*
X142559293Y-92960897D01*
X142353408Y-92898442D01*
X142163675Y-92797028D01*
X142137513Y-92775557D01*
X141997362Y-92660538D01*
X141860875Y-92494229D01*
X141860874Y-92494228D01*
X141860872Y-92494225D01*
X141759458Y-92304492D01*
X141697003Y-92098607D01*
X141675916Y-91884500D01*
X141697003Y-91670393D01*
X141759458Y-91464508D01*
X141860872Y-91274775D01*
X141997362Y-91108462D01*
X142061414Y-91055896D01*
X142163671Y-90971975D01*
X142163672Y-90971974D01*
X142163675Y-90971972D01*
X142353408Y-90870558D01*
X142559293Y-90808103D01*
X142719747Y-90792300D01*
X144808253Y-90792300D01*
X144968707Y-90808103D01*
X144968707Y-90808103D01*
G37*
G36*
X150048707Y-88903103D02*
G01*
X150254592Y-88965558D01*
X150444325Y-89066972D01*
X150444328Y-89066974D01*
X150444329Y-89066975D01*
X150546586Y-89150896D01*
X150610638Y-89203462D01*
X150747128Y-89369775D01*
X150848542Y-89559508D01*
X150910997Y-89765393D01*
X150932084Y-89979500D01*
X150910997Y-90193607D01*
X150848542Y-90399492D01*
X150747128Y-90589225D01*
X150747126Y-90589228D01*
X150747125Y-90589229D01*
X150610638Y-90755538D01*
X150470488Y-90870557D01*
X150444325Y-90892028D01*
X150254592Y-90993442D01*
X150048707Y-91055897D01*
X149888253Y-91071700D01*
X147799747Y-91071700D01*
X147639293Y-91055897D01*
X147433408Y-90993442D01*
X147243675Y-90892028D01*
X147217513Y-90870557D01*
X147077362Y-90755538D01*
X146940875Y-90589229D01*
X146940874Y-90589228D01*
X146940872Y-90589225D01*
X146839458Y-90399492D01*
X146777003Y-90193607D01*
X146755916Y-89979500D01*
X146777003Y-89765393D01*
X146839458Y-89559508D01*
X146940872Y-89369775D01*
X147077362Y-89203462D01*
X147141414Y-89150896D01*
X147243671Y-89066975D01*
X147243672Y-89066974D01*
X147243675Y-89066972D01*
X147433408Y-88965558D01*
X147639293Y-88903103D01*
X147799747Y-88887300D01*
X149888253Y-88887300D01*
X150048707Y-88903103D01*
X150048707Y-88903103D01*
G37*
G36*
X82103707Y-88903103D02*
G01*
X82309592Y-88965558D01*
X82499325Y-89066972D01*
X82499328Y-89066974D01*
X82499329Y-89066975D01*
X82601586Y-89150896D01*
X82665638Y-89203462D01*
X82802128Y-89369775D01*
X82903542Y-89559508D01*
X82965997Y-89765393D01*
X82987084Y-89979500D01*
X82965997Y-90193607D01*
X82903542Y-90399492D01*
X82802128Y-90589225D01*
X82802126Y-90589228D01*
X82802125Y-90589229D01*
X82665638Y-90755538D01*
X82525488Y-90870557D01*
X82499325Y-90892028D01*
X82309592Y-90993442D01*
X82103707Y-91055897D01*
X81943253Y-91071700D01*
X79854747Y-91071700D01*
X79694293Y-91055897D01*
X79488408Y-90993442D01*
X79298675Y-90892028D01*
X79272513Y-90870557D01*
X79132362Y-90755538D01*
X78995875Y-90589229D01*
X78995874Y-90589228D01*
X78995872Y-90589225D01*
X78894458Y-90399492D01*
X78832003Y-90193607D01*
X78810916Y-89979500D01*
X78832003Y-89765393D01*
X78894458Y-89559508D01*
X78995872Y-89369775D01*
X79132362Y-89203462D01*
X79196414Y-89150896D01*
X79298671Y-89066975D01*
X79298672Y-89066974D01*
X79298675Y-89066972D01*
X79488408Y-88965558D01*
X79694293Y-88903103D01*
X79854747Y-88887300D01*
X81943253Y-88887300D01*
X82103707Y-88903103D01*
X82103707Y-88903103D01*
G37*
G36*
X87183707Y-86998103D02*
G01*
X87389592Y-87060558D01*
X87579325Y-87161972D01*
X87579328Y-87161974D01*
X87579329Y-87161975D01*
X87681586Y-87245896D01*
X87745638Y-87298462D01*
X87882128Y-87464775D01*
X87983542Y-87654508D01*
X88045997Y-87860393D01*
X88067084Y-88074500D01*
X88045997Y-88288607D01*
X87983542Y-88494492D01*
X87882128Y-88684225D01*
X87882126Y-88684228D01*
X87882125Y-88684229D01*
X87745638Y-88850538D01*
X87605488Y-88965557D01*
X87579325Y-88987028D01*
X87389592Y-89088442D01*
X87183707Y-89150897D01*
X87023253Y-89166700D01*
X84934747Y-89166700D01*
X84774293Y-89150897D01*
X84568408Y-89088442D01*
X84378675Y-88987028D01*
X84352513Y-88965557D01*
X84212362Y-88850538D01*
X84075875Y-88684229D01*
X84075874Y-88684228D01*
X84075872Y-88684225D01*
X83974458Y-88494492D01*
X83912003Y-88288607D01*
X83890916Y-88074500D01*
X83912003Y-87860393D01*
X83974458Y-87654508D01*
X84075872Y-87464775D01*
X84212362Y-87298462D01*
X84276414Y-87245896D01*
X84378671Y-87161975D01*
X84378672Y-87161974D01*
X84378675Y-87161972D01*
X84568408Y-87060558D01*
X84774293Y-86998103D01*
X84934747Y-86982300D01*
X87023253Y-86982300D01*
X87183707Y-86998103D01*
X87183707Y-86998103D01*
G37*
G36*
X144968707Y-86998103D02*
G01*
X145174592Y-87060558D01*
X145364325Y-87161972D01*
X145364328Y-87161974D01*
X145364329Y-87161975D01*
X145466586Y-87245896D01*
X145530638Y-87298462D01*
X145667128Y-87464775D01*
X145768542Y-87654508D01*
X145830997Y-87860393D01*
X145852084Y-88074500D01*
X145830997Y-88288607D01*
X145768542Y-88494492D01*
X145667128Y-88684225D01*
X145667126Y-88684228D01*
X145667125Y-88684229D01*
X145530638Y-88850538D01*
X145390488Y-88965557D01*
X145364325Y-88987028D01*
X145174592Y-89088442D01*
X144968707Y-89150897D01*
X144808253Y-89166700D01*
X142719747Y-89166700D01*
X142559293Y-89150897D01*
X142353408Y-89088442D01*
X142163675Y-88987028D01*
X142137513Y-88965557D01*
X141997362Y-88850538D01*
X141860875Y-88684229D01*
X141860874Y-88684228D01*
X141860872Y-88684225D01*
X141759458Y-88494492D01*
X141697003Y-88288607D01*
X141675916Y-88074500D01*
X141697003Y-87860393D01*
X141759458Y-87654508D01*
X141860872Y-87464775D01*
X141997362Y-87298462D01*
X142061414Y-87245896D01*
X142163671Y-87161975D01*
X142163672Y-87161974D01*
X142163675Y-87161972D01*
X142353408Y-87060558D01*
X142559293Y-86998103D01*
X142719747Y-86982300D01*
X144808253Y-86982300D01*
X144968707Y-86998103D01*
X144968707Y-86998103D01*
G37*
G36*
X150048707Y-85093103D02*
G01*
X150254592Y-85155558D01*
X150444325Y-85256972D01*
X150444328Y-85256974D01*
X150444329Y-85256975D01*
X150546586Y-85340896D01*
X150610638Y-85393462D01*
X150747128Y-85559775D01*
X150848542Y-85749508D01*
X150910997Y-85955393D01*
X150932084Y-86169500D01*
X150910997Y-86383607D01*
X150848542Y-86589492D01*
X150747128Y-86779225D01*
X150747126Y-86779228D01*
X150747125Y-86779229D01*
X150610638Y-86945538D01*
X150470488Y-87060557D01*
X150444325Y-87082028D01*
X150254592Y-87183442D01*
X150048707Y-87245897D01*
X149888253Y-87261700D01*
X147799747Y-87261700D01*
X147639293Y-87245897D01*
X147433408Y-87183442D01*
X147243675Y-87082028D01*
X147217513Y-87060557D01*
X147077362Y-86945538D01*
X146940875Y-86779229D01*
X146940874Y-86779228D01*
X146940872Y-86779225D01*
X146839458Y-86589492D01*
X146777003Y-86383607D01*
X146755916Y-86169500D01*
X146777003Y-85955393D01*
X146839458Y-85749508D01*
X146940872Y-85559775D01*
X147077362Y-85393462D01*
X147141414Y-85340896D01*
X147243671Y-85256975D01*
X147243672Y-85256974D01*
X147243675Y-85256972D01*
X147433408Y-85155558D01*
X147639293Y-85093103D01*
X147799747Y-85077300D01*
X149888253Y-85077300D01*
X150048707Y-85093103D01*
X150048707Y-85093103D01*
G37*
G36*
X82103707Y-85093103D02*
G01*
X82309592Y-85155558D01*
X82499325Y-85256972D01*
X82499328Y-85256974D01*
X82499329Y-85256975D01*
X82601586Y-85340896D01*
X82665638Y-85393462D01*
X82802128Y-85559775D01*
X82903542Y-85749508D01*
X82965997Y-85955393D01*
X82987084Y-86169500D01*
X82965997Y-86383607D01*
X82903542Y-86589492D01*
X82802128Y-86779225D01*
X82802126Y-86779228D01*
X82802125Y-86779229D01*
X82665638Y-86945538D01*
X82525488Y-87060557D01*
X82499325Y-87082028D01*
X82309592Y-87183442D01*
X82103707Y-87245897D01*
X81943253Y-87261700D01*
X79854747Y-87261700D01*
X79694293Y-87245897D01*
X79488408Y-87183442D01*
X79298675Y-87082028D01*
X79272513Y-87060557D01*
X79132362Y-86945538D01*
X78995875Y-86779229D01*
X78995874Y-86779228D01*
X78995872Y-86779225D01*
X78894458Y-86589492D01*
X78832003Y-86383607D01*
X78810916Y-86169500D01*
X78832003Y-85955393D01*
X78894458Y-85749508D01*
X78995872Y-85559775D01*
X79132362Y-85393462D01*
X79196414Y-85340896D01*
X79298671Y-85256975D01*
X79298672Y-85256974D01*
X79298675Y-85256972D01*
X79488408Y-85155558D01*
X79694293Y-85093103D01*
X79854747Y-85077300D01*
X81943253Y-85077300D01*
X82103707Y-85093103D01*
X82103707Y-85093103D01*
G37*
G36*
X144968707Y-83188103D02*
G01*
X145174592Y-83250558D01*
X145364325Y-83351972D01*
X145364328Y-83351974D01*
X145364329Y-83351975D01*
X145466586Y-83435896D01*
X145530638Y-83488462D01*
X145667128Y-83654775D01*
X145768542Y-83844508D01*
X145830997Y-84050393D01*
X145852084Y-84264500D01*
X145830997Y-84478607D01*
X145768542Y-84684492D01*
X145667128Y-84874225D01*
X145667126Y-84874228D01*
X145667125Y-84874229D01*
X145530638Y-85040538D01*
X145390488Y-85155557D01*
X145364325Y-85177028D01*
X145174592Y-85278442D01*
X144968707Y-85340897D01*
X144808253Y-85356700D01*
X142719747Y-85356700D01*
X142559293Y-85340897D01*
X142353408Y-85278442D01*
X142163675Y-85177028D01*
X142137513Y-85155557D01*
X141997362Y-85040538D01*
X141860875Y-84874229D01*
X141860874Y-84874228D01*
X141860872Y-84874225D01*
X141759458Y-84684492D01*
X141697003Y-84478607D01*
X141675916Y-84264500D01*
X141697003Y-84050393D01*
X141759458Y-83844508D01*
X141860872Y-83654775D01*
X141997362Y-83488462D01*
X142061414Y-83435896D01*
X142163671Y-83351975D01*
X142163672Y-83351974D01*
X142163675Y-83351972D01*
X142353408Y-83250558D01*
X142559293Y-83188103D01*
X142719747Y-83172300D01*
X144808253Y-83172300D01*
X144968707Y-83188103D01*
X144968707Y-83188103D01*
G37*
G36*
X87183707Y-83188103D02*
G01*
X87389592Y-83250558D01*
X87579325Y-83351972D01*
X87579328Y-83351974D01*
X87579329Y-83351975D01*
X87681586Y-83435896D01*
X87745638Y-83488462D01*
X87882128Y-83654775D01*
X87983542Y-83844508D01*
X88045997Y-84050393D01*
X88067084Y-84264500D01*
X88045997Y-84478607D01*
X87983542Y-84684492D01*
X87882128Y-84874225D01*
X87882126Y-84874228D01*
X87882125Y-84874229D01*
X87745638Y-85040538D01*
X87605488Y-85155557D01*
X87579325Y-85177028D01*
X87389592Y-85278442D01*
X87183707Y-85340897D01*
X87023253Y-85356700D01*
X84934747Y-85356700D01*
X84774293Y-85340897D01*
X84568408Y-85278442D01*
X84378675Y-85177028D01*
X84352513Y-85155557D01*
X84212362Y-85040538D01*
X84075875Y-84874229D01*
X84075874Y-84874228D01*
X84075872Y-84874225D01*
X83974458Y-84684492D01*
X83912003Y-84478607D01*
X83890916Y-84264500D01*
X83912003Y-84050393D01*
X83974458Y-83844508D01*
X84075872Y-83654775D01*
X84212362Y-83488462D01*
X84276414Y-83435896D01*
X84378671Y-83351975D01*
X84378672Y-83351974D01*
X84378675Y-83351972D01*
X84568408Y-83250558D01*
X84774293Y-83188103D01*
X84934747Y-83172300D01*
X87023253Y-83172300D01*
X87183707Y-83188103D01*
X87183707Y-83188103D01*
G37*
G36*
X82103707Y-81283103D02*
G01*
X82309592Y-81345558D01*
X82499325Y-81446972D01*
X82499328Y-81446974D01*
X82499329Y-81446975D01*
X82601586Y-81530896D01*
X82665638Y-81583462D01*
X82802128Y-81749775D01*
X82903542Y-81939508D01*
X82965997Y-82145393D01*
X82987084Y-82359500D01*
X82965997Y-82573607D01*
X82903542Y-82779492D01*
X82802128Y-82969225D01*
X82802126Y-82969228D01*
X82802125Y-82969229D01*
X82665638Y-83135538D01*
X82525488Y-83250557D01*
X82499325Y-83272028D01*
X82309592Y-83373442D01*
X82103707Y-83435897D01*
X81943253Y-83451700D01*
X79854747Y-83451700D01*
X79694293Y-83435897D01*
X79488408Y-83373442D01*
X79298675Y-83272028D01*
X79272513Y-83250557D01*
X79132362Y-83135538D01*
X78995875Y-82969229D01*
X78995874Y-82969228D01*
X78995872Y-82969225D01*
X78894458Y-82779492D01*
X78832003Y-82573607D01*
X78810916Y-82359500D01*
X78832003Y-82145393D01*
X78894458Y-81939508D01*
X78995872Y-81749775D01*
X79132362Y-81583462D01*
X79196414Y-81530896D01*
X79298671Y-81446975D01*
X79298672Y-81446974D01*
X79298675Y-81446972D01*
X79488408Y-81345558D01*
X79694293Y-81283103D01*
X79854747Y-81267300D01*
X81943253Y-81267300D01*
X82103707Y-81283103D01*
X82103707Y-81283103D01*
G37*
G36*
X150048707Y-81283103D02*
G01*
X150254592Y-81345558D01*
X150444325Y-81446972D01*
X150444328Y-81446974D01*
X150444329Y-81446975D01*
X150546586Y-81530896D01*
X150610638Y-81583462D01*
X150747128Y-81749775D01*
X150848542Y-81939508D01*
X150910997Y-82145393D01*
X150932084Y-82359500D01*
X150910997Y-82573607D01*
X150848542Y-82779492D01*
X150747128Y-82969225D01*
X150747126Y-82969228D01*
X150747125Y-82969229D01*
X150610638Y-83135538D01*
X150470488Y-83250557D01*
X150444325Y-83272028D01*
X150254592Y-83373442D01*
X150048707Y-83435897D01*
X149888253Y-83451700D01*
X147799747Y-83451700D01*
X147639293Y-83435897D01*
X147433408Y-83373442D01*
X147243675Y-83272028D01*
X147217513Y-83250557D01*
X147077362Y-83135538D01*
X146940875Y-82969229D01*
X146940874Y-82969228D01*
X146940872Y-82969225D01*
X146839458Y-82779492D01*
X146777003Y-82573607D01*
X146755916Y-82359500D01*
X146777003Y-82145393D01*
X146839458Y-81939508D01*
X146940872Y-81749775D01*
X147077362Y-81583462D01*
X147141414Y-81530896D01*
X147243671Y-81446975D01*
X147243672Y-81446974D01*
X147243675Y-81446972D01*
X147433408Y-81345558D01*
X147639293Y-81283103D01*
X147799747Y-81267300D01*
X149888253Y-81267300D01*
X150048707Y-81283103D01*
X150048707Y-81283103D01*
G37*
G36*
X144968707Y-79378103D02*
G01*
X145174592Y-79440558D01*
X145364325Y-79541972D01*
X145364328Y-79541974D01*
X145364329Y-79541975D01*
X145466586Y-79625896D01*
X145530638Y-79678462D01*
X145667128Y-79844775D01*
X145768542Y-80034508D01*
X145830997Y-80240393D01*
X145852084Y-80454500D01*
X145830997Y-80668607D01*
X145768542Y-80874492D01*
X145667128Y-81064225D01*
X145667126Y-81064228D01*
X145667125Y-81064229D01*
X145530638Y-81230538D01*
X145390488Y-81345557D01*
X145364325Y-81367028D01*
X145174592Y-81468442D01*
X144968707Y-81530897D01*
X144808253Y-81546700D01*
X142719747Y-81546700D01*
X142559293Y-81530897D01*
X142353408Y-81468442D01*
X142163675Y-81367028D01*
X142137513Y-81345557D01*
X141997362Y-81230538D01*
X141860875Y-81064229D01*
X141860874Y-81064228D01*
X141860872Y-81064225D01*
X141759458Y-80874492D01*
X141697003Y-80668607D01*
X141675916Y-80454500D01*
X141697003Y-80240393D01*
X141759458Y-80034508D01*
X141860872Y-79844775D01*
X141997362Y-79678462D01*
X142061414Y-79625896D01*
X142163671Y-79541975D01*
X142163672Y-79541974D01*
X142163675Y-79541972D01*
X142353408Y-79440558D01*
X142559293Y-79378103D01*
X142719747Y-79362300D01*
X144808253Y-79362300D01*
X144968707Y-79378103D01*
X144968707Y-79378103D01*
G37*
G36*
X87183707Y-79378103D02*
G01*
X87389592Y-79440558D01*
X87579325Y-79541972D01*
X87579328Y-79541974D01*
X87579329Y-79541975D01*
X87681586Y-79625896D01*
X87745638Y-79678462D01*
X87882128Y-79844775D01*
X87983542Y-80034508D01*
X88045997Y-80240393D01*
X88067084Y-80454500D01*
X88045997Y-80668607D01*
X87983542Y-80874492D01*
X87882128Y-81064225D01*
X87882126Y-81064228D01*
X87882125Y-81064229D01*
X87745638Y-81230538D01*
X87605488Y-81345557D01*
X87579325Y-81367028D01*
X87389592Y-81468442D01*
X87183707Y-81530897D01*
X87023253Y-81546700D01*
X84934747Y-81546700D01*
X84774293Y-81530897D01*
X84568408Y-81468442D01*
X84378675Y-81367028D01*
X84352513Y-81345557D01*
X84212362Y-81230538D01*
X84075875Y-81064229D01*
X84075874Y-81064228D01*
X84075872Y-81064225D01*
X83974458Y-80874492D01*
X83912003Y-80668607D01*
X83890916Y-80454500D01*
X83912003Y-80240393D01*
X83974458Y-80034508D01*
X84075872Y-79844775D01*
X84212362Y-79678462D01*
X84276414Y-79625896D01*
X84378671Y-79541975D01*
X84378672Y-79541974D01*
X84378675Y-79541972D01*
X84568408Y-79440558D01*
X84774293Y-79378103D01*
X84934747Y-79362300D01*
X87023253Y-79362300D01*
X87183707Y-79378103D01*
X87183707Y-79378103D01*
G37*
G36*
X82103707Y-77473103D02*
G01*
X82309592Y-77535558D01*
X82499325Y-77636972D01*
X82499328Y-77636974D01*
X82499329Y-77636975D01*
X82601586Y-77720896D01*
X82665638Y-77773462D01*
X82802128Y-77939775D01*
X82903542Y-78129508D01*
X82965997Y-78335393D01*
X82987084Y-78549500D01*
X82965997Y-78763607D01*
X82903542Y-78969492D01*
X82802128Y-79159225D01*
X82802126Y-79159228D01*
X82802125Y-79159229D01*
X82665638Y-79325538D01*
X82525488Y-79440557D01*
X82499325Y-79462028D01*
X82309592Y-79563442D01*
X82103707Y-79625897D01*
X81943253Y-79641700D01*
X79854747Y-79641700D01*
X79694293Y-79625897D01*
X79488408Y-79563442D01*
X79298675Y-79462028D01*
X79272513Y-79440557D01*
X79132362Y-79325538D01*
X78995875Y-79159229D01*
X78995874Y-79159228D01*
X78995872Y-79159225D01*
X78894458Y-78969492D01*
X78832003Y-78763607D01*
X78810916Y-78549500D01*
X78832003Y-78335393D01*
X78894458Y-78129508D01*
X78995872Y-77939775D01*
X79132362Y-77773462D01*
X79196414Y-77720896D01*
X79298671Y-77636975D01*
X79298672Y-77636974D01*
X79298675Y-77636972D01*
X79488408Y-77535558D01*
X79694293Y-77473103D01*
X79854747Y-77457300D01*
X81943253Y-77457300D01*
X82103707Y-77473103D01*
X82103707Y-77473103D01*
G37*
G36*
X150048707Y-77473103D02*
G01*
X150254592Y-77535558D01*
X150444325Y-77636972D01*
X150444328Y-77636974D01*
X150444329Y-77636975D01*
X150546586Y-77720896D01*
X150610638Y-77773462D01*
X150747128Y-77939775D01*
X150848542Y-78129508D01*
X150910997Y-78335393D01*
X150932084Y-78549500D01*
X150910997Y-78763607D01*
X150848542Y-78969492D01*
X150747128Y-79159225D01*
X150747126Y-79159228D01*
X150747125Y-79159229D01*
X150610638Y-79325538D01*
X150470488Y-79440557D01*
X150444325Y-79462028D01*
X150254592Y-79563442D01*
X150048707Y-79625897D01*
X149888253Y-79641700D01*
X147799747Y-79641700D01*
X147639293Y-79625897D01*
X147433408Y-79563442D01*
X147243675Y-79462028D01*
X147217513Y-79440557D01*
X147077362Y-79325538D01*
X146940875Y-79159229D01*
X146940874Y-79159228D01*
X146940872Y-79159225D01*
X146839458Y-78969492D01*
X146777003Y-78763607D01*
X146755916Y-78549500D01*
X146777003Y-78335393D01*
X146839458Y-78129508D01*
X146940872Y-77939775D01*
X147077362Y-77773462D01*
X147141414Y-77720896D01*
X147243671Y-77636975D01*
X147243672Y-77636974D01*
X147243675Y-77636972D01*
X147433408Y-77535558D01*
X147639293Y-77473103D01*
X147799747Y-77457300D01*
X149888253Y-77457300D01*
X150048707Y-77473103D01*
X150048707Y-77473103D01*
G37*
G36*
X87183707Y-75568103D02*
G01*
X87389592Y-75630558D01*
X87579325Y-75731972D01*
X87745638Y-75868462D01*
X87882128Y-76034775D01*
X87983542Y-76224508D01*
X88045997Y-76430393D01*
X88067084Y-76644500D01*
X88045997Y-76858607D01*
X87983542Y-77064492D01*
X87882128Y-77254225D01*
X87882126Y-77254228D01*
X87882125Y-77254229D01*
X87745638Y-77420538D01*
X87605488Y-77535557D01*
X87579325Y-77557028D01*
X87389592Y-77658442D01*
X87183707Y-77720897D01*
X87023253Y-77736700D01*
X84934747Y-77736700D01*
X84774293Y-77720897D01*
X84568408Y-77658442D01*
X84378675Y-77557028D01*
X84352513Y-77535557D01*
X84212362Y-77420538D01*
X84075875Y-77254229D01*
X84075874Y-77254228D01*
X84075872Y-77254225D01*
X83974458Y-77064492D01*
X83912003Y-76858607D01*
X83890916Y-76644500D01*
X83912003Y-76430393D01*
X83974458Y-76224508D01*
X84075872Y-76034775D01*
X84212362Y-75868462D01*
X84378675Y-75731972D01*
X84568408Y-75630558D01*
X84774293Y-75568103D01*
X84934747Y-75552300D01*
X87023253Y-75552300D01*
X87183707Y-75568103D01*
X87183707Y-75568103D01*
G37*
G36*
X144968707Y-75568103D02*
G01*
X145174592Y-75630558D01*
X145364325Y-75731972D01*
X145530638Y-75868462D01*
X145667128Y-76034775D01*
X145768542Y-76224508D01*
X145830997Y-76430393D01*
X145852084Y-76644500D01*
X145830997Y-76858607D01*
X145768542Y-77064492D01*
X145667128Y-77254225D01*
X145667126Y-77254228D01*
X145667125Y-77254229D01*
X145530638Y-77420538D01*
X145390488Y-77535557D01*
X145364325Y-77557028D01*
X145174592Y-77658442D01*
X144968707Y-77720897D01*
X144808253Y-77736700D01*
X142719747Y-77736700D01*
X142559293Y-77720897D01*
X142353408Y-77658442D01*
X142163675Y-77557028D01*
X142137513Y-77535557D01*
X141997362Y-77420538D01*
X141860875Y-77254229D01*
X141860874Y-77254228D01*
X141860872Y-77254225D01*
X141759458Y-77064492D01*
X141697003Y-76858607D01*
X141675916Y-76644500D01*
X141697003Y-76430393D01*
X141759458Y-76224508D01*
X141860872Y-76034775D01*
X141997362Y-75868462D01*
X142163675Y-75731972D01*
X142353408Y-75630558D01*
X142559293Y-75568103D01*
X142719747Y-75552300D01*
X144808253Y-75552300D01*
X144968707Y-75568103D01*
X144968707Y-75568103D01*
G37*
G36*
X143885256Y-70146298D02*
G01*
X143991579Y-70167447D01*
X144204037Y-70255450D01*
X144249806Y-70274408D01*
X144292042Y-70291903D01*
X144562451Y-70472585D01*
X144792415Y-70702549D01*
X144973097Y-70972958D01*
X145097553Y-71273421D01*
X145102675Y-71299171D01*
X145148460Y-71529345D01*
X145161000Y-71592391D01*
X145161000Y-71917609D01*
X145097553Y-72236579D01*
X144973097Y-72537042D01*
X144792415Y-72807451D01*
X144562451Y-73037415D01*
X144292042Y-73218097D01*
X143991579Y-73342553D01*
X143885256Y-73363702D01*
X143672611Y-73406000D01*
X143347389Y-73406000D01*
X143134744Y-73363702D01*
X143028421Y-73342553D01*
X142727958Y-73218097D01*
X142457549Y-73037415D01*
X142227585Y-72807451D01*
X142046903Y-72537042D01*
X141922447Y-72236579D01*
X141859000Y-71917609D01*
X141859000Y-71592391D01*
X141871541Y-71529345D01*
X141917325Y-71299171D01*
X141922447Y-71273421D01*
X142046903Y-70972958D01*
X142227585Y-70702549D01*
X142457549Y-70472585D01*
X142727958Y-70291903D01*
X142770195Y-70274408D01*
X142815963Y-70255450D01*
X143028421Y-70167447D01*
X143134744Y-70146298D01*
X143347389Y-70104000D01*
X143672611Y-70104000D01*
X143885256Y-70146298D01*
X143885256Y-70146298D01*
G37*
G36*
X86735256Y-70146298D02*
G01*
X86841579Y-70167447D01*
X87054037Y-70255450D01*
X87099806Y-70274408D01*
X87142042Y-70291903D01*
X87412451Y-70472585D01*
X87642415Y-70702549D01*
X87823097Y-70972958D01*
X87947553Y-71273421D01*
X87952675Y-71299171D01*
X87998460Y-71529345D01*
X88011000Y-71592391D01*
X88011000Y-71917609D01*
X87947553Y-72236579D01*
X87823097Y-72537042D01*
X87642415Y-72807451D01*
X87412451Y-73037415D01*
X87142042Y-73218097D01*
X86841579Y-73342553D01*
X86735256Y-73363702D01*
X86522611Y-73406000D01*
X86197389Y-73406000D01*
X85984744Y-73363702D01*
X85878421Y-73342553D01*
X85577958Y-73218097D01*
X85307549Y-73037415D01*
X85077585Y-72807451D01*
X84896903Y-72537042D01*
X84772447Y-72236579D01*
X84709000Y-71917609D01*
X84709000Y-71592391D01*
X84721541Y-71529345D01*
X84767325Y-71299171D01*
X84772447Y-71273421D01*
X84896903Y-70972958D01*
X85077585Y-70702549D01*
X85307549Y-70472585D01*
X85577958Y-70291903D01*
X85620195Y-70274408D01*
X85665963Y-70255450D01*
X85878421Y-70167447D01*
X85984744Y-70146298D01*
X86197389Y-70104000D01*
X86522611Y-70104000D01*
X86735256Y-70146298D01*
X86735256Y-70146298D01*
G37*
G36*
X110684984Y-70675358D02*
G01*
X110812238Y-70728069D01*
X110831595Y-70736087D01*
X110898014Y-70780467D01*
X110963539Y-70824249D01*
X111075751Y-70936461D01*
X111163914Y-71068407D01*
X111224642Y-71215016D01*
X111255600Y-71370654D01*
X111255600Y-71529346D01*
X111224642Y-71684984D01*
X111163914Y-71831593D01*
X111163913Y-71831595D01*
X111075750Y-71963540D01*
X110963540Y-72075750D01*
X110831595Y-72163913D01*
X110831594Y-72163914D01*
X110831593Y-72163914D01*
X110684984Y-72224642D01*
X110529346Y-72255600D01*
X110370654Y-72255600D01*
X110215016Y-72224642D01*
X110068407Y-72163914D01*
X110068406Y-72163914D01*
X110068405Y-72163913D01*
X109936460Y-72075750D01*
X109824250Y-71963540D01*
X109736087Y-71831595D01*
X109736086Y-71831593D01*
X109675358Y-71684984D01*
X109644400Y-71529346D01*
X109644400Y-71370654D01*
X109675358Y-71215016D01*
X109736086Y-71068407D01*
X109824249Y-70936461D01*
X109936461Y-70824249D01*
X110001986Y-70780467D01*
X110068405Y-70736087D01*
X110087762Y-70728069D01*
X110215016Y-70675358D01*
X110370654Y-70644400D01*
X110529346Y-70644400D01*
X110684984Y-70675358D01*
X110684984Y-70675358D01*
G37*
G36*
X105684984Y-70675358D02*
G01*
X105812238Y-70728069D01*
X105831595Y-70736087D01*
X105898014Y-70780467D01*
X105963539Y-70824249D01*
X106075751Y-70936461D01*
X106163914Y-71068407D01*
X106224642Y-71215016D01*
X106255600Y-71370654D01*
X106255600Y-71529346D01*
X106224642Y-71684984D01*
X106163914Y-71831593D01*
X106163913Y-71831595D01*
X106075750Y-71963540D01*
X105963540Y-72075750D01*
X105831595Y-72163913D01*
X105831594Y-72163914D01*
X105831593Y-72163914D01*
X105684984Y-72224642D01*
X105529346Y-72255600D01*
X105370654Y-72255600D01*
X105215016Y-72224642D01*
X105068407Y-72163914D01*
X105068406Y-72163914D01*
X105068405Y-72163913D01*
X104936460Y-72075750D01*
X104824250Y-71963540D01*
X104736087Y-71831595D01*
X104736086Y-71831593D01*
X104675358Y-71684984D01*
X104644400Y-71529346D01*
X104644400Y-71370654D01*
X104675358Y-71215016D01*
X104736086Y-71068407D01*
X104824249Y-70936461D01*
X104936461Y-70824249D01*
X105001986Y-70780467D01*
X105068405Y-70736087D01*
X105087762Y-70728069D01*
X105215016Y-70675358D01*
X105370654Y-70644400D01*
X105529346Y-70644400D01*
X105684984Y-70675358D01*
X105684984Y-70675358D01*
G37*
G36*
X108184984Y-70675358D02*
G01*
X108312238Y-70728069D01*
X108331595Y-70736087D01*
X108398014Y-70780467D01*
X108463539Y-70824249D01*
X108575751Y-70936461D01*
X108663914Y-71068407D01*
X108724642Y-71215016D01*
X108755600Y-71370654D01*
X108755600Y-71529346D01*
X108724642Y-71684984D01*
X108663914Y-71831593D01*
X108663913Y-71831595D01*
X108575750Y-71963540D01*
X108463540Y-72075750D01*
X108331595Y-72163913D01*
X108331594Y-72163914D01*
X108331593Y-72163914D01*
X108184984Y-72224642D01*
X108029346Y-72255600D01*
X107870654Y-72255600D01*
X107715016Y-72224642D01*
X107568407Y-72163914D01*
X107568406Y-72163914D01*
X107568405Y-72163913D01*
X107436460Y-72075750D01*
X107324250Y-71963540D01*
X107236087Y-71831595D01*
X107236086Y-71831593D01*
X107175358Y-71684984D01*
X107144400Y-71529346D01*
X107144400Y-71370654D01*
X107175358Y-71215016D01*
X107236086Y-71068407D01*
X107324249Y-70936461D01*
X107436461Y-70824249D01*
X107501986Y-70780467D01*
X107568405Y-70736087D01*
X107587762Y-70728069D01*
X107715016Y-70675358D01*
X107870654Y-70644400D01*
X108029346Y-70644400D01*
X108184984Y-70675358D01*
X108184984Y-70675358D01*
G37*
G36*
X119646348Y-70058320D02*
G01*
X119646350Y-70058321D01*
X119646351Y-70058321D01*
X119787574Y-70116817D01*
X119787577Y-70116819D01*
X119914669Y-70201739D01*
X120022761Y-70309831D01*
X120107681Y-70436923D01*
X120107683Y-70436926D01*
X120166179Y-70578149D01*
X120166180Y-70578152D01*
X120196000Y-70728069D01*
X120196000Y-70880931D01*
X120177695Y-70972960D01*
X120166179Y-71030851D01*
X120107683Y-71172074D01*
X120107681Y-71172077D01*
X120022761Y-71299169D01*
X119914669Y-71407261D01*
X119787577Y-71492181D01*
X119787574Y-71492183D01*
X119646351Y-71550679D01*
X119646350Y-71550679D01*
X119646348Y-71550680D01*
X119496431Y-71580500D01*
X119343569Y-71580500D01*
X119193652Y-71550680D01*
X119193650Y-71550679D01*
X119193649Y-71550679D01*
X119052426Y-71492183D01*
X119052423Y-71492181D01*
X118925331Y-71407261D01*
X118817239Y-71299169D01*
X118732319Y-71172077D01*
X118732317Y-71172074D01*
X118673821Y-71030851D01*
X118662306Y-70972960D01*
X118644000Y-70880931D01*
X118644000Y-70728069D01*
X118673820Y-70578152D01*
X118673821Y-70578149D01*
X118732317Y-70436926D01*
X118732319Y-70436923D01*
X118817239Y-70309831D01*
X118925331Y-70201739D01*
X119052423Y-70116819D01*
X119052426Y-70116817D01*
X119193649Y-70058321D01*
X119193650Y-70058321D01*
X119193652Y-70058320D01*
X119343569Y-70028500D01*
X119496431Y-70028500D01*
X119646348Y-70058320D01*
X119646348Y-70058320D01*
G37*
G36*
X124646348Y-70058320D02*
G01*
X124646350Y-70058321D01*
X124646351Y-70058321D01*
X124787574Y-70116817D01*
X124787577Y-70116819D01*
X124914669Y-70201739D01*
X125022761Y-70309831D01*
X125107681Y-70436923D01*
X125107683Y-70436926D01*
X125166179Y-70578149D01*
X125166180Y-70578152D01*
X125196000Y-70728069D01*
X125196000Y-70880931D01*
X125177695Y-70972960D01*
X125166179Y-71030851D01*
X125107683Y-71172074D01*
X125107681Y-71172077D01*
X125022761Y-71299169D01*
X124914669Y-71407261D01*
X124787577Y-71492181D01*
X124787574Y-71492183D01*
X124646351Y-71550679D01*
X124646350Y-71550679D01*
X124646348Y-71550680D01*
X124496431Y-71580500D01*
X124343569Y-71580500D01*
X124193652Y-71550680D01*
X124193650Y-71550679D01*
X124193649Y-71550679D01*
X124052426Y-71492183D01*
X124052423Y-71492181D01*
X123925331Y-71407261D01*
X123817239Y-71299169D01*
X123732319Y-71172077D01*
X123732317Y-71172074D01*
X123673821Y-71030851D01*
X123662306Y-70972960D01*
X123644000Y-70880931D01*
X123644000Y-70728069D01*
X123673820Y-70578152D01*
X123673821Y-70578149D01*
X123732317Y-70436926D01*
X123732319Y-70436923D01*
X123817239Y-70309831D01*
X123925331Y-70201739D01*
X124052423Y-70116819D01*
X124052426Y-70116817D01*
X124193649Y-70058321D01*
X124193650Y-70058321D01*
X124193652Y-70058320D01*
X124343569Y-70028500D01*
X124496431Y-70028500D01*
X124646348Y-70058320D01*
X124646348Y-70058320D01*
G37*
G36*
X81608705Y-67776238D02*
G01*
X81893025Y-67894007D01*
X82148907Y-68064982D01*
X82366518Y-68282593D01*
X82537493Y-68538475D01*
X82655262Y-68822795D01*
X82715300Y-69124626D01*
X82715300Y-69432374D01*
X82655262Y-69734205D01*
X82537493Y-70018525D01*
X82366518Y-70274407D01*
X82148907Y-70492018D01*
X81893025Y-70662993D01*
X81608705Y-70780762D01*
X81306874Y-70840800D01*
X80999126Y-70840800D01*
X80697295Y-70780762D01*
X80412975Y-70662993D01*
X80157093Y-70492018D01*
X79939482Y-70274407D01*
X79768507Y-70018525D01*
X79650738Y-69734205D01*
X79590700Y-69432374D01*
X79590700Y-69124626D01*
X79650738Y-68822795D01*
X79768507Y-68538475D01*
X79939482Y-68282593D01*
X80157093Y-68064982D01*
X80412975Y-67894007D01*
X80697295Y-67776238D01*
X80999126Y-67716200D01*
X81306874Y-67716200D01*
X81608705Y-67776238D01*
X81608705Y-67776238D01*
G37*
G36*
X152601705Y-67776238D02*
G01*
X152886025Y-67894007D01*
X153141907Y-68064982D01*
X153359518Y-68282593D01*
X153530493Y-68538475D01*
X153648262Y-68822795D01*
X153708300Y-69124626D01*
X153708300Y-69432374D01*
X153648262Y-69734205D01*
X153530493Y-70018525D01*
X153359518Y-70274407D01*
X153141907Y-70492018D01*
X152886025Y-70662993D01*
X152601705Y-70780762D01*
X152299874Y-70840800D01*
X151992126Y-70840800D01*
X151690295Y-70780762D01*
X151405975Y-70662993D01*
X151150093Y-70492018D01*
X150932482Y-70274407D01*
X150761507Y-70018525D01*
X150643738Y-69734205D01*
X150583700Y-69432374D01*
X150583700Y-69124626D01*
X150643738Y-68822795D01*
X150761507Y-68538475D01*
X150932482Y-68282593D01*
X151150093Y-68064982D01*
X151405975Y-67894007D01*
X151690295Y-67776238D01*
X151992126Y-67716200D01*
X152299874Y-67716200D01*
X152601705Y-67776238D01*
X152601705Y-67776238D01*
G37*
G36*
X149045705Y-67776238D02*
G01*
X149330025Y-67894007D01*
X149585907Y-68064982D01*
X149803518Y-68282593D01*
X149974493Y-68538475D01*
X150092262Y-68822795D01*
X150152300Y-69124626D01*
X150152300Y-69432374D01*
X150092262Y-69734205D01*
X149974493Y-70018525D01*
X149803518Y-70274407D01*
X149585907Y-70492018D01*
X149330025Y-70662993D01*
X149045705Y-70780762D01*
X148743874Y-70840800D01*
X148436126Y-70840800D01*
X148134295Y-70780762D01*
X147849975Y-70662993D01*
X147594093Y-70492018D01*
X147376482Y-70274407D01*
X147205507Y-70018525D01*
X147087738Y-69734205D01*
X147027700Y-69432374D01*
X147027700Y-69124626D01*
X147087738Y-68822795D01*
X147205507Y-68538475D01*
X147376482Y-68282593D01*
X147594093Y-68064982D01*
X147849975Y-67894007D01*
X148134295Y-67776238D01*
X148436126Y-67716200D01*
X148743874Y-67716200D01*
X149045705Y-67776238D01*
X149045705Y-67776238D01*
G37*
G36*
X78052705Y-67776238D02*
G01*
X78337025Y-67894007D01*
X78592907Y-68064982D01*
X78810518Y-68282593D01*
X78981493Y-68538475D01*
X79099262Y-68822795D01*
X79159300Y-69124626D01*
X79159300Y-69432374D01*
X79099262Y-69734205D01*
X78981493Y-70018525D01*
X78810518Y-70274407D01*
X78592907Y-70492018D01*
X78337025Y-70662993D01*
X78052705Y-70780762D01*
X77750874Y-70840800D01*
X77443126Y-70840800D01*
X77141295Y-70780762D01*
X76856975Y-70662993D01*
X76601093Y-70492018D01*
X76383482Y-70274407D01*
X76212507Y-70018525D01*
X76094738Y-69734205D01*
X76034700Y-69432374D01*
X76034700Y-69124626D01*
X76094738Y-68822795D01*
X76212507Y-68538475D01*
X76383482Y-68282593D01*
X76601093Y-68064982D01*
X76856975Y-67894007D01*
X77141295Y-67776238D01*
X77443126Y-67716200D01*
X77750874Y-67716200D01*
X78052705Y-67776238D01*
X78052705Y-67776238D01*
G37*
G36*
X118547618Y-67112920D02*
G01*
X118638404Y-67140460D01*
X118670336Y-67150146D01*
X118783425Y-67210594D01*
X118882554Y-67291946D01*
X118963906Y-67391075D01*
X119024354Y-67504164D01*
X119030447Y-67524249D01*
X119061580Y-67626882D01*
X119071000Y-67722527D01*
X119071000Y-68486473D01*
X119061580Y-68582118D01*
X119036881Y-68663539D01*
X119024354Y-68704836D01*
X118963906Y-68817925D01*
X118882554Y-68917053D01*
X118783424Y-68998406D01*
X118670335Y-69058854D01*
X118638403Y-69068540D01*
X118547617Y-69096080D01*
X118420000Y-69108649D01*
X118292382Y-69096080D01*
X118201596Y-69068540D01*
X118169664Y-69058854D01*
X118056575Y-68998406D01*
X117957447Y-68917054D01*
X117876094Y-68817924D01*
X117815646Y-68704835D01*
X117805960Y-68672903D01*
X117778420Y-68582117D01*
X117769000Y-68486472D01*
X117769000Y-67722527D01*
X117778420Y-67626882D01*
X117815645Y-67504168D01*
X117852036Y-67436086D01*
X117876095Y-67391075D01*
X117957447Y-67291946D01*
X118056576Y-67210594D01*
X118169665Y-67150146D01*
X118201597Y-67140460D01*
X118292383Y-67112920D01*
X118420000Y-67100351D01*
X118547618Y-67112920D01*
X118547618Y-67112920D01*
G37*
G36*
X125547617Y-67112920D02*
G01*
X125638403Y-67140460D01*
X125670335Y-67150146D01*
X125783424Y-67210594D01*
X125882554Y-67291947D01*
X125963906Y-67391075D01*
X126024354Y-67504164D01*
X126030447Y-67524249D01*
X126061580Y-67626882D01*
X126071000Y-67722527D01*
X126071000Y-68486473D01*
X126061580Y-68582118D01*
X126036881Y-68663539D01*
X126024354Y-68704836D01*
X125963906Y-68817925D01*
X125882554Y-68917054D01*
X125783425Y-68998406D01*
X125670336Y-69058854D01*
X125638404Y-69068540D01*
X125547618Y-69096080D01*
X125420000Y-69108649D01*
X125292383Y-69096080D01*
X125201597Y-69068540D01*
X125169665Y-69058854D01*
X125056576Y-68998406D01*
X124957447Y-68917054D01*
X124876095Y-68817925D01*
X124815648Y-68704837D01*
X124815645Y-68704832D01*
X124778420Y-68582118D01*
X124769000Y-68486473D01*
X124769000Y-67722528D01*
X124778420Y-67626883D01*
X124815645Y-67504169D01*
X124815646Y-67504165D01*
X124876094Y-67391076D01*
X124957447Y-67291946D01*
X125056575Y-67210594D01*
X125169664Y-67150146D01*
X125201596Y-67140460D01*
X125292382Y-67112920D01*
X125420000Y-67100351D01*
X125547617Y-67112920D01*
X125547617Y-67112920D01*
G37*
G36*
X110684984Y-67375358D02*
G01*
X110831593Y-67436086D01*
X110831595Y-67436087D01*
X110898014Y-67480467D01*
X110933480Y-67504164D01*
X110963540Y-67524250D01*
X111075750Y-67636460D01*
X111133258Y-67722526D01*
X111163914Y-67768407D01*
X111224642Y-67915016D01*
X111255600Y-68070654D01*
X111255600Y-68229346D01*
X111224642Y-68384984D01*
X111182604Y-68486472D01*
X111163913Y-68531595D01*
X111075750Y-68663540D01*
X110963540Y-68775750D01*
X110831595Y-68863913D01*
X110831594Y-68863914D01*
X110831593Y-68863914D01*
X110684984Y-68924642D01*
X110529346Y-68955600D01*
X110370654Y-68955600D01*
X110215016Y-68924642D01*
X110068407Y-68863914D01*
X110068406Y-68863914D01*
X110068405Y-68863913D01*
X109936460Y-68775750D01*
X109824250Y-68663540D01*
X109736087Y-68531595D01*
X109717396Y-68486472D01*
X109675358Y-68384984D01*
X109644400Y-68229346D01*
X109644400Y-68070654D01*
X109675358Y-67915016D01*
X109736086Y-67768407D01*
X109766743Y-67722526D01*
X109824250Y-67636460D01*
X109936460Y-67524250D01*
X109966521Y-67504164D01*
X110001986Y-67480467D01*
X110068405Y-67436087D01*
X110068407Y-67436086D01*
X110215016Y-67375358D01*
X110370654Y-67344400D01*
X110529346Y-67344400D01*
X110684984Y-67375358D01*
X110684984Y-67375358D01*
G37*
G36*
X108184984Y-67375358D02*
G01*
X108331593Y-67436086D01*
X108331595Y-67436087D01*
X108398014Y-67480467D01*
X108433480Y-67504164D01*
X108463540Y-67524250D01*
X108575750Y-67636460D01*
X108633258Y-67722526D01*
X108663914Y-67768407D01*
X108724642Y-67915016D01*
X108755600Y-68070654D01*
X108755600Y-68229346D01*
X108724642Y-68384984D01*
X108682604Y-68486472D01*
X108663913Y-68531595D01*
X108575750Y-68663540D01*
X108463540Y-68775750D01*
X108331595Y-68863913D01*
X108331594Y-68863914D01*
X108331593Y-68863914D01*
X108184984Y-68924642D01*
X108029346Y-68955600D01*
X107870654Y-68955600D01*
X107715016Y-68924642D01*
X107568407Y-68863914D01*
X107568406Y-68863914D01*
X107568405Y-68863913D01*
X107436460Y-68775750D01*
X107324250Y-68663540D01*
X107236087Y-68531595D01*
X107217396Y-68486472D01*
X107175358Y-68384984D01*
X107144400Y-68229346D01*
X107144400Y-68070654D01*
X107175358Y-67915016D01*
X107236086Y-67768407D01*
X107266743Y-67722526D01*
X107324250Y-67636460D01*
X107436460Y-67524250D01*
X107466521Y-67504164D01*
X107501986Y-67480467D01*
X107568405Y-67436087D01*
X107568407Y-67436086D01*
X107715016Y-67375358D01*
X107870654Y-67344400D01*
X108029346Y-67344400D01*
X108184984Y-67375358D01*
X108184984Y-67375358D01*
G37*
G36*
X105684984Y-67375358D02*
G01*
X105831593Y-67436086D01*
X105831595Y-67436087D01*
X105898014Y-67480467D01*
X105933480Y-67504164D01*
X105963540Y-67524250D01*
X106075750Y-67636460D01*
X106133258Y-67722526D01*
X106163914Y-67768407D01*
X106224642Y-67915016D01*
X106255600Y-68070654D01*
X106255600Y-68229346D01*
X106224642Y-68384984D01*
X106182604Y-68486472D01*
X106163913Y-68531595D01*
X106075750Y-68663540D01*
X105963540Y-68775750D01*
X105831595Y-68863913D01*
X105831594Y-68863914D01*
X105831593Y-68863914D01*
X105684984Y-68924642D01*
X105529346Y-68955600D01*
X105370654Y-68955600D01*
X105215016Y-68924642D01*
X105068407Y-68863914D01*
X105068406Y-68863914D01*
X105068405Y-68863913D01*
X104936460Y-68775750D01*
X104824250Y-68663540D01*
X104736087Y-68531595D01*
X104717396Y-68486472D01*
X104675358Y-68384984D01*
X104644400Y-68229346D01*
X104644400Y-68070654D01*
X104675358Y-67915016D01*
X104736086Y-67768407D01*
X104766743Y-67722526D01*
X104824250Y-67636460D01*
X104936460Y-67524250D01*
X104966521Y-67504164D01*
X105001986Y-67480467D01*
X105068405Y-67436087D01*
X105068407Y-67436086D01*
X105215016Y-67375358D01*
X105370654Y-67344400D01*
X105529346Y-67344400D01*
X105684984Y-67375358D01*
X105684984Y-67375358D01*
G37*
M02*
