G04 #@! TF.GenerationSoftware,KiCad,Pcbnew,(5.1.0)-1*
G04 #@! TF.CreationDate,2019-04-04T01:13:05-04:00*
G04 #@! TF.ProjectId,SCART Splitter,53434152-5420-4537-906c-69747465722e,rev?*
G04 #@! TF.SameCoordinates,Original*
G04 #@! TF.FileFunction,Profile,NP*
%FSLAX46Y46*%
G04 Gerber Fmt 4.6, Leading zero omitted, Abs format (unit mm)*
G04 Created by KiCad (PCBNEW (5.1.0)-1) date 2019-04-04 01:13:05*
%MOMM*%
%LPD*%
G04 APERTURE LIST*
%ADD10C,0.050000*%
%ADD11C,0.002400*%
G04 APERTURE END LIST*
D10*
X154940000Y-66675000D02*
X74930000Y-66675000D01*
X154940000Y-132080000D02*
X154940000Y-66675000D01*
X74930000Y-132080000D02*
X154940000Y-132080000D01*
X74930000Y-66675000D02*
X74930000Y-132080000D01*
D11*
X81153000Y-70802500D02*
X77597000Y-70802500D01*
D10*
X81152998Y-70802500D02*
G75*
G03X81153000Y-67754500I1J1524000D01*
G01*
X77597000Y-70802500D02*
G75*
G02X77597000Y-67754500I0J1524000D01*
G01*
D11*
X77597000Y-67754500D02*
X81153000Y-67754500D01*
X81153000Y-123634500D02*
X77597000Y-123634500D01*
D10*
X81152998Y-123634500D02*
G75*
G03X81153000Y-120586500I1J1524000D01*
G01*
X77597000Y-123634500D02*
G75*
G02X77597000Y-120586500I0J1524000D01*
G01*
D11*
X77597000Y-120586500D02*
X81153000Y-120586500D01*
X139573000Y-129032000D02*
X139573000Y-125476000D01*
D10*
X142621000Y-129032000D02*
G75*
G02X139573000Y-129032000I-1524000J0D01*
G01*
X142621000Y-125476002D02*
G75*
G03X139573000Y-125476000I-1524000J1D01*
G01*
D11*
X142621000Y-125476000D02*
X142621000Y-129032000D01*
X86741000Y-129032000D02*
X86741000Y-125476000D01*
D10*
X89789000Y-129032000D02*
G75*
G02X86741000Y-129032000I-1524000J0D01*
G01*
X89789000Y-125476002D02*
G75*
G03X86741000Y-125476000I-1524000J1D01*
G01*
D11*
X89789000Y-125476000D02*
X89789000Y-129032000D01*
X152146000Y-70802500D02*
X148590000Y-70802500D01*
D10*
X152146000Y-67754500D02*
G75*
G02X152146000Y-70802500I0J-1524000D01*
G01*
X148590002Y-67754500D02*
G75*
G03X148590000Y-70802500I-1J-1524000D01*
G01*
D11*
X148590000Y-67754500D02*
X152146000Y-67754500D01*
X152146000Y-123634500D02*
X148590000Y-123634500D01*
D10*
X152146000Y-120586500D02*
G75*
G02X152146000Y-123634500I0J-1524000D01*
G01*
X148590002Y-120586500D02*
G75*
G03X148590000Y-123634500I-1J-1524000D01*
G01*
D11*
X148590000Y-120586500D02*
X152146000Y-120586500D01*
M02*
