G04 #@! TF.GenerationSoftware,KiCad,Pcbnew,(5.1.0)-1*
G04 #@! TF.CreationDate,2019-04-04T01:13:04-04:00*
G04 #@! TF.ProjectId,SCART Splitter,53434152-5420-4537-906c-69747465722e,rev?*
G04 #@! TF.SameCoordinates,Original*
G04 #@! TF.FileFunction,Legend,Top*
G04 #@! TF.FilePolarity,Positive*
%FSLAX46Y46*%
G04 Gerber Fmt 4.6, Leading zero omitted, Abs format (unit mm)*
G04 Created by KiCad (PCBNEW (5.1.0)-1) date 2019-04-04 01:13:04*
%MOMM*%
%LPD*%
G04 APERTURE LIST*
%ADD10C,0.375000*%
%ADD11C,0.150000*%
%ADD12C,0.120000*%
%ADD13C,0.152400*%
%ADD14C,0.050800*%
%ADD15C,0.010000*%
%ADD16C,0.127000*%
%ADD17C,0.096520*%
%ADD18C,0.177800*%
G04 APERTURE END LIST*
D10*
X104072428Y-86562857D02*
X104072428Y-86848571D01*
X104001000Y-86991428D01*
X103858142Y-87134285D01*
X103572428Y-87205714D01*
X103072428Y-87205714D01*
X102786714Y-87134285D01*
X102643857Y-86991428D01*
X102572428Y-86848571D01*
X102572428Y-86562857D01*
X102643857Y-86420000D01*
X102786714Y-86277142D01*
X103072428Y-86205714D01*
X103572428Y-86205714D01*
X103858142Y-86277142D01*
X104001000Y-86420000D01*
X104072428Y-86562857D01*
X104072428Y-87848571D02*
X102858142Y-87848571D01*
X102715285Y-87920000D01*
X102643857Y-87991428D01*
X102572428Y-88134285D01*
X102572428Y-88420000D01*
X102643857Y-88562857D01*
X102715285Y-88634285D01*
X102858142Y-88705714D01*
X104072428Y-88705714D01*
X104072428Y-89205714D02*
X104072428Y-90062857D01*
X102572428Y-89634285D02*
X104072428Y-89634285D01*
X102572428Y-90562857D02*
X104072428Y-90562857D01*
X104072428Y-91134285D01*
X104001000Y-91277142D01*
X103929571Y-91348571D01*
X103786714Y-91420000D01*
X103572428Y-91420000D01*
X103429571Y-91348571D01*
X103358142Y-91277142D01*
X103286714Y-91134285D01*
X103286714Y-90562857D01*
X104072428Y-92062857D02*
X102858142Y-92062857D01*
X102715285Y-92134285D01*
X102643857Y-92205714D01*
X102572428Y-92348571D01*
X102572428Y-92634285D01*
X102643857Y-92777142D01*
X102715285Y-92848571D01*
X102858142Y-92920000D01*
X104072428Y-92920000D01*
X104072428Y-93420000D02*
X104072428Y-94277142D01*
X102572428Y-93848571D02*
X104072428Y-93848571D01*
X123003571Y-93777142D02*
X123003571Y-93491428D01*
X123075000Y-93348571D01*
X123217857Y-93205714D01*
X123503571Y-93134285D01*
X124003571Y-93134285D01*
X124289285Y-93205714D01*
X124432142Y-93348571D01*
X124503571Y-93491428D01*
X124503571Y-93777142D01*
X124432142Y-93920000D01*
X124289285Y-94062857D01*
X124003571Y-94134285D01*
X123503571Y-94134285D01*
X123217857Y-94062857D01*
X123075000Y-93920000D01*
X123003571Y-93777142D01*
X123003571Y-92491428D02*
X124217857Y-92491428D01*
X124360714Y-92420000D01*
X124432142Y-92348571D01*
X124503571Y-92205714D01*
X124503571Y-91920000D01*
X124432142Y-91777142D01*
X124360714Y-91705714D01*
X124217857Y-91634285D01*
X123003571Y-91634285D01*
X123003571Y-91134285D02*
X123003571Y-90277142D01*
X124503571Y-90705714D02*
X123003571Y-90705714D01*
X124503571Y-89777142D02*
X123003571Y-89777142D01*
X123003571Y-89205714D01*
X123075000Y-89062857D01*
X123146428Y-88991428D01*
X123289285Y-88920000D01*
X123503571Y-88920000D01*
X123646428Y-88991428D01*
X123717857Y-89062857D01*
X123789285Y-89205714D01*
X123789285Y-89777142D01*
X123003571Y-88277142D02*
X124217857Y-88277142D01*
X124360714Y-88205714D01*
X124432142Y-88134285D01*
X124503571Y-87991428D01*
X124503571Y-87705714D01*
X124432142Y-87562857D01*
X124360714Y-87491428D01*
X124217857Y-87420000D01*
X123003571Y-87420000D01*
X123003571Y-86920000D02*
X123003571Y-86062857D01*
X124503571Y-86491428D02*
X123003571Y-86491428D01*
X111407142Y-95674571D02*
X111407142Y-94174571D01*
X112121428Y-95674571D02*
X112121428Y-94174571D01*
X112978571Y-95674571D01*
X112978571Y-94174571D01*
X113692857Y-95674571D02*
X113692857Y-94174571D01*
X114264285Y-94174571D01*
X114407142Y-94246000D01*
X114478571Y-94317428D01*
X114550000Y-94460285D01*
X114550000Y-94674571D01*
X114478571Y-94817428D01*
X114407142Y-94888857D01*
X114264285Y-94960285D01*
X113692857Y-94960285D01*
X115192857Y-94174571D02*
X115192857Y-95388857D01*
X115264285Y-95531714D01*
X115335714Y-95603142D01*
X115478571Y-95674571D01*
X115764285Y-95674571D01*
X115907142Y-95603142D01*
X115978571Y-95531714D01*
X116050000Y-95388857D01*
X116050000Y-94174571D01*
X116550000Y-94174571D02*
X117407142Y-94174571D01*
X116978571Y-95674571D02*
X116978571Y-94174571D01*
D11*
X102458857Y-79879523D02*
X102744571Y-79974761D01*
X103220761Y-79974761D01*
X103411238Y-79879523D01*
X103506476Y-79784285D01*
X103601714Y-79593809D01*
X103601714Y-79403333D01*
X103506476Y-79212857D01*
X103411238Y-79117619D01*
X103220761Y-79022380D01*
X102839809Y-78927142D01*
X102649333Y-78831904D01*
X102554095Y-78736666D01*
X102458857Y-78546190D01*
X102458857Y-78355714D01*
X102554095Y-78165238D01*
X102649333Y-78070000D01*
X102839809Y-77974761D01*
X103316000Y-77974761D01*
X103601714Y-78070000D01*
X105601714Y-79784285D02*
X105506476Y-79879523D01*
X105220761Y-79974761D01*
X105030285Y-79974761D01*
X104744571Y-79879523D01*
X104554095Y-79689047D01*
X104458857Y-79498571D01*
X104363619Y-79117619D01*
X104363619Y-78831904D01*
X104458857Y-78450952D01*
X104554095Y-78260476D01*
X104744571Y-78070000D01*
X105030285Y-77974761D01*
X105220761Y-77974761D01*
X105506476Y-78070000D01*
X105601714Y-78165238D01*
X106363619Y-79403333D02*
X107316000Y-79403333D01*
X106173142Y-79974761D02*
X106839809Y-77974761D01*
X107506476Y-79974761D01*
X109316000Y-79974761D02*
X108649333Y-79022380D01*
X108173142Y-79974761D02*
X108173142Y-77974761D01*
X108935047Y-77974761D01*
X109125523Y-78070000D01*
X109220761Y-78165238D01*
X109316000Y-78355714D01*
X109316000Y-78641428D01*
X109220761Y-78831904D01*
X109125523Y-78927142D01*
X108935047Y-79022380D01*
X108173142Y-79022380D01*
X109887428Y-77974761D02*
X111030285Y-77974761D01*
X110458857Y-79974761D02*
X110458857Y-77974761D01*
X111601714Y-78165238D02*
X111696952Y-78070000D01*
X111887428Y-77974761D01*
X112363619Y-77974761D01*
X112554095Y-78070000D01*
X112649333Y-78165238D01*
X112744571Y-78355714D01*
X112744571Y-78546190D01*
X112649333Y-78831904D01*
X111506476Y-79974761D01*
X112744571Y-79974761D01*
X113506476Y-79879523D02*
X113792190Y-79974761D01*
X114268380Y-79974761D01*
X114458857Y-79879523D01*
X114554095Y-79784285D01*
X114649333Y-79593809D01*
X114649333Y-79403333D01*
X114554095Y-79212857D01*
X114458857Y-79117619D01*
X114268380Y-79022380D01*
X113887428Y-78927142D01*
X113696952Y-78831904D01*
X113601714Y-78736666D01*
X113506476Y-78546190D01*
X113506476Y-78355714D01*
X113601714Y-78165238D01*
X113696952Y-78070000D01*
X113887428Y-77974761D01*
X114363619Y-77974761D01*
X114649333Y-78070000D01*
X116649333Y-79784285D02*
X116554095Y-79879523D01*
X116268380Y-79974761D01*
X116077904Y-79974761D01*
X115792190Y-79879523D01*
X115601714Y-79689047D01*
X115506476Y-79498571D01*
X115411238Y-79117619D01*
X115411238Y-78831904D01*
X115506476Y-78450952D01*
X115601714Y-78260476D01*
X115792190Y-78070000D01*
X116077904Y-77974761D01*
X116268380Y-77974761D01*
X116554095Y-78070000D01*
X116649333Y-78165238D01*
X117411238Y-79403333D02*
X118363619Y-79403333D01*
X117220761Y-79974761D02*
X117887428Y-77974761D01*
X118554095Y-79974761D01*
X120363619Y-79974761D02*
X119696952Y-79022380D01*
X119220761Y-79974761D02*
X119220761Y-77974761D01*
X119982666Y-77974761D01*
X120173142Y-78070000D01*
X120268380Y-78165238D01*
X120363619Y-78355714D01*
X120363619Y-78641428D01*
X120268380Y-78831904D01*
X120173142Y-78927142D01*
X119982666Y-79022380D01*
X119220761Y-79022380D01*
X120935047Y-77974761D02*
X122077904Y-77974761D01*
X121506476Y-79974761D02*
X121506476Y-77974761D01*
X125316000Y-79974761D02*
X124173142Y-79974761D01*
X124744571Y-79974761D02*
X124744571Y-77974761D01*
X124554095Y-78260476D01*
X124363619Y-78450952D01*
X124173142Y-78546190D01*
X126173142Y-79784285D02*
X126268380Y-79879523D01*
X126173142Y-79974761D01*
X126077904Y-79879523D01*
X126173142Y-79784285D01*
X126173142Y-79974761D01*
X127506476Y-77974761D02*
X127696952Y-77974761D01*
X127887428Y-78070000D01*
X127982666Y-78165238D01*
X128077904Y-78355714D01*
X128173142Y-78736666D01*
X128173142Y-79212857D01*
X128077904Y-79593809D01*
X127982666Y-79784285D01*
X127887428Y-79879523D01*
X127696952Y-79974761D01*
X127506476Y-79974761D01*
X127316000Y-79879523D01*
X127220761Y-79784285D01*
X127125523Y-79593809D01*
X127030285Y-79212857D01*
X127030285Y-78736666D01*
X127125523Y-78355714D01*
X127220761Y-78165238D01*
X127316000Y-78070000D01*
X127506476Y-77974761D01*
X106792190Y-83124761D02*
X106792190Y-81124761D01*
X107268380Y-81124761D01*
X107554095Y-81220000D01*
X107744571Y-81410476D01*
X107839809Y-81600952D01*
X107935047Y-81981904D01*
X107935047Y-82267619D01*
X107839809Y-82648571D01*
X107744571Y-82839047D01*
X107554095Y-83029523D01*
X107268380Y-83124761D01*
X106792190Y-83124761D01*
X109649333Y-81791428D02*
X109649333Y-83124761D01*
X108792190Y-81791428D02*
X108792190Y-82839047D01*
X108887428Y-83029523D01*
X109077904Y-83124761D01*
X109363619Y-83124761D01*
X109554095Y-83029523D01*
X109649333Y-82934285D01*
X111458857Y-83124761D02*
X111458857Y-82077142D01*
X111363619Y-81886666D01*
X111173142Y-81791428D01*
X110792190Y-81791428D01*
X110601714Y-81886666D01*
X111458857Y-83029523D02*
X111268380Y-83124761D01*
X110792190Y-83124761D01*
X110601714Y-83029523D01*
X110506476Y-82839047D01*
X110506476Y-82648571D01*
X110601714Y-82458095D01*
X110792190Y-82362857D01*
X111268380Y-82362857D01*
X111458857Y-82267619D01*
X112696952Y-83124761D02*
X112506476Y-83029523D01*
X112411238Y-82839047D01*
X112411238Y-81124761D01*
X115363619Y-81124761D02*
X115744571Y-81124761D01*
X115935047Y-81220000D01*
X116125523Y-81410476D01*
X116220761Y-81791428D01*
X116220761Y-82458095D01*
X116125523Y-82839047D01*
X115935047Y-83029523D01*
X115744571Y-83124761D01*
X115363619Y-83124761D01*
X115173142Y-83029523D01*
X114982666Y-82839047D01*
X114887428Y-82458095D01*
X114887428Y-81791428D01*
X114982666Y-81410476D01*
X115173142Y-81220000D01*
X115363619Y-81124761D01*
X117935047Y-81791428D02*
X117935047Y-83124761D01*
X117077904Y-81791428D02*
X117077904Y-82839047D01*
X117173142Y-83029523D01*
X117363619Y-83124761D01*
X117649333Y-83124761D01*
X117839809Y-83029523D01*
X117935047Y-82934285D01*
X118601714Y-81791428D02*
X119363619Y-81791428D01*
X118887428Y-81124761D02*
X118887428Y-82839047D01*
X118982666Y-83029523D01*
X119173142Y-83124761D01*
X119363619Y-83124761D01*
X120030285Y-81791428D02*
X120030285Y-83791428D01*
X120030285Y-81886666D02*
X120220761Y-81791428D01*
X120601714Y-81791428D01*
X120792190Y-81886666D01*
X120887428Y-81981904D01*
X120982666Y-82172380D01*
X120982666Y-82743809D01*
X120887428Y-82934285D01*
X120792190Y-83029523D01*
X120601714Y-83124761D01*
X120220761Y-83124761D01*
X120030285Y-83029523D01*
X122696952Y-81791428D02*
X122696952Y-83124761D01*
X121839809Y-81791428D02*
X121839809Y-82839047D01*
X121935047Y-83029523D01*
X122125523Y-83124761D01*
X122411238Y-83124761D01*
X122601714Y-83029523D01*
X122696952Y-82934285D01*
X123363619Y-81791428D02*
X124125523Y-81791428D01*
X123649333Y-81124761D02*
X123649333Y-82839047D01*
X123744571Y-83029523D01*
X123935047Y-83124761D01*
X124125523Y-83124761D01*
X113680952Y-69477380D02*
X113204761Y-69477380D01*
X113204761Y-68477380D01*
X114014285Y-69477380D02*
X114014285Y-68477380D01*
X114395238Y-68477380D01*
X114490476Y-68525000D01*
X114538095Y-68572619D01*
X114585714Y-68667857D01*
X114585714Y-68810714D01*
X114538095Y-68905952D01*
X114490476Y-68953571D01*
X114395238Y-69001190D01*
X114014285Y-69001190D01*
X115347619Y-68953571D02*
X115014285Y-68953571D01*
X115014285Y-69477380D02*
X115014285Y-68477380D01*
X115490476Y-68477380D01*
X113680952Y-70127380D02*
X113871428Y-70127380D01*
X113966666Y-70175000D01*
X114061904Y-70270238D01*
X114109523Y-70460714D01*
X114109523Y-70794047D01*
X114061904Y-70984523D01*
X113966666Y-71079761D01*
X113871428Y-71127380D01*
X113680952Y-71127380D01*
X113585714Y-71079761D01*
X113490476Y-70984523D01*
X113442857Y-70794047D01*
X113442857Y-70460714D01*
X113490476Y-70270238D01*
X113585714Y-70175000D01*
X113680952Y-70127380D01*
X114538095Y-71127380D02*
X114538095Y-70127380D01*
X115109523Y-71127380D01*
X115109523Y-70127380D01*
X100980952Y-69477380D02*
X100504761Y-69477380D01*
X100504761Y-68477380D01*
X101314285Y-69477380D02*
X101314285Y-68477380D01*
X101695238Y-68477380D01*
X101790476Y-68525000D01*
X101838095Y-68572619D01*
X101885714Y-68667857D01*
X101885714Y-68810714D01*
X101838095Y-68905952D01*
X101790476Y-68953571D01*
X101695238Y-69001190D01*
X101314285Y-69001190D01*
X102647619Y-68953571D02*
X102314285Y-68953571D01*
X102314285Y-69477380D02*
X102314285Y-68477380D01*
X102790476Y-68477380D01*
X100647619Y-70127380D02*
X100838095Y-70127380D01*
X100933333Y-70175000D01*
X101028571Y-70270238D01*
X101076190Y-70460714D01*
X101076190Y-70794047D01*
X101028571Y-70984523D01*
X100933333Y-71079761D01*
X100838095Y-71127380D01*
X100647619Y-71127380D01*
X100552380Y-71079761D01*
X100457142Y-70984523D01*
X100409523Y-70794047D01*
X100409523Y-70460714D01*
X100457142Y-70270238D01*
X100552380Y-70175000D01*
X100647619Y-70127380D01*
X101838095Y-70603571D02*
X101504761Y-70603571D01*
X101504761Y-71127380D02*
X101504761Y-70127380D01*
X101980952Y-70127380D01*
X102695238Y-70603571D02*
X102361904Y-70603571D01*
X102361904Y-71127380D02*
X102361904Y-70127380D01*
X102838095Y-70127380D01*
X106616666Y-73429761D02*
X106759523Y-73477380D01*
X106997619Y-73477380D01*
X107092857Y-73429761D01*
X107140476Y-73382142D01*
X107188095Y-73286904D01*
X107188095Y-73191666D01*
X107140476Y-73096428D01*
X107092857Y-73048809D01*
X106997619Y-73001190D01*
X106807142Y-72953571D01*
X106711904Y-72905952D01*
X106664285Y-72858333D01*
X106616666Y-72763095D01*
X106616666Y-72667857D01*
X106664285Y-72572619D01*
X106711904Y-72525000D01*
X106807142Y-72477380D01*
X107045238Y-72477380D01*
X107188095Y-72525000D01*
X107521428Y-72477380D02*
X107759523Y-73477380D01*
X107950000Y-72763095D01*
X108140476Y-73477380D01*
X108378571Y-72477380D01*
X109283333Y-73477380D02*
X108711904Y-73477380D01*
X108997619Y-73477380D02*
X108997619Y-72477380D01*
X108902380Y-72620238D01*
X108807142Y-72715476D01*
X108711904Y-72763095D01*
D12*
X110490000Y-113030000D02*
X111125000Y-113665000D01*
X110490000Y-111760000D02*
X110490000Y-113030000D01*
X119380000Y-113030000D02*
X118745000Y-113665000D01*
X119380000Y-111760000D02*
X119380000Y-113030000D01*
D13*
X76835000Y-66484500D02*
X81915000Y-66484500D01*
X76835000Y-124904500D02*
X81915000Y-124904500D01*
D14*
X80518000Y-73215500D02*
X70231000Y-73215500D01*
D13*
X69850000Y-72199500D02*
X77851000Y-72199500D01*
X77851000Y-62674500D02*
X77851000Y-72199500D01*
X77851000Y-62674500D02*
X80899000Y-62674500D01*
X80899000Y-72199500D02*
X80899000Y-62674500D01*
X77851000Y-72199500D02*
X80899000Y-72199500D01*
X80899000Y-75628500D02*
X80899000Y-72199500D01*
X80899000Y-75628500D02*
X84709000Y-75628500D01*
X87884000Y-76263500D02*
X87249000Y-75628500D01*
X87884000Y-77025500D02*
X87884000Y-76263500D01*
X87249000Y-77660500D02*
X87884000Y-77025500D01*
X80899000Y-77025500D02*
X80899000Y-75628500D01*
X83566000Y-77660500D02*
X84709000Y-77660500D01*
X83058000Y-78168500D02*
X83566000Y-77660500D01*
X82423000Y-78168500D02*
X83058000Y-78168500D01*
X82423000Y-78930500D02*
X82423000Y-78168500D01*
X83058000Y-78930500D02*
X82423000Y-78930500D01*
X83566000Y-79438500D02*
X83058000Y-78930500D01*
X84709000Y-79438500D02*
X83566000Y-79438500D01*
X87884000Y-80073500D02*
X87249000Y-79438500D01*
X87884000Y-80835500D02*
X87884000Y-80073500D01*
X87249000Y-81470500D02*
X87884000Y-80835500D01*
X83566000Y-81470500D02*
X84709000Y-81470500D01*
X83058000Y-81978500D02*
X83566000Y-81470500D01*
X82423000Y-81978500D02*
X83058000Y-81978500D01*
X82423000Y-82740500D02*
X82423000Y-81978500D01*
X83058000Y-82740500D02*
X82423000Y-82740500D01*
X83566000Y-83248500D02*
X83058000Y-82740500D01*
X84709000Y-83248500D02*
X83566000Y-83248500D01*
X87884000Y-83883500D02*
X87249000Y-83248500D01*
X80899000Y-80835500D02*
X80899000Y-80073500D01*
X80899000Y-84645500D02*
X80899000Y-83883500D01*
X87884000Y-84645500D02*
X87884000Y-83883500D01*
X87249000Y-85280500D02*
X87884000Y-84645500D01*
X80899000Y-88455500D02*
X80899000Y-87693500D01*
X83566000Y-85280500D02*
X84709000Y-85280500D01*
X83058000Y-85788500D02*
X83566000Y-85280500D01*
X82423000Y-85788500D02*
X83058000Y-85788500D01*
X82423000Y-86550500D02*
X82423000Y-85788500D01*
X83058000Y-86550500D02*
X82423000Y-86550500D01*
X83566000Y-87058500D02*
X83058000Y-86550500D01*
X84709000Y-87058500D02*
X83566000Y-87058500D01*
X87884000Y-87693500D02*
X87249000Y-87058500D01*
X87884000Y-88455500D02*
X87884000Y-87693500D01*
X87249000Y-89090500D02*
X87884000Y-88455500D01*
X83566000Y-89090500D02*
X84709000Y-89090500D01*
X83058000Y-89598500D02*
X83566000Y-89090500D01*
X82423000Y-89598500D02*
X83058000Y-89598500D01*
X82423000Y-90360500D02*
X82423000Y-89598500D01*
X83058000Y-90360500D02*
X82423000Y-90360500D01*
X83566000Y-90868500D02*
X83058000Y-90360500D01*
X84709000Y-90868500D02*
X83566000Y-90868500D01*
X80899000Y-92265500D02*
X80899000Y-91503500D01*
X87884000Y-91503500D02*
X87249000Y-90868500D01*
X87884000Y-92265500D02*
X87884000Y-91503500D01*
X87249000Y-92900500D02*
X87884000Y-92265500D01*
X83566000Y-92900500D02*
X84709000Y-92900500D01*
X83058000Y-93408500D02*
X83566000Y-92900500D01*
X82423000Y-93408500D02*
X83058000Y-93408500D01*
X82423000Y-94170500D02*
X82423000Y-93408500D01*
X83058000Y-94170500D02*
X82423000Y-94170500D01*
X83566000Y-94678500D02*
X83058000Y-94170500D01*
X84709000Y-94678500D02*
X83566000Y-94678500D01*
X87884000Y-95313500D02*
X87249000Y-94678500D01*
X87884000Y-96075500D02*
X87884000Y-95313500D01*
X87249000Y-96710500D02*
X87884000Y-96075500D01*
X80899000Y-96075500D02*
X80899000Y-95313500D01*
X80899000Y-99885500D02*
X80899000Y-99123500D01*
X80899000Y-103695500D02*
X80899000Y-102933500D01*
X83566000Y-96710500D02*
X84709000Y-96710500D01*
X83058000Y-97218500D02*
X83566000Y-96710500D01*
X82423000Y-97218500D02*
X83058000Y-97218500D01*
X82423000Y-97980500D02*
X82423000Y-97218500D01*
X83058000Y-97980500D02*
X82423000Y-97980500D01*
X83566000Y-98488500D02*
X83058000Y-97980500D01*
X84709000Y-98488500D02*
X83566000Y-98488500D01*
X87884000Y-99123500D02*
X87249000Y-98488500D01*
X87884000Y-99885500D02*
X87884000Y-99123500D01*
X87249000Y-100520500D02*
X87884000Y-99885500D01*
X83566000Y-100520500D02*
X84709000Y-100520500D01*
X83058000Y-101028500D02*
X83566000Y-100520500D01*
X82423000Y-101028500D02*
X83058000Y-101028500D01*
X82423000Y-101790500D02*
X82423000Y-101028500D01*
X83058000Y-101790500D02*
X82423000Y-101790500D01*
X83566000Y-102298500D02*
X83058000Y-101790500D01*
X84709000Y-102298500D02*
X83566000Y-102298500D01*
X87884000Y-102933500D02*
X87249000Y-102298500D01*
X87884000Y-103695500D02*
X87884000Y-102933500D01*
X87249000Y-104330500D02*
X87884000Y-103695500D01*
X83566000Y-104330500D02*
X84709000Y-104330500D01*
X83058000Y-104838500D02*
X83566000Y-104330500D01*
X82423000Y-104838500D02*
X83058000Y-104838500D01*
X82423000Y-105600500D02*
X82423000Y-104838500D01*
X83058000Y-105600500D02*
X82423000Y-105600500D01*
X83566000Y-106108500D02*
X83058000Y-105600500D01*
X84709000Y-106108500D02*
X83566000Y-106108500D01*
X87884000Y-106743500D02*
X87249000Y-106108500D01*
X87884000Y-107505500D02*
X87884000Y-106743500D01*
X87249000Y-108140500D02*
X87884000Y-107505500D01*
X80899000Y-107505500D02*
X80899000Y-106743500D01*
X80899000Y-111315500D02*
X80899000Y-110553500D01*
X82423000Y-109410500D02*
X82423000Y-108648500D01*
X82423000Y-113220500D02*
X82423000Y-112458500D01*
X82423000Y-108648500D02*
X83058000Y-108648500D01*
X83058000Y-109410500D02*
X82423000Y-109410500D01*
X83566000Y-108140500D02*
X84709000Y-108140500D01*
X83058000Y-108648500D02*
X83566000Y-108140500D01*
X83566000Y-109918500D02*
X83058000Y-109410500D01*
X87884000Y-114363500D02*
X87884000Y-115125500D01*
X84709000Y-109918500D02*
X83566000Y-109918500D01*
X87884000Y-110553500D02*
X87249000Y-109918500D01*
X87884000Y-111315500D02*
X87884000Y-110553500D01*
X87249000Y-111950500D02*
X87884000Y-111315500D01*
X83566000Y-111950500D02*
X84709000Y-111950500D01*
X83058000Y-112458500D02*
X83566000Y-111950500D01*
X82423000Y-112458500D02*
X83058000Y-112458500D01*
X83058000Y-113220500D02*
X82423000Y-113220500D01*
X83566000Y-113728500D02*
X83058000Y-113220500D01*
X84709000Y-113728500D02*
X83566000Y-113728500D01*
X87249000Y-115760500D02*
X87884000Y-115125500D01*
X87884000Y-114363500D02*
X87249000Y-113728500D01*
X80899000Y-115760500D02*
X84709000Y-115760500D01*
D14*
X80518000Y-118173500D02*
X70231000Y-118173500D01*
D13*
X77851000Y-119189500D02*
X80899000Y-119189500D01*
X80899000Y-115760500D02*
X80899000Y-114363500D01*
X80899000Y-119189500D02*
X80899000Y-115760500D01*
X80899000Y-128714500D02*
X80899000Y-119189500D01*
X77851000Y-128714500D02*
X80899000Y-128714500D01*
X77851000Y-119189500D02*
X77851000Y-128714500D01*
X69850000Y-119189500D02*
X77851000Y-119189500D01*
X69850000Y-72199500D02*
X69850000Y-119189500D01*
D15*
G36*
X114439878Y-85187776D02*
G01*
X114545612Y-85188355D01*
X114622132Y-85189922D01*
X114674372Y-85192972D01*
X114707263Y-85197996D01*
X114725737Y-85205489D01*
X114734727Y-85215944D01*
X114739163Y-85229853D01*
X114739594Y-85231654D01*
X114746333Y-85264145D01*
X114758808Y-85328252D01*
X114775719Y-85417151D01*
X114795771Y-85524019D01*
X114817664Y-85642033D01*
X114818429Y-85646178D01*
X114840359Y-85761831D01*
X114860877Y-85864014D01*
X114878659Y-85946598D01*
X114892381Y-86003456D01*
X114900718Y-86028458D01*
X114901116Y-86028901D01*
X114925677Y-86041110D01*
X114976315Y-86061456D01*
X115042095Y-86085545D01*
X115042461Y-86085674D01*
X115125317Y-86116818D01*
X115223000Y-86156491D01*
X115315077Y-86196381D01*
X115319434Y-86198353D01*
X115469407Y-86266420D01*
X115801498Y-86039639D01*
X115903374Y-85970504D01*
X115995657Y-85908697D01*
X116073003Y-85857733D01*
X116130064Y-85821127D01*
X116161495Y-85802394D01*
X116164479Y-85801004D01*
X116187321Y-85807190D01*
X116229982Y-85837035D01*
X116294128Y-85891947D01*
X116381421Y-85973334D01*
X116470535Y-86059922D01*
X116556441Y-86145247D01*
X116633327Y-86223108D01*
X116696564Y-86288697D01*
X116741523Y-86337205D01*
X116763576Y-86363825D01*
X116764396Y-86365195D01*
X116766834Y-86383463D01*
X116757650Y-86413295D01*
X116734574Y-86458721D01*
X116695337Y-86523770D01*
X116637670Y-86612470D01*
X116560795Y-86726657D01*
X116492570Y-86827162D01*
X116431582Y-86917303D01*
X116381356Y-86991849D01*
X116345416Y-87045565D01*
X116327287Y-87073218D01*
X116326146Y-87075095D01*
X116328359Y-87101590D01*
X116345138Y-87153086D01*
X116373142Y-87219851D01*
X116383122Y-87241172D01*
X116426672Y-87336159D01*
X116473134Y-87443937D01*
X116510877Y-87537192D01*
X116538073Y-87606406D01*
X116559675Y-87659006D01*
X116572158Y-87686497D01*
X116573709Y-87688616D01*
X116596668Y-87692124D01*
X116650786Y-87701738D01*
X116728868Y-87716089D01*
X116823719Y-87733807D01*
X116928143Y-87753525D01*
X117034944Y-87773874D01*
X117136926Y-87793486D01*
X117226894Y-87810991D01*
X117297653Y-87825022D01*
X117342006Y-87834209D01*
X117352885Y-87836807D01*
X117364122Y-87843218D01*
X117372605Y-87857697D01*
X117378714Y-87885133D01*
X117382832Y-87930411D01*
X117385341Y-87998420D01*
X117386621Y-88094047D01*
X117387054Y-88222180D01*
X117387077Y-88274701D01*
X117387077Y-88701845D01*
X117284500Y-88722091D01*
X117227431Y-88733070D01*
X117142269Y-88749095D01*
X117039372Y-88768233D01*
X116929096Y-88788551D01*
X116898615Y-88794132D01*
X116796855Y-88813917D01*
X116708205Y-88833373D01*
X116640108Y-88850697D01*
X116600004Y-88864088D01*
X116593323Y-88868079D01*
X116576919Y-88896342D01*
X116553399Y-88951109D01*
X116527316Y-89021588D01*
X116522142Y-89036769D01*
X116487956Y-89130896D01*
X116445523Y-89237101D01*
X116403997Y-89332473D01*
X116403792Y-89332916D01*
X116334640Y-89482525D01*
X116789512Y-90151617D01*
X116497500Y-90444116D01*
X116409180Y-90531170D01*
X116328625Y-90607909D01*
X116260360Y-90670237D01*
X116208908Y-90714056D01*
X116178794Y-90735270D01*
X116174474Y-90736616D01*
X116149111Y-90726016D01*
X116097358Y-90696547D01*
X116024868Y-90651705D01*
X115937294Y-90594984D01*
X115842612Y-90531462D01*
X115746516Y-90466668D01*
X115660837Y-90410287D01*
X115591016Y-90365788D01*
X115542494Y-90336639D01*
X115520782Y-90326308D01*
X115494293Y-90335050D01*
X115444062Y-90358087D01*
X115380451Y-90390631D01*
X115373708Y-90394249D01*
X115288046Y-90437210D01*
X115229306Y-90458279D01*
X115192772Y-90458503D01*
X115173731Y-90438928D01*
X115173620Y-90438654D01*
X115164102Y-90415472D01*
X115141403Y-90360441D01*
X115107282Y-90277822D01*
X115063500Y-90171872D01*
X115011816Y-90046852D01*
X114953992Y-89907020D01*
X114897991Y-89771637D01*
X114836447Y-89622234D01*
X114779939Y-89483832D01*
X114730161Y-89360673D01*
X114688806Y-89257002D01*
X114657568Y-89177059D01*
X114638141Y-89125088D01*
X114632154Y-89105692D01*
X114647168Y-89083443D01*
X114686439Y-89047982D01*
X114738807Y-89008887D01*
X114887941Y-88885245D01*
X115004511Y-88743522D01*
X115087118Y-88586704D01*
X115134366Y-88417775D01*
X115144857Y-88239722D01*
X115137231Y-88157539D01*
X115095682Y-87987031D01*
X115024123Y-87836459D01*
X114926995Y-87707309D01*
X114808734Y-87601064D01*
X114673780Y-87519210D01*
X114526571Y-87463232D01*
X114371544Y-87434615D01*
X114213139Y-87434844D01*
X114055794Y-87465405D01*
X113903946Y-87527782D01*
X113762035Y-87623460D01*
X113702803Y-87677572D01*
X113589203Y-87816520D01*
X113510106Y-87968361D01*
X113464986Y-88128667D01*
X113453316Y-88293012D01*
X113474569Y-88456971D01*
X113528220Y-88616118D01*
X113613740Y-88766025D01*
X113730605Y-88902267D01*
X113861193Y-89008887D01*
X113915588Y-89049642D01*
X113954014Y-89084718D01*
X113967846Y-89105726D01*
X113960603Y-89128635D01*
X113940005Y-89183365D01*
X113907746Y-89265672D01*
X113865521Y-89371315D01*
X113815023Y-89496050D01*
X113757948Y-89635636D01*
X113701854Y-89771670D01*
X113639967Y-89921201D01*
X113582644Y-90059767D01*
X113531644Y-90183107D01*
X113488727Y-90286964D01*
X113455653Y-90367080D01*
X113434181Y-90419195D01*
X113426225Y-90438654D01*
X113407429Y-90458423D01*
X113371074Y-90458365D01*
X113312479Y-90437441D01*
X113226968Y-90394613D01*
X113226292Y-90394249D01*
X113161907Y-90361012D01*
X113109861Y-90336802D01*
X113080512Y-90326404D01*
X113079217Y-90326308D01*
X113057124Y-90336855D01*
X113008348Y-90366184D01*
X112938331Y-90410827D01*
X112852514Y-90467314D01*
X112757388Y-90531462D01*
X112660540Y-90596411D01*
X112573253Y-90652896D01*
X112501181Y-90697421D01*
X112449977Y-90726490D01*
X112425526Y-90736616D01*
X112403010Y-90723307D01*
X112357742Y-90686112D01*
X112294244Y-90629128D01*
X112217039Y-90556449D01*
X112130651Y-90472171D01*
X112102399Y-90444016D01*
X111810287Y-90151416D01*
X112032631Y-89825104D01*
X112100202Y-89724897D01*
X112159507Y-89634963D01*
X112207217Y-89560510D01*
X112240007Y-89506751D01*
X112254548Y-89478894D01*
X112254974Y-89476912D01*
X112247308Y-89450655D01*
X112226689Y-89397837D01*
X112196685Y-89327310D01*
X112175625Y-89280093D01*
X112136248Y-89189694D01*
X112099165Y-89098366D01*
X112070415Y-89021200D01*
X112062605Y-88997692D01*
X112040417Y-88934916D01*
X112018727Y-88886411D01*
X112006813Y-88868079D01*
X111980523Y-88856859D01*
X111923142Y-88840954D01*
X111842118Y-88822167D01*
X111744895Y-88802299D01*
X111701385Y-88794132D01*
X111590896Y-88773829D01*
X111484916Y-88754170D01*
X111393801Y-88737088D01*
X111327908Y-88724518D01*
X111315500Y-88722091D01*
X111212923Y-88701845D01*
X111212923Y-88274701D01*
X111213153Y-88134246D01*
X111214099Y-88027979D01*
X111216141Y-87951013D01*
X111219662Y-87898460D01*
X111225043Y-87865433D01*
X111232666Y-87847045D01*
X111242912Y-87838408D01*
X111247115Y-87836807D01*
X111272470Y-87831127D01*
X111328484Y-87819795D01*
X111407964Y-87804179D01*
X111503712Y-87785647D01*
X111608533Y-87765569D01*
X111715232Y-87745312D01*
X111816613Y-87726246D01*
X111905479Y-87709739D01*
X111974637Y-87697159D01*
X112016889Y-87689875D01*
X112026290Y-87688616D01*
X112034807Y-87671763D01*
X112053660Y-87626870D01*
X112079324Y-87562430D01*
X112089123Y-87537192D01*
X112128648Y-87439686D01*
X112175192Y-87331959D01*
X112216877Y-87241172D01*
X112247550Y-87171753D01*
X112267956Y-87114710D01*
X112274768Y-87079777D01*
X112273682Y-87075095D01*
X112259285Y-87052991D01*
X112226412Y-87003831D01*
X112178590Y-86932848D01*
X112119348Y-86845278D01*
X112052215Y-86746357D01*
X112038941Y-86726830D01*
X111961046Y-86611140D01*
X111903787Y-86523044D01*
X111864881Y-86458486D01*
X111842044Y-86413411D01*
X111832994Y-86383763D01*
X111835448Y-86365485D01*
X111835511Y-86365369D01*
X111854827Y-86341361D01*
X111897551Y-86294947D01*
X111959051Y-86230937D01*
X112034698Y-86154145D01*
X112119861Y-86069382D01*
X112129465Y-86059922D01*
X112236790Y-85955989D01*
X112319615Y-85879675D01*
X112379605Y-85829571D01*
X112418423Y-85804270D01*
X112435520Y-85801004D01*
X112460473Y-85815250D01*
X112512255Y-85848156D01*
X112585520Y-85896208D01*
X112674920Y-85955890D01*
X112775111Y-86023688D01*
X112798501Y-86039639D01*
X113130593Y-86266420D01*
X113280565Y-86198353D01*
X113371770Y-86158685D01*
X113469669Y-86118791D01*
X113553831Y-86086983D01*
X113557538Y-86085674D01*
X113623369Y-86061576D01*
X113674116Y-86041200D01*
X113698842Y-86028936D01*
X113698884Y-86028901D01*
X113706729Y-86006734D01*
X113720066Y-85952217D01*
X113737570Y-85871480D01*
X113757917Y-85770650D01*
X113779782Y-85655856D01*
X113781571Y-85646178D01*
X113803504Y-85527904D01*
X113823640Y-85420542D01*
X113840680Y-85330917D01*
X113853328Y-85265851D01*
X113860284Y-85232168D01*
X113860406Y-85231654D01*
X113864639Y-85217325D01*
X113872871Y-85206507D01*
X113890033Y-85198706D01*
X113921058Y-85193429D01*
X113970878Y-85190182D01*
X114044424Y-85188472D01*
X114146629Y-85187807D01*
X114282425Y-85187693D01*
X114300000Y-85187692D01*
X114439878Y-85187776D01*
X114439878Y-85187776D01*
G37*
X114439878Y-85187776D02*
X114545612Y-85188355D01*
X114622132Y-85189922D01*
X114674372Y-85192972D01*
X114707263Y-85197996D01*
X114725737Y-85205489D01*
X114734727Y-85215944D01*
X114739163Y-85229853D01*
X114739594Y-85231654D01*
X114746333Y-85264145D01*
X114758808Y-85328252D01*
X114775719Y-85417151D01*
X114795771Y-85524019D01*
X114817664Y-85642033D01*
X114818429Y-85646178D01*
X114840359Y-85761831D01*
X114860877Y-85864014D01*
X114878659Y-85946598D01*
X114892381Y-86003456D01*
X114900718Y-86028458D01*
X114901116Y-86028901D01*
X114925677Y-86041110D01*
X114976315Y-86061456D01*
X115042095Y-86085545D01*
X115042461Y-86085674D01*
X115125317Y-86116818D01*
X115223000Y-86156491D01*
X115315077Y-86196381D01*
X115319434Y-86198353D01*
X115469407Y-86266420D01*
X115801498Y-86039639D01*
X115903374Y-85970504D01*
X115995657Y-85908697D01*
X116073003Y-85857733D01*
X116130064Y-85821127D01*
X116161495Y-85802394D01*
X116164479Y-85801004D01*
X116187321Y-85807190D01*
X116229982Y-85837035D01*
X116294128Y-85891947D01*
X116381421Y-85973334D01*
X116470535Y-86059922D01*
X116556441Y-86145247D01*
X116633327Y-86223108D01*
X116696564Y-86288697D01*
X116741523Y-86337205D01*
X116763576Y-86363825D01*
X116764396Y-86365195D01*
X116766834Y-86383463D01*
X116757650Y-86413295D01*
X116734574Y-86458721D01*
X116695337Y-86523770D01*
X116637670Y-86612470D01*
X116560795Y-86726657D01*
X116492570Y-86827162D01*
X116431582Y-86917303D01*
X116381356Y-86991849D01*
X116345416Y-87045565D01*
X116327287Y-87073218D01*
X116326146Y-87075095D01*
X116328359Y-87101590D01*
X116345138Y-87153086D01*
X116373142Y-87219851D01*
X116383122Y-87241172D01*
X116426672Y-87336159D01*
X116473134Y-87443937D01*
X116510877Y-87537192D01*
X116538073Y-87606406D01*
X116559675Y-87659006D01*
X116572158Y-87686497D01*
X116573709Y-87688616D01*
X116596668Y-87692124D01*
X116650786Y-87701738D01*
X116728868Y-87716089D01*
X116823719Y-87733807D01*
X116928143Y-87753525D01*
X117034944Y-87773874D01*
X117136926Y-87793486D01*
X117226894Y-87810991D01*
X117297653Y-87825022D01*
X117342006Y-87834209D01*
X117352885Y-87836807D01*
X117364122Y-87843218D01*
X117372605Y-87857697D01*
X117378714Y-87885133D01*
X117382832Y-87930411D01*
X117385341Y-87998420D01*
X117386621Y-88094047D01*
X117387054Y-88222180D01*
X117387077Y-88274701D01*
X117387077Y-88701845D01*
X117284500Y-88722091D01*
X117227431Y-88733070D01*
X117142269Y-88749095D01*
X117039372Y-88768233D01*
X116929096Y-88788551D01*
X116898615Y-88794132D01*
X116796855Y-88813917D01*
X116708205Y-88833373D01*
X116640108Y-88850697D01*
X116600004Y-88864088D01*
X116593323Y-88868079D01*
X116576919Y-88896342D01*
X116553399Y-88951109D01*
X116527316Y-89021588D01*
X116522142Y-89036769D01*
X116487956Y-89130896D01*
X116445523Y-89237101D01*
X116403997Y-89332473D01*
X116403792Y-89332916D01*
X116334640Y-89482525D01*
X116789512Y-90151617D01*
X116497500Y-90444116D01*
X116409180Y-90531170D01*
X116328625Y-90607909D01*
X116260360Y-90670237D01*
X116208908Y-90714056D01*
X116178794Y-90735270D01*
X116174474Y-90736616D01*
X116149111Y-90726016D01*
X116097358Y-90696547D01*
X116024868Y-90651705D01*
X115937294Y-90594984D01*
X115842612Y-90531462D01*
X115746516Y-90466668D01*
X115660837Y-90410287D01*
X115591016Y-90365788D01*
X115542494Y-90336639D01*
X115520782Y-90326308D01*
X115494293Y-90335050D01*
X115444062Y-90358087D01*
X115380451Y-90390631D01*
X115373708Y-90394249D01*
X115288046Y-90437210D01*
X115229306Y-90458279D01*
X115192772Y-90458503D01*
X115173731Y-90438928D01*
X115173620Y-90438654D01*
X115164102Y-90415472D01*
X115141403Y-90360441D01*
X115107282Y-90277822D01*
X115063500Y-90171872D01*
X115011816Y-90046852D01*
X114953992Y-89907020D01*
X114897991Y-89771637D01*
X114836447Y-89622234D01*
X114779939Y-89483832D01*
X114730161Y-89360673D01*
X114688806Y-89257002D01*
X114657568Y-89177059D01*
X114638141Y-89125088D01*
X114632154Y-89105692D01*
X114647168Y-89083443D01*
X114686439Y-89047982D01*
X114738807Y-89008887D01*
X114887941Y-88885245D01*
X115004511Y-88743522D01*
X115087118Y-88586704D01*
X115134366Y-88417775D01*
X115144857Y-88239722D01*
X115137231Y-88157539D01*
X115095682Y-87987031D01*
X115024123Y-87836459D01*
X114926995Y-87707309D01*
X114808734Y-87601064D01*
X114673780Y-87519210D01*
X114526571Y-87463232D01*
X114371544Y-87434615D01*
X114213139Y-87434844D01*
X114055794Y-87465405D01*
X113903946Y-87527782D01*
X113762035Y-87623460D01*
X113702803Y-87677572D01*
X113589203Y-87816520D01*
X113510106Y-87968361D01*
X113464986Y-88128667D01*
X113453316Y-88293012D01*
X113474569Y-88456971D01*
X113528220Y-88616118D01*
X113613740Y-88766025D01*
X113730605Y-88902267D01*
X113861193Y-89008887D01*
X113915588Y-89049642D01*
X113954014Y-89084718D01*
X113967846Y-89105726D01*
X113960603Y-89128635D01*
X113940005Y-89183365D01*
X113907746Y-89265672D01*
X113865521Y-89371315D01*
X113815023Y-89496050D01*
X113757948Y-89635636D01*
X113701854Y-89771670D01*
X113639967Y-89921201D01*
X113582644Y-90059767D01*
X113531644Y-90183107D01*
X113488727Y-90286964D01*
X113455653Y-90367080D01*
X113434181Y-90419195D01*
X113426225Y-90438654D01*
X113407429Y-90458423D01*
X113371074Y-90458365D01*
X113312479Y-90437441D01*
X113226968Y-90394613D01*
X113226292Y-90394249D01*
X113161907Y-90361012D01*
X113109861Y-90336802D01*
X113080512Y-90326404D01*
X113079217Y-90326308D01*
X113057124Y-90336855D01*
X113008348Y-90366184D01*
X112938331Y-90410827D01*
X112852514Y-90467314D01*
X112757388Y-90531462D01*
X112660540Y-90596411D01*
X112573253Y-90652896D01*
X112501181Y-90697421D01*
X112449977Y-90726490D01*
X112425526Y-90736616D01*
X112403010Y-90723307D01*
X112357742Y-90686112D01*
X112294244Y-90629128D01*
X112217039Y-90556449D01*
X112130651Y-90472171D01*
X112102399Y-90444016D01*
X111810287Y-90151416D01*
X112032631Y-89825104D01*
X112100202Y-89724897D01*
X112159507Y-89634963D01*
X112207217Y-89560510D01*
X112240007Y-89506751D01*
X112254548Y-89478894D01*
X112254974Y-89476912D01*
X112247308Y-89450655D01*
X112226689Y-89397837D01*
X112196685Y-89327310D01*
X112175625Y-89280093D01*
X112136248Y-89189694D01*
X112099165Y-89098366D01*
X112070415Y-89021200D01*
X112062605Y-88997692D01*
X112040417Y-88934916D01*
X112018727Y-88886411D01*
X112006813Y-88868079D01*
X111980523Y-88856859D01*
X111923142Y-88840954D01*
X111842118Y-88822167D01*
X111744895Y-88802299D01*
X111701385Y-88794132D01*
X111590896Y-88773829D01*
X111484916Y-88754170D01*
X111393801Y-88737088D01*
X111327908Y-88724518D01*
X111315500Y-88722091D01*
X111212923Y-88701845D01*
X111212923Y-88274701D01*
X111213153Y-88134246D01*
X111214099Y-88027979D01*
X111216141Y-87951013D01*
X111219662Y-87898460D01*
X111225043Y-87865433D01*
X111232666Y-87847045D01*
X111242912Y-87838408D01*
X111247115Y-87836807D01*
X111272470Y-87831127D01*
X111328484Y-87819795D01*
X111407964Y-87804179D01*
X111503712Y-87785647D01*
X111608533Y-87765569D01*
X111715232Y-87745312D01*
X111816613Y-87726246D01*
X111905479Y-87709739D01*
X111974637Y-87697159D01*
X112016889Y-87689875D01*
X112026290Y-87688616D01*
X112034807Y-87671763D01*
X112053660Y-87626870D01*
X112079324Y-87562430D01*
X112089123Y-87537192D01*
X112128648Y-87439686D01*
X112175192Y-87331959D01*
X112216877Y-87241172D01*
X112247550Y-87171753D01*
X112267956Y-87114710D01*
X112274768Y-87079777D01*
X112273682Y-87075095D01*
X112259285Y-87052991D01*
X112226412Y-87003831D01*
X112178590Y-86932848D01*
X112119348Y-86845278D01*
X112052215Y-86746357D01*
X112038941Y-86726830D01*
X111961046Y-86611140D01*
X111903787Y-86523044D01*
X111864881Y-86458486D01*
X111842044Y-86413411D01*
X111832994Y-86383763D01*
X111835448Y-86365485D01*
X111835511Y-86365369D01*
X111854827Y-86341361D01*
X111897551Y-86294947D01*
X111959051Y-86230937D01*
X112034698Y-86154145D01*
X112119861Y-86069382D01*
X112129465Y-86059922D01*
X112236790Y-85955989D01*
X112319615Y-85879675D01*
X112379605Y-85829571D01*
X112418423Y-85804270D01*
X112435520Y-85801004D01*
X112460473Y-85815250D01*
X112512255Y-85848156D01*
X112585520Y-85896208D01*
X112674920Y-85955890D01*
X112775111Y-86023688D01*
X112798501Y-86039639D01*
X113130593Y-86266420D01*
X113280565Y-86198353D01*
X113371770Y-86158685D01*
X113469669Y-86118791D01*
X113553831Y-86086983D01*
X113557538Y-86085674D01*
X113623369Y-86061576D01*
X113674116Y-86041200D01*
X113698842Y-86028936D01*
X113698884Y-86028901D01*
X113706729Y-86006734D01*
X113720066Y-85952217D01*
X113737570Y-85871480D01*
X113757917Y-85770650D01*
X113779782Y-85655856D01*
X113781571Y-85646178D01*
X113803504Y-85527904D01*
X113823640Y-85420542D01*
X113840680Y-85330917D01*
X113853328Y-85265851D01*
X113860284Y-85232168D01*
X113860406Y-85231654D01*
X113864639Y-85217325D01*
X113872871Y-85206507D01*
X113890033Y-85198706D01*
X113921058Y-85193429D01*
X113970878Y-85190182D01*
X114044424Y-85188472D01*
X114146629Y-85187807D01*
X114282425Y-85187693D01*
X114300000Y-85187692D01*
X114439878Y-85187776D01*
G36*
X118545224Y-91547838D02*
G01*
X118622528Y-91598361D01*
X118659814Y-91643590D01*
X118689353Y-91725663D01*
X118691699Y-91790607D01*
X118686385Y-91877445D01*
X118486115Y-91965103D01*
X118388739Y-92009887D01*
X118325113Y-92045913D01*
X118292029Y-92077117D01*
X118286280Y-92107436D01*
X118304658Y-92140805D01*
X118324923Y-92162923D01*
X118383889Y-92198393D01*
X118448024Y-92200879D01*
X118506926Y-92173235D01*
X118550197Y-92118320D01*
X118557936Y-92098928D01*
X118595006Y-92038364D01*
X118637654Y-92012552D01*
X118696154Y-91990471D01*
X118696154Y-92074184D01*
X118690982Y-92131150D01*
X118670723Y-92179189D01*
X118628262Y-92234346D01*
X118621951Y-92241514D01*
X118574720Y-92290585D01*
X118534121Y-92316920D01*
X118483328Y-92329035D01*
X118441220Y-92333003D01*
X118365902Y-92333991D01*
X118312286Y-92321466D01*
X118278838Y-92302869D01*
X118226268Y-92261975D01*
X118189879Y-92217748D01*
X118166850Y-92162126D01*
X118154359Y-92087047D01*
X118149587Y-91984449D01*
X118149206Y-91932376D01*
X118150501Y-91869948D01*
X118268471Y-91869948D01*
X118269839Y-91903438D01*
X118273249Y-91908923D01*
X118295753Y-91901472D01*
X118344182Y-91881753D01*
X118408908Y-91853718D01*
X118422443Y-91847692D01*
X118504244Y-91806096D01*
X118549312Y-91769538D01*
X118559217Y-91735296D01*
X118535526Y-91700648D01*
X118515960Y-91685339D01*
X118445360Y-91654721D01*
X118379280Y-91659780D01*
X118323959Y-91697151D01*
X118285636Y-91763473D01*
X118273349Y-91816116D01*
X118268471Y-91869948D01*
X118150501Y-91869948D01*
X118151730Y-91810720D01*
X118161032Y-91720710D01*
X118179460Y-91655167D01*
X118209360Y-91606912D01*
X118253080Y-91568767D01*
X118272141Y-91556440D01*
X118358726Y-91524336D01*
X118453522Y-91522316D01*
X118545224Y-91547838D01*
X118545224Y-91547838D01*
G37*
X118545224Y-91547838D02*
X118622528Y-91598361D01*
X118659814Y-91643590D01*
X118689353Y-91725663D01*
X118691699Y-91790607D01*
X118686385Y-91877445D01*
X118486115Y-91965103D01*
X118388739Y-92009887D01*
X118325113Y-92045913D01*
X118292029Y-92077117D01*
X118286280Y-92107436D01*
X118304658Y-92140805D01*
X118324923Y-92162923D01*
X118383889Y-92198393D01*
X118448024Y-92200879D01*
X118506926Y-92173235D01*
X118550197Y-92118320D01*
X118557936Y-92098928D01*
X118595006Y-92038364D01*
X118637654Y-92012552D01*
X118696154Y-91990471D01*
X118696154Y-92074184D01*
X118690982Y-92131150D01*
X118670723Y-92179189D01*
X118628262Y-92234346D01*
X118621951Y-92241514D01*
X118574720Y-92290585D01*
X118534121Y-92316920D01*
X118483328Y-92329035D01*
X118441220Y-92333003D01*
X118365902Y-92333991D01*
X118312286Y-92321466D01*
X118278838Y-92302869D01*
X118226268Y-92261975D01*
X118189879Y-92217748D01*
X118166850Y-92162126D01*
X118154359Y-92087047D01*
X118149587Y-91984449D01*
X118149206Y-91932376D01*
X118150501Y-91869948D01*
X118268471Y-91869948D01*
X118269839Y-91903438D01*
X118273249Y-91908923D01*
X118295753Y-91901472D01*
X118344182Y-91881753D01*
X118408908Y-91853718D01*
X118422443Y-91847692D01*
X118504244Y-91806096D01*
X118549312Y-91769538D01*
X118559217Y-91735296D01*
X118535526Y-91700648D01*
X118515960Y-91685339D01*
X118445360Y-91654721D01*
X118379280Y-91659780D01*
X118323959Y-91697151D01*
X118285636Y-91763473D01*
X118273349Y-91816116D01*
X118268471Y-91869948D01*
X118150501Y-91869948D01*
X118151730Y-91810720D01*
X118161032Y-91720710D01*
X118179460Y-91655167D01*
X118209360Y-91606912D01*
X118253080Y-91568767D01*
X118272141Y-91556440D01*
X118358726Y-91524336D01*
X118453522Y-91522316D01*
X118545224Y-91547838D01*
G36*
X117870807Y-91536782D02*
G01*
X117894161Y-91546988D01*
X117949902Y-91591134D01*
X117997569Y-91654967D01*
X118027048Y-91723087D01*
X118031846Y-91756670D01*
X118015760Y-91803556D01*
X117980475Y-91828365D01*
X117942644Y-91843387D01*
X117925321Y-91846155D01*
X117916886Y-91826066D01*
X117900230Y-91782351D01*
X117892923Y-91762598D01*
X117851948Y-91694271D01*
X117792622Y-91660191D01*
X117716552Y-91661239D01*
X117710918Y-91662581D01*
X117670305Y-91681836D01*
X117640448Y-91719375D01*
X117620055Y-91779809D01*
X117607836Y-91867751D01*
X117602500Y-91987813D01*
X117602000Y-92051698D01*
X117601752Y-92152403D01*
X117600126Y-92221054D01*
X117595801Y-92264673D01*
X117587454Y-92290282D01*
X117573765Y-92304903D01*
X117553411Y-92315558D01*
X117552234Y-92316095D01*
X117513038Y-92332667D01*
X117493619Y-92338769D01*
X117490635Y-92320319D01*
X117488081Y-92269323D01*
X117486140Y-92192308D01*
X117484997Y-92095805D01*
X117484769Y-92025184D01*
X117485932Y-91888525D01*
X117490479Y-91784851D01*
X117499999Y-91708108D01*
X117516081Y-91652246D01*
X117540313Y-91611212D01*
X117574286Y-91578954D01*
X117607833Y-91556440D01*
X117688499Y-91526476D01*
X117782381Y-91519718D01*
X117870807Y-91536782D01*
X117870807Y-91536782D01*
G37*
X117870807Y-91536782D02*
X117894161Y-91546988D01*
X117949902Y-91591134D01*
X117997569Y-91654967D01*
X118027048Y-91723087D01*
X118031846Y-91756670D01*
X118015760Y-91803556D01*
X117980475Y-91828365D01*
X117942644Y-91843387D01*
X117925321Y-91846155D01*
X117916886Y-91826066D01*
X117900230Y-91782351D01*
X117892923Y-91762598D01*
X117851948Y-91694271D01*
X117792622Y-91660191D01*
X117716552Y-91661239D01*
X117710918Y-91662581D01*
X117670305Y-91681836D01*
X117640448Y-91719375D01*
X117620055Y-91779809D01*
X117607836Y-91867751D01*
X117602500Y-91987813D01*
X117602000Y-92051698D01*
X117601752Y-92152403D01*
X117600126Y-92221054D01*
X117595801Y-92264673D01*
X117587454Y-92290282D01*
X117573765Y-92304903D01*
X117553411Y-92315558D01*
X117552234Y-92316095D01*
X117513038Y-92332667D01*
X117493619Y-92338769D01*
X117490635Y-92320319D01*
X117488081Y-92269323D01*
X117486140Y-92192308D01*
X117484997Y-92095805D01*
X117484769Y-92025184D01*
X117485932Y-91888525D01*
X117490479Y-91784851D01*
X117499999Y-91708108D01*
X117516081Y-91652246D01*
X117540313Y-91611212D01*
X117574286Y-91578954D01*
X117607833Y-91556440D01*
X117688499Y-91526476D01*
X117782381Y-91519718D01*
X117870807Y-91536782D01*
G36*
X117187333Y-91533528D02*
G01*
X117243590Y-91559117D01*
X117287747Y-91590124D01*
X117320101Y-91624795D01*
X117342438Y-91669520D01*
X117356546Y-91730692D01*
X117364211Y-91814701D01*
X117367220Y-91927940D01*
X117367538Y-92002509D01*
X117367538Y-92293420D01*
X117317773Y-92316095D01*
X117278576Y-92332667D01*
X117259157Y-92338769D01*
X117255442Y-92320610D01*
X117252495Y-92271648D01*
X117250691Y-92200153D01*
X117250308Y-92143385D01*
X117248661Y-92061371D01*
X117244222Y-91996309D01*
X117237740Y-91956467D01*
X117232590Y-91948000D01*
X117197977Y-91956646D01*
X117143640Y-91978823D01*
X117080722Y-92008886D01*
X117020368Y-92041192D01*
X116973721Y-92070098D01*
X116951926Y-92089961D01*
X116951839Y-92090175D01*
X116953714Y-92126935D01*
X116970525Y-92162026D01*
X117000039Y-92190528D01*
X117043116Y-92200061D01*
X117079932Y-92198950D01*
X117132074Y-92198133D01*
X117159444Y-92210349D01*
X117175882Y-92242624D01*
X117177955Y-92248710D01*
X117185081Y-92294739D01*
X117166024Y-92322687D01*
X117116353Y-92336007D01*
X117062697Y-92338470D01*
X116966142Y-92320210D01*
X116916159Y-92294131D01*
X116854429Y-92232868D01*
X116821690Y-92157670D01*
X116818753Y-92078211D01*
X116846424Y-92004167D01*
X116888047Y-91957769D01*
X116929604Y-91931793D01*
X116994922Y-91898907D01*
X117071038Y-91865557D01*
X117083726Y-91860461D01*
X117167333Y-91823565D01*
X117215530Y-91791046D01*
X117231030Y-91758718D01*
X117216550Y-91722394D01*
X117191692Y-91694000D01*
X117132939Y-91659039D01*
X117068293Y-91656417D01*
X117009008Y-91683358D01*
X116966339Y-91737088D01*
X116960739Y-91750950D01*
X116928133Y-91801936D01*
X116880530Y-91839787D01*
X116820461Y-91870850D01*
X116820461Y-91782768D01*
X116823997Y-91728951D01*
X116839156Y-91686534D01*
X116872768Y-91641279D01*
X116905035Y-91606420D01*
X116955209Y-91557062D01*
X116994193Y-91530547D01*
X117036064Y-91519911D01*
X117083460Y-91518154D01*
X117187333Y-91533528D01*
X117187333Y-91533528D01*
G37*
X117187333Y-91533528D02*
X117243590Y-91559117D01*
X117287747Y-91590124D01*
X117320101Y-91624795D01*
X117342438Y-91669520D01*
X117356546Y-91730692D01*
X117364211Y-91814701D01*
X117367220Y-91927940D01*
X117367538Y-92002509D01*
X117367538Y-92293420D01*
X117317773Y-92316095D01*
X117278576Y-92332667D01*
X117259157Y-92338769D01*
X117255442Y-92320610D01*
X117252495Y-92271648D01*
X117250691Y-92200153D01*
X117250308Y-92143385D01*
X117248661Y-92061371D01*
X117244222Y-91996309D01*
X117237740Y-91956467D01*
X117232590Y-91948000D01*
X117197977Y-91956646D01*
X117143640Y-91978823D01*
X117080722Y-92008886D01*
X117020368Y-92041192D01*
X116973721Y-92070098D01*
X116951926Y-92089961D01*
X116951839Y-92090175D01*
X116953714Y-92126935D01*
X116970525Y-92162026D01*
X117000039Y-92190528D01*
X117043116Y-92200061D01*
X117079932Y-92198950D01*
X117132074Y-92198133D01*
X117159444Y-92210349D01*
X117175882Y-92242624D01*
X117177955Y-92248710D01*
X117185081Y-92294739D01*
X117166024Y-92322687D01*
X117116353Y-92336007D01*
X117062697Y-92338470D01*
X116966142Y-92320210D01*
X116916159Y-92294131D01*
X116854429Y-92232868D01*
X116821690Y-92157670D01*
X116818753Y-92078211D01*
X116846424Y-92004167D01*
X116888047Y-91957769D01*
X116929604Y-91931793D01*
X116994922Y-91898907D01*
X117071038Y-91865557D01*
X117083726Y-91860461D01*
X117167333Y-91823565D01*
X117215530Y-91791046D01*
X117231030Y-91758718D01*
X117216550Y-91722394D01*
X117191692Y-91694000D01*
X117132939Y-91659039D01*
X117068293Y-91656417D01*
X117009008Y-91683358D01*
X116966339Y-91737088D01*
X116960739Y-91750950D01*
X116928133Y-91801936D01*
X116880530Y-91839787D01*
X116820461Y-91870850D01*
X116820461Y-91782768D01*
X116823997Y-91728951D01*
X116839156Y-91686534D01*
X116872768Y-91641279D01*
X116905035Y-91606420D01*
X116955209Y-91557062D01*
X116994193Y-91530547D01*
X117036064Y-91519911D01*
X117083460Y-91518154D01*
X117187333Y-91533528D01*
G36*
X116695929Y-91536662D02*
G01*
X116698911Y-91588068D01*
X116701247Y-91666192D01*
X116702749Y-91764857D01*
X116703231Y-91868343D01*
X116703231Y-92218533D01*
X116641401Y-92280363D01*
X116598793Y-92318462D01*
X116561390Y-92333895D01*
X116510270Y-92332918D01*
X116489978Y-92330433D01*
X116426554Y-92323200D01*
X116374095Y-92319055D01*
X116361308Y-92318672D01*
X116318199Y-92321176D01*
X116256544Y-92327462D01*
X116232638Y-92330433D01*
X116173922Y-92335028D01*
X116134464Y-92325046D01*
X116095338Y-92294228D01*
X116081215Y-92280363D01*
X116019385Y-92218533D01*
X116019385Y-91563503D01*
X116069150Y-91540829D01*
X116112002Y-91524034D01*
X116137073Y-91518154D01*
X116143501Y-91536736D01*
X116149509Y-91588655D01*
X116154697Y-91668172D01*
X116158664Y-91769546D01*
X116160577Y-91855192D01*
X116165923Y-92192231D01*
X116212560Y-92198825D01*
X116254976Y-92194214D01*
X116275760Y-92179287D01*
X116281570Y-92151377D01*
X116286530Y-92091925D01*
X116290246Y-92008466D01*
X116292324Y-91908532D01*
X116292624Y-91857104D01*
X116292923Y-91561054D01*
X116354454Y-91539604D01*
X116398004Y-91525020D01*
X116421694Y-91518219D01*
X116422377Y-91518154D01*
X116424754Y-91536642D01*
X116427366Y-91587906D01*
X116429995Y-91665649D01*
X116432421Y-91763574D01*
X116434115Y-91855192D01*
X116439461Y-92192231D01*
X116556692Y-92192231D01*
X116562072Y-91884746D01*
X116567451Y-91577261D01*
X116624601Y-91547707D01*
X116666797Y-91527413D01*
X116691770Y-91518204D01*
X116692491Y-91518154D01*
X116695929Y-91536662D01*
X116695929Y-91536662D01*
G37*
X116695929Y-91536662D02*
X116698911Y-91588068D01*
X116701247Y-91666192D01*
X116702749Y-91764857D01*
X116703231Y-91868343D01*
X116703231Y-92218533D01*
X116641401Y-92280363D01*
X116598793Y-92318462D01*
X116561390Y-92333895D01*
X116510270Y-92332918D01*
X116489978Y-92330433D01*
X116426554Y-92323200D01*
X116374095Y-92319055D01*
X116361308Y-92318672D01*
X116318199Y-92321176D01*
X116256544Y-92327462D01*
X116232638Y-92330433D01*
X116173922Y-92335028D01*
X116134464Y-92325046D01*
X116095338Y-92294228D01*
X116081215Y-92280363D01*
X116019385Y-92218533D01*
X116019385Y-91563503D01*
X116069150Y-91540829D01*
X116112002Y-91524034D01*
X116137073Y-91518154D01*
X116143501Y-91536736D01*
X116149509Y-91588655D01*
X116154697Y-91668172D01*
X116158664Y-91769546D01*
X116160577Y-91855192D01*
X116165923Y-92192231D01*
X116212560Y-92198825D01*
X116254976Y-92194214D01*
X116275760Y-92179287D01*
X116281570Y-92151377D01*
X116286530Y-92091925D01*
X116290246Y-92008466D01*
X116292324Y-91908532D01*
X116292624Y-91857104D01*
X116292923Y-91561054D01*
X116354454Y-91539604D01*
X116398004Y-91525020D01*
X116421694Y-91518219D01*
X116422377Y-91518154D01*
X116424754Y-91536642D01*
X116427366Y-91587906D01*
X116429995Y-91665649D01*
X116432421Y-91763574D01*
X116434115Y-91855192D01*
X116439461Y-92192231D01*
X116556692Y-92192231D01*
X116562072Y-91884746D01*
X116567451Y-91577261D01*
X116624601Y-91547707D01*
X116666797Y-91527413D01*
X116691770Y-91518204D01*
X116692491Y-91518154D01*
X116695929Y-91536662D01*
G36*
X115902081Y-91680289D02*
G01*
X115901833Y-91826320D01*
X115900872Y-91938655D01*
X115898794Y-92022678D01*
X115895193Y-92083769D01*
X115889665Y-92127309D01*
X115881804Y-92158679D01*
X115871207Y-92183262D01*
X115863182Y-92197294D01*
X115796728Y-92273388D01*
X115712470Y-92321084D01*
X115619249Y-92338199D01*
X115525900Y-92322546D01*
X115470312Y-92294418D01*
X115411957Y-92245760D01*
X115372186Y-92186333D01*
X115348190Y-92108507D01*
X115337161Y-92004652D01*
X115335599Y-91928462D01*
X115335809Y-91922986D01*
X115472308Y-91922986D01*
X115473141Y-92010355D01*
X115476961Y-92068192D01*
X115485746Y-92106029D01*
X115501474Y-92133398D01*
X115520266Y-92154042D01*
X115583375Y-92193890D01*
X115651137Y-92197295D01*
X115715179Y-92164025D01*
X115720164Y-92159517D01*
X115741439Y-92136067D01*
X115754779Y-92108166D01*
X115762001Y-92066641D01*
X115764923Y-92002316D01*
X115765385Y-91931200D01*
X115764383Y-91841858D01*
X115760238Y-91782258D01*
X115751236Y-91743089D01*
X115735667Y-91715040D01*
X115722902Y-91700144D01*
X115663600Y-91662575D01*
X115595301Y-91658057D01*
X115530110Y-91686753D01*
X115517528Y-91697406D01*
X115496111Y-91721063D01*
X115482744Y-91749251D01*
X115475566Y-91791245D01*
X115472719Y-91856319D01*
X115472308Y-91922986D01*
X115335809Y-91922986D01*
X115340322Y-91805765D01*
X115356362Y-91713577D01*
X115386528Y-91644269D01*
X115433629Y-91590211D01*
X115470312Y-91562505D01*
X115536990Y-91532572D01*
X115614272Y-91518678D01*
X115686110Y-91522397D01*
X115726308Y-91537400D01*
X115742082Y-91541670D01*
X115752550Y-91525750D01*
X115759856Y-91483089D01*
X115765385Y-91418106D01*
X115771437Y-91345732D01*
X115779844Y-91302187D01*
X115795141Y-91277287D01*
X115821864Y-91260845D01*
X115838654Y-91253564D01*
X115902154Y-91226963D01*
X115902081Y-91680289D01*
X115902081Y-91680289D01*
G37*
X115902081Y-91680289D02*
X115901833Y-91826320D01*
X115900872Y-91938655D01*
X115898794Y-92022678D01*
X115895193Y-92083769D01*
X115889665Y-92127309D01*
X115881804Y-92158679D01*
X115871207Y-92183262D01*
X115863182Y-92197294D01*
X115796728Y-92273388D01*
X115712470Y-92321084D01*
X115619249Y-92338199D01*
X115525900Y-92322546D01*
X115470312Y-92294418D01*
X115411957Y-92245760D01*
X115372186Y-92186333D01*
X115348190Y-92108507D01*
X115337161Y-92004652D01*
X115335599Y-91928462D01*
X115335809Y-91922986D01*
X115472308Y-91922986D01*
X115473141Y-92010355D01*
X115476961Y-92068192D01*
X115485746Y-92106029D01*
X115501474Y-92133398D01*
X115520266Y-92154042D01*
X115583375Y-92193890D01*
X115651137Y-92197295D01*
X115715179Y-92164025D01*
X115720164Y-92159517D01*
X115741439Y-92136067D01*
X115754779Y-92108166D01*
X115762001Y-92066641D01*
X115764923Y-92002316D01*
X115765385Y-91931200D01*
X115764383Y-91841858D01*
X115760238Y-91782258D01*
X115751236Y-91743089D01*
X115735667Y-91715040D01*
X115722902Y-91700144D01*
X115663600Y-91662575D01*
X115595301Y-91658057D01*
X115530110Y-91686753D01*
X115517528Y-91697406D01*
X115496111Y-91721063D01*
X115482744Y-91749251D01*
X115475566Y-91791245D01*
X115472719Y-91856319D01*
X115472308Y-91922986D01*
X115335809Y-91922986D01*
X115340322Y-91805765D01*
X115356362Y-91713577D01*
X115386528Y-91644269D01*
X115433629Y-91590211D01*
X115470312Y-91562505D01*
X115536990Y-91532572D01*
X115614272Y-91518678D01*
X115686110Y-91522397D01*
X115726308Y-91537400D01*
X115742082Y-91541670D01*
X115752550Y-91525750D01*
X115759856Y-91483089D01*
X115765385Y-91418106D01*
X115771437Y-91345732D01*
X115779844Y-91302187D01*
X115795141Y-91277287D01*
X115821864Y-91260845D01*
X115838654Y-91253564D01*
X115902154Y-91226963D01*
X115902081Y-91680289D01*
G36*
X115013362Y-91524670D02*
G01*
X115102117Y-91557421D01*
X115174022Y-91615350D01*
X115202144Y-91656128D01*
X115232802Y-91730954D01*
X115232165Y-91785058D01*
X115199987Y-91821446D01*
X115188081Y-91827633D01*
X115136675Y-91846925D01*
X115110422Y-91841982D01*
X115101530Y-91809587D01*
X115101077Y-91791692D01*
X115084797Y-91725859D01*
X115042365Y-91679807D01*
X114983388Y-91657564D01*
X114917475Y-91663161D01*
X114863895Y-91692229D01*
X114845798Y-91708810D01*
X114832971Y-91728925D01*
X114824306Y-91759332D01*
X114818696Y-91806788D01*
X114815035Y-91878050D01*
X114812215Y-91979875D01*
X114811484Y-92012115D01*
X114808820Y-92122410D01*
X114805792Y-92200036D01*
X114801250Y-92251396D01*
X114794046Y-92282890D01*
X114783033Y-92300920D01*
X114767060Y-92311888D01*
X114756834Y-92316733D01*
X114713406Y-92333301D01*
X114687842Y-92338769D01*
X114679395Y-92320507D01*
X114674239Y-92265296D01*
X114672346Y-92172499D01*
X114673689Y-92041478D01*
X114674107Y-92021269D01*
X114677058Y-91901733D01*
X114680548Y-91814449D01*
X114685514Y-91752591D01*
X114692893Y-91709336D01*
X114703624Y-91677860D01*
X114718645Y-91651339D01*
X114726502Y-91639975D01*
X114771553Y-91589692D01*
X114821940Y-91550581D01*
X114828108Y-91547167D01*
X114918458Y-91520212D01*
X115013362Y-91524670D01*
X115013362Y-91524670D01*
G37*
X115013362Y-91524670D02*
X115102117Y-91557421D01*
X115174022Y-91615350D01*
X115202144Y-91656128D01*
X115232802Y-91730954D01*
X115232165Y-91785058D01*
X115199987Y-91821446D01*
X115188081Y-91827633D01*
X115136675Y-91846925D01*
X115110422Y-91841982D01*
X115101530Y-91809587D01*
X115101077Y-91791692D01*
X115084797Y-91725859D01*
X115042365Y-91679807D01*
X114983388Y-91657564D01*
X114917475Y-91663161D01*
X114863895Y-91692229D01*
X114845798Y-91708810D01*
X114832971Y-91728925D01*
X114824306Y-91759332D01*
X114818696Y-91806788D01*
X114815035Y-91878050D01*
X114812215Y-91979875D01*
X114811484Y-92012115D01*
X114808820Y-92122410D01*
X114805792Y-92200036D01*
X114801250Y-92251396D01*
X114794046Y-92282890D01*
X114783033Y-92300920D01*
X114767060Y-92311888D01*
X114756834Y-92316733D01*
X114713406Y-92333301D01*
X114687842Y-92338769D01*
X114679395Y-92320507D01*
X114674239Y-92265296D01*
X114672346Y-92172499D01*
X114673689Y-92041478D01*
X114674107Y-92021269D01*
X114677058Y-91901733D01*
X114680548Y-91814449D01*
X114685514Y-91752591D01*
X114692893Y-91709336D01*
X114703624Y-91677860D01*
X114718645Y-91651339D01*
X114726502Y-91639975D01*
X114771553Y-91589692D01*
X114821940Y-91550581D01*
X114828108Y-91547167D01*
X114918458Y-91520212D01*
X115013362Y-91524670D01*
G36*
X114353501Y-91526303D02*
G01*
X114430060Y-91554733D01*
X114430936Y-91555279D01*
X114478285Y-91590127D01*
X114513241Y-91630852D01*
X114537825Y-91683925D01*
X114554062Y-91755814D01*
X114563975Y-91852992D01*
X114569586Y-91981928D01*
X114570077Y-92000298D01*
X114577141Y-92277287D01*
X114517695Y-92308028D01*
X114474681Y-92328802D01*
X114448710Y-92338646D01*
X114447509Y-92338769D01*
X114443014Y-92320606D01*
X114439444Y-92271612D01*
X114437248Y-92200031D01*
X114436769Y-92142068D01*
X114436758Y-92048170D01*
X114432466Y-91989203D01*
X114417503Y-91961079D01*
X114385482Y-91959706D01*
X114330014Y-91980998D01*
X114246269Y-92020136D01*
X114184689Y-92052643D01*
X114153017Y-92080845D01*
X114143706Y-92111582D01*
X114143692Y-92113104D01*
X114159057Y-92166054D01*
X114204547Y-92194660D01*
X114274166Y-92198803D01*
X114324313Y-92198084D01*
X114350754Y-92212527D01*
X114367243Y-92247218D01*
X114376733Y-92291416D01*
X114363057Y-92316493D01*
X114357907Y-92320082D01*
X114309425Y-92334496D01*
X114241531Y-92336537D01*
X114171612Y-92326983D01*
X114122068Y-92309522D01*
X114053570Y-92251364D01*
X114014634Y-92170408D01*
X114006923Y-92107160D01*
X114012807Y-92050111D01*
X114034101Y-92003542D01*
X114076265Y-91962181D01*
X114144759Y-91920755D01*
X114245044Y-91873993D01*
X114251154Y-91871350D01*
X114341490Y-91829617D01*
X114397235Y-91795391D01*
X114421129Y-91764635D01*
X114415913Y-91733311D01*
X114384328Y-91697383D01*
X114374883Y-91689116D01*
X114311617Y-91657058D01*
X114246064Y-91658407D01*
X114188972Y-91689838D01*
X114151093Y-91748024D01*
X114147574Y-91759446D01*
X114113300Y-91814837D01*
X114069809Y-91841518D01*
X114006923Y-91867960D01*
X114006923Y-91799548D01*
X114026052Y-91700110D01*
X114082831Y-91608902D01*
X114112378Y-91578389D01*
X114179542Y-91539228D01*
X114264956Y-91521500D01*
X114353501Y-91526303D01*
X114353501Y-91526303D01*
G37*
X114353501Y-91526303D02*
X114430060Y-91554733D01*
X114430936Y-91555279D01*
X114478285Y-91590127D01*
X114513241Y-91630852D01*
X114537825Y-91683925D01*
X114554062Y-91755814D01*
X114563975Y-91852992D01*
X114569586Y-91981928D01*
X114570077Y-92000298D01*
X114577141Y-92277287D01*
X114517695Y-92308028D01*
X114474681Y-92328802D01*
X114448710Y-92338646D01*
X114447509Y-92338769D01*
X114443014Y-92320606D01*
X114439444Y-92271612D01*
X114437248Y-92200031D01*
X114436769Y-92142068D01*
X114436758Y-92048170D01*
X114432466Y-91989203D01*
X114417503Y-91961079D01*
X114385482Y-91959706D01*
X114330014Y-91980998D01*
X114246269Y-92020136D01*
X114184689Y-92052643D01*
X114153017Y-92080845D01*
X114143706Y-92111582D01*
X114143692Y-92113104D01*
X114159057Y-92166054D01*
X114204547Y-92194660D01*
X114274166Y-92198803D01*
X114324313Y-92198084D01*
X114350754Y-92212527D01*
X114367243Y-92247218D01*
X114376733Y-92291416D01*
X114363057Y-92316493D01*
X114357907Y-92320082D01*
X114309425Y-92334496D01*
X114241531Y-92336537D01*
X114171612Y-92326983D01*
X114122068Y-92309522D01*
X114053570Y-92251364D01*
X114014634Y-92170408D01*
X114006923Y-92107160D01*
X114012807Y-92050111D01*
X114034101Y-92003542D01*
X114076265Y-91962181D01*
X114144759Y-91920755D01*
X114245044Y-91873993D01*
X114251154Y-91871350D01*
X114341490Y-91829617D01*
X114397235Y-91795391D01*
X114421129Y-91764635D01*
X114415913Y-91733311D01*
X114384328Y-91697383D01*
X114374883Y-91689116D01*
X114311617Y-91657058D01*
X114246064Y-91658407D01*
X114188972Y-91689838D01*
X114151093Y-91748024D01*
X114147574Y-91759446D01*
X114113300Y-91814837D01*
X114069809Y-91841518D01*
X114006923Y-91867960D01*
X114006923Y-91799548D01*
X114026052Y-91700110D01*
X114082831Y-91608902D01*
X114112378Y-91578389D01*
X114179542Y-91539228D01*
X114264956Y-91521500D01*
X114353501Y-91526303D01*
G36*
X113459846Y-91392120D02*
G01*
X113465572Y-91471980D01*
X113472149Y-91519039D01*
X113481262Y-91539566D01*
X113494598Y-91539829D01*
X113498923Y-91537378D01*
X113556444Y-91519636D01*
X113631268Y-91520672D01*
X113707339Y-91538910D01*
X113754918Y-91562505D01*
X113803702Y-91600198D01*
X113839364Y-91642855D01*
X113863845Y-91697057D01*
X113879087Y-91769384D01*
X113887030Y-91866419D01*
X113889616Y-91994742D01*
X113889662Y-92019358D01*
X113889692Y-92295870D01*
X113828161Y-92317320D01*
X113784459Y-92331912D01*
X113760482Y-92338706D01*
X113759777Y-92338769D01*
X113757415Y-92320345D01*
X113755406Y-92269526D01*
X113753901Y-92192993D01*
X113753053Y-92097430D01*
X113752923Y-92039329D01*
X113752651Y-91924771D01*
X113751252Y-91842667D01*
X113747849Y-91786393D01*
X113741567Y-91749326D01*
X113731529Y-91724844D01*
X113716861Y-91706325D01*
X113707702Y-91697406D01*
X113644789Y-91661466D01*
X113576136Y-91658775D01*
X113513848Y-91689170D01*
X113502329Y-91700144D01*
X113485433Y-91720779D01*
X113473714Y-91745256D01*
X113466233Y-91780647D01*
X113462054Y-91834026D01*
X113460237Y-91912466D01*
X113459846Y-92020617D01*
X113459846Y-92295870D01*
X113398315Y-92317320D01*
X113354613Y-92331912D01*
X113330636Y-92338706D01*
X113329930Y-92338769D01*
X113328126Y-92320069D01*
X113326500Y-92267322D01*
X113325117Y-92185557D01*
X113324042Y-92079805D01*
X113323340Y-91955094D01*
X113323077Y-91816455D01*
X113323077Y-91281806D01*
X113450077Y-91228236D01*
X113459846Y-91392120D01*
X113459846Y-91392120D01*
G37*
X113459846Y-91392120D02*
X113465572Y-91471980D01*
X113472149Y-91519039D01*
X113481262Y-91539566D01*
X113494598Y-91539829D01*
X113498923Y-91537378D01*
X113556444Y-91519636D01*
X113631268Y-91520672D01*
X113707339Y-91538910D01*
X113754918Y-91562505D01*
X113803702Y-91600198D01*
X113839364Y-91642855D01*
X113863845Y-91697057D01*
X113879087Y-91769384D01*
X113887030Y-91866419D01*
X113889616Y-91994742D01*
X113889662Y-92019358D01*
X113889692Y-92295870D01*
X113828161Y-92317320D01*
X113784459Y-92331912D01*
X113760482Y-92338706D01*
X113759777Y-92338769D01*
X113757415Y-92320345D01*
X113755406Y-92269526D01*
X113753901Y-92192993D01*
X113753053Y-92097430D01*
X113752923Y-92039329D01*
X113752651Y-91924771D01*
X113751252Y-91842667D01*
X113747849Y-91786393D01*
X113741567Y-91749326D01*
X113731529Y-91724844D01*
X113716861Y-91706325D01*
X113707702Y-91697406D01*
X113644789Y-91661466D01*
X113576136Y-91658775D01*
X113513848Y-91689170D01*
X113502329Y-91700144D01*
X113485433Y-91720779D01*
X113473714Y-91745256D01*
X113466233Y-91780647D01*
X113462054Y-91834026D01*
X113460237Y-91912466D01*
X113459846Y-92020617D01*
X113459846Y-92295870D01*
X113398315Y-92317320D01*
X113354613Y-92331912D01*
X113330636Y-92338706D01*
X113329930Y-92338769D01*
X113328126Y-92320069D01*
X113326500Y-92267322D01*
X113325117Y-92185557D01*
X113324042Y-92079805D01*
X113323340Y-91955094D01*
X113323077Y-91816455D01*
X113323077Y-91281806D01*
X113450077Y-91228236D01*
X113459846Y-91392120D01*
G36*
X111834254Y-91499745D02*
G01*
X111911286Y-91551567D01*
X111970816Y-91626412D01*
X112006378Y-91721654D01*
X112013571Y-91791756D01*
X112012754Y-91821009D01*
X112005914Y-91843407D01*
X111987112Y-91863474D01*
X111950408Y-91885733D01*
X111889862Y-91914709D01*
X111799534Y-91954927D01*
X111799077Y-91955129D01*
X111715933Y-91993210D01*
X111647753Y-92027025D01*
X111601505Y-92052933D01*
X111584158Y-92067295D01*
X111584154Y-92067411D01*
X111599443Y-92098685D01*
X111635196Y-92133157D01*
X111676242Y-92157990D01*
X111697037Y-92162923D01*
X111753770Y-92145862D01*
X111802627Y-92103133D01*
X111826465Y-92056155D01*
X111849397Y-92021522D01*
X111894318Y-91982081D01*
X111947123Y-91948009D01*
X111993710Y-91929480D01*
X112003452Y-91928462D01*
X112014418Y-91945215D01*
X112015079Y-91988039D01*
X112007020Y-92045781D01*
X111991827Y-92107289D01*
X111971086Y-92161409D01*
X111970038Y-92163510D01*
X111907621Y-92250660D01*
X111826726Y-92309939D01*
X111734856Y-92339034D01*
X111639513Y-92335634D01*
X111548198Y-92297428D01*
X111544138Y-92294741D01*
X111472306Y-92229642D01*
X111425073Y-92144705D01*
X111398934Y-92033021D01*
X111395426Y-92001643D01*
X111389213Y-91853536D01*
X111396661Y-91784468D01*
X111584154Y-91784468D01*
X111586590Y-91827552D01*
X111599914Y-91840126D01*
X111633132Y-91830719D01*
X111685494Y-91808483D01*
X111744024Y-91780610D01*
X111745479Y-91779872D01*
X111795089Y-91753777D01*
X111815000Y-91736363D01*
X111810090Y-91718107D01*
X111789416Y-91694120D01*
X111736819Y-91659406D01*
X111680177Y-91656856D01*
X111629369Y-91682119D01*
X111594276Y-91730847D01*
X111584154Y-91784468D01*
X111396661Y-91784468D01*
X111401992Y-91735036D01*
X111434778Y-91641055D01*
X111480421Y-91575215D01*
X111562802Y-91508681D01*
X111653546Y-91475676D01*
X111746185Y-91473573D01*
X111834254Y-91499745D01*
X111834254Y-91499745D01*
G37*
X111834254Y-91499745D02*
X111911286Y-91551567D01*
X111970816Y-91626412D01*
X112006378Y-91721654D01*
X112013571Y-91791756D01*
X112012754Y-91821009D01*
X112005914Y-91843407D01*
X111987112Y-91863474D01*
X111950408Y-91885733D01*
X111889862Y-91914709D01*
X111799534Y-91954927D01*
X111799077Y-91955129D01*
X111715933Y-91993210D01*
X111647753Y-92027025D01*
X111601505Y-92052933D01*
X111584158Y-92067295D01*
X111584154Y-92067411D01*
X111599443Y-92098685D01*
X111635196Y-92133157D01*
X111676242Y-92157990D01*
X111697037Y-92162923D01*
X111753770Y-92145862D01*
X111802627Y-92103133D01*
X111826465Y-92056155D01*
X111849397Y-92021522D01*
X111894318Y-91982081D01*
X111947123Y-91948009D01*
X111993710Y-91929480D01*
X112003452Y-91928462D01*
X112014418Y-91945215D01*
X112015079Y-91988039D01*
X112007020Y-92045781D01*
X111991827Y-92107289D01*
X111971086Y-92161409D01*
X111970038Y-92163510D01*
X111907621Y-92250660D01*
X111826726Y-92309939D01*
X111734856Y-92339034D01*
X111639513Y-92335634D01*
X111548198Y-92297428D01*
X111544138Y-92294741D01*
X111472306Y-92229642D01*
X111425073Y-92144705D01*
X111398934Y-92033021D01*
X111395426Y-92001643D01*
X111389213Y-91853536D01*
X111396661Y-91784468D01*
X111584154Y-91784468D01*
X111586590Y-91827552D01*
X111599914Y-91840126D01*
X111633132Y-91830719D01*
X111685494Y-91808483D01*
X111744024Y-91780610D01*
X111745479Y-91779872D01*
X111795089Y-91753777D01*
X111815000Y-91736363D01*
X111810090Y-91718107D01*
X111789416Y-91694120D01*
X111736819Y-91659406D01*
X111680177Y-91656856D01*
X111629369Y-91682119D01*
X111594276Y-91730847D01*
X111584154Y-91784468D01*
X111396661Y-91784468D01*
X111401992Y-91735036D01*
X111434778Y-91641055D01*
X111480421Y-91575215D01*
X111562802Y-91508681D01*
X111653546Y-91475676D01*
X111746185Y-91473573D01*
X111834254Y-91499745D01*
G36*
X110316886Y-91487256D02*
G01*
X110408464Y-91535409D01*
X110476049Y-91612905D01*
X110500057Y-91662727D01*
X110518738Y-91737533D01*
X110528301Y-91832052D01*
X110529208Y-91935210D01*
X110521921Y-92035935D01*
X110506903Y-92123153D01*
X110484615Y-92185791D01*
X110477765Y-92196579D01*
X110396632Y-92277105D01*
X110300266Y-92325336D01*
X110195701Y-92339450D01*
X110089968Y-92317629D01*
X110060543Y-92304547D01*
X110003241Y-92264231D01*
X109952950Y-92210775D01*
X109948197Y-92203995D01*
X109928878Y-92171321D01*
X109916108Y-92136394D01*
X109908564Y-92090414D01*
X109904924Y-92024584D01*
X109903865Y-91930105D01*
X109903846Y-91908923D01*
X109903894Y-91902182D01*
X110099231Y-91902182D01*
X110100368Y-91991349D01*
X110104841Y-92050520D01*
X110114246Y-92088741D01*
X110130176Y-92115053D01*
X110138308Y-92123846D01*
X110185058Y-92157261D01*
X110230447Y-92155737D01*
X110276340Y-92126752D01*
X110303712Y-92095809D01*
X110319923Y-92050643D01*
X110329026Y-91979420D01*
X110329651Y-91971114D01*
X110331204Y-91842037D01*
X110314965Y-91746172D01*
X110281152Y-91684107D01*
X110229984Y-91656432D01*
X110211720Y-91654923D01*
X110163760Y-91662513D01*
X110130953Y-91688808D01*
X110110895Y-91739095D01*
X110101178Y-91818664D01*
X110099231Y-91902182D01*
X109903894Y-91902182D01*
X109904574Y-91808249D01*
X109907629Y-91737906D01*
X109914322Y-91689163D01*
X109925960Y-91653288D01*
X109943853Y-91621548D01*
X109947808Y-91615648D01*
X110014267Y-91536104D01*
X110086685Y-91489929D01*
X110174849Y-91471599D01*
X110204787Y-91470703D01*
X110316886Y-91487256D01*
X110316886Y-91487256D01*
G37*
X110316886Y-91487256D02*
X110408464Y-91535409D01*
X110476049Y-91612905D01*
X110500057Y-91662727D01*
X110518738Y-91737533D01*
X110528301Y-91832052D01*
X110529208Y-91935210D01*
X110521921Y-92035935D01*
X110506903Y-92123153D01*
X110484615Y-92185791D01*
X110477765Y-92196579D01*
X110396632Y-92277105D01*
X110300266Y-92325336D01*
X110195701Y-92339450D01*
X110089968Y-92317629D01*
X110060543Y-92304547D01*
X110003241Y-92264231D01*
X109952950Y-92210775D01*
X109948197Y-92203995D01*
X109928878Y-92171321D01*
X109916108Y-92136394D01*
X109908564Y-92090414D01*
X109904924Y-92024584D01*
X109903865Y-91930105D01*
X109903846Y-91908923D01*
X109903894Y-91902182D01*
X110099231Y-91902182D01*
X110100368Y-91991349D01*
X110104841Y-92050520D01*
X110114246Y-92088741D01*
X110130176Y-92115053D01*
X110138308Y-92123846D01*
X110185058Y-92157261D01*
X110230447Y-92155737D01*
X110276340Y-92126752D01*
X110303712Y-92095809D01*
X110319923Y-92050643D01*
X110329026Y-91979420D01*
X110329651Y-91971114D01*
X110331204Y-91842037D01*
X110314965Y-91746172D01*
X110281152Y-91684107D01*
X110229984Y-91656432D01*
X110211720Y-91654923D01*
X110163760Y-91662513D01*
X110130953Y-91688808D01*
X110110895Y-91739095D01*
X110101178Y-91818664D01*
X110099231Y-91902182D01*
X109903894Y-91902182D01*
X109904574Y-91808249D01*
X109907629Y-91737906D01*
X109914322Y-91689163D01*
X109925960Y-91653288D01*
X109943853Y-91621548D01*
X109947808Y-91615648D01*
X110014267Y-91536104D01*
X110086685Y-91489929D01*
X110174849Y-91471599D01*
X110204787Y-91470703D01*
X110316886Y-91487256D01*
G36*
X112571664Y-91495089D02*
G01*
X112634367Y-91531358D01*
X112677961Y-91567358D01*
X112709845Y-91605075D01*
X112731810Y-91651199D01*
X112745649Y-91712421D01*
X112753153Y-91795431D01*
X112756117Y-91906919D01*
X112756461Y-91987062D01*
X112756461Y-92282065D01*
X112590385Y-92356515D01*
X112580615Y-92033402D01*
X112576579Y-91912729D01*
X112572344Y-91825141D01*
X112567097Y-91764650D01*
X112560025Y-91725268D01*
X112550311Y-91701007D01*
X112537144Y-91685880D01*
X112532919Y-91682606D01*
X112468909Y-91657034D01*
X112404208Y-91667153D01*
X112365692Y-91694000D01*
X112350025Y-91713024D01*
X112339180Y-91737988D01*
X112332288Y-91775834D01*
X112328479Y-91833502D01*
X112326883Y-91917935D01*
X112326615Y-92005928D01*
X112326563Y-92116323D01*
X112324672Y-92194463D01*
X112318345Y-92247165D01*
X112304983Y-92281242D01*
X112281985Y-92303511D01*
X112246754Y-92320787D01*
X112199697Y-92338738D01*
X112148303Y-92358278D01*
X112154421Y-92011485D01*
X112156884Y-91886468D01*
X112159767Y-91794082D01*
X112163898Y-91727881D01*
X112170107Y-91681420D01*
X112179226Y-91648256D01*
X112192083Y-91621944D01*
X112207584Y-91598729D01*
X112282371Y-91524569D01*
X112373628Y-91481684D01*
X112472883Y-91471412D01*
X112571664Y-91495089D01*
X112571664Y-91495089D01*
G37*
X112571664Y-91495089D02*
X112634367Y-91531358D01*
X112677961Y-91567358D01*
X112709845Y-91605075D01*
X112731810Y-91651199D01*
X112745649Y-91712421D01*
X112753153Y-91795431D01*
X112756117Y-91906919D01*
X112756461Y-91987062D01*
X112756461Y-92282065D01*
X112590385Y-92356515D01*
X112580615Y-92033402D01*
X112576579Y-91912729D01*
X112572344Y-91825141D01*
X112567097Y-91764650D01*
X112560025Y-91725268D01*
X112550311Y-91701007D01*
X112537144Y-91685880D01*
X112532919Y-91682606D01*
X112468909Y-91657034D01*
X112404208Y-91667153D01*
X112365692Y-91694000D01*
X112350025Y-91713024D01*
X112339180Y-91737988D01*
X112332288Y-91775834D01*
X112328479Y-91833502D01*
X112326883Y-91917935D01*
X112326615Y-92005928D01*
X112326563Y-92116323D01*
X112324672Y-92194463D01*
X112318345Y-92247165D01*
X112304983Y-92281242D01*
X112281985Y-92303511D01*
X112246754Y-92320787D01*
X112199697Y-92338738D01*
X112148303Y-92358278D01*
X112154421Y-92011485D01*
X112156884Y-91886468D01*
X112159767Y-91794082D01*
X112163898Y-91727881D01*
X112170107Y-91681420D01*
X112179226Y-91648256D01*
X112192083Y-91621944D01*
X112207584Y-91598729D01*
X112282371Y-91524569D01*
X112373628Y-91481684D01*
X112472883Y-91471412D01*
X112571664Y-91495089D01*
G36*
X111068886Y-91484505D02*
G01*
X111143539Y-91521727D01*
X111209431Y-91590261D01*
X111227577Y-91615648D01*
X111247345Y-91648866D01*
X111260172Y-91684945D01*
X111267510Y-91733098D01*
X111270813Y-91802536D01*
X111271538Y-91894206D01*
X111268263Y-92019830D01*
X111256877Y-92114154D01*
X111235041Y-92184523D01*
X111200419Y-92238286D01*
X111150670Y-92282788D01*
X111147014Y-92285423D01*
X111097985Y-92312377D01*
X111038945Y-92325712D01*
X110963859Y-92329000D01*
X110841795Y-92329000D01*
X110841744Y-92447497D01*
X110840608Y-92513492D01*
X110833686Y-92552202D01*
X110815598Y-92575419D01*
X110780962Y-92594933D01*
X110772645Y-92598920D01*
X110733720Y-92617603D01*
X110703583Y-92629403D01*
X110681174Y-92630422D01*
X110665433Y-92616761D01*
X110655302Y-92584522D01*
X110649723Y-92529804D01*
X110647635Y-92448711D01*
X110647981Y-92337344D01*
X110649700Y-92191802D01*
X110650237Y-92148269D01*
X110652172Y-91998205D01*
X110653904Y-91900042D01*
X110841692Y-91900042D01*
X110842748Y-91983364D01*
X110847438Y-92037880D01*
X110858051Y-92073837D01*
X110876872Y-92101482D01*
X110889650Y-92114965D01*
X110941890Y-92154417D01*
X110988142Y-92157628D01*
X111035867Y-92125049D01*
X111037077Y-92123846D01*
X111056494Y-92098668D01*
X111068307Y-92064447D01*
X111074265Y-92011748D01*
X111076120Y-91931131D01*
X111076154Y-91913271D01*
X111071670Y-91802175D01*
X111057074Y-91725161D01*
X111030650Y-91678147D01*
X110990683Y-91657050D01*
X110967584Y-91654923D01*
X110912762Y-91664900D01*
X110875158Y-91697752D01*
X110852523Y-91757857D01*
X110842606Y-91849598D01*
X110841692Y-91900042D01*
X110653904Y-91900042D01*
X110654222Y-91882060D01*
X110656873Y-91794679D01*
X110660606Y-91730905D01*
X110665907Y-91685582D01*
X110673258Y-91653555D01*
X110683143Y-91629668D01*
X110696046Y-91608764D01*
X110701579Y-91600898D01*
X110774969Y-91526595D01*
X110867760Y-91484467D01*
X110975096Y-91472722D01*
X111068886Y-91484505D01*
X111068886Y-91484505D01*
G37*
X111068886Y-91484505D02*
X111143539Y-91521727D01*
X111209431Y-91590261D01*
X111227577Y-91615648D01*
X111247345Y-91648866D01*
X111260172Y-91684945D01*
X111267510Y-91733098D01*
X111270813Y-91802536D01*
X111271538Y-91894206D01*
X111268263Y-92019830D01*
X111256877Y-92114154D01*
X111235041Y-92184523D01*
X111200419Y-92238286D01*
X111150670Y-92282788D01*
X111147014Y-92285423D01*
X111097985Y-92312377D01*
X111038945Y-92325712D01*
X110963859Y-92329000D01*
X110841795Y-92329000D01*
X110841744Y-92447497D01*
X110840608Y-92513492D01*
X110833686Y-92552202D01*
X110815598Y-92575419D01*
X110780962Y-92594933D01*
X110772645Y-92598920D01*
X110733720Y-92617603D01*
X110703583Y-92629403D01*
X110681174Y-92630422D01*
X110665433Y-92616761D01*
X110655302Y-92584522D01*
X110649723Y-92529804D01*
X110647635Y-92448711D01*
X110647981Y-92337344D01*
X110649700Y-92191802D01*
X110650237Y-92148269D01*
X110652172Y-91998205D01*
X110653904Y-91900042D01*
X110841692Y-91900042D01*
X110842748Y-91983364D01*
X110847438Y-92037880D01*
X110858051Y-92073837D01*
X110876872Y-92101482D01*
X110889650Y-92114965D01*
X110941890Y-92154417D01*
X110988142Y-92157628D01*
X111035867Y-92125049D01*
X111037077Y-92123846D01*
X111056494Y-92098668D01*
X111068307Y-92064447D01*
X111074265Y-92011748D01*
X111076120Y-91931131D01*
X111076154Y-91913271D01*
X111071670Y-91802175D01*
X111057074Y-91725161D01*
X111030650Y-91678147D01*
X110990683Y-91657050D01*
X110967584Y-91654923D01*
X110912762Y-91664900D01*
X110875158Y-91697752D01*
X110852523Y-91757857D01*
X110842606Y-91849598D01*
X110841692Y-91900042D01*
X110653904Y-91900042D01*
X110654222Y-91882060D01*
X110656873Y-91794679D01*
X110660606Y-91730905D01*
X110665907Y-91685582D01*
X110673258Y-91653555D01*
X110683143Y-91629668D01*
X110696046Y-91608764D01*
X110701579Y-91600898D01*
X110774969Y-91526595D01*
X110867760Y-91484467D01*
X110975096Y-91472722D01*
X111068886Y-91484505D01*
D11*
X108165000Y-104055000D02*
X108165000Y-104180000D01*
X112815000Y-104055000D02*
X112815000Y-104280000D01*
X112815000Y-109305000D02*
X112815000Y-109080000D01*
X108165000Y-109305000D02*
X108165000Y-109080000D01*
X108165000Y-104055000D02*
X112815000Y-104055000D01*
X108165000Y-109305000D02*
X112815000Y-109305000D01*
X108165000Y-104180000D02*
X106815000Y-104180000D01*
D12*
X118521267Y-72515000D02*
X118178733Y-72515000D01*
X118521267Y-73535000D02*
X118178733Y-73535000D01*
X110647267Y-103443500D02*
X110304733Y-103443500D01*
X110647267Y-102423500D02*
X110304733Y-102423500D01*
X136245000Y-77190000D02*
X136245000Y-75990000D01*
X136245000Y-72670000D02*
X136245000Y-73870000D01*
X132789437Y-72670000D02*
X136245000Y-72670000D01*
X132789437Y-77190000D02*
X136245000Y-77190000D01*
X131725000Y-76125563D02*
X131725000Y-75990000D01*
X131725000Y-73734437D02*
X131725000Y-73870000D01*
X131725000Y-73734437D02*
X132789437Y-72670000D01*
X131725000Y-76125563D02*
X132789437Y-77190000D01*
X130985000Y-73370000D02*
X131485000Y-73370000D01*
X131235000Y-73120000D02*
X131235000Y-73620000D01*
X108300733Y-115822000D02*
X108643267Y-115822000D01*
X108300733Y-116842000D02*
X108643267Y-116842000D01*
X112618733Y-116842000D02*
X112961267Y-116842000D01*
X112618733Y-115822000D02*
X112961267Y-115822000D01*
X116936733Y-115822000D02*
X117279267Y-115822000D01*
X116936733Y-116842000D02*
X117279267Y-116842000D01*
X121254733Y-116842000D02*
X121597267Y-116842000D01*
X121254733Y-115822000D02*
X121597267Y-115822000D01*
X100885000Y-86830000D02*
X100885000Y-85830000D01*
X101385000Y-86330000D02*
X100385000Y-86330000D01*
X100145000Y-80624437D02*
X99080563Y-79560000D01*
X100145000Y-87015563D02*
X99080563Y-88080000D01*
X100145000Y-87015563D02*
X100145000Y-85330000D01*
X100145000Y-80624437D02*
X100145000Y-82310000D01*
X99080563Y-79560000D02*
X91625000Y-79560000D01*
X99080563Y-88080000D02*
X91625000Y-88080000D01*
X91625000Y-88080000D02*
X91625000Y-85330000D01*
X91625000Y-79560000D02*
X91625000Y-82310000D01*
X91625000Y-89085000D02*
X91625000Y-91835000D01*
X91625000Y-97605000D02*
X91625000Y-94855000D01*
X99080563Y-97605000D02*
X91625000Y-97605000D01*
X99080563Y-89085000D02*
X91625000Y-89085000D01*
X100145000Y-90149437D02*
X100145000Y-91835000D01*
X100145000Y-96540563D02*
X100145000Y-94855000D01*
X100145000Y-96540563D02*
X99080563Y-97605000D01*
X100145000Y-90149437D02*
X99080563Y-89085000D01*
X101385000Y-95855000D02*
X100385000Y-95855000D01*
X100885000Y-96355000D02*
X100885000Y-95355000D01*
X100885000Y-105880000D02*
X100885000Y-104880000D01*
X101385000Y-105380000D02*
X100385000Y-105380000D01*
X100145000Y-99674437D02*
X99080563Y-98610000D01*
X100145000Y-106065563D02*
X99080563Y-107130000D01*
X100145000Y-106065563D02*
X100145000Y-104380000D01*
X100145000Y-99674437D02*
X100145000Y-101360000D01*
X99080563Y-98610000D02*
X91625000Y-98610000D01*
X99080563Y-107130000D02*
X91625000Y-107130000D01*
X91625000Y-107130000D02*
X91625000Y-104380000D01*
X91625000Y-98610000D02*
X91625000Y-101360000D01*
X91625000Y-108135000D02*
X91625000Y-110885000D01*
X91625000Y-116655000D02*
X91625000Y-113905000D01*
X99080563Y-116655000D02*
X91625000Y-116655000D01*
X99080563Y-108135000D02*
X91625000Y-108135000D01*
X100145000Y-109199437D02*
X100145000Y-110885000D01*
X100145000Y-115590563D02*
X100145000Y-113905000D01*
X100145000Y-115590563D02*
X99080563Y-116655000D01*
X100145000Y-109199437D02*
X99080563Y-108135000D01*
X101385000Y-114905000D02*
X100385000Y-114905000D01*
X100885000Y-115405000D02*
X100885000Y-114405000D01*
X128985000Y-109385000D02*
X128985000Y-110385000D01*
X128485000Y-109885000D02*
X129485000Y-109885000D01*
X129725000Y-115590563D02*
X130789437Y-116655000D01*
X129725000Y-109199437D02*
X130789437Y-108135000D01*
X129725000Y-109199437D02*
X129725000Y-110885000D01*
X129725000Y-115590563D02*
X129725000Y-113905000D01*
X130789437Y-116655000D02*
X138245000Y-116655000D01*
X130789437Y-108135000D02*
X138245000Y-108135000D01*
X138245000Y-108135000D02*
X138245000Y-110885000D01*
X138245000Y-116655000D02*
X138245000Y-113905000D01*
X138245000Y-107130000D02*
X138245000Y-104380000D01*
X138245000Y-98610000D02*
X138245000Y-101360000D01*
X130789437Y-98610000D02*
X138245000Y-98610000D01*
X130789437Y-107130000D02*
X138245000Y-107130000D01*
X129725000Y-106065563D02*
X129725000Y-104380000D01*
X129725000Y-99674437D02*
X129725000Y-101360000D01*
X129725000Y-99674437D02*
X130789437Y-98610000D01*
X129725000Y-106065563D02*
X130789437Y-107130000D01*
X128485000Y-100360000D02*
X129485000Y-100360000D01*
X128985000Y-99860000D02*
X128985000Y-100860000D01*
X128985000Y-90335000D02*
X128985000Y-91335000D01*
X128485000Y-90835000D02*
X129485000Y-90835000D01*
X129725000Y-96540563D02*
X130789437Y-97605000D01*
X129725000Y-90149437D02*
X130789437Y-89085000D01*
X129725000Y-90149437D02*
X129725000Y-91835000D01*
X129725000Y-96540563D02*
X129725000Y-94855000D01*
X130789437Y-97605000D02*
X138245000Y-97605000D01*
X130789437Y-89085000D02*
X138245000Y-89085000D01*
X138245000Y-89085000D02*
X138245000Y-91835000D01*
X138245000Y-97605000D02*
X138245000Y-94855000D01*
X138245000Y-88080000D02*
X138245000Y-85330000D01*
X138245000Y-79560000D02*
X138245000Y-82310000D01*
X130789437Y-79560000D02*
X138245000Y-79560000D01*
X130789437Y-88080000D02*
X138245000Y-88080000D01*
X129725000Y-87015563D02*
X129725000Y-85330000D01*
X129725000Y-80624437D02*
X129725000Y-82310000D01*
X129725000Y-80624437D02*
X130789437Y-79560000D01*
X129725000Y-87015563D02*
X130789437Y-88080000D01*
X128485000Y-81310000D02*
X129485000Y-81310000D01*
X128985000Y-80810000D02*
X128985000Y-81810000D01*
X122143733Y-72515000D02*
X122486267Y-72515000D01*
X122143733Y-73535000D02*
X122486267Y-73535000D01*
D13*
X91186000Y-136779000D02*
X138176000Y-136779000D01*
X138176000Y-136779000D02*
X138176000Y-128778000D01*
X138176000Y-128778000D02*
X147701000Y-128778000D01*
X147701000Y-128778000D02*
X147701000Y-125730000D01*
X147701000Y-125730000D02*
X138176000Y-125730000D01*
X138176000Y-125730000D02*
X134747000Y-125730000D01*
X134747000Y-125730000D02*
X133350000Y-125730000D01*
X138176000Y-128778000D02*
X138176000Y-125730000D01*
D14*
X137160000Y-126111000D02*
X137160000Y-136398000D01*
D13*
X134747000Y-125730000D02*
X134747000Y-121920000D01*
X133350000Y-118745000D02*
X132715000Y-119380000D01*
X134747000Y-119380000D02*
X134112000Y-118745000D01*
X132715000Y-121920000D02*
X132715000Y-123063000D01*
X132715000Y-123063000D02*
X132207000Y-123571000D01*
X132207000Y-123571000D02*
X132207000Y-124206000D01*
X131445000Y-124206000D02*
X131445000Y-123571000D01*
X131445000Y-123571000D02*
X130937000Y-123063000D01*
X130937000Y-123063000D02*
X130937000Y-121920000D01*
X130937000Y-119380000D02*
X130302000Y-118745000D01*
X130302000Y-118745000D02*
X129540000Y-118745000D01*
X129540000Y-118745000D02*
X128905000Y-119380000D01*
X128905000Y-121920000D02*
X128905000Y-123063000D01*
X133350000Y-118745000D02*
X134112000Y-118745000D01*
X128905000Y-123063000D02*
X128397000Y-123571000D01*
X127635000Y-123571000D02*
X127127000Y-123063000D01*
X127127000Y-123063000D02*
X127127000Y-121920000D01*
X128397000Y-123571000D02*
X128397000Y-124206000D01*
X127635000Y-124206000D02*
X127635000Y-123571000D01*
X132207000Y-124206000D02*
X131445000Y-124206000D01*
X128397000Y-124206000D02*
X127635000Y-124206000D01*
X130302000Y-125730000D02*
X129540000Y-125730000D01*
X126492000Y-125730000D02*
X125730000Y-125730000D01*
X127127000Y-119380000D02*
X126492000Y-118745000D01*
X126492000Y-118745000D02*
X125730000Y-118745000D01*
X125730000Y-118745000D02*
X125095000Y-119380000D01*
X125095000Y-121920000D02*
X125095000Y-123063000D01*
X125095000Y-123063000D02*
X124587000Y-123571000D01*
X124587000Y-123571000D02*
X124587000Y-124206000D01*
X124587000Y-124206000D02*
X123825000Y-124206000D01*
X123825000Y-124206000D02*
X123825000Y-123571000D01*
X123825000Y-123571000D02*
X123317000Y-123063000D01*
X123317000Y-123063000D02*
X123317000Y-121920000D01*
X123317000Y-119380000D02*
X122682000Y-118745000D01*
X122682000Y-118745000D02*
X121920000Y-118745000D01*
X121920000Y-118745000D02*
X121285000Y-119380000D01*
X121285000Y-121920000D02*
X121285000Y-123063000D01*
X121285000Y-123063000D02*
X120777000Y-123571000D01*
X120777000Y-123571000D02*
X120777000Y-124206000D01*
X120777000Y-124206000D02*
X120015000Y-124206000D01*
X120015000Y-124206000D02*
X120015000Y-123571000D01*
X120015000Y-123571000D02*
X119507000Y-123063000D01*
X119507000Y-123063000D02*
X119507000Y-121920000D01*
X119507000Y-119380000D02*
X118872000Y-118745000D01*
X118872000Y-118745000D02*
X118110000Y-118745000D01*
X118110000Y-118745000D02*
X117475000Y-119380000D01*
X117475000Y-121920000D02*
X117475000Y-123063000D01*
X117475000Y-123063000D02*
X116967000Y-123571000D01*
X116967000Y-123571000D02*
X116967000Y-124206000D01*
X116967000Y-124206000D02*
X116205000Y-124206000D01*
X116205000Y-124206000D02*
X116205000Y-123571000D01*
X116205000Y-123571000D02*
X115697000Y-123063000D01*
X115697000Y-123063000D02*
X115697000Y-121920000D01*
X122682000Y-125730000D02*
X121920000Y-125730000D01*
X118872000Y-125730000D02*
X118110000Y-125730000D01*
X115062000Y-125730000D02*
X114300000Y-125730000D01*
X115697000Y-119380000D02*
X115062000Y-118745000D01*
X115062000Y-118745000D02*
X114300000Y-118745000D01*
X114300000Y-118745000D02*
X113665000Y-119380000D01*
X113665000Y-121920000D02*
X113665000Y-123063000D01*
X113665000Y-123063000D02*
X113157000Y-123571000D01*
X113157000Y-123571000D02*
X113157000Y-124206000D01*
X113157000Y-124206000D02*
X112395000Y-124206000D01*
X112395000Y-124206000D02*
X112395000Y-123571000D01*
X112395000Y-123571000D02*
X111887000Y-123063000D01*
X111887000Y-123063000D02*
X111887000Y-121920000D01*
X111887000Y-119380000D02*
X111252000Y-118745000D01*
X111252000Y-118745000D02*
X110490000Y-118745000D01*
X110490000Y-118745000D02*
X109855000Y-119380000D01*
X111252000Y-125730000D02*
X110490000Y-125730000D01*
X109855000Y-121920000D02*
X109855000Y-123063000D01*
X109855000Y-123063000D02*
X109347000Y-123571000D01*
X109347000Y-123571000D02*
X109347000Y-124206000D01*
X109347000Y-124206000D02*
X108585000Y-124206000D01*
X108585000Y-124206000D02*
X108585000Y-123571000D01*
X108585000Y-123571000D02*
X108077000Y-123063000D01*
X108077000Y-123063000D02*
X108077000Y-121920000D01*
X108077000Y-119380000D02*
X107442000Y-118745000D01*
X107442000Y-118745000D02*
X106680000Y-118745000D01*
X106680000Y-118745000D02*
X106045000Y-119380000D01*
X106045000Y-121920000D02*
X106045000Y-123063000D01*
X106045000Y-123063000D02*
X105537000Y-123571000D01*
X105537000Y-123571000D02*
X105537000Y-124206000D01*
X105537000Y-124206000D02*
X104775000Y-124206000D01*
X104775000Y-124206000D02*
X104775000Y-123571000D01*
X104775000Y-123571000D02*
X104267000Y-123063000D01*
X104267000Y-123063000D02*
X104267000Y-121920000D01*
X107442000Y-125730000D02*
X106680000Y-125730000D01*
X104267000Y-119380000D02*
X103632000Y-118745000D01*
X103632000Y-118745000D02*
X102870000Y-118745000D01*
X103632000Y-125730000D02*
X102870000Y-125730000D01*
X99822000Y-125730000D02*
X99060000Y-125730000D01*
X102870000Y-118745000D02*
X102235000Y-119380000D01*
X102235000Y-121920000D02*
X102235000Y-123063000D01*
X102235000Y-123063000D02*
X101727000Y-123571000D01*
X101727000Y-123571000D02*
X101727000Y-124206000D01*
X101727000Y-124206000D02*
X100965000Y-124206000D01*
X100965000Y-124206000D02*
X100965000Y-123571000D01*
X100965000Y-123571000D02*
X100457000Y-123063000D01*
X100457000Y-123063000D02*
X100457000Y-121920000D01*
X100457000Y-119380000D02*
X99822000Y-118745000D01*
X99822000Y-118745000D02*
X99060000Y-118745000D01*
X99060000Y-118745000D02*
X98425000Y-119380000D01*
X98425000Y-121920000D02*
X98425000Y-123063000D01*
X98425000Y-123063000D02*
X97917000Y-123571000D01*
X97917000Y-123571000D02*
X97917000Y-124206000D01*
X97917000Y-124206000D02*
X97155000Y-124206000D01*
X97155000Y-124206000D02*
X97155000Y-123571000D01*
X97155000Y-123571000D02*
X96647000Y-123063000D01*
X96647000Y-123063000D02*
X96647000Y-121920000D01*
X96012000Y-125730000D02*
X94615000Y-125730000D01*
X96647000Y-119380000D02*
X96012000Y-118745000D01*
X96012000Y-118745000D02*
X95250000Y-118745000D01*
X95250000Y-118745000D02*
X94615000Y-119380000D01*
X94615000Y-125730000D02*
X94615000Y-121920000D01*
X94615000Y-125730000D02*
X91186000Y-125730000D01*
X91186000Y-128778000D02*
X91186000Y-125730000D01*
X91186000Y-125730000D02*
X81661000Y-125730000D01*
X81661000Y-128778000D02*
X81661000Y-125730000D01*
X81661000Y-128778000D02*
X91186000Y-128778000D01*
X91186000Y-136779000D02*
X91186000Y-128778000D01*
D14*
X92202000Y-126111000D02*
X92202000Y-136398000D01*
D13*
X143891000Y-129794000D02*
X143891000Y-124714000D01*
X85471000Y-129794000D02*
X85471000Y-124714000D01*
D12*
X125820000Y-71104500D02*
X125370000Y-71104500D01*
X125820000Y-69254500D02*
X125820000Y-71104500D01*
X118020000Y-66704500D02*
X118020000Y-66954500D01*
X125820000Y-66704500D02*
X125820000Y-66954500D01*
X118020000Y-69254500D02*
X118020000Y-71104500D01*
X118020000Y-71104500D02*
X118470000Y-71104500D01*
X123620000Y-71654500D02*
X123170000Y-71654500D01*
X123620000Y-71654500D02*
X123620000Y-71204500D01*
D13*
X159893000Y-119189500D02*
X159893000Y-72199500D01*
X159893000Y-72199500D02*
X151892000Y-72199500D01*
X151892000Y-72199500D02*
X151892000Y-62674500D01*
X151892000Y-62674500D02*
X148844000Y-62674500D01*
X148844000Y-62674500D02*
X148844000Y-72199500D01*
X148844000Y-72199500D02*
X148844000Y-75628500D01*
X148844000Y-75628500D02*
X148844000Y-77025500D01*
X151892000Y-72199500D02*
X148844000Y-72199500D01*
D14*
X149225000Y-73215500D02*
X159512000Y-73215500D01*
D13*
X148844000Y-75628500D02*
X145034000Y-75628500D01*
X141859000Y-77025500D02*
X142494000Y-77660500D01*
X142494000Y-75628500D02*
X141859000Y-76263500D01*
X145034000Y-77660500D02*
X146177000Y-77660500D01*
X146177000Y-77660500D02*
X146685000Y-78168500D01*
X146685000Y-78168500D02*
X147320000Y-78168500D01*
X147320000Y-78930500D02*
X146685000Y-78930500D01*
X146685000Y-78930500D02*
X146177000Y-79438500D01*
X146177000Y-79438500D02*
X145034000Y-79438500D01*
X142494000Y-79438500D02*
X141859000Y-80073500D01*
X141859000Y-80073500D02*
X141859000Y-80835500D01*
X141859000Y-80835500D02*
X142494000Y-81470500D01*
X145034000Y-81470500D02*
X146177000Y-81470500D01*
X141859000Y-77025500D02*
X141859000Y-76263500D01*
X146177000Y-81470500D02*
X146685000Y-81978500D01*
X146685000Y-82740500D02*
X146177000Y-83248500D01*
X146177000Y-83248500D02*
X145034000Y-83248500D01*
X146685000Y-81978500D02*
X147320000Y-81978500D01*
X147320000Y-82740500D02*
X146685000Y-82740500D01*
X147320000Y-78168500D02*
X147320000Y-78930500D01*
X147320000Y-81978500D02*
X147320000Y-82740500D01*
X148844000Y-80073500D02*
X148844000Y-80835500D01*
X148844000Y-83883500D02*
X148844000Y-84645500D01*
X142494000Y-83248500D02*
X141859000Y-83883500D01*
X141859000Y-83883500D02*
X141859000Y-84645500D01*
X141859000Y-84645500D02*
X142494000Y-85280500D01*
X145034000Y-85280500D02*
X146177000Y-85280500D01*
X146177000Y-85280500D02*
X146685000Y-85788500D01*
X146685000Y-85788500D02*
X147320000Y-85788500D01*
X147320000Y-85788500D02*
X147320000Y-86550500D01*
X147320000Y-86550500D02*
X146685000Y-86550500D01*
X146685000Y-86550500D02*
X146177000Y-87058500D01*
X146177000Y-87058500D02*
X145034000Y-87058500D01*
X142494000Y-87058500D02*
X141859000Y-87693500D01*
X141859000Y-87693500D02*
X141859000Y-88455500D01*
X141859000Y-88455500D02*
X142494000Y-89090500D01*
X145034000Y-89090500D02*
X146177000Y-89090500D01*
X146177000Y-89090500D02*
X146685000Y-89598500D01*
X146685000Y-89598500D02*
X147320000Y-89598500D01*
X147320000Y-89598500D02*
X147320000Y-90360500D01*
X147320000Y-90360500D02*
X146685000Y-90360500D01*
X146685000Y-90360500D02*
X146177000Y-90868500D01*
X146177000Y-90868500D02*
X145034000Y-90868500D01*
X142494000Y-90868500D02*
X141859000Y-91503500D01*
X141859000Y-91503500D02*
X141859000Y-92265500D01*
X141859000Y-92265500D02*
X142494000Y-92900500D01*
X145034000Y-92900500D02*
X146177000Y-92900500D01*
X146177000Y-92900500D02*
X146685000Y-93408500D01*
X146685000Y-93408500D02*
X147320000Y-93408500D01*
X147320000Y-93408500D02*
X147320000Y-94170500D01*
X147320000Y-94170500D02*
X146685000Y-94170500D01*
X146685000Y-94170500D02*
X146177000Y-94678500D01*
X146177000Y-94678500D02*
X145034000Y-94678500D01*
X148844000Y-87693500D02*
X148844000Y-88455500D01*
X148844000Y-91503500D02*
X148844000Y-92265500D01*
X148844000Y-95313500D02*
X148844000Y-96075500D01*
X142494000Y-94678500D02*
X141859000Y-95313500D01*
X141859000Y-95313500D02*
X141859000Y-96075500D01*
X141859000Y-96075500D02*
X142494000Y-96710500D01*
X145034000Y-96710500D02*
X146177000Y-96710500D01*
X146177000Y-96710500D02*
X146685000Y-97218500D01*
X146685000Y-97218500D02*
X147320000Y-97218500D01*
X147320000Y-97218500D02*
X147320000Y-97980500D01*
X147320000Y-97980500D02*
X146685000Y-97980500D01*
X146685000Y-97980500D02*
X146177000Y-98488500D01*
X146177000Y-98488500D02*
X145034000Y-98488500D01*
X142494000Y-98488500D02*
X141859000Y-99123500D01*
X141859000Y-99123500D02*
X141859000Y-99885500D01*
X141859000Y-99885500D02*
X142494000Y-100520500D01*
X148844000Y-99123500D02*
X148844000Y-99885500D01*
X145034000Y-100520500D02*
X146177000Y-100520500D01*
X146177000Y-100520500D02*
X146685000Y-101028500D01*
X146685000Y-101028500D02*
X147320000Y-101028500D01*
X147320000Y-101028500D02*
X147320000Y-101790500D01*
X147320000Y-101790500D02*
X146685000Y-101790500D01*
X146685000Y-101790500D02*
X146177000Y-102298500D01*
X146177000Y-102298500D02*
X145034000Y-102298500D01*
X142494000Y-102298500D02*
X141859000Y-102933500D01*
X141859000Y-102933500D02*
X141859000Y-103695500D01*
X141859000Y-103695500D02*
X142494000Y-104330500D01*
X145034000Y-104330500D02*
X146177000Y-104330500D01*
X146177000Y-104330500D02*
X146685000Y-104838500D01*
X146685000Y-104838500D02*
X147320000Y-104838500D01*
X147320000Y-104838500D02*
X147320000Y-105600500D01*
X147320000Y-105600500D02*
X146685000Y-105600500D01*
X146685000Y-105600500D02*
X146177000Y-106108500D01*
X146177000Y-106108500D02*
X145034000Y-106108500D01*
X148844000Y-102933500D02*
X148844000Y-103695500D01*
X142494000Y-106108500D02*
X141859000Y-106743500D01*
X141859000Y-106743500D02*
X141859000Y-107505500D01*
X148844000Y-106743500D02*
X148844000Y-107505500D01*
X148844000Y-110553500D02*
X148844000Y-111315500D01*
X141859000Y-107505500D02*
X142494000Y-108140500D01*
X145034000Y-108140500D02*
X146177000Y-108140500D01*
X146177000Y-108140500D02*
X146685000Y-108648500D01*
X146685000Y-108648500D02*
X147320000Y-108648500D01*
X147320000Y-108648500D02*
X147320000Y-109410500D01*
X147320000Y-109410500D02*
X146685000Y-109410500D01*
X146685000Y-109410500D02*
X146177000Y-109918500D01*
X146177000Y-109918500D02*
X145034000Y-109918500D01*
X142494000Y-109918500D02*
X141859000Y-110553500D01*
X141859000Y-110553500D02*
X141859000Y-111315500D01*
X141859000Y-111315500D02*
X142494000Y-111950500D01*
X145034000Y-111950500D02*
X146177000Y-111950500D01*
X146177000Y-111950500D02*
X146685000Y-112458500D01*
X146685000Y-112458500D02*
X147320000Y-112458500D01*
X147320000Y-112458500D02*
X147320000Y-113220500D01*
X147320000Y-113220500D02*
X146685000Y-113220500D01*
X146685000Y-113220500D02*
X146177000Y-113728500D01*
X146177000Y-113728500D02*
X145034000Y-113728500D01*
X148844000Y-114363500D02*
X148844000Y-115760500D01*
X142494000Y-113728500D02*
X141859000Y-114363500D01*
X141859000Y-114363500D02*
X141859000Y-115125500D01*
X141859000Y-115125500D02*
X142494000Y-115760500D01*
X148844000Y-115760500D02*
X145034000Y-115760500D01*
X148844000Y-115760500D02*
X148844000Y-119189500D01*
X151892000Y-119189500D02*
X148844000Y-119189500D01*
X148844000Y-119189500D02*
X148844000Y-128714500D01*
X151892000Y-128714500D02*
X148844000Y-128714500D01*
X151892000Y-128714500D02*
X151892000Y-119189500D01*
X159893000Y-119189500D02*
X151892000Y-119189500D01*
D14*
X149225000Y-118173500D02*
X159512000Y-118173500D01*
D13*
X152908000Y-66484500D02*
X147828000Y-66484500D01*
X152908000Y-124904500D02*
X147828000Y-124904500D01*
D12*
X108643267Y-114937000D02*
X108300733Y-114937000D01*
X108643267Y-113917000D02*
X108300733Y-113917000D01*
X112961267Y-113917000D02*
X112618733Y-113917000D01*
X112961267Y-114937000D02*
X112618733Y-114937000D01*
X117251267Y-114937000D02*
X116908733Y-114937000D01*
X117251267Y-113917000D02*
X116908733Y-113917000D01*
X121597267Y-113917000D02*
X121254733Y-113917000D01*
X121597267Y-114937000D02*
X121254733Y-114937000D01*
X110255233Y-100455000D02*
X110597767Y-100455000D01*
X110255233Y-101475000D02*
X110597767Y-101475000D01*
X108300733Y-113032000D02*
X108643267Y-113032000D01*
X108300733Y-112012000D02*
X108643267Y-112012000D01*
X112618733Y-112012000D02*
X112961267Y-112012000D01*
X112618733Y-113032000D02*
X112961267Y-113032000D01*
X116936733Y-112012000D02*
X117279267Y-112012000D01*
X116936733Y-113032000D02*
X117279267Y-113032000D01*
X121254733Y-113032000D02*
X121597267Y-113032000D01*
X121254733Y-112012000D02*
X121597267Y-112012000D01*
X117698733Y-99570000D02*
X118041267Y-99570000D01*
X117698733Y-98550000D02*
X118041267Y-98550000D01*
X117698733Y-101725000D02*
X118041267Y-101725000D01*
X117698733Y-102745000D02*
X118041267Y-102745000D01*
X117698733Y-105920000D02*
X118041267Y-105920000D01*
X117698733Y-104900000D02*
X118041267Y-104900000D01*
X117698733Y-108075000D02*
X118041267Y-108075000D01*
X117698733Y-109095000D02*
X118041267Y-109095000D01*
X124137267Y-98550000D02*
X123794733Y-98550000D01*
X124137267Y-99570000D02*
X123794733Y-99570000D01*
X124137267Y-102745000D02*
X123794733Y-102745000D01*
X124137267Y-101725000D02*
X123794733Y-101725000D01*
X124137267Y-104900000D02*
X123794733Y-104900000D01*
X124137267Y-105920000D02*
X123794733Y-105920000D01*
X124137267Y-109095000D02*
X123794733Y-109095000D01*
X124137267Y-108075000D02*
X123794733Y-108075000D01*
D16*
X112450000Y-71450000D02*
X103450000Y-71450000D01*
X103450000Y-71450000D02*
X103450000Y-68150000D01*
X103450000Y-68150000D02*
X108450000Y-68150000D01*
X108450000Y-68150000D02*
X109950000Y-68150000D01*
X109950000Y-68150000D02*
X112450000Y-68150000D01*
X112450000Y-68150000D02*
X112450000Y-71450000D01*
X109950000Y-68150000D02*
X109950000Y-66450000D01*
X109950000Y-66450000D02*
X108450000Y-66450000D01*
X108450000Y-66450000D02*
X108450000Y-68150000D01*
D17*
X76458838Y-95951681D02*
X77148266Y-95951681D01*
X77286152Y-95997642D01*
X77378076Y-96089566D01*
X77424038Y-96227452D01*
X77424038Y-96319376D01*
X76458838Y-95583985D02*
X76458838Y-94986481D01*
X76826533Y-95308214D01*
X76826533Y-95170328D01*
X76872495Y-95078404D01*
X76918457Y-95032442D01*
X77010380Y-94986481D01*
X77240190Y-94986481D01*
X77332114Y-95032442D01*
X77378076Y-95078404D01*
X77424038Y-95170328D01*
X77424038Y-95446100D01*
X77378076Y-95538023D01*
X77332114Y-95583985D01*
D18*
X77309133Y-85287696D02*
X77389566Y-85046396D01*
X77389566Y-84644230D01*
X77309133Y-84483363D01*
X77228700Y-84402930D01*
X77067833Y-84322496D01*
X76906966Y-84322496D01*
X76746100Y-84402930D01*
X76665666Y-84483363D01*
X76585233Y-84644230D01*
X76504800Y-84965963D01*
X76424366Y-85126830D01*
X76343933Y-85207263D01*
X76183066Y-85287696D01*
X76022200Y-85287696D01*
X75861333Y-85207263D01*
X75780900Y-85126830D01*
X75700466Y-84965963D01*
X75700466Y-84563796D01*
X75780900Y-84322496D01*
X77228700Y-82633396D02*
X77309133Y-82713830D01*
X77389566Y-82955130D01*
X77389566Y-83115996D01*
X77309133Y-83357296D01*
X77148266Y-83518163D01*
X76987400Y-83598596D01*
X76665666Y-83679030D01*
X76424366Y-83679030D01*
X76102633Y-83598596D01*
X75941766Y-83518163D01*
X75780900Y-83357296D01*
X75700466Y-83115996D01*
X75700466Y-82955130D01*
X75780900Y-82713830D01*
X75861333Y-82633396D01*
X76906966Y-81989930D02*
X76906966Y-81185596D01*
X77389566Y-82150796D02*
X75700466Y-81587763D01*
X77389566Y-81024730D01*
X77389566Y-79496496D02*
X76585233Y-80059530D01*
X77389566Y-80461696D02*
X75700466Y-80461696D01*
X75700466Y-79818230D01*
X75780900Y-79657363D01*
X75861333Y-79576930D01*
X76022200Y-79496496D01*
X76263500Y-79496496D01*
X76424366Y-79576930D01*
X76504800Y-79657363D01*
X76585233Y-79818230D01*
X76585233Y-80461696D01*
X75700466Y-79013896D02*
X75700466Y-78048696D01*
X77389566Y-78531296D02*
X75700466Y-78531296D01*
X76746100Y-77485663D02*
X76746100Y-76198730D01*
X76504800Y-74831363D02*
X76504800Y-75394396D01*
X77389566Y-75394396D02*
X75700466Y-75394396D01*
X75700466Y-74590063D01*
D16*
X77463952Y-74046140D02*
X77406500Y-73988688D01*
X77349047Y-73873783D01*
X77349047Y-73586521D01*
X77406500Y-73471616D01*
X77463952Y-73414164D01*
X77578857Y-73356711D01*
X77693761Y-73356711D01*
X77866119Y-73414164D01*
X78555547Y-74103592D01*
X78555547Y-73356711D01*
X78555547Y-72207664D02*
X78555547Y-72897092D01*
X78555547Y-72552378D02*
X77349047Y-72552378D01*
X77521404Y-72667283D01*
X77636309Y-72782188D01*
X77693761Y-72897092D01*
X78555547Y-114631711D02*
X78555547Y-115321140D01*
X78555547Y-114976426D02*
X77349047Y-114976426D01*
X77521404Y-115091330D01*
X77636309Y-115206235D01*
X77693761Y-115321140D01*
D11*
X109728095Y-106132380D02*
X109728095Y-106941904D01*
X109775714Y-107037142D01*
X109823333Y-107084761D01*
X109918571Y-107132380D01*
X110109047Y-107132380D01*
X110204285Y-107084761D01*
X110251904Y-107037142D01*
X110299523Y-106941904D01*
X110299523Y-106132380D01*
X111299523Y-107132380D02*
X110728095Y-107132380D01*
X111013809Y-107132380D02*
X111013809Y-106132380D01*
X110918571Y-106275238D01*
X110823333Y-106370476D01*
X110728095Y-106418095D01*
X118183333Y-74812142D02*
X118135714Y-74859761D01*
X117992857Y-74907380D01*
X117897619Y-74907380D01*
X117754761Y-74859761D01*
X117659523Y-74764523D01*
X117611904Y-74669285D01*
X117564285Y-74478809D01*
X117564285Y-74335952D01*
X117611904Y-74145476D01*
X117659523Y-74050238D01*
X117754761Y-73955000D01*
X117897619Y-73907380D01*
X117992857Y-73907380D01*
X118135714Y-73955000D01*
X118183333Y-74002619D01*
X119135714Y-74907380D02*
X118564285Y-74907380D01*
X118850000Y-74907380D02*
X118850000Y-73907380D01*
X118754761Y-74050238D01*
X118659523Y-74145476D01*
X118564285Y-74193095D01*
X107148333Y-103227142D02*
X107100714Y-103274761D01*
X106957857Y-103322380D01*
X106862619Y-103322380D01*
X106719761Y-103274761D01*
X106624523Y-103179523D01*
X106576904Y-103084285D01*
X106529285Y-102893809D01*
X106529285Y-102750952D01*
X106576904Y-102560476D01*
X106624523Y-102465238D01*
X106719761Y-102370000D01*
X106862619Y-102322380D01*
X106957857Y-102322380D01*
X107100714Y-102370000D01*
X107148333Y-102417619D01*
X107529285Y-102417619D02*
X107576904Y-102370000D01*
X107672142Y-102322380D01*
X107910238Y-102322380D01*
X108005476Y-102370000D01*
X108053095Y-102417619D01*
X108100714Y-102512857D01*
X108100714Y-102608095D01*
X108053095Y-102750952D01*
X107481666Y-103322380D01*
X108100714Y-103322380D01*
X133818333Y-72087142D02*
X133770714Y-72134761D01*
X133627857Y-72182380D01*
X133532619Y-72182380D01*
X133389761Y-72134761D01*
X133294523Y-72039523D01*
X133246904Y-71944285D01*
X133199285Y-71753809D01*
X133199285Y-71610952D01*
X133246904Y-71420476D01*
X133294523Y-71325238D01*
X133389761Y-71230000D01*
X133532619Y-71182380D01*
X133627857Y-71182380D01*
X133770714Y-71230000D01*
X133818333Y-71277619D01*
X134151666Y-71182380D02*
X134770714Y-71182380D01*
X134437380Y-71563333D01*
X134580238Y-71563333D01*
X134675476Y-71610952D01*
X134723095Y-71658571D01*
X134770714Y-71753809D01*
X134770714Y-71991904D01*
X134723095Y-72087142D01*
X134675476Y-72134761D01*
X134580238Y-72182380D01*
X134294523Y-72182380D01*
X134199285Y-72134761D01*
X134151666Y-72087142D01*
X105243333Y-116689142D02*
X105195714Y-116736761D01*
X105052857Y-116784380D01*
X104957619Y-116784380D01*
X104814761Y-116736761D01*
X104719523Y-116641523D01*
X104671904Y-116546285D01*
X104624285Y-116355809D01*
X104624285Y-116212952D01*
X104671904Y-116022476D01*
X104719523Y-115927238D01*
X104814761Y-115832000D01*
X104957619Y-115784380D01*
X105052857Y-115784380D01*
X105195714Y-115832000D01*
X105243333Y-115879619D01*
X106100476Y-116117714D02*
X106100476Y-116784380D01*
X105862380Y-115736761D02*
X105624285Y-116451047D01*
X106243333Y-116451047D01*
X112609333Y-118213142D02*
X112561714Y-118260761D01*
X112418857Y-118308380D01*
X112323619Y-118308380D01*
X112180761Y-118260761D01*
X112085523Y-118165523D01*
X112037904Y-118070285D01*
X111990285Y-117879809D01*
X111990285Y-117736952D01*
X112037904Y-117546476D01*
X112085523Y-117451238D01*
X112180761Y-117356000D01*
X112323619Y-117308380D01*
X112418857Y-117308380D01*
X112561714Y-117356000D01*
X112609333Y-117403619D01*
X113514095Y-117308380D02*
X113037904Y-117308380D01*
X112990285Y-117784571D01*
X113037904Y-117736952D01*
X113133142Y-117689333D01*
X113371238Y-117689333D01*
X113466476Y-117736952D01*
X113514095Y-117784571D01*
X113561714Y-117879809D01*
X113561714Y-118117904D01*
X113514095Y-118213142D01*
X113466476Y-118260761D01*
X113371238Y-118308380D01*
X113133142Y-118308380D01*
X113037904Y-118260761D01*
X112990285Y-118213142D01*
X116927333Y-118213142D02*
X116879714Y-118260761D01*
X116736857Y-118308380D01*
X116641619Y-118308380D01*
X116498761Y-118260761D01*
X116403523Y-118165523D01*
X116355904Y-118070285D01*
X116308285Y-117879809D01*
X116308285Y-117736952D01*
X116355904Y-117546476D01*
X116403523Y-117451238D01*
X116498761Y-117356000D01*
X116641619Y-117308380D01*
X116736857Y-117308380D01*
X116879714Y-117356000D01*
X116927333Y-117403619D01*
X117784476Y-117308380D02*
X117594000Y-117308380D01*
X117498761Y-117356000D01*
X117451142Y-117403619D01*
X117355904Y-117546476D01*
X117308285Y-117736952D01*
X117308285Y-118117904D01*
X117355904Y-118213142D01*
X117403523Y-118260761D01*
X117498761Y-118308380D01*
X117689238Y-118308380D01*
X117784476Y-118260761D01*
X117832095Y-118213142D01*
X117879714Y-118117904D01*
X117879714Y-117879809D01*
X117832095Y-117784571D01*
X117784476Y-117736952D01*
X117689238Y-117689333D01*
X117498761Y-117689333D01*
X117403523Y-117736952D01*
X117355904Y-117784571D01*
X117308285Y-117879809D01*
X124293333Y-116689142D02*
X124245714Y-116736761D01*
X124102857Y-116784380D01*
X124007619Y-116784380D01*
X123864761Y-116736761D01*
X123769523Y-116641523D01*
X123721904Y-116546285D01*
X123674285Y-116355809D01*
X123674285Y-116212952D01*
X123721904Y-116022476D01*
X123769523Y-115927238D01*
X123864761Y-115832000D01*
X124007619Y-115784380D01*
X124102857Y-115784380D01*
X124245714Y-115832000D01*
X124293333Y-115879619D01*
X124626666Y-115784380D02*
X125293333Y-115784380D01*
X124864761Y-116784380D01*
X95718333Y-86717142D02*
X95670714Y-86764761D01*
X95527857Y-86812380D01*
X95432619Y-86812380D01*
X95289761Y-86764761D01*
X95194523Y-86669523D01*
X95146904Y-86574285D01*
X95099285Y-86383809D01*
X95099285Y-86240952D01*
X95146904Y-86050476D01*
X95194523Y-85955238D01*
X95289761Y-85860000D01*
X95432619Y-85812380D01*
X95527857Y-85812380D01*
X95670714Y-85860000D01*
X95718333Y-85907619D01*
X96289761Y-86240952D02*
X96194523Y-86193333D01*
X96146904Y-86145714D01*
X96099285Y-86050476D01*
X96099285Y-86002857D01*
X96146904Y-85907619D01*
X96194523Y-85860000D01*
X96289761Y-85812380D01*
X96480238Y-85812380D01*
X96575476Y-85860000D01*
X96623095Y-85907619D01*
X96670714Y-86002857D01*
X96670714Y-86050476D01*
X96623095Y-86145714D01*
X96575476Y-86193333D01*
X96480238Y-86240952D01*
X96289761Y-86240952D01*
X96194523Y-86288571D01*
X96146904Y-86336190D01*
X96099285Y-86431428D01*
X96099285Y-86621904D01*
X96146904Y-86717142D01*
X96194523Y-86764761D01*
X96289761Y-86812380D01*
X96480238Y-86812380D01*
X96575476Y-86764761D01*
X96623095Y-86717142D01*
X96670714Y-86621904D01*
X96670714Y-86431428D01*
X96623095Y-86336190D01*
X96575476Y-86288571D01*
X96480238Y-86240952D01*
X95718333Y-96242142D02*
X95670714Y-96289761D01*
X95527857Y-96337380D01*
X95432619Y-96337380D01*
X95289761Y-96289761D01*
X95194523Y-96194523D01*
X95146904Y-96099285D01*
X95099285Y-95908809D01*
X95099285Y-95765952D01*
X95146904Y-95575476D01*
X95194523Y-95480238D01*
X95289761Y-95385000D01*
X95432619Y-95337380D01*
X95527857Y-95337380D01*
X95670714Y-95385000D01*
X95718333Y-95432619D01*
X96194523Y-96337380D02*
X96385000Y-96337380D01*
X96480238Y-96289761D01*
X96527857Y-96242142D01*
X96623095Y-96099285D01*
X96670714Y-95908809D01*
X96670714Y-95527857D01*
X96623095Y-95432619D01*
X96575476Y-95385000D01*
X96480238Y-95337380D01*
X96289761Y-95337380D01*
X96194523Y-95385000D01*
X96146904Y-95432619D01*
X96099285Y-95527857D01*
X96099285Y-95765952D01*
X96146904Y-95861190D01*
X96194523Y-95908809D01*
X96289761Y-95956428D01*
X96480238Y-95956428D01*
X96575476Y-95908809D01*
X96623095Y-95861190D01*
X96670714Y-95765952D01*
X95242142Y-105767142D02*
X95194523Y-105814761D01*
X95051666Y-105862380D01*
X94956428Y-105862380D01*
X94813571Y-105814761D01*
X94718333Y-105719523D01*
X94670714Y-105624285D01*
X94623095Y-105433809D01*
X94623095Y-105290952D01*
X94670714Y-105100476D01*
X94718333Y-105005238D01*
X94813571Y-104910000D01*
X94956428Y-104862380D01*
X95051666Y-104862380D01*
X95194523Y-104910000D01*
X95242142Y-104957619D01*
X96194523Y-105862380D02*
X95623095Y-105862380D01*
X95908809Y-105862380D02*
X95908809Y-104862380D01*
X95813571Y-105005238D01*
X95718333Y-105100476D01*
X95623095Y-105148095D01*
X96813571Y-104862380D02*
X96908809Y-104862380D01*
X97004047Y-104910000D01*
X97051666Y-104957619D01*
X97099285Y-105052857D01*
X97146904Y-105243333D01*
X97146904Y-105481428D01*
X97099285Y-105671904D01*
X97051666Y-105767142D01*
X97004047Y-105814761D01*
X96908809Y-105862380D01*
X96813571Y-105862380D01*
X96718333Y-105814761D01*
X96670714Y-105767142D01*
X96623095Y-105671904D01*
X96575476Y-105481428D01*
X96575476Y-105243333D01*
X96623095Y-105052857D01*
X96670714Y-104957619D01*
X96718333Y-104910000D01*
X96813571Y-104862380D01*
X95242142Y-115292142D02*
X95194523Y-115339761D01*
X95051666Y-115387380D01*
X94956428Y-115387380D01*
X94813571Y-115339761D01*
X94718333Y-115244523D01*
X94670714Y-115149285D01*
X94623095Y-114958809D01*
X94623095Y-114815952D01*
X94670714Y-114625476D01*
X94718333Y-114530238D01*
X94813571Y-114435000D01*
X94956428Y-114387380D01*
X95051666Y-114387380D01*
X95194523Y-114435000D01*
X95242142Y-114482619D01*
X96194523Y-115387380D02*
X95623095Y-115387380D01*
X95908809Y-115387380D02*
X95908809Y-114387380D01*
X95813571Y-114530238D01*
X95718333Y-114625476D01*
X95623095Y-114673095D01*
X97146904Y-115387380D02*
X96575476Y-115387380D01*
X96861190Y-115387380D02*
X96861190Y-114387380D01*
X96765952Y-114530238D01*
X96670714Y-114625476D01*
X96575476Y-114673095D01*
X133342142Y-115292142D02*
X133294523Y-115339761D01*
X133151666Y-115387380D01*
X133056428Y-115387380D01*
X132913571Y-115339761D01*
X132818333Y-115244523D01*
X132770714Y-115149285D01*
X132723095Y-114958809D01*
X132723095Y-114815952D01*
X132770714Y-114625476D01*
X132818333Y-114530238D01*
X132913571Y-114435000D01*
X133056428Y-114387380D01*
X133151666Y-114387380D01*
X133294523Y-114435000D01*
X133342142Y-114482619D01*
X134294523Y-115387380D02*
X133723095Y-115387380D01*
X134008809Y-115387380D02*
X134008809Y-114387380D01*
X133913571Y-114530238D01*
X133818333Y-114625476D01*
X133723095Y-114673095D01*
X134675476Y-114482619D02*
X134723095Y-114435000D01*
X134818333Y-114387380D01*
X135056428Y-114387380D01*
X135151666Y-114435000D01*
X135199285Y-114482619D01*
X135246904Y-114577857D01*
X135246904Y-114673095D01*
X135199285Y-114815952D01*
X134627857Y-115387380D01*
X135246904Y-115387380D01*
X133342142Y-105767142D02*
X133294523Y-105814761D01*
X133151666Y-105862380D01*
X133056428Y-105862380D01*
X132913571Y-105814761D01*
X132818333Y-105719523D01*
X132770714Y-105624285D01*
X132723095Y-105433809D01*
X132723095Y-105290952D01*
X132770714Y-105100476D01*
X132818333Y-105005238D01*
X132913571Y-104910000D01*
X133056428Y-104862380D01*
X133151666Y-104862380D01*
X133294523Y-104910000D01*
X133342142Y-104957619D01*
X134294523Y-105862380D02*
X133723095Y-105862380D01*
X134008809Y-105862380D02*
X134008809Y-104862380D01*
X133913571Y-105005238D01*
X133818333Y-105100476D01*
X133723095Y-105148095D01*
X134627857Y-104862380D02*
X135246904Y-104862380D01*
X134913571Y-105243333D01*
X135056428Y-105243333D01*
X135151666Y-105290952D01*
X135199285Y-105338571D01*
X135246904Y-105433809D01*
X135246904Y-105671904D01*
X135199285Y-105767142D01*
X135151666Y-105814761D01*
X135056428Y-105862380D01*
X134770714Y-105862380D01*
X134675476Y-105814761D01*
X134627857Y-105767142D01*
X133342142Y-96242142D02*
X133294523Y-96289761D01*
X133151666Y-96337380D01*
X133056428Y-96337380D01*
X132913571Y-96289761D01*
X132818333Y-96194523D01*
X132770714Y-96099285D01*
X132723095Y-95908809D01*
X132723095Y-95765952D01*
X132770714Y-95575476D01*
X132818333Y-95480238D01*
X132913571Y-95385000D01*
X133056428Y-95337380D01*
X133151666Y-95337380D01*
X133294523Y-95385000D01*
X133342142Y-95432619D01*
X134294523Y-96337380D02*
X133723095Y-96337380D01*
X134008809Y-96337380D02*
X134008809Y-95337380D01*
X133913571Y-95480238D01*
X133818333Y-95575476D01*
X133723095Y-95623095D01*
X135151666Y-95670714D02*
X135151666Y-96337380D01*
X134913571Y-95289761D02*
X134675476Y-96004047D01*
X135294523Y-96004047D01*
X133342142Y-86717142D02*
X133294523Y-86764761D01*
X133151666Y-86812380D01*
X133056428Y-86812380D01*
X132913571Y-86764761D01*
X132818333Y-86669523D01*
X132770714Y-86574285D01*
X132723095Y-86383809D01*
X132723095Y-86240952D01*
X132770714Y-86050476D01*
X132818333Y-85955238D01*
X132913571Y-85860000D01*
X133056428Y-85812380D01*
X133151666Y-85812380D01*
X133294523Y-85860000D01*
X133342142Y-85907619D01*
X134294523Y-86812380D02*
X133723095Y-86812380D01*
X134008809Y-86812380D02*
X134008809Y-85812380D01*
X133913571Y-85955238D01*
X133818333Y-86050476D01*
X133723095Y-86098095D01*
X135199285Y-85812380D02*
X134723095Y-85812380D01*
X134675476Y-86288571D01*
X134723095Y-86240952D01*
X134818333Y-86193333D01*
X135056428Y-86193333D01*
X135151666Y-86240952D01*
X135199285Y-86288571D01*
X135246904Y-86383809D01*
X135246904Y-86621904D01*
X135199285Y-86717142D01*
X135151666Y-86764761D01*
X135056428Y-86812380D01*
X134818333Y-86812380D01*
X134723095Y-86764761D01*
X134675476Y-86717142D01*
X121481666Y-74858571D02*
X121148333Y-74858571D01*
X121148333Y-75382380D02*
X121148333Y-74382380D01*
X121624523Y-74382380D01*
X122338809Y-74858571D02*
X122481666Y-74906190D01*
X122529285Y-74953809D01*
X122576904Y-75049047D01*
X122576904Y-75191904D01*
X122529285Y-75287142D01*
X122481666Y-75334761D01*
X122386428Y-75382380D01*
X122005476Y-75382380D01*
X122005476Y-74382380D01*
X122338809Y-74382380D01*
X122434047Y-74430000D01*
X122481666Y-74477619D01*
X122529285Y-74572857D01*
X122529285Y-74668095D01*
X122481666Y-74763333D01*
X122434047Y-74810952D01*
X122338809Y-74858571D01*
X122005476Y-74858571D01*
X123529285Y-75382380D02*
X122957857Y-75382380D01*
X123243571Y-75382380D02*
X123243571Y-74382380D01*
X123148333Y-74525238D01*
X123053095Y-74620476D01*
X122957857Y-74668095D01*
D17*
X123758318Y-129163838D02*
X123758318Y-129853266D01*
X123712357Y-129991152D01*
X123620433Y-130083076D01*
X123482547Y-130129038D01*
X123390623Y-130129038D01*
X124723518Y-130129038D02*
X124171976Y-130129038D01*
X124447747Y-130129038D02*
X124447747Y-129163838D01*
X124355823Y-129301723D01*
X124263899Y-129393647D01*
X124171976Y-129439609D01*
D16*
X135621788Y-127958547D02*
X134932359Y-127958547D01*
X135277073Y-127958547D02*
X135277073Y-126752047D01*
X135162169Y-126924404D01*
X135047264Y-127039309D01*
X134932359Y-127096761D01*
X93657359Y-126866952D02*
X93714811Y-126809500D01*
X93829716Y-126752047D01*
X94116978Y-126752047D01*
X94231883Y-126809500D01*
X94289335Y-126866952D01*
X94346788Y-126981857D01*
X94346788Y-127096761D01*
X94289335Y-127269119D01*
X93599907Y-127958547D01*
X94346788Y-127958547D01*
X95495835Y-127958547D02*
X94806407Y-127958547D01*
X95151121Y-127958547D02*
X95151121Y-126752047D01*
X95036216Y-126924404D01*
X94921311Y-127039309D01*
X94806407Y-127096761D01*
D18*
X105339303Y-130649133D02*
X105580603Y-130729566D01*
X105982770Y-130729566D01*
X106143636Y-130649133D01*
X106224070Y-130568700D01*
X106304503Y-130407833D01*
X106304503Y-130246966D01*
X106224070Y-130086100D01*
X106143636Y-130005666D01*
X105982770Y-129925233D01*
X105661036Y-129844800D01*
X105500170Y-129764366D01*
X105419736Y-129683933D01*
X105339303Y-129523066D01*
X105339303Y-129362200D01*
X105419736Y-129201333D01*
X105500170Y-129120900D01*
X105661036Y-129040466D01*
X106063203Y-129040466D01*
X106304503Y-129120900D01*
X107993603Y-130568700D02*
X107913170Y-130649133D01*
X107671870Y-130729566D01*
X107511003Y-130729566D01*
X107269703Y-130649133D01*
X107108836Y-130488266D01*
X107028403Y-130327400D01*
X106947970Y-130005666D01*
X106947970Y-129764366D01*
X107028403Y-129442633D01*
X107108836Y-129281766D01*
X107269703Y-129120900D01*
X107511003Y-129040466D01*
X107671870Y-129040466D01*
X107913170Y-129120900D01*
X107993603Y-129201333D01*
X108637070Y-130246966D02*
X109441403Y-130246966D01*
X108476203Y-130729566D02*
X109039236Y-129040466D01*
X109602270Y-130729566D01*
X111130503Y-130729566D02*
X110567470Y-129925233D01*
X110165303Y-130729566D02*
X110165303Y-129040466D01*
X110808770Y-129040466D01*
X110969636Y-129120900D01*
X111050070Y-129201333D01*
X111130503Y-129362200D01*
X111130503Y-129603500D01*
X111050070Y-129764366D01*
X110969636Y-129844800D01*
X110808770Y-129925233D01*
X110165303Y-129925233D01*
X111613103Y-129040466D02*
X112578303Y-129040466D01*
X112095703Y-130729566D02*
X112095703Y-129040466D01*
X113141336Y-130086100D02*
X114428270Y-130086100D01*
X115795636Y-129844800D02*
X115232603Y-129844800D01*
X115232603Y-130729566D02*
X115232603Y-129040466D01*
X116036936Y-129040466D01*
D11*
X127301666Y-68667380D02*
X127301666Y-69381666D01*
X127254047Y-69524523D01*
X127158809Y-69619761D01*
X127015952Y-69667380D01*
X126920714Y-69667380D01*
X127730238Y-68762619D02*
X127777857Y-68715000D01*
X127873095Y-68667380D01*
X128111190Y-68667380D01*
X128206428Y-68715000D01*
X128254047Y-68762619D01*
X128301666Y-68857857D01*
X128301666Y-68953095D01*
X128254047Y-69095952D01*
X127682619Y-69667380D01*
X128301666Y-69667380D01*
D17*
X152023838Y-85791681D02*
X152713266Y-85791681D01*
X152851152Y-85837642D01*
X152943076Y-85929566D01*
X152989038Y-86067452D01*
X152989038Y-86159376D01*
X152345571Y-84918404D02*
X152989038Y-84918404D01*
X151977876Y-85148214D02*
X152667304Y-85378023D01*
X152667304Y-84780519D01*
D16*
X151072547Y-74753711D02*
X151072547Y-75443140D01*
X151072547Y-75098426D02*
X149866047Y-75098426D01*
X150038404Y-75213330D01*
X150153309Y-75328235D01*
X150210761Y-75443140D01*
X149980952Y-116718140D02*
X149923500Y-116660688D01*
X149866047Y-116545783D01*
X149866047Y-116258521D01*
X149923500Y-116143616D01*
X149980952Y-116086164D01*
X150095857Y-116028711D01*
X150210761Y-116028711D01*
X150383119Y-116086164D01*
X151072547Y-116775592D01*
X151072547Y-116028711D01*
X151072547Y-114879664D02*
X151072547Y-115569092D01*
X151072547Y-115224378D02*
X149866047Y-115224378D01*
X150038404Y-115339283D01*
X150153309Y-115454188D01*
X150210761Y-115569092D01*
D18*
X153763133Y-105036196D02*
X153843566Y-104794896D01*
X153843566Y-104392730D01*
X153763133Y-104231863D01*
X153682700Y-104151430D01*
X153521833Y-104070996D01*
X153360966Y-104070996D01*
X153200100Y-104151430D01*
X153119666Y-104231863D01*
X153039233Y-104392730D01*
X152958800Y-104714463D01*
X152878366Y-104875330D01*
X152797933Y-104955763D01*
X152637066Y-105036196D01*
X152476200Y-105036196D01*
X152315333Y-104955763D01*
X152234900Y-104875330D01*
X152154466Y-104714463D01*
X152154466Y-104312296D01*
X152234900Y-104070996D01*
X153682700Y-102381896D02*
X153763133Y-102462330D01*
X153843566Y-102703630D01*
X153843566Y-102864496D01*
X153763133Y-103105796D01*
X153602266Y-103266663D01*
X153441400Y-103347096D01*
X153119666Y-103427530D01*
X152878366Y-103427530D01*
X152556633Y-103347096D01*
X152395766Y-103266663D01*
X152234900Y-103105796D01*
X152154466Y-102864496D01*
X152154466Y-102703630D01*
X152234900Y-102462330D01*
X152315333Y-102381896D01*
X153360966Y-101738430D02*
X153360966Y-100934096D01*
X153843566Y-101899296D02*
X152154466Y-101336263D01*
X153843566Y-100773230D01*
X153843566Y-99244996D02*
X153039233Y-99808030D01*
X153843566Y-100210196D02*
X152154466Y-100210196D01*
X152154466Y-99566730D01*
X152234900Y-99405863D01*
X152315333Y-99325430D01*
X152476200Y-99244996D01*
X152717500Y-99244996D01*
X152878366Y-99325430D01*
X152958800Y-99405863D01*
X153039233Y-99566730D01*
X153039233Y-100210196D01*
X152154466Y-98762396D02*
X152154466Y-97797196D01*
X153843566Y-98279796D02*
X152154466Y-98279796D01*
X153200100Y-97234163D02*
X153200100Y-95947230D01*
X152958800Y-94579863D02*
X152958800Y-95142896D01*
X153843566Y-95142896D02*
X152154466Y-95142896D01*
X152154466Y-94338563D01*
D11*
X105243333Y-114879380D02*
X104910000Y-114403190D01*
X104671904Y-114879380D02*
X104671904Y-113879380D01*
X105052857Y-113879380D01*
X105148095Y-113927000D01*
X105195714Y-113974619D01*
X105243333Y-114069857D01*
X105243333Y-114212714D01*
X105195714Y-114307952D01*
X105148095Y-114355571D01*
X105052857Y-114403190D01*
X104671904Y-114403190D01*
X106195714Y-114879380D02*
X105624285Y-114879380D01*
X105910000Y-114879380D02*
X105910000Y-113879380D01*
X105814761Y-114022238D01*
X105719523Y-114117476D01*
X105624285Y-114165095D01*
X110323333Y-111577380D02*
X109990000Y-111101190D01*
X109751904Y-111577380D02*
X109751904Y-110577380D01*
X110132857Y-110577380D01*
X110228095Y-110625000D01*
X110275714Y-110672619D01*
X110323333Y-110767857D01*
X110323333Y-110910714D01*
X110275714Y-111005952D01*
X110228095Y-111053571D01*
X110132857Y-111101190D01*
X109751904Y-111101190D01*
X110704285Y-110672619D02*
X110751904Y-110625000D01*
X110847142Y-110577380D01*
X111085238Y-110577380D01*
X111180476Y-110625000D01*
X111228095Y-110672619D01*
X111275714Y-110767857D01*
X111275714Y-110863095D01*
X111228095Y-111005952D01*
X110656666Y-111577380D01*
X111275714Y-111577380D01*
X119213333Y-111577380D02*
X118880000Y-111101190D01*
X118641904Y-111577380D02*
X118641904Y-110577380D01*
X119022857Y-110577380D01*
X119118095Y-110625000D01*
X119165714Y-110672619D01*
X119213333Y-110767857D01*
X119213333Y-110910714D01*
X119165714Y-111005952D01*
X119118095Y-111053571D01*
X119022857Y-111101190D01*
X118641904Y-111101190D01*
X119546666Y-110577380D02*
X120165714Y-110577380D01*
X119832380Y-110958333D01*
X119975238Y-110958333D01*
X120070476Y-111005952D01*
X120118095Y-111053571D01*
X120165714Y-111148809D01*
X120165714Y-111386904D01*
X120118095Y-111482142D01*
X120070476Y-111529761D01*
X119975238Y-111577380D01*
X119689523Y-111577380D01*
X119594285Y-111529761D01*
X119546666Y-111482142D01*
X124293333Y-114879380D02*
X123960000Y-114403190D01*
X123721904Y-114879380D02*
X123721904Y-113879380D01*
X124102857Y-113879380D01*
X124198095Y-113927000D01*
X124245714Y-113974619D01*
X124293333Y-114069857D01*
X124293333Y-114212714D01*
X124245714Y-114307952D01*
X124198095Y-114355571D01*
X124102857Y-114403190D01*
X123721904Y-114403190D01*
X125150476Y-114212714D02*
X125150476Y-114879380D01*
X124912380Y-113831761D02*
X124674285Y-114546047D01*
X125293333Y-114546047D01*
X107148333Y-101417380D02*
X106815000Y-100941190D01*
X106576904Y-101417380D02*
X106576904Y-100417380D01*
X106957857Y-100417380D01*
X107053095Y-100465000D01*
X107100714Y-100512619D01*
X107148333Y-100607857D01*
X107148333Y-100750714D01*
X107100714Y-100845952D01*
X107053095Y-100893571D01*
X106957857Y-100941190D01*
X106576904Y-100941190D01*
X108053095Y-100417380D02*
X107576904Y-100417380D01*
X107529285Y-100893571D01*
X107576904Y-100845952D01*
X107672142Y-100798333D01*
X107910238Y-100798333D01*
X108005476Y-100845952D01*
X108053095Y-100893571D01*
X108100714Y-100988809D01*
X108100714Y-101226904D01*
X108053095Y-101322142D01*
X108005476Y-101369761D01*
X107910238Y-101417380D01*
X107672142Y-101417380D01*
X107576904Y-101369761D01*
X107529285Y-101322142D01*
X105243333Y-112847380D02*
X104910000Y-112371190D01*
X104671904Y-112847380D02*
X104671904Y-111847380D01*
X105052857Y-111847380D01*
X105148095Y-111895000D01*
X105195714Y-111942619D01*
X105243333Y-112037857D01*
X105243333Y-112180714D01*
X105195714Y-112275952D01*
X105148095Y-112323571D01*
X105052857Y-112371190D01*
X104671904Y-112371190D01*
X106100476Y-111847380D02*
X105910000Y-111847380D01*
X105814761Y-111895000D01*
X105767142Y-111942619D01*
X105671904Y-112085476D01*
X105624285Y-112275952D01*
X105624285Y-112656904D01*
X105671904Y-112752142D01*
X105719523Y-112799761D01*
X105814761Y-112847380D01*
X106005238Y-112847380D01*
X106100476Y-112799761D01*
X106148095Y-112752142D01*
X106195714Y-112656904D01*
X106195714Y-112418809D01*
X106148095Y-112323571D01*
X106100476Y-112275952D01*
X106005238Y-112228333D01*
X105814761Y-112228333D01*
X105719523Y-112275952D01*
X105671904Y-112323571D01*
X105624285Y-112418809D01*
X112623333Y-111544380D02*
X112290000Y-111068190D01*
X112051904Y-111544380D02*
X112051904Y-110544380D01*
X112432857Y-110544380D01*
X112528095Y-110592000D01*
X112575714Y-110639619D01*
X112623333Y-110734857D01*
X112623333Y-110877714D01*
X112575714Y-110972952D01*
X112528095Y-111020571D01*
X112432857Y-111068190D01*
X112051904Y-111068190D01*
X112956666Y-110544380D02*
X113623333Y-110544380D01*
X113194761Y-111544380D01*
X116941333Y-111544380D02*
X116608000Y-111068190D01*
X116369904Y-111544380D02*
X116369904Y-110544380D01*
X116750857Y-110544380D01*
X116846095Y-110592000D01*
X116893714Y-110639619D01*
X116941333Y-110734857D01*
X116941333Y-110877714D01*
X116893714Y-110972952D01*
X116846095Y-111020571D01*
X116750857Y-111068190D01*
X116369904Y-111068190D01*
X117512761Y-110972952D02*
X117417523Y-110925333D01*
X117369904Y-110877714D01*
X117322285Y-110782476D01*
X117322285Y-110734857D01*
X117369904Y-110639619D01*
X117417523Y-110592000D01*
X117512761Y-110544380D01*
X117703238Y-110544380D01*
X117798476Y-110592000D01*
X117846095Y-110639619D01*
X117893714Y-110734857D01*
X117893714Y-110782476D01*
X117846095Y-110877714D01*
X117798476Y-110925333D01*
X117703238Y-110972952D01*
X117512761Y-110972952D01*
X117417523Y-111020571D01*
X117369904Y-111068190D01*
X117322285Y-111163428D01*
X117322285Y-111353904D01*
X117369904Y-111449142D01*
X117417523Y-111496761D01*
X117512761Y-111544380D01*
X117703238Y-111544380D01*
X117798476Y-111496761D01*
X117846095Y-111449142D01*
X117893714Y-111353904D01*
X117893714Y-111163428D01*
X117846095Y-111068190D01*
X117798476Y-111020571D01*
X117703238Y-110972952D01*
X124293333Y-112847380D02*
X123960000Y-112371190D01*
X123721904Y-112847380D02*
X123721904Y-111847380D01*
X124102857Y-111847380D01*
X124198095Y-111895000D01*
X124245714Y-111942619D01*
X124293333Y-112037857D01*
X124293333Y-112180714D01*
X124245714Y-112275952D01*
X124198095Y-112323571D01*
X124102857Y-112371190D01*
X123721904Y-112371190D01*
X124769523Y-112847380D02*
X124960000Y-112847380D01*
X125055238Y-112799761D01*
X125102857Y-112752142D01*
X125198095Y-112609285D01*
X125245714Y-112418809D01*
X125245714Y-112037857D01*
X125198095Y-111942619D01*
X125150476Y-111895000D01*
X125055238Y-111847380D01*
X124864761Y-111847380D01*
X124769523Y-111895000D01*
X124721904Y-111942619D01*
X124674285Y-112037857D01*
X124674285Y-112275952D01*
X124721904Y-112371190D01*
X124769523Y-112418809D01*
X124864761Y-112466428D01*
X125055238Y-112466428D01*
X125150476Y-112418809D01*
X125198095Y-112371190D01*
X125245714Y-112275952D01*
X117227142Y-98082380D02*
X116893809Y-97606190D01*
X116655714Y-98082380D02*
X116655714Y-97082380D01*
X117036666Y-97082380D01*
X117131904Y-97130000D01*
X117179523Y-97177619D01*
X117227142Y-97272857D01*
X117227142Y-97415714D01*
X117179523Y-97510952D01*
X117131904Y-97558571D01*
X117036666Y-97606190D01*
X116655714Y-97606190D01*
X118179523Y-98082380D02*
X117608095Y-98082380D01*
X117893809Y-98082380D02*
X117893809Y-97082380D01*
X117798571Y-97225238D01*
X117703333Y-97320476D01*
X117608095Y-97368095D01*
X118798571Y-97082380D02*
X118893809Y-97082380D01*
X118989047Y-97130000D01*
X119036666Y-97177619D01*
X119084285Y-97272857D01*
X119131904Y-97463333D01*
X119131904Y-97701428D01*
X119084285Y-97891904D01*
X119036666Y-97987142D01*
X118989047Y-98034761D01*
X118893809Y-98082380D01*
X118798571Y-98082380D01*
X118703333Y-98034761D01*
X118655714Y-97987142D01*
X118608095Y-97891904D01*
X118560476Y-97701428D01*
X118560476Y-97463333D01*
X118608095Y-97272857D01*
X118655714Y-97177619D01*
X118703333Y-97130000D01*
X118798571Y-97082380D01*
X117227142Y-101257380D02*
X116893809Y-100781190D01*
X116655714Y-101257380D02*
X116655714Y-100257380D01*
X117036666Y-100257380D01*
X117131904Y-100305000D01*
X117179523Y-100352619D01*
X117227142Y-100447857D01*
X117227142Y-100590714D01*
X117179523Y-100685952D01*
X117131904Y-100733571D01*
X117036666Y-100781190D01*
X116655714Y-100781190D01*
X118179523Y-101257380D02*
X117608095Y-101257380D01*
X117893809Y-101257380D02*
X117893809Y-100257380D01*
X117798571Y-100400238D01*
X117703333Y-100495476D01*
X117608095Y-100543095D01*
X119131904Y-101257380D02*
X118560476Y-101257380D01*
X118846190Y-101257380D02*
X118846190Y-100257380D01*
X118750952Y-100400238D01*
X118655714Y-100495476D01*
X118560476Y-100543095D01*
X117227142Y-104432380D02*
X116893809Y-103956190D01*
X116655714Y-104432380D02*
X116655714Y-103432380D01*
X117036666Y-103432380D01*
X117131904Y-103480000D01*
X117179523Y-103527619D01*
X117227142Y-103622857D01*
X117227142Y-103765714D01*
X117179523Y-103860952D01*
X117131904Y-103908571D01*
X117036666Y-103956190D01*
X116655714Y-103956190D01*
X118179523Y-104432380D02*
X117608095Y-104432380D01*
X117893809Y-104432380D02*
X117893809Y-103432380D01*
X117798571Y-103575238D01*
X117703333Y-103670476D01*
X117608095Y-103718095D01*
X118560476Y-103527619D02*
X118608095Y-103480000D01*
X118703333Y-103432380D01*
X118941428Y-103432380D01*
X119036666Y-103480000D01*
X119084285Y-103527619D01*
X119131904Y-103622857D01*
X119131904Y-103718095D01*
X119084285Y-103860952D01*
X118512857Y-104432380D01*
X119131904Y-104432380D01*
X117227142Y-107607380D02*
X116893809Y-107131190D01*
X116655714Y-107607380D02*
X116655714Y-106607380D01*
X117036666Y-106607380D01*
X117131904Y-106655000D01*
X117179523Y-106702619D01*
X117227142Y-106797857D01*
X117227142Y-106940714D01*
X117179523Y-107035952D01*
X117131904Y-107083571D01*
X117036666Y-107131190D01*
X116655714Y-107131190D01*
X118179523Y-107607380D02*
X117608095Y-107607380D01*
X117893809Y-107607380D02*
X117893809Y-106607380D01*
X117798571Y-106750238D01*
X117703333Y-106845476D01*
X117608095Y-106893095D01*
X118512857Y-106607380D02*
X119131904Y-106607380D01*
X118798571Y-106988333D01*
X118941428Y-106988333D01*
X119036666Y-107035952D01*
X119084285Y-107083571D01*
X119131904Y-107178809D01*
X119131904Y-107416904D01*
X119084285Y-107512142D01*
X119036666Y-107559761D01*
X118941428Y-107607380D01*
X118655714Y-107607380D01*
X118560476Y-107559761D01*
X118512857Y-107512142D01*
X123309142Y-98115380D02*
X122975809Y-97639190D01*
X122737714Y-98115380D02*
X122737714Y-97115380D01*
X123118666Y-97115380D01*
X123213904Y-97163000D01*
X123261523Y-97210619D01*
X123309142Y-97305857D01*
X123309142Y-97448714D01*
X123261523Y-97543952D01*
X123213904Y-97591571D01*
X123118666Y-97639190D01*
X122737714Y-97639190D01*
X124261523Y-98115380D02*
X123690095Y-98115380D01*
X123975809Y-98115380D02*
X123975809Y-97115380D01*
X123880571Y-97258238D01*
X123785333Y-97353476D01*
X123690095Y-97401095D01*
X125118666Y-97448714D02*
X125118666Y-98115380D01*
X124880571Y-97067761D02*
X124642476Y-97782047D01*
X125261523Y-97782047D01*
X123309142Y-101290380D02*
X122975809Y-100814190D01*
X122737714Y-101290380D02*
X122737714Y-100290380D01*
X123118666Y-100290380D01*
X123213904Y-100338000D01*
X123261523Y-100385619D01*
X123309142Y-100480857D01*
X123309142Y-100623714D01*
X123261523Y-100718952D01*
X123213904Y-100766571D01*
X123118666Y-100814190D01*
X122737714Y-100814190D01*
X124261523Y-101290380D02*
X123690095Y-101290380D01*
X123975809Y-101290380D02*
X123975809Y-100290380D01*
X123880571Y-100433238D01*
X123785333Y-100528476D01*
X123690095Y-100576095D01*
X125166285Y-100290380D02*
X124690095Y-100290380D01*
X124642476Y-100766571D01*
X124690095Y-100718952D01*
X124785333Y-100671333D01*
X125023428Y-100671333D01*
X125118666Y-100718952D01*
X125166285Y-100766571D01*
X125213904Y-100861809D01*
X125213904Y-101099904D01*
X125166285Y-101195142D01*
X125118666Y-101242761D01*
X125023428Y-101290380D01*
X124785333Y-101290380D01*
X124690095Y-101242761D01*
X124642476Y-101195142D01*
X123309142Y-104465380D02*
X122975809Y-103989190D01*
X122737714Y-104465380D02*
X122737714Y-103465380D01*
X123118666Y-103465380D01*
X123213904Y-103513000D01*
X123261523Y-103560619D01*
X123309142Y-103655857D01*
X123309142Y-103798714D01*
X123261523Y-103893952D01*
X123213904Y-103941571D01*
X123118666Y-103989190D01*
X122737714Y-103989190D01*
X124261523Y-104465380D02*
X123690095Y-104465380D01*
X123975809Y-104465380D02*
X123975809Y-103465380D01*
X123880571Y-103608238D01*
X123785333Y-103703476D01*
X123690095Y-103751095D01*
X125118666Y-103465380D02*
X124928190Y-103465380D01*
X124832952Y-103513000D01*
X124785333Y-103560619D01*
X124690095Y-103703476D01*
X124642476Y-103893952D01*
X124642476Y-104274904D01*
X124690095Y-104370142D01*
X124737714Y-104417761D01*
X124832952Y-104465380D01*
X125023428Y-104465380D01*
X125118666Y-104417761D01*
X125166285Y-104370142D01*
X125213904Y-104274904D01*
X125213904Y-104036809D01*
X125166285Y-103941571D01*
X125118666Y-103893952D01*
X125023428Y-103846333D01*
X124832952Y-103846333D01*
X124737714Y-103893952D01*
X124690095Y-103941571D01*
X124642476Y-104036809D01*
X123309142Y-107640380D02*
X122975809Y-107164190D01*
X122737714Y-107640380D02*
X122737714Y-106640380D01*
X123118666Y-106640380D01*
X123213904Y-106688000D01*
X123261523Y-106735619D01*
X123309142Y-106830857D01*
X123309142Y-106973714D01*
X123261523Y-107068952D01*
X123213904Y-107116571D01*
X123118666Y-107164190D01*
X122737714Y-107164190D01*
X124261523Y-107640380D02*
X123690095Y-107640380D01*
X123975809Y-107640380D02*
X123975809Y-106640380D01*
X123880571Y-106783238D01*
X123785333Y-106878476D01*
X123690095Y-106926095D01*
X124594857Y-106640380D02*
X125261523Y-106640380D01*
X124832952Y-107640380D01*
M02*
